<svg width="1440" height="1024" viewBox="0 0 1440 1024" fill="none" xmlns="http://www.w3.org/2000/svg">
<path d="M167.012 545.524L167.012 539.619L172.932 539.619L172.932 534.041L167.012 534.041L167.012 528.135L161.421 528.135L161.421 534.041L155.5 534.041L155.5 539.619L161.421 539.619L161.421 545.524L167.012 545.524Z" fill="#CA91F2"/>
<path d="M157.762 452.711L167.686 462.611L170.67 459.634L160.746 449.735L157.762 452.711Z" fill="#1C1972"/>
<path d="M262.592 424.196L265.576 427.173L275.5 417.273L272.516 414.297L262.592 424.196Z" fill="#999999"/>
<path d="M242.989 598.32L245.973 601.297L255.898 591.398L252.914 588.421L242.989 598.32Z" fill="#1C1972"/>
<path d="M605.065 77.0463L602.334 79.6578C601.92 80.0536 601.687 80.5905 601.687 81.1503C601.687 81.7102 601.92 82.2471 602.334 82.6429C602.748 83.0388 603.309 83.2612 603.895 83.2612C604.48 83.2612 605.042 83.0388 605.456 82.6429L608.187 80.0315L610.918 82.6429C611.123 82.8389 611.367 82.9944 611.635 83.1005C611.903 83.2066 612.19 83.2612 612.48 83.2612C612.769 83.2612 613.057 83.2066 613.324 83.1005C613.592 82.9944 613.836 82.8389 614.041 82.6429C614.246 82.4469 614.408 82.2142 614.519 81.9581C614.63 81.702 614.687 81.4275 614.687 81.1503C614.687 80.8731 614.63 80.5987 614.519 80.3426C614.408 80.0865 614.246 79.8538 614.041 79.6578L611.309 77.0463L614.041 74.4349C614.455 74.0391 614.687 73.5022 614.687 72.9424C614.687 72.3825 614.455 71.8456 614.041 71.4498C613.627 71.0539 613.065 70.8315 612.48 70.8315C611.894 70.8315 611.332 71.0539 610.918 71.4498L608.187 74.0612L605.456 71.4498C605.042 71.0539 604.48 70.8315 603.895 70.8315C603.309 70.8315 602.748 71.0539 602.334 71.4498C601.92 71.8456 601.687 72.3825 601.687 72.9424C601.687 73.5022 601.92 74.0391 602.334 74.4349L605.065 77.0463Z" fill="#1C1972"/>
<path d="M605.065 96.8317L602.334 99.4431C601.92 99.8389 601.687 100.376 601.687 100.936C601.687 101.495 601.92 102.032 602.334 102.428C602.748 102.824 603.309 103.046 603.895 103.046C604.48 103.046 605.042 102.824 605.456 102.428L608.187 99.8168L610.918 102.428C611.332 102.824 611.894 103.046 612.48 103.046C613.065 103.046 613.627 102.824 614.041 102.428C614.455 102.032 614.687 101.495 614.687 100.936C614.687 100.376 614.455 99.8389 614.041 99.4431L611.309 96.8317L614.041 94.2202C614.454 93.8242 614.686 93.2876 614.685 92.7282C614.685 92.1688 614.452 91.6324 614.039 91.2369C613.625 90.8414 613.064 90.619 612.479 90.6187C611.894 90.6183 611.333 90.84 610.918 91.2351L608.187 93.8465L605.456 91.2351C605.042 90.84 604.48 90.6183 603.895 90.6187C603.31 90.619 602.749 90.8414 602.336 91.2369C601.922 91.6324 601.689 92.1688 601.689 92.7282C601.689 93.2876 601.92 93.8242 602.334 94.2202L605.065 96.8317Z" fill="#1C1972"/>
<path d="M605.065 116.617L602.334 119.228C602.129 119.424 601.966 119.657 601.855 119.913C601.744 120.169 601.687 120.444 601.687 120.721C601.687 120.998 601.744 121.273 601.855 121.529C601.966 121.785 602.129 122.017 602.334 122.213C602.539 122.409 602.782 122.565 603.05 122.671C603.318 122.777 603.605 122.832 603.895 122.832C604.185 122.832 604.472 122.777 604.74 122.671C605.007 122.565 605.251 122.409 605.456 122.213L608.187 119.602L610.918 122.213C611.123 122.409 611.367 122.565 611.635 122.671C611.903 122.777 612.19 122.832 612.48 122.832C612.769 122.832 613.057 122.777 613.324 122.671C613.592 122.565 613.836 122.409 614.041 122.213C614.246 122.017 614.408 121.785 614.519 121.529C614.63 121.273 614.687 120.998 614.687 120.721C614.687 120.444 614.63 120.169 614.519 119.913C614.408 119.657 614.246 119.424 614.041 119.228L611.309 116.617L614.041 114.005C614.246 113.809 614.408 113.577 614.519 113.321C614.63 113.065 614.687 112.79 614.687 112.513C614.687 112.236 614.63 111.961 614.519 111.705C614.408 111.449 614.246 111.216 614.041 111.02C613.836 110.824 613.592 110.669 613.324 110.563C613.057 110.457 612.769 110.402 612.48 110.402C612.19 110.402 611.903 110.457 611.635 110.563C611.367 110.669 611.123 110.824 610.918 111.02L608.187 113.632L605.456 111.02C605.042 110.624 604.48 110.402 603.895 110.402C603.309 110.402 602.748 110.624 602.334 111.02C601.92 111.416 601.687 111.953 601.687 112.513C601.687 113.073 601.92 113.61 602.334 114.005L605.065 116.617Z" fill="#1C1972"/>
<path d="M1237.95 945.462C1238.17 945.462 1238.38 945.519 1238.57 945.627L1247 950.41L1255.44 945.627C1255.63 945.519 1255.84 945.462 1256.06 945.462C1256.28 945.462 1256.49 945.519 1256.68 945.627L1265.12 950.41L1273.55 945.627C1273.74 945.519 1273.96 945.462 1274.17 945.462C1274.39 945.462 1274.61 945.519 1274.8 945.627L1283.85 950.764C1284.15 950.932 1284.36 951.21 1284.45 951.537C1284.54 951.864 1284.5 952.214 1284.34 952.511C1284.17 952.807 1283.9 953.025 1283.57 953.117C1283.25 953.21 1282.9 953.168 1282.61 953.003L1274.17 948.22L1265.74 953.003C1265.55 953.111 1265.34 953.168 1265.12 953.168C1264.9 953.168 1264.68 953.111 1264.49 953.003L1256.06 948.22L1247.63 953.003C1247.44 953.111 1247.22 953.168 1247 953.168C1246.79 953.168 1246.57 953.111 1246.38 953.003L1237.95 948.22L1229.51 953.003C1229.32 953.111 1229.11 953.168 1228.89 953.168C1228.67 953.168 1228.46 953.111 1228.27 953.003L1219.83 948.22L1211.4 953.003C1211.25 953.086 1211.09 953.139 1210.93 953.159C1210.76 953.18 1210.59 953.167 1210.43 953.121C1210.27 953.076 1210.12 952.999 1209.99 952.895C1209.86 952.79 1209.75 952.661 1209.66 952.514C1209.58 952.367 1209.53 952.205 1209.51 952.037C1209.49 951.869 1209.5 951.7 1209.55 951.537C1209.59 951.375 1209.67 951.223 1209.77 951.09C1209.88 950.957 1210 950.847 1210.15 950.764L1219.21 945.627C1219.4 945.519 1219.61 945.462 1219.83 945.462C1220.05 945.462 1220.27 945.519 1220.46 945.627L1228.89 950.41L1237.32 945.627C1237.51 945.519 1237.73 945.462 1237.95 945.462V945.462Z" fill="#D7AEF2"/>
<path d="M1237.95 940.315C1238.17 940.315 1238.38 940.372 1238.57 940.48L1247 945.264L1255.44 940.48C1255.63 940.372 1255.84 940.315 1256.06 940.315C1256.28 940.315 1256.49 940.372 1256.68 940.48L1265.12 945.264L1273.55 940.48C1273.74 940.372 1273.96 940.315 1274.17 940.315C1274.39 940.315 1274.61 940.372 1274.8 940.48L1283.85 945.617C1284.15 945.785 1284.36 946.063 1284.45 946.39C1284.54 946.718 1284.5 947.068 1284.34 947.364C1284.17 947.66 1283.9 947.878 1283.57 947.97C1283.25 948.063 1282.9 948.022 1282.61 947.856L1274.17 943.073L1265.74 947.856C1265.55 947.964 1265.34 948.021 1265.12 948.021C1264.9 948.021 1264.68 947.964 1264.49 947.856L1256.06 943.073L1247.63 947.856C1247.44 947.964 1247.22 948.021 1247 948.021C1246.79 948.021 1246.57 947.964 1246.38 947.856L1237.95 943.073L1229.51 947.856C1229.32 947.964 1229.11 948.021 1228.89 948.021C1228.67 948.021 1228.46 947.964 1228.27 947.856L1219.83 943.073L1211.4 947.856C1211.25 947.939 1211.09 947.992 1210.93 948.013C1210.76 948.033 1210.59 948.02 1210.43 947.974C1210.27 947.929 1210.12 947.852 1209.99 947.748C1209.86 947.644 1209.75 947.514 1209.66 947.367C1209.58 947.22 1209.53 947.058 1209.51 946.89C1209.49 946.723 1209.5 946.553 1209.55 946.39C1209.59 946.228 1209.67 946.076 1209.77 945.943C1209.88 945.811 1210 945.7 1210.15 945.617L1219.21 940.48C1219.4 940.372 1219.61 940.315 1219.83 940.315C1220.05 940.315 1220.27 940.372 1220.46 940.48L1228.89 945.264L1237.32 940.48C1237.51 940.372 1237.73 940.315 1237.95 940.315Z" fill="#5550F2"/>
<path d="M1237.95 935.169C1238.17 935.169 1238.38 935.225 1238.57 935.333L1247 940.117L1255.44 935.333C1255.63 935.225 1255.84 935.169 1256.06 935.169C1256.28 935.169 1256.49 935.225 1256.68 935.333L1265.12 940.117L1273.55 935.333C1273.74 935.225 1273.96 935.169 1274.17 935.169C1274.39 935.169 1274.61 935.225 1274.8 935.333L1283.85 940.471C1284.15 940.638 1284.36 940.916 1284.45 941.243C1284.54 941.571 1284.5 941.921 1284.34 942.218C1284.17 942.514 1283.9 942.732 1283.57 942.824C1283.25 942.917 1282.9 942.875 1282.61 942.71L1274.17 937.926L1265.74 942.71C1265.55 942.818 1265.34 942.874 1265.12 942.874C1264.9 942.874 1264.68 942.818 1264.49 942.71L1256.06 937.926L1247.63 942.71C1247.44 942.818 1247.22 942.874 1247 942.874C1246.79 942.874 1246.57 942.818 1246.38 942.71L1237.95 937.926L1229.51 942.71C1229.32 942.818 1229.11 942.874 1228.89 942.874C1228.67 942.874 1228.46 942.818 1228.27 942.71L1219.83 937.926L1211.4 942.71C1211.25 942.792 1211.09 942.845 1210.93 942.866C1210.76 942.886 1210.59 942.873 1210.43 942.827C1210.27 942.782 1210.12 942.705 1209.99 942.601C1209.86 942.496 1209.75 942.367 1209.66 942.22C1209.58 942.073 1209.53 941.911 1209.51 941.743C1209.49 941.576 1209.5 941.406 1209.55 941.243C1209.59 941.081 1209.67 940.929 1209.77 940.797C1209.88 940.664 1210 940.553 1210.15 940.471L1219.21 935.333C1219.4 935.225 1219.61 935.169 1219.83 935.169C1220.05 935.169 1220.27 935.225 1220.46 935.333L1228.89 940.117L1237.32 935.333C1237.51 935.225 1237.73 935.169 1237.95 935.169V935.169Z" fill="#1C1972"/>
</svg>
