<svg width="19" height="76" viewBox="0 0 19 76" fill="none" xmlns="http://www.w3.org/2000/svg">
<path d="M7.92126 29.2631C7.9213 29.4816 7.86455 29.6965 7.75646 29.8869L2.97318 38.32L7.75646 46.7526C7.86451 46.9431 7.92126 47.1579 7.92126 47.3765C7.92126 47.595 7.86451 47.8098 7.75646 48.0003L2.97318 56.4333L7.75646 64.8664C7.8645 65.0569 7.92125 65.2717 7.92125 65.4902C7.92125 65.7087 7.8645 65.9235 7.75646 66.114L2.61938 75.1706C2.45175 75.4635 2.17383 75.6786 1.84648 75.7689C1.51914 75.8592 1.16905 75.8172 0.872882 75.6521C0.576711 75.4871 0.358595 75.2124 0.266298 74.8883C0.174001 74.5642 0.215045 74.2171 0.380442 73.9229L5.16371 65.4902L0.380443 57.057C0.272398 56.8666 0.215645 56.6518 0.215645 56.4333C0.215645 56.2148 0.272398 55.9999 0.380443 55.8095L5.16372 47.3765L0.380443 38.9438C0.272399 38.7533 0.215646 38.5385 0.215646 38.32C0.215646 38.1015 0.272399 37.8867 0.380443 37.6962L5.16372 29.2631L0.380444 20.8297C0.2724 20.6393 0.215646 20.4244 0.215646 20.2059C0.215646 19.9874 0.2724 19.7726 0.380444 19.5822L5.16372 11.1484L0.380445 2.71458C0.297522 2.56886 0.244398 2.40835 0.22411 2.24226C0.203821 2.07616 0.216768 1.90773 0.262208 1.7466C0.307649 1.58547 0.384692 1.4348 0.488932 1.3032C0.593172 1.17161 0.722561 1.06167 0.869702 0.979682C1.01684 0.897693 1.17885 0.84526 1.34645 0.82538C1.51406 0.805501 1.68397 0.818566 1.84647 0.863828C2.00898 0.909091 2.16089 0.985662 2.29351 1.08916C2.42613 1.19266 2.53687 1.32106 2.61939 1.46702L7.75647 10.5246C7.86451 10.7151 7.92126 10.9299 7.92126 11.1484C7.92126 11.3669 7.86451 11.5817 7.75647 11.7722L2.97318 20.2059L7.75646 28.6393C7.86454 28.8298 7.92129 29.0446 7.92126 29.2631Z" fill="#999999"/>
<path d="M13.068 29.2631C13.068 29.4816 13.0113 29.6965 12.9032 29.8869L8.11992 38.32L12.9032 46.7526C13.0112 46.9431 13.068 47.1579 13.068 47.3765C13.068 47.595 13.0112 47.8098 12.9032 48.0003L8.11992 56.4333L12.9032 64.8664C13.0112 65.0569 13.068 65.2717 13.068 65.4902C13.068 65.7087 13.0112 65.9235 12.9032 66.114L7.76611 75.1706C7.59847 75.4635 7.32055 75.6786 6.99321 75.7689C6.66587 75.8592 6.31578 75.8172 6.01961 75.6521C5.72344 75.4871 5.50532 75.2124 5.41303 74.8883C5.32073 74.5642 5.36177 74.2171 5.52717 73.9229L10.3104 65.4902L5.52717 57.057C5.41913 56.8666 5.36237 56.6518 5.36237 56.4333C5.36237 56.2148 5.41913 55.9999 5.52717 55.8095L10.3104 47.3765L5.52717 38.9438C5.41913 38.7533 5.36237 38.5385 5.36237 38.32C5.36237 38.1015 5.41913 37.8867 5.52717 37.6962L10.3105 29.2631L5.52717 20.8297C5.41913 20.6393 5.36237 20.4244 5.36237 20.2059C5.36237 19.9874 5.41913 19.7726 5.52717 19.5822L10.3105 11.1484L5.52717 2.71458C5.44425 2.56886 5.39113 2.40835 5.37084 2.24226C5.35055 2.07616 5.36349 1.90773 5.40894 1.7466C5.45438 1.58547 5.53142 1.4348 5.63566 1.3032C5.7399 1.17161 5.86929 1.06167 6.01643 0.979683C6.16357 0.897694 6.32558 0.84526 6.49318 0.825381C6.66078 0.805502 6.8307 0.818567 6.9932 0.863829C7.15571 0.909091 7.30761 0.985663 7.44024 1.08916C7.57286 1.19266 7.6836 1.32106 7.76611 1.46702L12.9032 10.5246C13.0112 10.7151 13.068 10.9299 13.068 11.1484C13.068 11.3669 13.0112 11.5817 12.9032 11.7722L8.11992 20.2059L12.9032 28.6393C13.0113 28.8298 13.068 29.0446 13.068 29.2631Z" fill="#2CCCC3"/>
<path d="M18.2148 29.2631C18.2148 29.4816 18.1581 29.6965 18.05 29.8869L13.2667 38.32L18.05 46.7526C18.158 46.9431 18.2148 47.1579 18.2148 47.3765C18.2148 47.595 18.158 47.8098 18.05 48.0003L13.2667 56.4333L18.05 64.8664C18.158 65.0569 18.2148 65.2717 18.2148 65.4902C18.2148 65.7087 18.158 65.9236 18.05 66.114L12.9129 75.1706C12.7454 75.4638 12.4675 75.6792 12.14 75.7697C11.8125 75.8601 11.4622 75.8181 11.1659 75.653C10.8696 75.4879 10.6514 75.213 10.5592 74.8887C10.467 74.5644 10.5082 74.2171 10.674 73.9229L15.4572 65.4902L10.674 57.0571C10.5659 56.8666 10.5092 56.6518 10.5092 56.4333C10.5092 56.2148 10.5659 55.9999 10.674 55.8095L15.4572 47.3765L10.674 38.9438C10.5659 38.7534 10.5092 38.5385 10.5092 38.32C10.5092 38.1015 10.5659 37.8867 10.674 37.6962L15.4572 29.2631L10.674 20.8297C10.5659 20.6393 10.5092 20.4245 10.5092 20.2059C10.5092 19.9874 10.5659 19.7726 10.674 19.5822L15.4572 11.1484L10.674 2.71459C10.5912 2.56886 10.5381 2.4084 10.5179 2.24235C10.4977 2.07631 10.5107 1.90795 10.5562 1.74689C10.6017 1.58583 10.6787 1.43523 10.7829 1.3037C10.8872 1.17217 11.0165 1.06228 11.1636 0.980326C11.3107 0.898367 11.4726 0.845942 11.6402 0.826046C11.8077 0.806151 11.9775 0.819174 12.14 0.864373C12.3025 0.909572 12.4543 0.98606 12.587 1.08947C12.7196 1.19287 12.8303 1.32117 12.9129 1.46702L18.05 10.5246C18.158 10.7151 18.2148 10.9299 18.2148 11.1484C18.2148 11.3669 18.158 11.5817 18.05 11.7722L13.2667 20.206L18.05 28.6393C18.1581 28.8298 18.2148 29.0446 18.2148 29.2631Z" fill="#5626C4"/>
</svg>
