<svg width="65" height="108" viewBox="0 0 65 108" fill="none" xmlns="http://www.w3.org/2000/svg">
<path d="M58.7852 97.5615L56.1738 94.8302C55.7779 94.4162 55.241 94.1836 54.6812 94.1836C54.1214 94.1836 53.5845 94.4162 53.1886 94.8302C52.7928 95.2442 52.5704 95.8058 52.5704 96.3913C52.5704 96.9768 52.7928 97.5384 53.1886 97.9524L55.8001 100.684L53.1886 103.415C52.9926 103.62 52.8371 103.863 52.7311 104.131C52.625 104.399 52.5704 104.686 52.5704 104.976C52.5704 105.266 52.625 105.553 52.7311 105.821C52.8371 106.089 52.9926 106.332 53.1886 106.537C53.3846 106.742 53.6173 106.905 53.8734 107.016C54.1295 107.127 54.404 107.184 54.6812 107.184C54.9584 107.184 55.2329 107.127 55.489 107.016C55.7451 106.905 55.9778 106.742 56.1738 106.537L58.7852 103.806L61.3966 106.537C61.7925 106.951 62.3294 107.184 62.8892 107.184C63.449 107.184 63.9859 106.951 64.3818 106.537C64.7776 106.123 65 105.562 65 104.976C65 104.391 64.7776 103.829 64.3818 103.415L61.7703 100.684L64.3818 97.9524C64.7776 97.5384 65 96.9768 65 96.3913C65 95.8058 64.7776 95.2442 64.3818 94.8302C63.9859 94.4162 63.449 94.1836 62.8892 94.1836C62.3294 94.1836 61.7925 94.4162 61.3966 94.8302L58.7852 97.5615Z" fill="#1C1972"/>
<path d="M38.9999 97.5615L36.3885 94.8302C35.9926 94.4162 35.4557 94.1836 34.8959 94.1836C34.3361 94.1836 33.7992 94.4162 33.4033 94.8302C33.0075 95.2442 32.7851 95.8058 32.7851 96.3913C32.7851 96.9768 33.0075 97.5384 33.4033 97.9524L36.0148 100.684L33.4033 103.415C33.0075 103.829 32.7851 104.391 32.7851 104.976C32.7851 105.562 33.0075 106.123 33.4033 106.537C33.7992 106.951 34.3361 107.184 34.8959 107.184C35.4557 107.184 35.9926 106.951 36.3885 106.537L38.9999 103.806L41.6113 106.537C42.0073 106.95 42.544 107.182 43.1034 107.182C43.6627 107.182 44.1991 106.949 44.5947 106.535C44.9902 106.122 45.2126 105.561 45.2129 104.976C45.2132 104.39 44.9915 103.829 44.5965 103.415L41.985 100.684L44.5965 97.9524C44.9915 97.5382 45.2132 96.9769 45.2129 96.3919C45.2126 95.8068 44.9902 95.2458 44.5947 94.8321C44.1991 94.4184 43.6627 94.1858 43.1034 94.1855C42.544 94.1851 42.0073 94.417 41.6113 94.8302L38.9999 97.5615Z" fill="#1C1972"/>
<path d="M19.2149 97.5615L16.6034 94.8302C16.4074 94.6252 16.1747 94.4626 15.9186 94.3516C15.6625 94.2407 15.3881 94.1836 15.1109 94.1836C14.8337 94.1836 14.5592 94.2407 14.3031 94.3516C14.047 94.4626 13.8143 94.6252 13.6183 94.8302C13.4223 95.0352 13.2668 95.2786 13.1607 95.5464C13.0547 95.8143 13.0001 96.1014 13.0001 96.3913C13.0001 96.6812 13.0547 96.9683 13.1607 97.2362C13.2668 97.504 13.4223 97.7474 13.6183 97.9524L16.2297 100.684L13.6183 103.415C13.4223 103.62 13.2668 103.863 13.1607 104.131C13.0547 104.399 13.0001 104.686 13.0001 104.976C13.0001 105.266 13.0547 105.553 13.1607 105.821C13.2668 106.089 13.4223 106.332 13.6183 106.537C13.8143 106.742 14.047 106.905 14.3031 107.016C14.5592 107.127 14.8337 107.184 15.1109 107.184C15.3881 107.184 15.6625 107.127 15.9186 107.016C16.1747 106.905 16.4074 106.742 16.6034 106.537L19.2149 103.806L21.8263 106.537C22.0223 106.742 22.255 106.905 22.5111 107.016C22.7672 107.127 23.0417 107.184 23.3189 107.184C23.5961 107.184 23.8706 107.127 24.1266 107.016C24.3827 106.905 24.6154 106.742 24.8114 106.537C25.0075 106.332 25.1629 106.089 25.269 105.821C25.3751 105.553 25.4297 105.266 25.4297 104.976C25.4297 104.686 25.3751 104.399 25.269 104.131C25.1629 103.863 25.0075 103.62 24.8114 103.415L22.2 100.684L24.8114 97.9524C25.2073 97.5384 25.4297 96.9768 25.4297 96.3913C25.4297 95.8058 25.2073 95.2442 24.8114 94.8302C24.4156 94.4162 23.8787 94.1836 23.3189 94.1836C22.759 94.1836 22.2222 94.4162 21.8263 94.8302L19.2149 97.5615Z" fill="#1C1972"/>
<path d="M36.0315 65C52.0303 65 65 52.0303 65 36.0315C65 20.0326 52.0303 7.06299 36.0315 7.06299C20.0326 7.06299 7.06299 20.0326 7.06299 36.0315C7.06299 52.0303 20.0326 65 36.0315 65Z" fill="#1C1972"/>
<path d="M14.786 29.572C22.9521 29.572 29.572 22.9521 29.572 14.786C29.572 6.61992 22.9521 0 14.786 0C6.61992 0 0 6.61992 0 14.786C0 22.9521 6.61992 29.572 14.786 29.572Z" fill="#5550F2"/>
</svg>
