<svg width="1330" height="1024" viewBox="0 0 1330 1024" fill="none" xmlns="http://www.w3.org/2000/svg">
<path d="M115.999 900.579L83.9992 873.579L83.9992 927.579L115.999 900.579L83.9992 873.579L83.9992 927.579L115.999 900.579Z" fill="#1C1972"/>
<path d="M147.999 900.579L115.999 873.579L115.999 927.579L147.999 900.579L115.999 873.579L115.999 927.579L147.999 900.579Z" fill="#5550F2"/>
<path d="M179.999 900.579L147.999 873.579L147.999 927.579L179.999 900.579L147.999 873.579L147.999 927.579L179.999 900.579Z" fill="#999999"/>
<path d="M1034.77 168.126H1040.68V174.046H1046.26V168.126H1052.16V162.534H1046.26V156.614H1040.68V162.534H1034.77V168.126Z" fill="#CA91F2"/>
<path d="M1127.58 158.876L1117.69 168.8L1120.66 171.784L1130.56 161.86L1127.58 158.876Z" fill="#1C1972"/>
<path d="M1156.1 263.705L1153.12 266.689L1163.02 276.614L1166 273.63L1156.1 263.705Z" fill="#999999"/>
<path d="M981.976 244.103L978.999 247.087L988.898 257.011L991.875 254.027L981.976 244.103Z" fill="#1C1972"/>
<path d="M231.226 662.75L225.32 662.75L225.32 656.83L219.743 656.83L219.743 662.75L213.837 662.75L213.837 668.342L219.743 668.342L219.743 674.262L225.32 674.262L225.32 668.342L231.226 668.342L231.226 662.75Z" fill="#CA91F2"/>
<path d="M138.414 672L148.313 662.076L145.336 659.092L135.437 669.016L138.414 672Z" fill="#1C1972"/>
<path d="M109.898 567.171L112.875 564.187L102.976 554.262L99.9991 557.246L109.898 567.171Z" fill="#999999"/>
<path d="M284.022 586.773L286.999 583.789L277.1 573.865L274.123 576.849L284.022 586.773Z" fill="#1C1972"/>
<path d="M29.377 369.793L26.6456 372.405C26.2316 372.801 25.999 373.338 25.999 373.897C25.999 374.457 26.2316 374.994 26.6456 375.39C27.0597 375.786 27.6212 376.008 28.2067 376.008C28.7923 376.008 29.3538 375.786 29.7678 375.39L32.4991 372.779L35.2304 375.39C35.4354 375.586 35.6788 375.741 35.9467 375.848C36.2145 375.954 36.5016 376.008 36.7915 376.008C37.0814 376.008 37.3685 375.954 37.6364 375.848C37.9042 375.741 38.1476 375.586 38.3526 375.39C38.5576 375.194 38.7202 374.961 38.8312 374.705C38.9421 374.449 38.9992 374.175 38.9992 373.897C38.9992 373.62 38.9421 373.346 38.8312 373.09C38.7202 372.834 38.5576 372.601 38.3526 372.405L35.6213 369.793L38.3526 367.182C38.7666 366.786 38.9992 366.249 38.9992 365.689C38.9992 365.13 38.7666 364.593 38.3526 364.197C37.9386 363.801 37.377 363.579 36.7915 363.579C36.206 363.579 35.6445 363.801 35.2304 364.197L32.4991 366.808L29.7678 364.197C29.3538 363.801 28.7923 363.579 28.2067 363.579C27.6212 363.579 27.0597 363.801 26.6456 364.197C26.2316 364.593 25.999 365.13 25.999 365.689C25.999 366.249 26.2316 366.786 26.6456 367.182L29.377 369.793Z" fill="#1C1972"/>
<path d="M29.377 389.579L26.6456 392.19C26.2316 392.586 25.999 393.123 25.999 393.683C25.999 394.243 26.2316 394.779 26.6456 395.175C27.0597 395.571 27.6212 395.794 28.2067 395.794C28.7923 395.794 29.3538 395.571 29.7678 395.175L32.4991 392.564L35.2304 395.175C35.6445 395.571 36.206 395.794 36.7915 395.794C37.377 395.794 37.9386 395.571 38.3526 395.175C38.7666 394.779 38.9992 394.243 38.9992 393.683C38.9992 393.123 38.7666 392.586 38.3526 392.19L35.6213 389.579L38.3526 386.967C38.7658 386.571 38.9977 386.035 38.9973 385.475C38.997 384.916 38.7644 384.38 38.3507 383.984C37.937 383.588 37.376 383.366 36.791 383.366C36.2059 383.365 35.6446 383.587 35.2304 383.982L32.4991 386.594L29.7678 383.982C29.3536 383.587 28.7923 383.365 28.2073 383.366C27.6222 383.366 27.0612 383.588 26.6475 383.984C26.2338 384.38 26.0013 384.916 26.0009 385.475C26.0006 386.035 26.2325 386.571 26.6456 386.967L29.377 389.579Z" fill="#1C1972"/>
<path d="M29.377 409.364L26.6456 411.975C26.4406 412.171 26.278 412.404 26.1671 412.66C26.0561 412.916 25.999 413.191 25.999 413.468C25.999 413.745 26.0561 414.019 26.1671 414.276C26.278 414.532 26.4406 414.764 26.6456 414.96C26.8507 415.156 27.094 415.312 27.3619 415.418C27.6297 415.524 27.9168 415.579 28.2067 415.579C28.4967 415.579 28.7837 415.524 29.0516 415.418C29.3194 415.312 29.5628 415.156 29.7678 414.96L32.4991 412.349L35.2304 414.96C35.4354 415.156 35.6788 415.312 35.9467 415.418C36.2145 415.524 36.5016 415.579 36.7915 415.579C37.0814 415.579 37.3685 415.524 37.6364 415.418C37.9042 415.312 38.1476 415.156 38.3526 414.96C38.5576 414.764 38.7202 414.532 38.8312 414.276C38.9421 414.019 38.9992 413.745 38.9992 413.468C38.9992 413.191 38.9421 412.916 38.8312 412.66C38.7202 412.404 38.5576 412.171 38.3526 411.975L35.6213 409.364L38.3526 406.752C38.5576 406.556 38.7202 406.324 38.8312 406.068C38.9421 405.811 38.9992 405.537 38.9992 405.26C38.9992 404.983 38.9421 404.708 38.8312 404.452C38.7202 404.196 38.5576 403.963 38.3526 403.767C38.1476 403.571 37.9042 403.416 37.6364 403.31C37.3685 403.204 37.0814 403.149 36.7915 403.149C36.5016 403.149 36.2145 403.204 35.9467 403.31C35.6788 403.416 35.4354 403.571 35.2304 403.767L32.4991 406.379L29.7678 403.767C29.3538 403.371 28.7923 403.149 28.2067 403.149C27.6212 403.149 27.0597 403.371 26.6456 403.767C26.2316 404.163 25.999 404.7 25.999 405.26C25.999 405.82 26.2316 406.356 26.6456 406.752L29.377 409.364Z" fill="#1C1972"/>
<path d="M431.607 614.309C431.607 614.528 431.55 614.742 431.442 614.933L426.659 623.366L431.442 631.799C431.55 631.989 431.607 632.204 431.607 632.422C431.607 632.641 431.55 632.856 431.442 633.046L426.659 641.479L431.442 649.912C431.55 650.103 431.607 650.318 431.607 650.536C431.607 650.755 431.55 650.969 431.442 651.16L426.305 660.217C426.137 660.509 425.859 660.725 425.532 660.815C425.205 660.905 424.855 660.863 424.559 660.698C424.262 660.533 424.044 660.258 423.952 659.934C423.86 659.61 423.901 659.263 424.066 658.969L428.849 650.536L424.066 642.103C423.958 641.913 423.901 641.698 423.901 641.479C423.901 641.261 423.958 641.046 424.066 640.855L428.849 632.422L424.066 623.99C423.958 623.799 423.901 623.584 423.901 623.366C423.901 623.147 423.958 622.933 424.066 622.742L428.849 614.309L424.066 605.876C423.958 605.685 423.901 605.47 423.901 605.252C423.901 605.033 423.958 604.819 424.066 604.628L428.849 596.194L424.066 587.761C423.983 587.615 423.93 587.454 423.91 587.288C423.889 587.122 423.902 586.954 423.948 586.793C423.993 586.631 424.07 586.481 424.175 586.349C424.279 586.218 424.408 586.108 424.555 586.026C424.703 585.944 424.865 585.891 425.032 585.871C425.2 585.851 425.37 585.865 425.532 585.91C425.695 585.955 425.847 586.032 425.979 586.135C426.112 586.239 426.223 586.367 426.305 586.513L431.442 595.571C431.55 595.761 431.607 595.976 431.607 596.194C431.607 596.413 431.55 596.628 431.442 596.818L426.659 605.252L431.442 613.685C431.55 613.876 431.607 614.091 431.607 614.309V614.309Z" fill="#999999"/>
<path d="M436.753 614.309C436.753 614.528 436.697 614.742 436.589 614.933L431.805 623.366L436.589 631.799C436.697 631.989 436.753 632.204 436.753 632.422C436.753 632.641 436.697 632.856 436.589 633.046L431.805 641.479L436.589 649.912C436.697 650.103 436.753 650.318 436.753 650.536C436.753 650.755 436.697 650.969 436.589 651.16L431.452 660.217C431.284 660.509 431.006 660.725 430.679 660.815C430.351 660.905 430.001 660.863 429.705 660.698C429.409 660.533 429.191 660.258 429.098 659.934C429.006 659.61 429.047 659.263 429.213 658.969L433.996 650.536L429.213 642.103C429.105 641.913 429.048 641.698 429.048 641.479C429.048 641.261 429.105 641.046 429.213 640.855L433.996 632.422L429.213 623.99C429.105 623.799 429.048 623.584 429.048 623.366C429.048 623.147 429.105 622.933 429.213 622.742L433.996 614.309L429.213 605.876C429.105 605.685 429.048 605.47 429.048 605.252C429.048 605.033 429.105 604.819 429.213 604.628L433.996 596.194L429.213 587.761C429.13 587.615 429.077 587.454 429.056 587.288C429.036 587.122 429.049 586.954 429.094 586.793C429.14 586.631 429.217 586.481 429.321 586.349C429.425 586.218 429.555 586.108 429.702 586.026C429.849 585.944 430.011 585.891 430.179 585.871C430.346 585.851 430.516 585.865 430.679 585.91C430.841 585.955 430.993 586.032 431.126 586.135C431.258 586.239 431.369 586.367 431.452 586.513L436.589 595.571C436.697 595.761 436.753 595.976 436.753 596.194C436.753 596.413 436.697 596.628 436.589 596.818L431.805 605.252L436.589 613.685C436.697 613.876 436.753 614.091 436.753 614.309Z" fill="#5550F2"/>
<path d="M441.9 614.309C441.9 614.527 441.844 614.742 441.736 614.933L436.952 623.366L441.736 631.798C441.844 631.989 441.9 632.204 441.9 632.422C441.9 632.641 441.844 632.856 441.736 633.046L436.952 641.479L441.736 649.912C441.844 650.103 441.9 650.317 441.9 650.536C441.9 650.755 441.844 650.969 441.736 651.16L436.599 660.216C436.431 660.51 436.153 660.725 435.826 660.815C435.498 660.906 435.148 660.864 434.852 660.699C434.555 660.534 434.337 660.259 434.245 659.935C434.153 659.61 434.194 659.263 434.36 658.969L439.143 650.536L434.36 642.103C434.252 641.912 434.195 641.698 434.195 641.479C434.195 641.261 434.252 641.046 434.36 640.855L439.143 632.422L434.36 623.99C434.252 623.799 434.195 623.584 434.195 623.366C434.195 623.147 434.252 622.932 434.36 622.742L439.143 614.309L434.36 605.876C434.252 605.685 434.195 605.47 434.195 605.252C434.195 605.033 434.252 604.818 434.36 604.628L439.143 596.194L434.36 587.76C434.277 587.615 434.224 587.454 434.204 587.288C434.183 587.122 434.196 586.954 434.242 586.793C434.287 586.632 434.364 586.481 434.469 586.349C434.573 586.218 434.702 586.108 434.849 586.026C434.996 585.944 435.158 585.892 435.326 585.872C435.493 585.852 435.663 585.865 435.826 585.91C435.988 585.955 436.14 586.032 436.273 586.135C436.405 586.239 436.516 586.367 436.599 586.513L441.736 595.57C441.844 595.761 441.9 595.976 441.9 596.194C441.9 596.413 441.844 596.628 441.736 596.818L436.952 605.252L441.736 613.685C441.844 613.876 441.9 614.09 441.9 614.309V614.309Z" fill="#1C1972"/>
<path d="M281.446 381.873C281.664 381.873 281.879 381.93 282.07 382.038L290.503 386.821L298.935 382.038C299.126 381.93 299.341 381.873 299.559 381.873C299.778 381.873 299.992 381.93 300.183 382.038L308.616 386.821L317.049 382.038C317.24 381.93 317.454 381.873 317.673 381.873C317.891 381.873 318.106 381.93 318.297 382.038L327.353 387.175C327.646 387.343 327.861 387.62 327.952 387.948C328.042 388.275 328 388.625 327.835 388.921C327.67 389.218 327.395 389.436 327.071 389.528C326.747 389.62 326.4 389.579 326.106 389.414L317.673 384.631L309.24 389.414C309.049 389.522 308.834 389.579 308.616 389.579C308.397 389.579 308.183 389.522 307.992 389.414L299.559 384.631L291.126 389.414C290.936 389.522 290.721 389.579 290.503 389.579C290.284 389.579 290.069 389.522 289.879 389.414L281.446 384.631L273.012 389.414C272.822 389.522 272.607 389.579 272.389 389.579C272.17 389.579 271.955 389.522 271.765 389.414L263.331 384.631L254.897 389.414C254.752 389.497 254.591 389.55 254.425 389.57C254.259 389.59 254.09 389.578 253.929 389.532C253.768 389.487 253.617 389.41 253.486 389.305C253.354 389.201 253.244 389.072 253.162 388.925C253.08 388.777 253.028 388.615 253.008 388.448C252.988 388.28 253.001 388.11 253.046 387.948C253.092 387.785 253.168 387.633 253.272 387.501C253.375 387.368 253.504 387.257 253.65 387.175L262.707 382.038C262.898 381.93 263.113 381.873 263.331 381.873C263.55 381.873 263.764 381.93 263.955 382.038L272.389 386.821L280.822 382.038C281.012 381.93 281.227 381.873 281.446 381.873V381.873Z" fill="#999999"/>
<path d="M281.446 376.727C281.664 376.727 281.879 376.783 282.07 376.891L290.503 381.675L298.935 376.891C299.126 376.783 299.341 376.727 299.559 376.727C299.778 376.727 299.992 376.783 300.183 376.891L308.616 381.675L317.049 376.891C317.24 376.783 317.454 376.727 317.673 376.727C317.891 376.727 318.106 376.783 318.297 376.891L327.353 382.028C327.646 382.196 327.861 382.474 327.952 382.801C328.042 383.129 328 383.479 327.835 383.775C327.67 384.071 327.395 384.289 327.071 384.382C326.747 384.474 326.4 384.433 326.106 384.267L317.673 379.484L309.24 384.267C309.049 384.375 308.834 384.432 308.616 384.432C308.397 384.432 308.183 384.375 307.992 384.267L299.559 379.484L291.126 384.267C290.936 384.375 290.721 384.432 290.503 384.432C290.284 384.432 290.069 384.375 289.879 384.267L281.446 379.484L273.012 384.267C272.822 384.375 272.607 384.432 272.389 384.432C272.17 384.432 271.955 384.375 271.765 384.267L263.331 379.484L254.897 384.267C254.752 384.35 254.591 384.403 254.425 384.424C254.259 384.444 254.09 384.431 253.929 384.386C253.768 384.34 253.617 384.263 253.486 384.159C253.354 384.055 253.244 383.925 253.162 383.778C253.08 383.631 253.028 383.469 253.008 383.301C252.988 383.134 253.001 382.964 253.046 382.801C253.092 382.639 253.168 382.487 253.272 382.354C253.375 382.222 253.504 382.111 253.65 382.028L262.707 376.891C262.898 376.783 263.113 376.727 263.331 376.727C263.55 376.727 263.764 376.783 263.955 376.891L272.389 381.675L280.822 376.891C281.012 376.783 281.227 376.727 281.446 376.727Z" fill="#5550F2"/>
<path d="M281.446 371.58C281.664 371.58 281.879 371.636 282.069 371.744L290.502 376.528L298.935 371.744C299.126 371.636 299.34 371.58 299.559 371.58C299.777 371.58 299.992 371.636 300.183 371.744L308.616 376.528L317.049 371.744C317.239 371.636 317.454 371.58 317.673 371.58C317.891 371.58 318.106 371.636 318.297 371.744L327.353 376.881C327.646 377.049 327.862 377.327 327.952 377.654C328.043 377.982 328.001 378.332 327.836 378.628C327.67 378.925 327.396 379.143 327.071 379.235C326.747 379.327 326.4 379.286 326.105 379.12L317.673 374.337L309.24 379.12C309.049 379.228 308.834 379.285 308.616 379.285C308.397 379.285 308.182 379.228 307.992 379.12L299.559 374.337L291.126 379.12C290.936 379.228 290.721 379.285 290.503 379.285C290.284 379.285 290.069 379.228 289.879 379.12L281.446 374.337L273.012 379.12C272.822 379.228 272.607 379.285 272.388 379.285C272.17 379.285 271.955 379.228 271.765 379.12L263.331 374.337L254.897 379.12C254.751 379.203 254.591 379.256 254.425 379.276C254.259 379.297 254.09 379.284 253.929 379.238C253.768 379.193 253.618 379.116 253.486 379.011C253.355 378.907 253.245 378.778 253.163 378.631C253.081 378.484 253.028 378.322 253.009 378.154C252.989 377.987 253.002 377.817 253.047 377.654C253.092 377.492 253.169 377.34 253.272 377.207C253.375 377.075 253.504 376.964 253.65 376.881L262.707 371.744C262.898 371.636 263.112 371.58 263.331 371.58C263.549 371.58 263.764 371.636 263.955 371.744L272.388 376.528L280.822 371.744C281.012 371.636 281.227 371.58 281.446 371.58V371.58Z" fill="#1C1972"/>
<path d="M318.377 922.977L315.646 925.588C315.232 925.984 314.999 926.521 314.999 927.081C314.999 927.641 315.232 928.178 315.646 928.574C316.06 928.969 316.621 929.192 317.207 929.192C317.792 929.192 318.354 928.969 318.768 928.574L321.499 925.962L324.23 928.574C324.435 928.77 324.679 928.925 324.947 929.031C325.215 929.137 325.502 929.192 325.792 929.192C326.081 929.192 326.369 929.137 326.636 929.031C326.904 928.925 327.148 928.77 327.353 928.574C327.558 928.378 327.72 928.145 327.831 927.889C327.942 927.633 327.999 927.358 327.999 927.081C327.999 926.804 327.942 926.529 327.831 926.273C327.72 926.017 327.558 925.784 327.353 925.588L324.621 922.977L327.353 920.366C327.767 919.97 327.999 919.433 327.999 918.873C327.999 918.313 327.767 917.776 327.353 917.38C326.939 916.985 326.377 916.762 325.792 916.762C325.206 916.762 324.644 916.985 324.23 917.38L321.499 919.992L318.768 917.38C318.354 916.985 317.792 916.762 317.207 916.762C316.621 916.762 316.06 916.985 315.646 917.38C315.232 917.776 314.999 918.313 314.999 918.873C314.999 919.433 315.232 919.97 315.646 920.366L318.377 922.977Z" fill="#1C1972"/>
<path d="M318.377 942.762L315.646 945.374C315.232 945.77 314.999 946.306 314.999 946.866C314.999 947.426 315.232 947.963 315.646 948.359C316.06 948.755 316.621 948.977 317.207 948.977C317.792 948.977 318.354 948.755 318.768 948.359L321.499 945.747L324.23 948.359C324.644 948.755 325.206 948.977 325.792 948.977C326.377 948.977 326.939 948.755 327.353 948.359C327.767 947.963 327.999 947.426 327.999 946.866C327.999 946.306 327.767 945.77 327.353 945.374L324.621 942.762L327.353 940.151C327.766 939.755 327.998 939.218 327.997 938.659C327.997 938.099 327.764 937.563 327.351 937.168C326.937 936.772 326.376 936.55 325.791 936.549C325.206 936.549 324.645 936.771 324.23 937.166L321.499 939.777L318.768 937.166C318.354 936.771 317.792 936.549 317.207 936.549C316.622 936.55 316.061 936.772 315.648 937.168C315.234 937.563 315.001 938.099 315.001 938.659C315.001 939.218 315.232 939.755 315.646 940.151L318.377 942.762Z" fill="#1C1972"/>
<path d="M318.377 962.547L315.646 965.159C315.441 965.355 315.278 965.587 315.167 965.844C315.056 966.1 314.999 966.374 314.999 966.651C314.999 966.929 315.056 967.203 315.167 967.459C315.278 967.715 315.441 967.948 315.646 968.144C315.851 968.34 316.094 968.495 316.362 968.601C316.63 968.708 316.917 968.762 317.207 968.762C317.497 968.762 317.784 968.708 318.052 968.601C318.319 968.495 318.563 968.34 318.768 968.144L321.499 965.532L324.23 968.144C324.435 968.34 324.679 968.495 324.947 968.601C325.215 968.708 325.502 968.762 325.792 968.762C326.081 968.762 326.369 968.708 326.636 968.601C326.904 968.495 327.148 968.34 327.353 968.144C327.558 967.948 327.72 967.715 327.831 967.459C327.942 967.203 327.999 966.929 327.999 966.651C327.999 966.374 327.942 966.1 327.831 965.844C327.72 965.587 327.558 965.355 327.353 965.159L324.621 962.547L327.353 959.936C327.558 959.74 327.72 959.507 327.831 959.251C327.942 958.995 327.999 958.721 327.999 958.443C327.999 958.166 327.942 957.892 327.831 957.636C327.72 957.379 327.558 957.147 327.353 956.951C327.148 956.755 326.904 956.599 326.636 956.493C326.369 956.387 326.081 956.333 325.792 956.333C325.502 956.333 325.215 956.387 324.947 956.493C324.679 956.599 324.435 956.755 324.23 956.951L321.499 959.562L318.768 956.951C318.354 956.555 317.792 956.333 317.207 956.333C316.621 956.333 316.06 956.555 315.646 956.951C315.232 957.347 314.999 957.884 314.999 958.443C314.999 959.003 315.232 959.54 315.646 959.936L318.377 962.547Z" fill="#1C1972"/>
</svg>
