<svg width="76" height="19" viewBox="0 0 76 19" fill="none" xmlns="http://www.w3.org/2000/svg">
<path d="M28.9783 10.3399C29.1968 10.3399 29.4116 10.3966 29.602 10.5047L38.0351 15.288L46.4678 10.5047C46.6582 10.3967 46.8731 10.3399 47.0916 10.3399C47.3101 10.3399 47.525 10.3967 47.7155 10.5047L56.1484 15.288L64.5815 10.5047C64.772 10.3967 64.9868 10.3399 65.2054 10.3399C65.4239 10.3399 65.6387 10.3967 65.8292 10.5047L74.8857 15.6418C75.1786 15.8094 75.3938 16.0873 75.484 16.4147C75.5743 16.742 75.5323 17.0921 75.3673 17.3883C75.2022 17.6845 74.9276 17.9026 74.6035 17.9949C74.2794 18.0872 73.9322 18.0461 73.638 17.8807L65.2053 13.0975L56.7722 17.8807C56.5817 17.9888 56.3669 18.0455 56.1484 18.0455C55.9299 18.0455 55.7151 17.9888 55.5246 17.8807L47.0916 13.0975L38.659 17.8807C38.4685 17.9888 38.2537 18.0455 38.0351 18.0455C37.8166 18.0455 37.6018 17.9888 37.4113 17.8807L28.9783 13.0975L20.5449 17.8807C20.3544 17.9888 20.1396 18.0455 19.9211 18.0455C19.7026 18.0455 19.4878 17.9888 19.2973 17.8807L10.8635 13.0975L2.42973 17.8807C2.284 17.9636 2.1235 18.0168 1.95741 18.0371C1.79131 18.0573 1.62288 18.0444 1.46175 17.999C1.30062 17.9535 1.14994 17.8765 1.01835 17.7722C0.886753 17.668 0.776818 17.5386 0.694828 17.3915C0.612839 17.2443 0.560406 17.0823 0.540527 16.9147C0.520647 16.7471 0.533713 16.5772 0.578975 16.4147C0.624237 16.2522 0.700808 16.1003 0.804309 15.9677C0.90781 15.835 1.03621 15.7243 1.18217 15.6418L10.2398 10.5047C10.4302 10.3967 10.6451 10.3399 10.8636 10.3399C11.0821 10.3399 11.2969 10.3967 11.4873 10.5047L19.9211 15.288L28.3545 10.5047C28.5449 10.3966 28.7598 10.3399 28.9783 10.3399Z" fill="#999999"/>
<path d="M28.9783 5.19318C29.1968 5.19313 29.4116 5.24989 29.602 5.35798L38.0351 10.1412L46.4678 5.35798C46.6582 5.24993 46.8731 5.19318 47.0916 5.19318C47.3101 5.19318 47.525 5.24993 47.7155 5.35798L56.1484 10.1412L64.5815 5.35798C64.772 5.24993 64.9868 5.19318 65.2054 5.19318C65.4239 5.19318 65.6387 5.24993 65.8292 5.35798L74.8857 10.4951C75.1786 10.6627 75.3938 10.9406 75.484 11.268C75.5743 11.5953 75.5323 11.9454 75.3673 12.2416C75.2022 12.5377 74.9276 12.7558 74.6035 12.8481C74.2794 12.9404 73.9322 12.8994 73.638 12.734L65.2053 7.95072L56.7722 12.734C56.5817 12.842 56.3669 12.8988 56.1484 12.8988C55.9299 12.8988 55.7151 12.842 55.5246 12.734L47.0916 7.95072L38.659 12.734C38.4685 12.842 38.2537 12.8988 38.0351 12.8988C37.8166 12.8988 37.6018 12.842 37.4113 12.734L28.9783 7.95072L20.5449 12.734C20.3544 12.842 20.1396 12.8988 19.9211 12.8988C19.7026 12.8988 19.4878 12.842 19.2973 12.734L10.8635 7.95072L2.42973 12.734C2.284 12.8169 2.1235 12.87 1.95741 12.8903C1.79131 12.9106 1.62288 12.8977 1.46175 12.8522C1.30062 12.8068 1.14994 12.7297 1.01835 12.6255C0.886753 12.5213 0.776818 12.3919 0.694828 12.2447C0.612839 12.0976 0.560406 11.9356 0.540527 11.768C0.520647 11.6004 0.533713 11.4305 0.578975 11.268C0.624237 11.1055 0.700808 10.9536 0.804309 10.8209C0.90781 10.6883 1.03621 10.5776 1.18217 10.4951L10.2398 5.35798C10.4302 5.24993 10.6451 5.19318 10.8636 5.19318C11.0821 5.19318 11.2969 5.24993 11.4873 5.35798L19.9211 10.1412L28.3545 5.35798C28.5449 5.2499 28.7598 5.19314 28.9783 5.19318Z" fill="#2CCCC3"/>
<path d="M28.9783 0.0463874C29.1968 0.046346 29.4116 0.103101 29.602 0.211182L38.0351 4.99446L46.4678 0.211182C46.6582 0.103139 46.8731 0.0463869 47.0916 0.0463869C47.3101 0.0463869 47.525 0.103139 47.7155 0.211182L56.1484 4.99446L64.5815 0.211182C64.772 0.103139 64.9868 0.0463867 65.2054 0.0463867C65.4239 0.0463867 65.6387 0.103139 65.8292 0.211182L74.8857 5.34826C75.1789 5.51575 75.3944 5.79369 75.4848 6.12117C75.5752 6.44865 75.5333 6.79894 75.3682 7.09527C75.203 7.39159 74.9282 7.60978 74.6039 7.70199C74.2795 7.7942 73.9322 7.75293 73.638 7.58721L65.2053 2.80393L56.7722 7.58721C56.5817 7.69525 56.3669 7.752 56.1484 7.752C55.9299 7.752 55.7151 7.69525 55.5246 7.58721L47.0916 2.80393L38.659 7.58721C38.4685 7.69525 38.2537 7.752 38.0351 7.752C37.8166 7.752 37.6018 7.69525 37.4113 7.58721L28.9783 2.80393L20.5449 7.58721C20.3544 7.69525 20.1396 7.752 19.9211 7.752C19.7026 7.752 19.4878 7.69525 19.2973 7.58721L10.8635 2.80393L2.42973 7.58721C2.28401 7.67001 2.12354 7.72304 1.9575 7.74324C1.79145 7.76345 1.62309 7.75045 1.46203 7.70498C1.30097 7.65951 1.15037 7.58246 1.01884 7.47824C0.887312 7.37402 0.777427 7.24467 0.695469 7.09758C0.61351 6.95049 0.561085 6.78855 0.541189 6.62101C0.521294 6.45348 0.534317 6.28362 0.579516 6.12117C0.624715 5.95871 0.701203 5.80683 0.804608 5.67421C0.908014 5.54159 1.03631 5.43083 1.18216 5.34826L10.2398 0.211182C10.4302 0.10314 10.6451 0.0463868 10.8636 0.0463868C11.0821 0.0463868 11.2969 0.10314 11.4873 0.211182L19.9211 4.99446L28.3545 0.211182C28.5449 0.10311 28.7598 0.0463551 28.9783 0.0463874Z" fill="#5626C4"/>
</svg>
