<svg width="1440" height="1024" viewBox="0 0 1440 1024" fill="none" xmlns="http://www.w3.org/2000/svg">
<path d="M226 900.579L194 873.579L194 927.579L226 900.579L194 873.579L194 927.579L226 900.579Z" fill="#1C1972"/>
<path d="M258 900.579L226 873.579L226 927.579L258 900.579L226 873.579L226 927.579L258 900.579Z" fill="#5550F2"/>
<path d="M290 900.579L258 873.579L258 927.579L290 900.579L258 873.579L258 927.579L290 900.579Z" fill="#999999"/>
<path d="M1144.77 168.126H1150.68V174.046H1156.26V168.126H1162.16V162.534H1156.26V156.614H1150.68V162.534H1144.77V168.126Z" fill="#CA91F2"/>
<path d="M1237.59 158.876L1227.69 168.8L1230.66 171.784L1240.56 161.86L1237.59 158.876Z" fill="#1C1972"/>
<path d="M1266.1 263.705L1263.12 266.689L1273.02 276.614L1276 273.63L1266.1 263.705Z" fill="#999999"/>
<path d="M1091.98 244.103L1089 247.087L1098.9 257.011L1101.88 254.027L1091.98 244.103Z" fill="#1C1972"/>
<path d="M341.227 662.75L335.322 662.75L335.322 656.83L329.744 656.83L329.744 662.75L323.838 662.75L323.838 668.342L329.744 668.342L329.744 674.262L335.322 674.262L335.322 668.342L341.227 668.342L341.227 662.75Z" fill="#CA91F2"/>
<path d="M248.414 672L258.314 662.076L255.337 659.092L245.438 669.016L248.414 672Z" fill="#1C1972"/>
<path d="M219.899 567.171L222.876 564.187L212.977 554.262L210 557.246L219.899 567.171Z" fill="#999999"/>
<path d="M394.023 586.773L397 583.789L387.101 573.865L384.124 576.849L394.023 586.773Z" fill="#1C1972"/>
<path d="M139.378 369.793L136.647 372.405C136.233 372.801 136 373.338 136 373.897C136 374.457 136.233 374.994 136.647 375.39C137.061 375.786 137.622 376.008 138.208 376.008C138.793 376.008 139.355 375.786 139.769 375.39L142.5 372.779L145.231 375.39C145.436 375.586 145.68 375.741 145.948 375.848C146.215 375.954 146.503 376.008 146.792 376.008C147.082 376.008 147.369 375.954 147.637 375.848C147.905 375.741 148.149 375.586 148.354 375.39C148.559 375.194 148.721 374.961 148.832 374.705C148.943 374.449 149 374.175 149 373.897C149 373.62 148.943 373.346 148.832 373.09C148.721 372.834 148.559 372.601 148.354 372.405L145.622 369.793L148.354 367.182C148.768 366.786 149 366.249 149 365.689C149 365.13 148.768 364.593 148.354 364.197C147.94 363.801 147.378 363.579 146.792 363.579C146.207 363.579 145.645 363.801 145.231 364.197L142.5 366.808L139.769 364.197C139.355 363.801 138.793 363.579 138.208 363.579C137.622 363.579 137.061 363.801 136.647 364.197C136.233 364.593 136 365.13 136 365.689C136 366.249 136.233 366.786 136.647 367.182L139.378 369.793Z" fill="#1C1972"/>
<path d="M139.378 389.579L136.647 392.19C136.233 392.586 136 393.123 136 393.683C136 394.243 136.233 394.779 136.647 395.175C137.061 395.571 137.622 395.794 138.208 395.794C138.793 395.794 139.355 395.571 139.769 395.175L142.5 392.564L145.231 395.175C145.645 395.571 146.207 395.794 146.792 395.794C147.378 395.794 147.94 395.571 148.354 395.175C148.768 394.779 149 394.243 149 393.683C149 393.123 148.768 392.586 148.354 392.19L145.622 389.579L148.354 386.967C148.767 386.571 148.999 386.035 148.998 385.475C148.998 384.916 148.765 384.38 148.352 383.984C147.938 383.588 147.377 383.366 146.792 383.366C146.207 383.365 145.646 383.587 145.231 383.982L142.5 386.594L139.769 383.982C139.355 383.587 138.793 383.365 138.208 383.366C137.623 383.366 137.062 383.588 136.649 383.984C136.235 384.38 136.002 384.916 136.002 385.475C136.002 386.035 136.233 386.571 136.647 386.967L139.378 389.579Z" fill="#1C1972"/>
<path d="M139.378 409.364L136.647 411.975C136.442 412.171 136.279 412.404 136.168 412.66C136.057 412.916 136 413.191 136 413.468C136 413.745 136.057 414.019 136.168 414.276C136.279 414.532 136.442 414.764 136.647 414.96C136.852 415.156 137.095 415.312 137.363 415.418C137.631 415.524 137.918 415.579 138.208 415.579C138.498 415.579 138.785 415.524 139.053 415.418C139.32 415.312 139.564 415.156 139.769 414.96L142.5 412.349L145.231 414.96C145.436 415.156 145.68 415.312 145.948 415.418C146.215 415.524 146.503 415.579 146.792 415.579C147.082 415.579 147.369 415.524 147.637 415.418C147.905 415.312 148.149 415.156 148.354 414.96C148.559 414.764 148.721 414.532 148.832 414.276C148.943 414.019 149 413.745 149 413.468C149 413.191 148.943 412.916 148.832 412.66C148.721 412.404 148.559 412.171 148.354 411.975L145.622 409.364L148.354 406.752C148.559 406.556 148.721 406.324 148.832 406.068C148.943 405.811 149 405.537 149 405.26C149 404.983 148.943 404.708 148.832 404.452C148.721 404.196 148.559 403.963 148.354 403.767C148.149 403.571 147.905 403.416 147.637 403.31C147.369 403.204 147.082 403.149 146.792 403.149C146.503 403.149 146.215 403.204 145.948 403.31C145.68 403.416 145.436 403.571 145.231 403.767L142.5 406.379L139.769 403.767C139.355 403.371 138.793 403.149 138.208 403.149C137.622 403.149 137.061 403.371 136.647 403.767C136.233 404.163 136 404.7 136 405.26C136 405.82 136.233 406.356 136.647 406.752L139.378 409.364Z" fill="#1C1972"/>
<path d="M541.608 614.309C541.608 614.528 541.551 614.742 541.443 614.933L536.66 623.366L541.443 631.799C541.551 631.989 541.608 632.204 541.608 632.422C541.608 632.641 541.551 632.856 541.443 633.046L536.66 641.479L541.443 649.912C541.551 650.103 541.608 650.318 541.608 650.536C541.608 650.755 541.551 650.969 541.443 651.16L536.306 660.217C536.138 660.509 535.86 660.725 535.533 660.815C535.206 660.905 534.856 660.863 534.559 660.698C534.263 660.533 534.045 660.258 533.953 659.934C533.861 659.61 533.902 659.263 534.067 658.969L538.85 650.536L534.067 642.103C533.959 641.913 533.902 641.698 533.902 641.479C533.902 641.261 533.959 641.046 534.067 640.855L538.85 632.422L534.067 623.99C533.959 623.799 533.902 623.584 533.902 623.366C533.902 623.147 533.959 622.933 534.067 622.742L538.85 614.309L534.067 605.876C533.959 605.685 533.902 605.47 533.902 605.252C533.902 605.033 533.959 604.819 534.067 604.628L538.85 596.194L534.067 587.761C533.984 587.615 533.931 587.454 533.911 587.288C533.89 587.122 533.903 586.954 533.949 586.793C533.994 586.631 534.071 586.481 534.175 586.349C534.28 586.218 534.409 586.108 534.556 586.026C534.703 585.944 534.865 585.891 535.033 585.871C535.201 585.851 535.37 585.865 535.533 585.91C535.696 585.955 535.847 586.032 535.98 586.135C536.113 586.239 536.223 586.367 536.306 586.513L541.443 595.571C541.551 595.761 541.608 595.976 541.608 596.194C541.608 596.413 541.551 596.628 541.443 596.818L536.66 605.252L541.443 613.685C541.551 613.876 541.608 614.091 541.608 614.309V614.309Z" fill="#999999"/>
<path d="M546.755 614.309C546.755 614.528 546.698 614.742 546.59 614.933L541.807 623.366L546.59 631.799C546.698 631.989 546.755 632.204 546.755 632.422C546.755 632.641 546.698 632.856 546.59 633.046L541.807 641.479L546.59 649.912C546.698 650.103 546.755 650.318 546.755 650.536C546.755 650.755 546.698 650.969 546.59 651.16L541.453 660.217C541.285 660.509 541.007 660.725 540.68 660.815C540.353 660.905 540.002 660.863 539.706 660.698C539.41 660.533 539.192 660.258 539.1 659.934C539.007 659.61 539.048 659.263 539.214 658.969L543.997 650.536L539.214 642.103C539.106 641.913 539.049 641.698 539.049 641.479C539.049 641.261 539.106 641.046 539.214 640.855L543.997 632.422L539.214 623.99C539.106 623.799 539.049 623.584 539.049 623.366C539.049 623.147 539.106 622.933 539.214 622.742L543.997 614.309L539.214 605.876C539.106 605.685 539.049 605.47 539.049 605.252C539.049 605.033 539.106 604.819 539.214 604.628L543.997 596.194L539.214 587.761C539.131 587.615 539.078 587.454 539.057 587.288C539.037 587.122 539.05 586.954 539.096 586.793C539.141 586.631 539.218 586.481 539.322 586.349C539.427 586.218 539.556 586.108 539.703 586.026C539.85 585.944 540.012 585.891 540.18 585.871C540.347 585.851 540.517 585.865 540.68 585.91C540.842 585.955 540.994 586.032 541.127 586.135C541.26 586.239 541.37 586.367 541.453 586.513L546.59 595.571C546.698 595.761 546.755 595.976 546.755 596.194C546.755 596.413 546.698 596.628 546.59 596.818L541.807 605.252L546.59 613.685C546.698 613.876 546.755 614.091 546.755 614.309Z" fill="#5550F2"/>
<path d="M551.901 614.309C551.901 614.527 551.845 614.742 551.737 614.933L546.953 623.366L551.737 631.798C551.845 631.989 551.901 632.204 551.901 632.422C551.901 632.641 551.845 632.856 551.737 633.046L546.953 641.479L551.737 649.912C551.845 650.103 551.901 650.317 551.901 650.536C551.901 650.755 551.845 650.969 551.737 651.16L546.599 660.216C546.432 660.51 546.154 660.725 545.827 660.815C545.499 660.906 545.149 660.864 544.852 660.699C544.556 660.534 544.338 660.259 544.246 659.935C544.154 659.61 544.195 659.263 544.361 658.969L549.144 650.536L544.361 642.103C544.253 641.912 544.196 641.698 544.196 641.479C544.196 641.261 544.253 641.046 544.361 640.855L549.144 632.422L544.361 623.99C544.253 623.799 544.196 623.584 544.196 623.366C544.196 623.147 544.253 622.932 544.361 622.742L549.144 614.309L544.361 605.876C544.253 605.685 544.196 605.47 544.196 605.252C544.196 605.033 544.253 604.818 544.361 604.628L549.144 596.194L544.361 587.76C544.278 587.615 544.225 587.454 544.205 587.288C544.184 587.122 544.197 586.954 544.243 586.793C544.288 586.632 544.365 586.481 544.47 586.349C544.574 586.218 544.703 586.108 544.85 586.026C544.997 585.944 545.159 585.892 545.327 585.872C545.494 585.852 545.664 585.865 545.827 585.91C545.989 585.955 546.141 586.032 546.274 586.135C546.406 586.239 546.517 586.367 546.599 586.513L551.737 595.57C551.845 595.761 551.901 595.976 551.901 596.194C551.901 596.413 551.845 596.628 551.737 596.818L546.953 605.252L551.737 613.685C551.845 613.876 551.901 614.09 551.901 614.309V614.309Z" fill="#1C1972"/>
<path d="M391.447 381.873C391.665 381.873 391.88 381.93 392.071 382.038L400.504 386.821L408.936 382.038C409.127 381.93 409.342 381.873 409.56 381.873C409.779 381.873 409.993 381.93 410.184 382.038L418.617 386.821L427.05 382.038C427.241 381.93 427.455 381.873 427.674 381.873C427.892 381.873 428.107 381.93 428.298 382.038L437.354 387.175C437.647 387.343 437.862 387.62 437.953 387.948C438.043 388.275 438.001 388.625 437.836 388.921C437.671 389.218 437.396 389.436 437.072 389.528C436.748 389.62 436.401 389.579 436.107 389.414L427.674 384.631L419.241 389.414C419.05 389.522 418.835 389.579 418.617 389.579C418.398 389.579 418.184 389.522 417.993 389.414L409.56 384.631L401.127 389.414C400.937 389.522 400.722 389.579 400.504 389.579C400.285 389.579 400.07 389.522 399.88 389.414L391.447 384.631L383.013 389.414C382.823 389.522 382.608 389.579 382.39 389.579C382.171 389.579 381.956 389.522 381.766 389.414L373.332 384.631L364.898 389.414C364.752 389.497 364.592 389.55 364.426 389.57C364.26 389.59 364.091 389.578 363.93 389.532C363.769 389.487 363.618 389.41 363.487 389.305C363.355 389.201 363.245 389.072 363.163 388.925C363.081 388.777 363.029 388.615 363.009 388.448C362.989 388.28 363.002 388.11 363.047 387.948C363.093 387.785 363.169 387.633 363.273 387.501C363.376 387.368 363.505 387.257 363.651 387.175L372.708 382.038C372.899 381.93 373.114 381.873 373.332 381.873C373.551 381.873 373.765 381.93 373.956 382.038L382.39 386.821L390.823 382.038C391.013 381.93 391.228 381.873 391.447 381.873V381.873Z" fill="#999999"/>
<path d="M391.447 376.727C391.665 376.727 391.88 376.783 392.071 376.891L400.504 381.675L408.936 376.891C409.127 376.783 409.342 376.727 409.56 376.727C409.779 376.727 409.993 376.783 410.184 376.891L418.617 381.675L427.05 376.891C427.241 376.783 427.455 376.727 427.674 376.727C427.892 376.727 428.107 376.783 428.298 376.891L437.354 382.028C437.647 382.196 437.862 382.474 437.953 382.801C438.043 383.129 438.001 383.479 437.836 383.775C437.671 384.071 437.396 384.289 437.072 384.382C436.748 384.474 436.401 384.433 436.107 384.267L427.674 379.484L419.241 384.267C419.05 384.375 418.835 384.432 418.617 384.432C418.398 384.432 418.184 384.375 417.993 384.267L409.56 379.484L401.127 384.267C400.937 384.375 400.722 384.432 400.504 384.432C400.285 384.432 400.07 384.375 399.88 384.267L391.447 379.484L383.013 384.267C382.823 384.375 382.608 384.432 382.39 384.432C382.171 384.432 381.956 384.375 381.766 384.267L373.332 379.484L364.898 384.267C364.752 384.35 364.592 384.403 364.426 384.424C364.26 384.444 364.091 384.431 363.93 384.386C363.769 384.34 363.618 384.263 363.487 384.159C363.355 384.055 363.245 383.925 363.163 383.778C363.081 383.631 363.029 383.469 363.009 383.301C362.989 383.134 363.002 382.964 363.047 382.801C363.093 382.639 363.169 382.487 363.273 382.354C363.376 382.222 363.505 382.111 363.651 382.028L372.708 376.891C372.899 376.783 373.114 376.727 373.332 376.727C373.551 376.727 373.765 376.783 373.956 376.891L382.39 381.675L390.823 376.891C391.013 376.783 391.228 376.727 391.447 376.727Z" fill="#5550F2"/>
<path d="M391.447 371.58C391.665 371.58 391.88 371.636 392.071 371.744L400.504 376.528L408.936 371.744C409.127 371.636 409.342 371.58 409.56 371.58C409.779 371.58 409.993 371.636 410.184 371.744L418.617 376.528L427.05 371.744C427.241 371.636 427.455 371.58 427.674 371.58C427.892 371.58 428.107 371.636 428.298 371.744L437.354 376.881C437.647 377.049 437.863 377.327 437.953 377.654C438.044 377.982 438.002 378.332 437.837 378.628C437.672 378.925 437.397 379.143 437.072 379.235C436.748 379.327 436.401 379.286 436.107 379.12L427.674 374.337L419.241 379.12C419.05 379.228 418.835 379.285 418.617 379.285C418.398 379.285 418.184 379.228 417.993 379.12L409.56 374.337L401.127 379.12C400.937 379.228 400.722 379.285 400.504 379.285C400.285 379.285 400.07 379.228 399.88 379.12L391.447 374.337L383.013 379.12C382.823 379.228 382.608 379.285 382.39 379.285C382.171 379.285 381.956 379.228 381.766 379.12L373.332 374.337L364.898 379.12C364.753 379.203 364.592 379.256 364.426 379.276C364.26 379.297 364.092 379.284 363.931 379.238C363.769 379.193 363.619 379.116 363.487 379.011C363.356 378.907 363.246 378.778 363.164 378.631C363.082 378.484 363.03 378.322 363.01 378.154C362.99 377.987 363.003 377.817 363.048 377.654C363.093 377.492 363.17 377.34 363.273 377.207C363.377 377.075 363.505 376.964 363.651 376.881L372.708 371.744C372.899 371.636 373.114 371.58 373.332 371.58C373.551 371.58 373.765 371.636 373.956 371.744L382.39 376.528L390.823 371.744C391.013 371.636 391.228 371.58 391.447 371.58V371.58Z" fill="#1C1972"/>
<path d="M428.378 922.977L425.647 925.588C425.233 925.984 425 926.521 425 927.081C425 927.641 425.233 928.178 425.647 928.574C426.061 928.969 426.622 929.192 427.208 929.192C427.793 929.192 428.355 928.969 428.769 928.574L431.5 925.962L434.231 928.574C434.436 928.77 434.68 928.925 434.948 929.031C435.215 929.137 435.503 929.192 435.792 929.192C436.082 929.192 436.369 929.137 436.637 929.031C436.905 928.925 437.149 928.77 437.354 928.574C437.559 928.378 437.721 928.145 437.832 927.889C437.943 927.633 438 927.358 438 927.081C438 926.804 437.943 926.529 437.832 926.273C437.721 926.017 437.559 925.784 437.354 925.588L434.622 922.977L437.354 920.366C437.768 919.97 438 919.433 438 918.873C438 918.313 437.768 917.776 437.354 917.38C436.94 916.985 436.378 916.762 435.792 916.762C435.207 916.762 434.645 916.985 434.231 917.38L431.5 919.992L428.769 917.38C428.355 916.985 427.793 916.762 427.208 916.762C426.622 916.762 426.061 916.985 425.647 917.38C425.233 917.776 425 918.313 425 918.873C425 919.433 425.233 919.97 425.647 920.366L428.378 922.977Z" fill="#1C1972"/>
<path d="M428.378 942.762L425.647 945.374C425.233 945.77 425 946.306 425 946.866C425 947.426 425.233 947.963 425.647 948.359C426.061 948.755 426.622 948.977 427.208 948.977C427.793 948.977 428.355 948.755 428.769 948.359L431.5 945.747L434.231 948.359C434.645 948.755 435.207 948.977 435.792 948.977C436.378 948.977 436.94 948.755 437.354 948.359C437.768 947.963 438 947.426 438 946.866C438 946.306 437.768 945.77 437.354 945.374L434.622 942.762L437.354 940.151C437.767 939.755 437.999 939.218 437.998 938.659C437.998 938.099 437.765 937.563 437.352 937.168C436.938 936.772 436.377 936.55 435.792 936.549C435.207 936.549 434.646 936.771 434.231 937.166L431.5 939.777L428.769 937.166C428.355 936.771 427.793 936.549 427.208 936.549C426.623 936.55 426.062 936.772 425.649 937.168C425.235 937.563 425.002 938.099 425.002 938.659C425.002 939.218 425.233 939.755 425.647 940.151L428.378 942.762Z" fill="#1C1972"/>
<path d="M428.378 962.547L425.647 965.159C425.442 965.355 425.279 965.587 425.168 965.844C425.057 966.1 425 966.374 425 966.651C425 966.929 425.057 967.203 425.168 967.459C425.279 967.715 425.442 967.948 425.647 968.144C425.852 968.34 426.095 968.495 426.363 968.601C426.631 968.708 426.918 968.762 427.208 968.762C427.498 968.762 427.785 968.708 428.053 968.601C428.32 968.495 428.564 968.34 428.769 968.144L431.5 965.532L434.231 968.144C434.436 968.34 434.68 968.495 434.948 968.601C435.215 968.708 435.503 968.762 435.792 968.762C436.082 968.762 436.369 968.708 436.637 968.601C436.905 968.495 437.149 968.34 437.354 968.144C437.559 967.948 437.721 967.715 437.832 967.459C437.943 967.203 438 966.929 438 966.651C438 966.374 437.943 966.1 437.832 965.844C437.721 965.587 437.559 965.355 437.354 965.159L434.622 962.547L437.354 959.936C437.559 959.74 437.721 959.507 437.832 959.251C437.943 958.995 438 958.721 438 958.443C438 958.166 437.943 957.892 437.832 957.636C437.721 957.379 437.559 957.147 437.354 956.951C437.149 956.755 436.905 956.599 436.637 956.493C436.369 956.387 436.082 956.333 435.792 956.333C435.503 956.333 435.215 956.387 434.948 956.493C434.68 956.599 434.436 956.755 434.231 956.951L431.5 959.562L428.769 956.951C428.355 956.555 427.793 956.333 427.208 956.333C426.622 956.333 426.061 956.555 425.647 956.951C425.233 957.347 425 957.884 425 958.443C425 959.003 425.233 959.54 425.647 959.936L428.378 962.547Z" fill="#1C1972"/>
</svg>
