<svg width="1140" height="813" viewBox="0 0 1140 813" fill="none" xmlns="http://www.w3.org/2000/svg">
<path d="M89.9998 744.316L58 717.316L58 771.316L89.9998 744.316L58 717.316L58 771.316L89.9998 744.316Z" fill="#5626C4"/>
<path d="M122 744.316L89.9998 717.316L89.9998 771.316L122 744.316L89.9998 717.316L89.9998 771.316L122 744.316Z" fill="#2CCCC3"/>
<path d="M154 744.316L122 717.316L122 771.316L154 744.316L122 717.316L122 771.316L154 744.316Z" fill="#999999"/>
<path d="M1008.77 11.8634H1014.68V17.784H1020.26V11.8634H1026.16V6.27213H1020.26V0.351562H1014.68V6.27213H1008.77V11.8634Z" fill="#E60576"/>
<path d="M1101.59 2.61375L1091.69 12.5381L1094.66 15.5222L1104.56 5.59782L1101.59 2.61375Z" fill="#5626C4"/>
<path d="M1130.1 107.444L1127.12 110.428L1137.02 120.352L1140 117.368L1130.1 107.444Z" fill="#999999"/>
<path d="M955.977 87.8411L953 90.8252L962.899 100.75L965.876 97.7655L955.977 87.8411Z" fill="#5626C4"/>
<path d="M205.227 506.488L199.322 506.488L199.322 500.568L193.744 500.568L193.744 506.488L187.838 506.488L187.838 512.079L193.744 512.079L193.744 518L199.322 518L199.322 512.079L205.227 512.079L205.227 506.488Z" fill="#E60576"/>
<path d="M112.414 515.738L122.314 505.813L119.337 502.829L109.438 512.754L112.414 515.738Z" fill="#5626C4"/>
<path d="M83.8993 410.908L86.8759 407.924L76.9765 398L73.9999 400.984L83.8993 410.908Z" fill="#999999"/>
<path d="M258.023 430.51L261 427.526L251.101 417.602L248.124 420.586L258.023 430.51Z" fill="#5626C4"/>
<path d="M3.37794 213.531L0.646623 216.143C0.232597 216.538 0 217.075 0 217.635C0 218.195 0.232597 218.732 0.646623 219.128C1.06065 219.524 1.62219 219.746 2.20771 219.746C2.79323 219.746 3.35477 219.524 3.7688 219.128L6.50011 216.516L9.23141 219.128C9.43641 219.324 9.67979 219.479 9.94764 219.585C10.2155 219.691 10.5026 219.746 10.7925 219.746C11.0824 219.746 11.3695 219.691 11.6374 219.585C11.9052 219.479 12.1486 219.324 12.3536 219.128C12.5586 218.932 12.7212 218.699 12.8322 218.443C12.9431 218.187 13.0002 217.912 13.0002 217.635C13.0002 217.358 12.9431 217.084 12.8322 216.827C12.7212 216.571 12.5586 216.339 12.3536 216.143L9.62227 213.531L12.3536 210.92C12.7676 210.524 13.0002 209.987 13.0002 209.427C13.0002 208.867 12.7676 208.331 12.3536 207.935C11.9396 207.539 11.378 207.316 10.7925 207.316C10.207 207.316 9.64544 207.539 9.23141 207.935L6.50011 210.546L3.7688 207.935C3.35477 207.539 2.79323 207.316 2.20771 207.316C1.62219 207.316 1.06065 207.539 0.646623 207.935C0.232597 208.331 2.76241e-08 208.867 2.32616e-08 209.427C1.88991e-08 209.987 0.232597 210.524 0.646623 210.92L3.37794 213.531Z" fill="#5626C4"/>
<path d="M3.37794 233.317L0.646623 235.928C0.232597 236.324 0 236.861 0 237.421C0 237.98 0.232597 238.517 0.646623 238.913C1.06065 239.309 1.62219 239.531 2.20771 239.531C2.79323 239.531 3.35477 239.309 3.7688 238.913L6.50011 236.302L9.23141 238.913C9.64544 239.309 10.207 239.531 10.7925 239.531C11.378 239.531 11.9396 239.309 12.3536 238.913C12.7676 238.517 13.0002 237.98 13.0002 237.421C13.0002 236.861 12.7676 236.324 12.3536 235.928L9.62227 233.317L12.3536 230.705C12.7668 230.309 12.9987 229.772 12.9983 229.213C12.998 228.654 12.7654 228.117 12.3517 227.722C11.938 227.326 11.377 227.104 10.7919 227.104C10.2069 227.103 9.64561 227.325 9.23141 227.72L6.50011 230.331L3.7688 227.72C3.3546 227.325 2.79332 227.103 2.20827 227.104C1.62321 227.104 1.06222 227.326 0.648518 227.722C0.234819 228.117 0.00224847 228.654 0.0018932 229.213C0.00153794 229.772 0.233427 230.309 0.646623 230.705L3.37794 233.317Z" fill="#5626C4"/>
<path d="M3.37794 253.102L0.646623 255.713C0.441619 255.909 0.279 256.142 0.168052 256.398C0.0571041 256.654 0 256.928 0 257.206C0 257.483 0.0571041 257.757 0.168052 258.013C0.279 258.269 0.441619 258.502 0.646623 258.698C0.851628 258.894 1.095 259.05 1.36286 259.156C1.63071 259.262 1.91779 259.316 2.20771 259.316C2.49763 259.316 2.78471 259.262 3.05256 259.156C3.32042 259.05 3.56379 258.894 3.7688 258.698L6.50011 256.087L9.23141 258.698C9.43641 258.894 9.67979 259.05 9.94764 259.156C10.2155 259.262 10.5026 259.316 10.7925 259.316C11.0824 259.316 11.3695 259.262 11.6374 259.156C11.9052 259.05 12.1486 258.894 12.3536 258.698C12.5586 258.502 12.7212 258.269 12.8322 258.013C12.9431 257.757 13.0002 257.483 13.0002 257.206C13.0002 256.928 12.9431 256.654 12.8322 256.398C12.7212 256.142 12.5586 255.909 12.3536 255.713L9.62227 253.102L12.3536 250.49C12.5586 250.294 12.7212 250.061 12.8322 249.805C12.9431 249.549 13.0002 249.275 13.0002 248.998C13.0002 248.72 12.9431 248.446 12.8322 248.19C12.7212 247.934 12.5586 247.701 12.3536 247.505C12.1486 247.309 11.9052 247.153 11.6374 247.047C11.3695 246.941 11.0824 246.887 10.7925 246.887C10.5026 246.887 10.2155 246.941 9.94764 247.047C9.67979 247.153 9.43641 247.309 9.23141 247.505L6.50011 250.116L3.7688 247.505C3.35477 247.109 2.79323 246.887 2.20771 246.887C1.62219 246.887 1.06065 247.109 0.646623 247.505C0.232598 247.901 8.73545e-08 248.438 7.35592e-08 248.998C5.97638e-08 249.557 0.232597 250.094 0.646623 250.49L3.37794 253.102Z" fill="#5626C4"/>
<path d="M405.608 458.046C405.608 458.265 405.551 458.48 405.443 458.67L400.66 467.103L405.443 475.536C405.551 475.726 405.608 475.941 405.608 476.16C405.608 476.378 405.551 476.593 405.443 476.784L400.66 485.217L405.443 493.65C405.551 493.84 405.608 494.055 405.608 494.273C405.608 494.492 405.551 494.707 405.443 494.897L400.306 503.954C400.138 504.247 399.86 504.462 399.533 504.552C399.206 504.642 398.855 504.6 398.559 504.435C398.263 504.27 398.045 503.996 397.953 503.672C397.86 503.347 397.901 503 398.067 502.706L402.85 494.273L398.067 485.84C397.959 485.65 397.902 485.435 397.902 485.217C397.902 484.998 397.959 484.783 398.067 484.593L402.85 476.16L398.067 467.727C397.959 467.537 397.902 467.322 397.902 467.103C397.902 466.885 397.959 466.67 398.067 466.479L402.85 458.046L398.067 449.613C397.959 449.423 397.902 449.208 397.902 448.989C397.902 448.771 397.959 448.556 398.067 448.365L402.85 439.932L398.067 431.498C397.984 431.352 397.931 431.192 397.911 431.026C397.89 430.859 397.903 430.691 397.949 430.53C397.994 430.369 398.071 430.218 398.175 430.086C398.28 429.955 398.409 429.845 398.556 429.763C398.703 429.681 398.865 429.629 399.033 429.609C399.2 429.589 399.37 429.602 399.533 429.647C399.695 429.692 399.847 429.769 399.98 429.872C400.113 429.976 400.223 430.104 400.306 430.25L405.443 439.308C405.551 439.498 405.608 439.713 405.608 439.932C405.608 440.15 405.551 440.365 405.443 440.555L400.66 448.989L405.443 457.423C405.551 457.613 405.608 457.828 405.608 458.046V458.046Z" fill="#999999"/>
<path d="M410.754 458.046C410.754 458.265 410.698 458.48 410.59 458.67L405.806 467.103L410.59 475.536C410.698 475.726 410.754 475.941 410.754 476.16C410.754 476.378 410.698 476.593 410.59 476.784L405.806 485.217L410.59 493.65C410.698 493.84 410.754 494.055 410.754 494.273C410.754 494.492 410.698 494.707 410.59 494.897L405.453 503.954C405.285 504.247 405.007 504.462 404.68 504.552C404.352 504.642 404.002 504.6 403.706 504.435C403.41 504.27 403.192 503.996 403.099 503.672C403.007 503.347 403.048 503 403.214 502.706L407.997 494.273L403.214 485.84C403.106 485.65 403.049 485.435 403.049 485.217C403.049 484.998 403.106 484.783 403.214 484.593L407.997 476.16L403.214 467.727C403.106 467.537 403.049 467.322 403.049 467.103C403.049 466.885 403.106 466.67 403.214 466.479L407.997 458.046L403.214 449.613C403.106 449.423 403.049 449.208 403.049 448.989C403.049 448.771 403.106 448.556 403.214 448.365L407.997 439.932L403.214 431.498C403.131 431.352 403.078 431.192 403.057 431.026C403.037 430.859 403.05 430.691 403.095 430.53C403.141 430.369 403.218 430.218 403.322 430.086C403.426 429.955 403.556 429.845 403.703 429.763C403.85 429.681 404.012 429.629 404.18 429.609C404.347 429.589 404.517 429.602 404.68 429.647C404.842 429.692 404.994 429.769 405.127 429.872C405.259 429.976 405.37 430.104 405.453 430.25L410.59 439.308C410.698 439.498 410.754 439.713 410.754 439.932C410.754 440.15 410.698 440.365 410.59 440.555L405.806 448.989L410.59 457.423C410.698 457.613 410.754 457.828 410.754 458.046Z" fill="#2CCCC3"/>
<path d="M415.901 458.047C415.901 458.265 415.844 458.48 415.736 458.67L410.953 467.104L415.736 475.536C415.844 475.727 415.901 475.942 415.901 476.16C415.901 476.379 415.844 476.593 415.736 476.784L410.953 485.217L415.736 493.65C415.844 493.84 415.901 494.055 415.901 494.274C415.901 494.492 415.844 494.707 415.736 494.898L410.599 503.954C410.432 504.247 410.154 504.463 409.826 504.553C409.499 504.644 409.149 504.602 408.852 504.437C408.556 504.271 408.338 503.997 408.246 503.672C408.153 503.348 408.195 503.001 408.36 502.706L413.144 494.274L408.36 485.841C408.252 485.65 408.196 485.435 408.196 485.217C408.196 484.998 408.252 484.784 408.36 484.593L413.144 476.16L408.36 467.727C408.252 467.537 408.196 467.322 408.196 467.104C408.196 466.885 408.252 466.67 408.36 466.48L413.144 458.047L408.36 449.613C408.252 449.423 408.196 449.208 408.196 448.99C408.196 448.771 408.252 448.556 408.36 448.366L413.144 439.932L408.36 431.498C408.278 431.352 408.225 431.192 408.204 431.026C408.184 430.86 408.197 430.692 408.243 430.53C408.288 430.369 408.365 430.219 408.469 430.087C408.574 429.956 408.703 429.846 408.85 429.764C408.997 429.682 409.159 429.63 409.327 429.61C409.494 429.59 409.664 429.603 409.826 429.648C409.989 429.693 410.141 429.77 410.273 429.873C410.406 429.976 410.517 430.105 410.599 430.251L415.736 439.308C415.844 439.499 415.901 439.713 415.901 439.932C415.901 440.15 415.844 440.365 415.736 440.556L410.953 448.99L415.736 457.423C415.844 457.613 415.901 457.828 415.901 458.047V458.047Z" fill="#5626C4"/>
<path d="M255.447 225.611C255.665 225.611 255.88 225.668 256.071 225.776L264.504 230.559L272.936 225.776C273.127 225.668 273.342 225.611 273.56 225.611C273.779 225.611 273.993 225.668 274.184 225.776L282.617 230.559L291.05 225.776C291.241 225.668 291.455 225.611 291.674 225.611C291.892 225.611 292.107 225.668 292.298 225.776L301.354 230.913C301.647 231.081 301.862 231.359 301.953 231.686C302.043 232.013 302.001 232.364 301.836 232.66C301.671 232.956 301.396 233.174 301.072 233.266C300.748 233.359 300.401 233.318 300.107 233.152L291.674 228.369L283.241 233.152C283.05 233.26 282.835 233.317 282.617 233.317C282.398 233.317 282.184 233.26 281.993 233.152L273.56 228.369L265.127 233.152C264.937 233.26 264.722 233.317 264.504 233.317C264.285 233.317 264.07 233.26 263.88 233.152L255.447 228.369L247.013 233.152C246.823 233.26 246.608 233.317 246.39 233.317C246.171 233.317 245.956 233.26 245.766 233.152L237.332 228.369L228.898 233.152C228.753 233.235 228.592 233.288 228.426 233.308C228.26 233.329 228.091 233.316 227.93 233.27C227.769 233.225 227.618 233.148 227.487 233.044C227.355 232.939 227.245 232.81 227.163 232.663C227.081 232.516 227.029 232.354 227.009 232.186C226.989 232.019 227.002 231.849 227.047 231.686C227.093 231.524 227.169 231.372 227.273 231.239C227.376 231.106 227.505 230.996 227.651 230.913L236.708 225.776C236.899 225.668 237.114 225.611 237.332 225.611C237.551 225.611 237.765 225.668 237.956 225.776L246.39 230.559L254.823 225.776C255.013 225.668 255.228 225.611 255.447 225.611V225.611Z" fill="#999999"/>
<path d="M255.447 220.464C255.665 220.464 255.88 220.521 256.071 220.629L264.504 225.412L272.936 220.629C273.127 220.521 273.342 220.464 273.56 220.464C273.779 220.464 273.993 220.521 274.184 220.629L282.617 225.412L291.05 220.629C291.241 220.521 291.455 220.464 291.674 220.464C291.892 220.464 292.107 220.521 292.298 220.629L301.354 225.766C301.647 225.933 301.862 226.211 301.953 226.539C302.043 226.866 302.001 227.216 301.836 227.512C301.671 227.808 301.396 228.027 301.072 228.119C300.748 228.211 300.401 228.17 300.107 228.005L291.674 223.221L283.241 228.005C283.05 228.113 282.835 228.169 282.617 228.169C282.398 228.169 282.184 228.113 281.993 228.005L273.56 223.221L265.127 228.005C264.937 228.113 264.722 228.169 264.504 228.169C264.285 228.169 264.07 228.113 263.88 228.005L255.447 223.221L247.013 228.005C246.823 228.113 246.608 228.169 246.39 228.169C246.171 228.169 245.956 228.113 245.766 228.005L237.332 223.221L228.898 228.005C228.753 228.088 228.592 228.141 228.426 228.161C228.26 228.181 228.091 228.168 227.93 228.123C227.769 228.077 227.618 228 227.487 227.896C227.355 227.792 227.245 227.663 227.163 227.515C227.081 227.368 227.029 227.206 227.009 227.039C226.989 226.871 227.002 226.701 227.047 226.539C227.093 226.376 227.169 226.224 227.273 226.092C227.376 225.959 227.505 225.848 227.651 225.766L236.708 220.629C236.899 220.521 237.114 220.464 237.332 220.464C237.551 220.464 237.765 220.521 237.956 220.629L246.39 225.412L254.823 220.629C255.013 220.521 255.228 220.464 255.447 220.464Z" fill="#2CCCC3"/>
<path d="M255.447 215.317C255.665 215.317 255.88 215.374 256.071 215.482L264.504 220.265L272.936 215.482C273.127 215.374 273.342 215.317 273.56 215.317C273.779 215.317 273.993 215.374 274.184 215.482L282.617 220.265L291.05 215.482C291.241 215.374 291.455 215.317 291.674 215.317C291.892 215.317 292.107 215.374 292.298 215.482L301.354 220.619C301.647 220.787 301.863 221.065 301.953 221.392C302.044 221.72 302.002 222.07 301.837 222.366C301.672 222.663 301.397 222.881 301.072 222.973C300.748 223.065 300.401 223.024 300.107 222.858L291.674 218.075L283.241 222.858C283.05 222.966 282.835 223.023 282.617 223.023C282.398 223.023 282.184 222.966 281.993 222.858L273.56 218.075L265.127 222.858C264.937 222.966 264.722 223.023 264.504 223.023C264.285 223.023 264.07 222.966 263.88 222.858L255.447 218.075L247.013 222.858C246.823 222.966 246.608 223.023 246.39 223.023C246.171 223.023 245.956 222.966 245.766 222.858L237.332 218.075L228.898 222.858C228.753 222.941 228.592 222.994 228.426 223.014C228.26 223.034 228.092 223.021 227.931 222.976C227.769 222.931 227.619 222.853 227.487 222.749C227.356 222.645 227.246 222.516 227.164 222.369C227.082 222.221 227.03 222.06 227.01 221.892C226.99 221.724 227.003 221.555 227.048 221.392C227.093 221.23 227.17 221.078 227.273 220.945C227.377 220.813 227.505 220.702 227.651 220.619L236.708 215.482C236.899 215.374 237.114 215.317 237.332 215.317C237.551 215.317 237.765 215.374 237.956 215.482L246.39 220.265L254.823 215.482C255.013 215.374 255.228 215.317 255.447 215.317V215.317Z" fill="#5626C4"/>
<path d="M292.378 766.715L289.646 769.326C289.232 769.722 289 770.259 289 770.819C289 771.379 289.232 771.916 289.646 772.311C290.06 772.707 290.622 772.93 291.208 772.93C291.793 772.93 292.355 772.707 292.769 772.311L295.5 769.7L298.231 772.311C298.436 772.507 298.68 772.663 298.947 772.769C299.215 772.875 299.502 772.93 299.792 772.93C300.082 772.93 300.369 772.875 300.637 772.769C300.905 772.663 301.148 772.507 301.353 772.311C301.558 772.115 301.721 771.883 301.832 771.627C301.943 771.37 302 771.096 302 770.819C302 770.542 301.943 770.267 301.832 770.011C301.721 769.755 301.558 769.522 301.353 769.326L298.622 766.715L301.353 764.103C301.767 763.708 302 763.171 302 762.611C302 762.051 301.767 761.514 301.353 761.118C300.939 760.722 300.378 760.5 299.792 760.5C299.207 760.5 298.645 760.722 298.231 761.118L295.5 763.73L292.769 761.118C292.355 760.722 291.793 760.5 291.208 760.5C290.622 760.5 290.06 760.722 289.646 761.118C289.232 761.514 289 762.051 289 762.611C289 763.171 289.232 763.708 289.646 764.103L292.378 766.715Z" fill="#5626C4"/>
<path d="M292.378 786.5L289.646 789.112C289.232 789.507 289 790.044 289 790.604C289 791.164 289.232 791.701 289.646 792.097C290.06 792.493 290.622 792.715 291.208 792.715C291.793 792.715 292.355 792.493 292.769 792.097L295.5 789.485L298.231 792.097C298.645 792.493 299.207 792.715 299.792 792.715C300.378 792.715 300.939 792.493 301.353 792.097C301.767 791.701 302 791.164 302 790.604C302 790.044 301.767 789.507 301.353 789.112L298.622 786.5L301.353 783.889C301.767 783.493 301.998 782.956 301.998 782.397C301.998 781.837 301.765 781.301 301.352 780.905C300.938 780.51 300.377 780.287 299.792 780.287C299.207 780.287 298.645 780.508 298.231 780.904L295.5 783.515L292.769 780.904C292.354 780.508 291.793 780.287 291.208 780.287C290.623 780.287 290.062 780.51 289.648 780.905C289.235 781.301 289.002 781.837 289.002 782.397C289.001 782.956 289.233 783.493 289.646 783.889L292.378 786.5Z" fill="#5626C4"/>
<path d="M292.378 806.285L289.646 808.897C289.441 809.093 289.279 809.325 289.168 809.581C289.057 809.837 289 810.112 289 810.389C289 810.666 289.057 810.941 289.168 811.197C289.279 811.453 289.441 811.686 289.646 811.882C289.851 812.078 290.095 812.233 290.363 812.339C290.631 812.445 290.918 812.5 291.208 812.5C291.497 812.5 291.785 812.445 292.052 812.339C292.32 812.233 292.564 812.078 292.769 811.882L295.5 809.27L298.231 811.882C298.436 812.078 298.68 812.233 298.947 812.339C299.215 812.445 299.502 812.5 299.792 812.5C300.082 812.5 300.369 812.445 300.637 812.339C300.905 812.233 301.148 812.078 301.353 811.882C301.558 811.686 301.721 811.453 301.832 811.197C301.943 810.941 302 810.666 302 810.389C302 810.112 301.943 809.837 301.832 809.581C301.721 809.325 301.558 809.093 301.353 808.897L298.622 806.285L301.353 803.674C301.558 803.478 301.721 803.245 301.832 802.989C301.943 802.733 302 802.458 302 802.181C302 801.904 301.943 801.629 301.832 801.373C301.721 801.117 301.558 800.885 301.353 800.689C301.148 800.493 300.905 800.337 300.637 800.231C300.369 800.125 300.082 800.07 299.792 800.07C299.502 800.07 299.215 800.125 298.947 800.231C298.68 800.337 298.436 800.493 298.231 800.689L295.5 803.3L292.769 800.689C292.355 800.293 291.793 800.07 291.208 800.07C290.622 800.07 290.06 800.293 289.646 800.689C289.232 801.084 289 801.621 289 802.181C289 802.741 289.232 803.278 289.646 803.674L292.378 806.285Z" fill="#5626C4"/>
</svg>
