<svg width="14" height="52" viewBox="0 0 14 52" fill="none" xmlns="http://www.w3.org/2000/svg">
<path d="M4.31568 6.21371L1.58437 8.82513C1.17034 9.22098 0.937744 9.75788 0.937744 10.3177C0.937744 10.8775 1.17034 11.4144 1.58437 11.8103C1.99839 12.2061 2.55993 12.4285 3.14545 12.4285C3.73098 12.4285 4.29252 12.2061 4.70654 11.8103L7.43786 9.19885L10.1692 11.8103C10.3742 12.0063 10.6175 12.1618 10.8854 12.2678C11.1532 12.3739 11.4403 12.4285 11.7302 12.4285C12.0202 12.4285 12.3072 12.3739 12.5751 12.2678C12.8429 12.1618 13.0863 12.0063 13.2913 11.8103C13.4963 11.6143 13.659 11.3816 13.7699 11.1255C13.8808 10.8694 13.938 10.5949 13.938 10.3177C13.938 10.0405 13.8808 9.76602 13.7699 9.50992C13.659 9.25383 13.4963 9.02113 13.2913 8.82513L10.56 6.21371L13.2913 3.60228C13.7054 3.20643 13.938 2.66954 13.938 2.10971C13.938 1.54989 13.7054 1.013 13.2913 0.617144C12.8773 0.22129 12.3158 -0.00109863 11.7302 -0.00109863C11.1447 -0.00109864 10.5832 0.22129 10.1692 0.617144L7.43786 3.22857L4.70654 0.617144C4.29252 0.22129 3.73098 -0.00109864 3.14545 -0.00109863C2.55993 -0.00109863 1.99839 0.22129 1.58437 0.617144C1.17034 1.013 0.937744 1.54989 0.937744 2.10971C0.937744 2.66954 1.17034 3.20643 1.58437 3.60228L4.31568 6.21371Z" fill="#5626C4"/>
<path d="M4.31568 25.999L1.58437 28.6104C1.17034 29.0062 0.937744 29.5431 0.937744 30.1029C0.937744 30.6628 1.17034 31.1997 1.58437 31.5955C1.99839 31.9914 2.55993 32.2138 3.14545 32.2138C3.73098 32.2138 4.29252 31.9914 4.70654 31.5955L7.43786 28.9841L10.1692 31.5955C10.5832 31.9914 11.1447 32.2138 11.7302 32.2138C12.3158 32.2138 12.8773 31.9914 13.2913 31.5955C13.7054 31.1997 13.938 30.6628 13.938 30.1029C13.938 29.5431 13.7054 29.0062 13.2913 28.6104L10.56 25.999L13.2913 23.3875C13.7045 22.9915 13.9364 22.4549 13.9361 21.8955C13.9357 21.3361 13.7031 20.7997 13.2894 20.4042C12.8757 20.0086 12.3147 19.7863 11.7297 19.786C11.1446 19.7856 10.5834 20.0073 10.1692 20.4024L7.43786 23.0138L4.70654 20.4024C4.29234 20.0073 3.73107 19.7856 3.14601 19.786C2.56095 19.7863 1.99996 20.0086 1.58626 20.4042C1.17256 20.7997 0.939993 21.3361 0.939637 21.8955C0.939282 22.4549 1.17117 22.9915 1.58437 23.3875L4.31568 25.999Z" fill="#5626C4"/>
<path d="M4.31568 45.7842L1.58437 48.3956C1.37936 48.5916 1.21674 48.8243 1.1058 49.0804C0.994848 49.3365 0.937744 49.611 0.937744 49.8882C0.937744 50.1654 0.994848 50.4399 1.1058 50.696C1.21674 50.9521 1.37936 51.1847 1.58437 51.3808C1.78937 51.5768 2.03275 51.7322 2.3006 51.8383C2.56845 51.9444 2.85553 51.999 3.14545 51.999C3.43538 51.999 3.72246 51.9444 3.99031 51.8383C4.25816 51.7322 4.50154 51.5768 4.70654 51.3808L7.43786 48.7693L10.1692 51.3808C10.3742 51.5768 10.6175 51.7322 10.8854 51.8383C11.1532 51.9444 11.4403 51.999 11.7302 51.999C12.0202 51.999 12.3072 51.9444 12.5751 51.8383C12.8429 51.7322 13.0863 51.5768 13.2913 51.3808C13.4963 51.1847 13.659 50.9521 13.7699 50.696C13.8808 50.4399 13.938 50.1654 13.938 49.8882C13.938 49.611 13.8808 49.3365 13.7699 49.0804C13.659 48.8243 13.4963 48.5916 13.2913 48.3956L10.56 45.7842L13.2913 43.1728C13.4963 42.9767 13.659 42.7441 13.7699 42.488C13.8808 42.2319 13.938 41.9574 13.938 41.6802C13.938 41.403 13.8808 41.1285 13.7699 40.8724C13.659 40.6163 13.4963 40.3836 13.2913 40.1876C13.0863 39.9916 12.8429 39.8361 12.5751 39.73C12.3072 39.624 12.0202 39.5694 11.7302 39.5694C11.4403 39.5694 11.1532 39.624 10.8854 39.73C10.6175 39.8361 10.3742 39.9916 10.1692 40.1876L7.43786 42.799L4.70654 40.1876C4.29252 39.7918 3.73098 39.5694 3.14545 39.5694C2.55993 39.5694 1.99839 39.7918 1.58437 40.1876C1.17034 40.5835 0.937744 41.1204 0.937744 41.6802C0.937744 42.24 1.17034 42.7769 1.58437 43.1728L4.31568 45.7842Z" fill="#5626C4"/>
</svg>
