<svg width="41" height="70" viewBox="0 0 41 70" fill="none" xmlns="http://www.w3.org/2000/svg">
<path d="M2.50516 34.0187L38.2947 34.0187C38.6642 34.0187 39.0273 34.1154 39.3473 34.2991C39.6673 34.4828 39.9331 34.7471 40.1179 35.0652C40.3026 35.3834 40.3999 35.7444 40.3999 36.1118C40.3999 36.4792 40.3026 36.8401 40.1179 37.1583L22.223 67.9737C22.0383 68.2919 21.7725 68.5561 21.4525 68.7398C21.1324 68.9236 20.7694 69.0203 20.3999 69.0203C20.0303 69.0203 19.6673 68.9236 19.3472 68.7398C19.0272 68.5561 18.7614 68.2919 18.5767 67.9737L0.681991 37.1583C0.497218 36.8401 0.399942 36.4792 0.399941 36.1118C0.39994 35.7444 0.497213 35.3834 0.681985 35.0652C0.866757 34.747 1.13251 34.4828 1.45255 34.2991C1.77259 34.1154 2.13562 34.0187 2.50517 34.0187L2.50516 34.0187ZM34.6482 38.2049L6.15152 38.2049L20.3999 62.741L34.6482 38.2049Z" fill="#999999"/>
<path d="M2.50515 17.5211L38.2947 17.5211C38.6642 17.5211 39.0273 17.6178 39.3473 17.8015C39.6673 17.9852 39.9331 18.2494 40.1179 18.5676C40.3026 18.8858 40.3999 19.2467 40.3999 19.6142C40.3999 19.9816 40.3026 20.3425 40.1178 20.6607L22.223 51.4761C22.0383 51.7943 21.7725 52.0585 21.4525 52.2422C21.1324 52.4259 20.7694 52.5227 20.3998 52.5227C20.0303 52.5227 19.6673 52.4259 19.3472 52.2422C19.0272 52.0585 18.7614 51.7943 18.5767 51.4761L0.681964 20.6607C0.497191 20.3425 0.399915 19.9816 0.399914 19.6141C0.399913 19.2467 0.497186 18.8858 0.681958 18.5676C0.86673 18.2494 1.13249 17.9852 1.45252 17.8015C1.77256 17.6178 2.13559 17.5211 2.50514 17.5211L2.50515 17.5211ZM34.6482 21.7072L6.1515 21.7072L20.3999 46.2434L34.6482 21.7072Z" fill="#1C1972"/>
<path d="M2.50516 0.020262L38.2947 0.0202636C38.6642 0.020269 39.0273 0.116987 39.3473 0.300697C39.6673 0.484407 39.9331 0.748636 40.1179 1.06683C40.3026 1.38502 40.3999 1.74595 40.3999 2.11337C40.3999 2.48078 40.3026 2.84172 40.1178 3.1599L22.223 33.9753C22.0383 34.2935 21.7725 34.5577 21.4525 34.7414C21.1324 34.9251 20.7694 35.0219 20.3999 35.0219C20.0303 35.0219 19.6673 34.9251 19.3472 34.7414C19.0272 34.5577 18.7614 34.2935 18.5767 33.9753L0.681985 3.15989C0.497212 2.8417 0.399933 2.48076 0.399932 2.11335C0.399932 1.74594 0.497208 1.385 0.681979 1.06681C0.866751 0.748626 1.13251 0.484399 1.45254 0.30069C1.77258 0.116982 2.13562 0.0202659 2.50516 0.020262V0.020262ZM34.6482 4.20643L6.15151 4.20643L20.3998 28.7426L34.6482 4.20643Z" fill="#D7AEF2"/>
</svg>
