<svg width="14" height="58" viewBox="0 0 14 58" fill="none" xmlns="http://www.w3.org/2000/svg">
<path d="M10.1221 50.3035L12.8534 47.4369C13.2674 47.0024 13.5 46.4131 13.5 45.7985C13.5 45.184 13.2674 44.5947 12.8534 44.1601C12.4394 43.7256 11.8778 43.4815 11.2923 43.4815C10.7068 43.4815 10.1452 43.7256 9.7312 44.1601L6.99989 47.0267L4.26859 44.1601C4.06359 43.945 3.82021 43.7743 3.55236 43.6579C3.28451 43.5414 2.99742 43.4815 2.7075 43.4815C2.41758 43.4815 2.1305 43.5414 1.86265 43.6579C1.5948 43.7743 1.35142 43.945 1.14642 44.1601C0.94141 44.3753 0.778792 44.6307 0.667844 44.9118C0.556897 45.193 0.499792 45.4943 0.499792 45.7985C0.499792 46.1028 0.556896 46.4041 0.667844 46.6852C0.778792 46.9663 0.94141 47.2218 1.14641 47.4369L3.87773 50.3035L1.14641 53.17C0.732388 53.6046 0.499792 54.1939 0.499792 54.8084C0.499792 55.423 0.732388 56.0123 1.14641 56.4468C1.56044 56.8814 2.12198 57.1255 2.7075 57.1255C3.29302 57.1255 3.85456 56.8814 4.26859 56.4468L6.99989 53.5803L9.7312 56.4468C10.1452 56.8814 10.7068 57.1255 11.2923 57.1255C11.8778 57.1255 12.4394 56.8814 12.8534 56.4468C13.2674 56.0123 13.5 55.423 13.5 54.8084C13.5 54.1939 13.2674 53.6046 12.8534 53.1701L10.1221 50.3035Z" fill="#1C1972"/>
<path d="M10.1221 28.5852L12.8534 25.7186C13.2674 25.2841 13.5 24.6948 13.5 24.0802C13.5 23.4657 13.2674 22.8764 12.8534 22.4418C12.4394 22.0073 11.8778 21.7632 11.2923 21.7632C10.7068 21.7632 10.1452 22.0073 9.7312 22.4418L6.99989 25.3084L4.26859 22.4418C3.85456 22.0073 3.29302 21.7632 2.7075 21.7632C2.12198 21.7632 1.56044 22.0073 1.14642 22.4418C0.732389 22.8764 0.499792 23.4657 0.499792 24.0802C0.499792 24.6948 0.732389 25.2841 1.14641 25.7186L3.87773 28.5852L1.14641 31.4518C0.733218 31.8865 0.501329 32.4755 0.501684 33.0896C0.502039 33.7036 0.734611 34.2924 1.14831 34.7266C1.56201 35.1608 2.123 35.4048 2.70806 35.4052C3.29312 35.4056 3.85439 35.1622 4.26859 34.7285L6.99989 31.862L9.7312 34.7285C10.1454 35.1622 10.7067 35.4056 11.2917 35.4052C11.8768 35.4048 12.4378 35.1608 12.8515 34.7266C13.2652 34.2924 13.4978 33.7036 13.4981 33.0896C13.4985 32.4755 13.2666 31.8865 12.8534 31.4518L10.1221 28.5852Z" fill="#1C1972"/>
<path d="M10.1221 6.86695L12.8534 4.00038C13.0584 3.78523 13.221 3.5298 13.3319 3.24868C13.4429 2.96757 13.5 2.66627 13.5 2.36199C13.5 2.05771 13.4429 1.75641 13.3319 1.4753C13.221 1.19418 13.0584 0.938752 12.8534 0.723594C12.6484 0.508437 12.405 0.337764 12.1371 0.221322C11.8693 0.10488 11.5822 0.0449477 11.2923 0.0449477C11.0024 0.0449477 10.7153 0.10488 10.4474 0.221322C10.1796 0.337764 9.93621 0.508437 9.7312 0.723594L6.99989 3.59017L4.26859 0.723593C4.06359 0.508436 3.82021 0.337764 3.55236 0.221321C3.28451 0.104879 2.99742 0.0449469 2.7075 0.0449469C2.41758 0.0449468 2.1305 0.104879 1.86265 0.221321C1.5948 0.337763 1.35142 0.508436 1.14642 0.723593C0.94141 0.93875 0.778792 1.19418 0.667844 1.47529C0.556897 1.75641 0.499792 2.05771 0.499792 2.36199C0.499792 2.66626 0.556896 2.96756 0.667844 3.24868C0.778792 3.5298 0.94141 3.78523 1.14641 4.00038L3.87773 6.86695L1.14641 9.73352C0.94141 9.94868 0.778792 10.2041 0.667844 10.4852C0.556896 10.7663 0.499792 11.0676 0.499792 11.3719C0.499792 11.6762 0.556896 11.9775 0.667844 12.2586C0.778791 12.5397 0.941409 12.7952 1.14641 13.0103C1.35142 13.2255 1.5948 13.3961 1.86265 13.5126C2.1305 13.629 2.41758 13.689 2.7075 13.689C2.99742 13.689 3.2845 13.629 3.55236 13.5126C3.82021 13.3961 4.06358 13.2255 4.26859 13.0103L6.99989 10.1437L9.7312 13.0103C10.1452 13.4448 10.7068 13.689 11.2923 13.689C11.8778 13.689 12.4394 13.4448 12.8534 13.0103C13.2674 12.5758 13.5 11.9864 13.5 11.3719C13.5 10.7574 13.2674 10.1681 12.8534 9.73352L10.1221 6.86695Z" fill="#1C1972"/>
</svg>
