<svg width="1159" height="688" viewBox="0 0 1159 688" fill="none" xmlns="http://www.w3.org/2000/svg">
<path d="M971.773 79.1955H977.678V85.1161H983.256V79.1955H989.162V73.6042H983.256V67.6837H977.678V73.6042H971.773V79.1955Z" fill="#E60576"/>
<path d="M1064.59 69.9457L1054.69 79.8701L1057.66 82.8541L1067.56 72.9298L1064.59 69.9457Z" fill="#5626C4"/>
<path d="M1093.1 174.775L1090.12 177.759L1100.02 187.684L1103 184.7L1093.1 174.775Z" fill="#999999"/>
<path d="M918.977 155.173L916 158.157L925.899 168.081L928.876 165.097L918.977 155.173Z" fill="#5626C4"/>
<path d="M485.227 671.681L479.322 671.681L479.322 665.761L473.744 665.761L473.744 671.681L467.838 671.681L467.838 677.273L473.744 677.273L473.744 683.193L479.322 683.193L479.322 677.273L485.227 677.273L485.227 671.681Z" fill="#E60576"/>
<path d="M392.414 680.931L402.314 671.007L399.337 668.023L389.438 677.947L392.414 680.931Z" fill="#5626C4"/>
<path d="M363.899 576.102L366.876 573.117L356.977 563.193L354 566.177L363.899 576.102Z" fill="#999999"/>
<path d="M538.023 595.704L541 592.72L531.101 582.795L528.124 585.78L538.023 595.704Z" fill="#5626C4"/>
<path d="M28.9783 679.34C29.1968 679.34 29.4116 679.397 29.602 679.505L38.0351 684.288L46.4678 679.505C46.6582 679.397 46.8731 679.34 47.0916 679.34C47.3101 679.34 47.525 679.397 47.7155 679.505L56.1484 684.288L64.5815 679.505C64.772 679.397 64.9868 679.34 65.2054 679.34C65.4239 679.34 65.6387 679.397 65.8292 679.505L74.8857 684.642C75.1786 684.809 75.3938 685.087 75.484 685.415C75.5743 685.742 75.5323 686.092 75.3673 686.388C75.2022 686.684 74.9276 686.903 74.6035 686.995C74.2794 687.087 73.9322 687.046 73.638 686.881L65.2053 682.097L56.7722 686.881C56.5817 686.989 56.3669 687.046 56.1484 687.046C55.9299 687.046 55.7151 686.989 55.5246 686.881L47.0916 682.097L38.659 686.881C38.4685 686.989 38.2537 687.046 38.0351 687.046C37.8166 687.046 37.6018 686.989 37.4113 686.881L28.9783 682.097L20.5449 686.881C20.3544 686.989 20.1396 687.046 19.9211 687.046C19.7026 687.046 19.4878 686.989 19.2973 686.881L10.8635 682.097L2.42973 686.881C2.284 686.964 2.1235 687.017 1.95741 687.037C1.79131 687.057 1.62288 687.044 1.46175 686.999C1.30062 686.954 1.14994 686.876 1.01835 686.772C0.886753 686.668 0.776818 686.539 0.694828 686.391C0.612839 686.244 0.560406 686.082 0.540527 685.915C0.520647 685.747 0.533713 685.577 0.578975 685.415C0.624237 685.252 0.700808 685.1 0.804309 684.968C0.90781 684.835 1.03621 684.724 1.18217 684.642L10.2398 679.505C10.4302 679.397 10.6451 679.34 10.8636 679.34C11.0821 679.34 11.2969 679.397 11.4873 679.505L19.9211 684.288L28.3545 679.505C28.5449 679.397 28.7598 679.34 28.9783 679.34V679.34Z" fill="#999999"/>
<path d="M28.9783 674.193C29.1968 674.193 29.4116 674.25 29.602 674.358L38.0351 679.141L46.4678 674.358C46.6582 674.25 46.8731 674.193 47.0916 674.193C47.3101 674.193 47.525 674.25 47.7155 674.358L56.1484 679.141L64.5815 674.358C64.772 674.25 64.9868 674.193 65.2054 674.193C65.4239 674.193 65.6387 674.25 65.8292 674.358L74.8857 679.495C75.1786 679.663 75.3938 679.941 75.484 680.268C75.5743 680.595 75.5323 680.945 75.3673 681.242C75.2022 681.538 74.9276 681.756 74.6035 681.848C74.2794 681.94 73.9322 681.899 73.638 681.734L65.2053 676.951L56.7722 681.734C56.5817 681.842 56.3669 681.899 56.1484 681.899C55.9299 681.899 55.7151 681.842 55.5246 681.734L47.0916 676.951L38.659 681.734C38.4685 681.842 38.2537 681.899 38.0351 681.899C37.8166 681.899 37.6018 681.842 37.4113 681.734L28.9783 676.951L20.5449 681.734C20.3544 681.842 20.1396 681.899 19.9211 681.899C19.7026 681.899 19.4878 681.842 19.2973 681.734L10.8635 676.951L2.42973 681.734C2.284 681.817 2.1235 681.87 1.95741 681.89C1.79131 681.911 1.62288 681.898 1.46175 681.852C1.30062 681.807 1.14994 681.73 1.01835 681.626C0.886753 681.521 0.776818 681.392 0.694828 681.245C0.612839 681.098 0.560406 680.936 0.540527 680.768C0.520647 680.6 0.533713 680.43 0.578975 680.268C0.624237 680.105 0.700808 679.954 0.804309 679.821C0.90781 679.688 1.03621 679.578 1.18217 679.495L10.2398 674.358C10.4302 674.25 10.6451 674.193 10.8636 674.193C11.0821 674.193 11.2969 674.25 11.4873 674.358L19.9211 679.141L28.3545 674.358C28.5449 674.25 28.7598 674.193 28.9783 674.193Z" fill="#2CCCC3"/>
<path d="M28.9783 669.046C29.1968 669.046 29.4116 669.103 29.602 669.211L38.0351 673.994L46.4678 669.211C46.6582 669.103 46.8731 669.046 47.0916 669.046C47.3101 669.046 47.525 669.103 47.7155 669.211L56.1484 673.994L64.5815 669.211C64.772 669.103 64.9868 669.046 65.2054 669.046C65.4239 669.046 65.6387 669.103 65.8292 669.211L74.8857 674.348C75.1789 674.516 75.3944 674.794 75.4848 675.121C75.5752 675.449 75.5333 675.799 75.3682 676.095C75.203 676.392 74.9282 676.61 74.6039 676.702C74.2796 676.794 73.9322 676.753 73.638 676.587L65.2053 671.804L56.7722 676.587C56.5817 676.695 56.3669 676.752 56.1484 676.752C55.9299 676.752 55.7151 676.695 55.5246 676.587L47.0916 671.804L38.659 676.587C38.4685 676.695 38.2537 676.752 38.0352 676.752C37.8166 676.752 37.6018 676.695 37.4113 676.587L28.9783 671.804L20.5449 676.587C20.3544 676.695 20.1396 676.752 19.9211 676.752C19.7026 676.752 19.4878 676.695 19.2973 676.587L10.8635 671.804L2.42973 676.587C2.28401 676.67 2.12354 676.723 1.9575 676.743C1.79145 676.763 1.62309 676.75 1.46203 676.705C1.30097 676.66 1.15037 676.582 1.01884 676.478C0.887312 676.374 0.777427 676.245 0.695469 676.098C0.61351 675.95 0.561085 675.789 0.541189 675.621C0.521294 675.453 0.534317 675.284 0.579516 675.121C0.624715 674.959 0.701203 674.807 0.804608 674.674C0.908014 674.542 1.03631 674.431 1.18216 674.348L10.2398 669.211C10.4302 669.103 10.645 669.046 10.8636 669.046C11.0821 669.046 11.2969 669.103 11.4873 669.211L19.9211 673.994L28.3545 669.211C28.5449 669.103 28.7598 669.046 28.9783 669.046V669.046Z" fill="#5626C4"/>
<path d="M513.921 89.2631C513.921 89.4816 513.865 89.6965 513.756 89.8869L508.973 98.32L513.756 106.753C513.865 106.943 513.921 107.158 513.921 107.376C513.921 107.595 513.865 107.81 513.756 108L508.973 116.433L513.756 124.866C513.864 125.057 513.921 125.272 513.921 125.49C513.921 125.709 513.864 125.924 513.756 126.114L508.619 135.171C508.452 135.464 508.174 135.679 507.846 135.769C507.519 135.859 507.169 135.817 506.873 135.652C506.577 135.487 506.359 135.212 506.266 134.888C506.174 134.564 506.215 134.217 506.38 133.923L511.164 125.49L506.38 117.057C506.272 116.867 506.216 116.652 506.216 116.433C506.216 116.215 506.272 116 506.38 115.809L511.164 107.376L506.38 98.9438C506.272 98.7534 506.216 98.5385 506.216 98.32C506.216 98.1015 506.272 97.8867 506.38 97.6962L511.164 89.2631L506.38 80.8297C506.272 80.6393 506.216 80.4245 506.216 80.206C506.216 79.9874 506.272 79.7726 506.38 79.5822L511.164 71.1484L506.38 62.7146C506.298 62.5689 506.244 62.4084 506.224 62.2423C506.204 62.0762 506.217 61.9077 506.262 61.7466C506.308 61.5855 506.385 61.4348 506.489 61.3032C506.593 61.1716 506.723 61.0617 506.87 60.9797C507.017 60.8977 507.179 60.8453 507.346 60.8254C507.514 60.8055 507.684 60.8186 507.846 60.8638C508.009 60.9091 508.161 60.9857 508.294 61.0892C508.426 61.1927 508.537 61.3211 508.619 61.467L513.756 70.5246C513.865 70.7151 513.921 70.9299 513.921 71.1484C513.921 71.3669 513.865 71.5817 513.756 71.7722L508.973 80.206L513.756 88.6393C513.865 88.8298 513.921 89.0446 513.921 89.2631V89.2631Z" fill="#999999"/>
<path d="M519.068 89.2631C519.068 89.4816 519.011 89.6965 518.903 89.8869L514.12 98.32L518.903 106.753C519.011 106.943 519.068 107.158 519.068 107.376C519.068 107.595 519.011 107.81 518.903 108L514.12 116.433L518.903 124.866C519.011 125.057 519.068 125.272 519.068 125.49C519.068 125.709 519.011 125.924 518.903 126.114L513.766 135.171C513.598 135.464 513.321 135.679 512.993 135.769C512.666 135.859 512.316 135.817 512.02 135.652C511.723 135.487 511.505 135.212 511.413 134.888C511.321 134.564 511.362 134.217 511.527 133.923L516.31 125.49L511.527 117.057C511.419 116.867 511.362 116.652 511.362 116.433C511.362 116.215 511.419 116 511.527 115.809L516.31 107.376L511.527 98.9438C511.419 98.7534 511.362 98.5385 511.362 98.32C511.362 98.1015 511.419 97.8867 511.527 97.6962L516.31 89.2631L511.527 80.8297C511.419 80.6393 511.362 80.4245 511.362 80.206C511.362 79.9874 511.419 79.7726 511.527 79.5822L516.31 71.1484L511.527 62.7146C511.444 62.5689 511.391 62.4084 511.371 62.2423C511.351 62.0762 511.363 61.9077 511.409 61.7466C511.454 61.5855 511.531 61.4348 511.636 61.3032C511.74 61.1716 511.869 61.0617 512.016 60.9797C512.164 60.8977 512.326 60.8453 512.493 60.8254C512.661 60.8055 512.831 60.8186 512.993 60.8638C513.156 60.9091 513.308 60.9857 513.44 61.0892C513.573 61.1927 513.684 61.3211 513.766 61.467L518.903 70.5246C519.011 70.7151 519.068 70.9299 519.068 71.1484C519.068 71.3669 519.011 71.5817 518.903 71.7722L514.12 80.206L518.903 88.6393C519.011 88.8298 519.068 89.0446 519.068 89.2631Z" fill="#2CCCC3"/>
<path d="M524.215 89.2631C524.215 89.4816 524.158 89.6965 524.05 89.8869L519.267 98.32L524.05 106.753C524.158 106.943 524.215 107.158 524.215 107.376C524.215 107.595 524.158 107.81 524.05 108L519.267 116.433L524.05 124.866C524.158 125.057 524.215 125.272 524.215 125.49C524.215 125.709 524.158 125.924 524.05 126.114L518.913 135.171C518.745 135.464 518.467 135.679 518.14 135.77C517.813 135.86 517.462 135.818 517.166 135.653C516.87 135.488 516.651 135.213 516.559 134.889C516.467 134.564 516.508 134.217 516.674 133.923L521.457 125.49L516.674 117.057C516.566 116.867 516.509 116.652 516.509 116.433C516.509 116.215 516.566 116 516.674 115.809L521.457 107.376L516.674 98.9438C516.566 98.7534 516.509 98.5385 516.509 98.32C516.509 98.1015 516.566 97.8867 516.674 97.6962L521.457 89.2631L516.674 80.8297C516.566 80.6393 516.509 80.4245 516.509 80.206C516.509 79.9875 516.566 79.7726 516.674 79.5822L521.457 71.1484L516.674 62.7146C516.591 62.5689 516.538 62.4084 516.518 62.2424C516.498 62.0763 516.511 61.908 516.556 61.7469C516.602 61.5858 516.679 61.4352 516.783 61.3037C516.887 61.1722 517.017 61.0623 517.164 60.9803C517.311 60.8984 517.473 60.8459 517.64 60.8261C517.808 60.8062 517.978 60.8192 518.14 60.8644C518.302 60.9096 518.454 60.9861 518.587 61.0895C518.72 61.1929 518.83 61.3212 518.913 61.467L524.05 70.5246C524.158 70.7151 524.215 70.9299 524.215 71.1484C524.215 71.3669 524.158 71.5817 524.05 71.7722L519.267 80.206L524.05 88.6393C524.158 88.8298 524.215 89.0446 524.215 89.2631V89.2631Z" fill="#5626C4"/>
<path d="M554.785 3.42433L552.174 0.693014C551.778 0.278987 551.241 0.0463901 550.681 0.0463901C550.121 0.0463901 549.585 0.278987 549.189 0.693013C548.793 1.10704 548.57 1.66858 548.57 2.2541C548.57 2.83962 548.793 3.40116 549.189 3.81519L551.8 6.5465L549.189 9.2778C548.993 9.4828 548.837 9.72618 548.731 9.99403C548.625 10.2619 548.57 10.549 548.57 10.8389C548.57 11.1288 548.625 11.4159 548.731 11.6837C548.837 11.9516 548.993 12.195 549.189 12.4C549.385 12.605 549.617 12.7676 549.873 12.8785C550.13 12.9895 550.404 13.0466 550.681 13.0466C550.958 13.0466 551.233 12.9895 551.489 12.8785C551.745 12.7676 551.978 12.605 552.174 12.4L554.785 9.66866L557.397 12.4C557.793 12.814 558.329 13.0466 558.889 13.0466C559.449 13.0466 559.986 12.814 560.382 12.4C560.778 11.9859 561 11.4244 561 10.8389C561 10.2534 560.778 9.69183 560.382 9.2778L557.77 6.5465L560.382 3.81519C560.778 3.40116 561 2.83962 561 2.2541C561 1.66858 560.778 1.10704 560.382 0.693014C559.986 0.278988 559.449 0.0463905 558.889 0.0463905C558.329 0.0463904 557.793 0.278988 557.397 0.693014L554.785 3.42433Z" fill="#5626C4"/>
<path d="M535 3.42433L532.389 0.693014C531.993 0.278987 531.456 0.0463901 530.896 0.0463901C530.336 0.0463901 529.799 0.278987 529.403 0.693013C529.008 1.10704 528.785 1.66858 528.785 2.2541C528.785 2.83962 529.008 3.40116 529.403 3.81519L532.015 6.5465L529.403 9.2778C529.008 9.69183 528.785 10.2534 528.785 10.8389C528.785 11.4244 529.008 11.9859 529.403 12.4C529.799 12.814 530.336 13.0466 530.896 13.0466C531.456 13.0466 531.993 12.814 532.389 12.4L535 9.66866L537.611 12.4C538.007 12.8132 538.544 13.0451 539.103 13.0447C539.663 13.0443 540.199 12.8118 540.595 12.3981C540.99 11.9844 541.213 11.4234 541.213 10.8383C541.213 10.2533 540.992 9.692 540.597 9.2778L537.985 6.5465L540.597 3.81519C540.992 3.40099 541.213 2.83972 541.213 2.25466C541.213 1.6696 540.99 1.10861 540.595 0.694909C540.199 0.28121 539.663 0.0486389 539.103 0.0482836C538.544 0.0479284 538.007 0.279818 537.611 0.693014L535 3.42433Z" fill="#5626C4"/>
<path d="M515.215 3.42433L512.603 0.693014C512.407 0.488009 512.175 0.32539 511.919 0.214442C511.662 0.103494 511.388 0.0463901 511.111 0.0463901C510.834 0.0463901 510.559 0.103494 510.303 0.214442C510.047 0.32539 509.814 0.488009 509.618 0.693013C509.422 0.898018 509.267 1.14139 509.161 1.40925C509.055 1.6771 509 1.96418 509 2.2541C509 2.54402 509.055 2.8311 509.161 3.09895C509.267 3.36681 509.422 3.61018 509.618 3.81519L512.23 6.5465L509.618 9.2778C509.422 9.4828 509.267 9.72618 509.161 9.99403C509.055 10.2619 509 10.549 509 10.8389C509 11.1288 509.055 11.4159 509.161 11.6837C509.267 11.9516 509.422 12.195 509.618 12.4C509.814 12.605 510.047 12.7676 510.303 12.8785C510.559 12.9895 510.834 13.0466 511.111 13.0466C511.388 13.0466 511.662 12.9895 511.919 12.8785C512.175 12.7676 512.407 12.605 512.603 12.4L515.215 9.66866L517.826 12.4C518.022 12.605 518.255 12.7676 518.511 12.8785C518.767 12.9895 519.042 13.0466 519.319 13.0466C519.596 13.0466 519.87 12.9895 520.127 12.8785C520.383 12.7676 520.615 12.605 520.811 12.4C521.007 12.195 521.163 11.9516 521.269 11.6837C521.375 11.4159 521.43 11.1288 521.43 10.8389C521.43 10.549 521.375 10.2619 521.269 9.99403C521.163 9.72618 521.007 9.48281 520.811 9.2778L518.2 6.5465L520.811 3.81519C521.207 3.40116 521.43 2.83962 521.43 2.2541C521.43 1.66858 521.207 1.10704 520.811 0.693014C520.415 0.278988 519.879 0.0463906 519.319 0.0463905C518.759 0.0463905 518.222 0.278988 517.826 0.693014L515.215 3.42433Z" fill="#5626C4"/>
<path d="M386.316 454.214L383.584 456.825C383.17 457.221 382.938 457.758 382.938 458.318C382.938 458.878 383.17 459.414 383.584 459.81C383.998 460.206 384.56 460.429 385.145 460.429C385.731 460.429 386.293 460.206 386.707 459.81L389.438 457.199L392.169 459.81C392.374 460.006 392.618 460.162 392.885 460.268C393.153 460.374 393.44 460.429 393.73 460.429C394.02 460.429 394.307 460.374 394.575 460.268C394.843 460.162 395.086 460.006 395.291 459.81C395.496 459.614 395.659 459.382 395.77 459.125C395.881 458.869 395.938 458.595 395.938 458.318C395.938 458.041 395.881 457.766 395.77 457.51C395.659 457.254 395.496 457.021 395.291 456.825L392.56 454.214L395.291 451.602C395.705 451.206 395.938 450.67 395.938 450.11C395.938 449.55 395.705 449.013 395.291 448.617C394.877 448.221 394.316 447.999 393.73 447.999C393.145 447.999 392.583 448.221 392.169 448.617L389.438 451.229L386.707 448.617C386.293 448.221 385.731 447.999 385.145 447.999C384.56 447.999 383.998 448.221 383.584 448.617C383.17 449.013 382.938 449.55 382.938 450.11C382.938 450.67 383.17 451.206 383.584 451.602L386.316 454.214Z" fill="#5626C4"/>
<path d="M386.316 473.999L383.584 476.61C383.17 477.006 382.938 477.543 382.938 478.103C382.938 478.663 383.17 479.2 383.584 479.596C383.998 479.991 384.56 480.214 385.145 480.214C385.731 480.214 386.293 479.991 386.707 479.596L389.438 476.984L392.169 479.596C392.583 479.991 393.145 480.214 393.73 480.214C394.316 480.214 394.877 479.991 395.291 479.596C395.705 479.2 395.938 478.663 395.938 478.103C395.938 477.543 395.705 477.006 395.291 476.61L392.56 473.999L395.291 471.388C395.705 470.991 395.936 470.455 395.936 469.895C395.936 469.336 395.703 468.8 395.289 468.404C394.876 468.009 394.315 467.786 393.73 467.786C393.145 467.786 392.583 468.007 392.169 468.402L389.438 471.014L386.707 468.402C386.292 468.007 385.731 467.786 385.146 467.786C384.561 467.786 384 468.009 383.586 468.404C383.173 468.8 382.94 469.336 382.94 469.895C382.939 470.455 383.171 470.991 383.584 471.388L386.316 473.999Z" fill="#5626C4"/>
<path d="M386.316 493.784L383.584 496.396C383.379 496.592 383.217 496.824 383.106 497.08C382.995 497.337 382.938 497.611 382.938 497.888C382.938 498.165 382.995 498.44 383.106 498.696C383.217 498.952 383.379 499.185 383.584 499.381C383.789 499.577 384.033 499.732 384.301 499.838C384.568 499.944 384.856 499.999 385.145 499.999C385.435 499.999 385.722 499.944 385.99 499.838C386.258 499.732 386.502 499.577 386.707 499.381L389.438 496.769L392.169 499.381C392.374 499.577 392.618 499.732 392.885 499.838C393.153 499.944 393.44 499.999 393.73 499.999C394.02 499.999 394.307 499.944 394.575 499.838C394.843 499.732 395.086 499.577 395.291 499.381C395.496 499.185 395.659 498.952 395.77 498.696C395.881 498.44 395.938 498.165 395.938 497.888C395.938 497.611 395.881 497.337 395.77 497.08C395.659 496.824 395.496 496.592 395.291 496.396L392.56 493.784L395.291 491.173C395.496 490.977 395.659 490.744 395.77 490.488C395.881 490.232 395.938 489.957 395.938 489.68C395.938 489.403 395.881 489.129 395.77 488.872C395.659 488.616 395.496 488.384 395.291 488.188C395.086 487.992 394.843 487.836 394.575 487.73C394.307 487.624 394.02 487.569 393.73 487.569C393.44 487.569 393.153 487.624 392.885 487.73C392.618 487.836 392.374 487.992 392.169 488.188L389.438 490.799L386.707 488.188C386.293 487.792 385.731 487.569 385.145 487.569C384.56 487.569 383.998 487.792 383.584 488.188C383.17 488.583 382.938 489.12 382.938 489.68C382.938 490.24 383.17 490.777 383.584 491.173L386.316 493.784Z" fill="#5626C4"/>
<path d="M1149.38 641.715L1146.65 644.326C1146.23 644.722 1146 645.259 1146 645.819C1146 646.378 1146.23 646.915 1146.65 647.311C1147.06 647.707 1147.62 647.929 1148.21 647.929C1148.79 647.929 1149.35 647.707 1149.77 647.311L1152.5 644.7L1155.23 647.311C1155.44 647.507 1155.68 647.663 1155.95 647.769C1156.22 647.875 1156.5 647.929 1156.79 647.929C1157.08 647.929 1157.37 647.875 1157.64 647.769C1157.91 647.663 1158.15 647.507 1158.35 647.311C1158.56 647.115 1158.72 646.883 1158.83 646.626C1158.94 646.37 1159 646.096 1159 645.819C1159 645.541 1158.94 645.267 1158.83 645.011C1158.72 644.755 1158.56 644.522 1158.35 644.326L1155.62 641.715L1158.35 639.103C1158.77 638.707 1159 638.171 1159 637.611C1159 637.051 1158.77 636.514 1158.35 636.118C1157.94 635.722 1157.38 635.5 1156.79 635.5C1156.21 635.5 1155.65 635.722 1155.23 636.118L1152.5 638.73L1149.77 636.118C1149.35 635.722 1148.79 635.5 1148.21 635.5C1147.62 635.5 1147.06 635.722 1146.65 636.118C1146.23 636.514 1146 637.051 1146 637.611C1146 638.171 1146.23 638.707 1146.65 639.103L1149.38 641.715Z" fill="#5626C4"/>
<path d="M1149.38 661.5L1146.65 664.111C1146.23 664.507 1146 665.044 1146 665.604C1146 666.164 1146.23 666.701 1146.65 667.096C1147.06 667.492 1147.62 667.715 1148.21 667.715C1148.79 667.715 1149.35 667.492 1149.77 667.096L1152.5 664.485L1155.23 667.096C1155.65 667.492 1156.21 667.715 1156.79 667.715C1157.38 667.715 1157.94 667.492 1158.35 667.096C1158.77 666.701 1159 666.164 1159 665.604C1159 665.044 1158.77 664.507 1158.35 664.111L1155.62 661.5L1158.35 658.888C1158.77 658.492 1159 657.956 1159 657.396C1159 656.837 1158.77 656.301 1158.35 655.905C1157.94 655.51 1157.38 655.287 1156.79 655.287C1156.21 655.287 1155.65 655.508 1155.23 655.903L1152.5 658.515L1149.77 655.903C1149.35 655.508 1148.79 655.287 1148.21 655.287C1147.62 655.287 1147.06 655.51 1146.65 655.905C1146.23 656.301 1146 656.837 1146 657.396C1146 657.956 1146.23 658.492 1146.65 658.888L1149.38 661.5Z" fill="#5626C4"/>
<path d="M1149.38 681.285L1146.65 683.897C1146.44 684.093 1146.28 684.325 1146.17 684.581C1146.06 684.838 1146 685.112 1146 685.389C1146 685.666 1146.06 685.941 1146.17 686.197C1146.28 686.453 1146.44 686.686 1146.65 686.882C1146.85 687.078 1147.1 687.233 1147.36 687.339C1147.63 687.445 1147.92 687.5 1148.21 687.5C1148.5 687.5 1148.78 687.445 1149.05 687.339C1149.32 687.233 1149.56 687.078 1149.77 686.882L1152.5 684.27L1155.23 686.882C1155.44 687.078 1155.68 687.233 1155.95 687.339C1156.22 687.445 1156.5 687.5 1156.79 687.5C1157.08 687.5 1157.37 687.445 1157.64 687.339C1157.91 687.233 1158.15 687.078 1158.35 686.882C1158.56 686.686 1158.72 686.453 1158.83 686.197C1158.94 685.941 1159 685.666 1159 685.389C1159 685.112 1158.94 684.838 1158.83 684.581C1158.72 684.325 1158.56 684.093 1158.35 683.897L1155.62 681.285L1158.35 678.674C1158.56 678.478 1158.72 678.245 1158.83 677.989C1158.94 677.733 1159 677.458 1159 677.181C1159 676.904 1158.94 676.63 1158.83 676.373C1158.72 676.117 1158.56 675.885 1158.35 675.689C1158.15 675.493 1157.91 675.337 1157.64 675.231C1157.37 675.125 1157.08 675.07 1156.79 675.07C1156.5 675.07 1156.22 675.125 1155.95 675.231C1155.68 675.337 1155.44 675.493 1155.23 675.689L1152.5 678.3L1149.77 675.689C1149.35 675.293 1148.79 675.07 1148.21 675.07C1147.62 675.07 1147.06 675.293 1146.65 675.689C1146.23 676.084 1146 676.621 1146 677.181C1146 677.741 1146.23 678.278 1146.65 678.674L1149.38 681.285Z" fill="#5626C4"/>
</svg>
