<svg width="70" height="41" viewBox="0 0 70 41" fill="none" xmlns="http://www.w3.org/2000/svg">
<path d="M35.8774 2.48295L35.8774 38.2725C35.8774 38.642 35.7807 39.005 35.597 39.3251C35.4133 39.6451 35.1491 39.9109 34.8309 40.0956C34.5127 40.2804 34.1517 40.3777 33.7843 40.3777C33.4169 40.3777 33.056 40.2804 32.7378 40.0956L1.92239 22.2008C1.6042 22.016 1.33998 21.7503 1.15627 21.4303C0.97257 21.1102 0.875852 20.7472 0.875852 20.3776C0.875852 20.0081 0.97257 19.6451 1.15627 19.325C1.33998 19.005 1.6042 18.7392 1.92239 18.5545L32.7378 0.659775C33.056 0.475002 33.4169 0.377723 33.7844 0.377724C34.1518 0.377724 34.5127 0.474998 34.8309 0.659767C35.1491 0.84454 35.4133 1.1103 35.597 1.43033C35.7807 1.75037 35.8774 2.1134 35.8774 2.48295L35.8774 2.48295ZM31.6913 34.626L31.6913 6.1293L7.15508 20.3776L31.6913 34.626Z" fill="#999999"/>
<path d="M52.375 2.48293L52.375 38.2725C52.375 38.642 52.2783 39.005 52.0946 39.3251C51.9109 39.6451 51.6466 39.9109 51.3284 40.0956C51.0103 40.2804 50.6493 40.3777 50.2819 40.3777C49.9145 40.3777 49.5535 40.2804 49.2354 40.0956L18.42 22.2008C18.1018 22.016 17.8375 21.7503 17.6538 21.4302C17.4701 21.1102 17.3734 20.7472 17.3734 20.3776C17.3734 20.0081 17.4701 19.645 17.6538 19.325C17.8375 19.005 18.1018 18.7392 18.42 18.5544L49.2354 0.659748C49.5536 0.474975 49.9145 0.377697 50.2819 0.377697C50.6493 0.377697 51.0103 0.474968 51.3285 0.65974C51.6466 0.844513 51.9109 1.11027 52.0946 1.43031C52.2783 1.75034 52.375 2.11338 52.375 2.48293L52.375 2.48293ZM48.1888 34.626L48.1888 6.12929L23.6527 20.3776L48.1888 34.626Z" fill="#5626C4"/>
<path d="M69.876 2.48294L69.876 38.2725C69.876 38.642 69.7793 39.005 69.5955 39.3251C69.4118 39.6451 69.1476 39.9109 68.8294 40.0956C68.5112 40.2804 68.1503 40.3777 67.7829 40.3777C67.4155 40.3777 67.0545 40.2804 66.7363 40.0956L35.9209 22.2008C35.6027 22.016 35.3385 21.7503 35.1548 21.4302C34.9711 21.1102 34.8744 20.7472 34.8744 20.3776C34.8744 20.0081 34.9711 19.6451 35.1548 19.325C35.3385 19.005 35.6027 18.7392 35.9209 18.5545L66.7364 0.659767C67.0545 0.474994 67.4155 0.377716 67.7829 0.377716C68.1503 0.377716 68.5112 0.474991 68.8294 0.659763C69.1476 0.844536 69.4118 1.11029 69.5956 1.43033C69.7793 1.75036 69.876 2.1134 69.876 2.48294V2.48294ZM65.6898 34.626L65.6898 6.1293L41.1536 20.3776L65.6898 34.626Z" fill="#5550F2"/>
</svg>
