<svg width="24" height="184" viewBox="0 0 24 184" fill="none" xmlns="http://www.w3.org/2000/svg">
<path d="M12 184L12 74" stroke="#E60576" stroke-width="2"/>
<path d="M14.4347 5.71875C14.8381 5.6733 15.1506 5.4858 15.3722 5.15625C15.5966 4.8267 15.7088 4.41193 15.7088 3.91193C15.7088 3.55398 15.652 3.24432 15.5384 2.98295C15.4276 2.72159 15.2741 2.51847 15.0781 2.37358C14.8849 2.23153 14.6648 2.16051 14.4176 2.16051C14.2102 2.16051 14.0313 2.20881 13.8807 2.3054C13.7301 2.40483 13.6037 2.53409 13.5014 2.69318C13.402 2.85511 13.3182 3.02841 13.25 3.21307C13.1847 3.39773 13.1307 3.57528 13.0881 3.74574L12.8665 4.59801C12.7983 4.87642 12.706 5.16193 12.5895 5.45455C12.473 5.74716 12.3196 6.01847 12.1293 6.26847C11.9389 6.51847 11.7031 6.72017 11.4219 6.87358C11.1406 7.02983 10.804 7.10795 10.4119 7.10795C9.91761 7.10795 9.47869 6.98011 9.09517 6.72443C8.71165 6.47159 8.40909 6.10369 8.1875 5.62074C7.96591 5.14062 7.85511 4.55966 7.85511 3.87784C7.85511 3.22443 7.95881 2.65909 8.16619 2.18182C8.37358 1.70454 8.66761 1.33097 9.0483 1.06108C9.43182 0.791193 9.88636 0.642045 10.4119 0.613636L10.4119 1.93466C10.0966 1.96023 9.83381 2.0625 9.62358 2.24148C9.41619 2.42329 9.26136 2.65483 9.15909 2.93608C9.05966 3.22017 9.00994 3.53125 9.00994 3.86932C9.00994 4.24148 9.06818 4.57244 9.18466 4.86222C9.30398 5.15483 9.46875 5.38494 9.67898 5.55256C9.89205 5.72017 10.1406 5.80398 10.4247 5.80398C10.6832 5.80398 10.8949 5.73011 11.0597 5.58239C11.2244 5.4375 11.3608 5.24006 11.4687 4.99006C11.5767 4.7429 11.6719 4.46307 11.7543 4.15057L12.0355 3.11932C12.2259 2.42045 12.5057 1.86648 12.875 1.45739C13.2443 1.05114 13.733 0.848011 14.3409 0.848011C14.8438 0.848011 15.2827 0.984375 15.6577 1.2571C16.0327 1.52983 16.3239 1.89915 16.5312 2.36506C16.7415 2.83097 16.8466 3.35653 16.8466 3.94176C16.8466 4.53267 16.7429 5.05398 16.5355 5.50568C16.3281 5.96023 16.0426 6.31818 15.679 6.57955C15.3182 6.84091 14.9034 6.97727 14.4347 6.98864L14.4347 5.71875ZM7.8679 11.4363C7.8679 10.8028 8.01136 10.2573 8.2983 9.79993C8.58807 9.34538 8.98722 8.99595 9.49574 8.75163C10.0043 8.50731 10.5866 8.38516 11.2429 8.38516C11.9077 8.38516 12.4943 8.51016 13.0028 8.76016C13.5142 9.01016 13.9134 9.36243 14.2003 9.81697C14.4872 10.2715 14.6307 10.807 14.6307 11.4235C14.6307 11.9207 14.5384 12.3638 14.3537 12.7531C14.1719 13.1423 13.9162 13.4562 13.5866 13.6948C13.2571 13.9363 12.8722 14.0798 12.4318 14.1252L12.4318 12.8852C12.7386 12.817 13.0028 12.6607 13.2244 12.4164C13.446 12.1749 13.5568 11.8511 13.5568 11.4448C13.5568 11.0897 13.4631 10.7786 13.2756 10.5116C13.0909 10.2474 12.8267 10.0414 12.483 9.89368C12.142 9.74595 11.7386 9.67209 11.2727 9.67209C10.7955 9.67209 10.3835 9.74453 10.0369 9.88942C9.69034 10.0343 9.42187 10.2388 9.23153 10.5031C9.04119 10.7701 8.94602 11.084 8.94602 11.4448C8.94602 11.6863 8.99006 11.905 9.07812 12.1011C9.16903 12.2999 9.29829 12.4661 9.46591 12.5996C9.63352 12.736 9.83523 12.8312 10.071 12.8852L10.071 14.1252C9.64773 14.0798 9.26989 13.942 8.9375 13.7119C8.60511 13.4817 8.34375 13.1735 8.15341 12.7871C7.96307 12.4036 7.8679 11.9533 7.8679 11.4363ZM8 15.5878L14.5455 15.5878L14.5455 16.8193L13.5057 16.8193L13.5057 16.8875C13.858 17.0068 14.1349 17.217 14.3366 17.5182C14.5412 17.8222 14.6435 18.1659 14.6435 18.5494C14.6435 18.629 14.6406 18.7227 14.6349 18.8307C14.6293 18.9415 14.6222 19.0281 14.6136 19.0906L13.3949 19.0906C13.4091 19.0395 13.4247 18.9486 13.4418 18.8179C13.4616 18.6872 13.4716 18.5565 13.4716 18.4259C13.4716 18.1247 13.4077 17.8562 13.2798 17.6205C13.1548 17.3875 12.9801 17.2028 12.7557 17.0665C12.5341 16.9301 12.2812 16.8619 11.9972 16.8619L8 16.8619L8 15.5878ZM7.8679 22.816C7.8679 22.2023 8.00852 21.6668 8.28977 21.2094C8.57102 20.7521 8.96449 20.3969 9.47017 20.1441C9.97585 19.8913 10.5668 19.7648 11.2429 19.7648C11.9219 19.7648 12.5156 19.8913 13.0241 20.1441C13.5327 20.3969 13.9276 20.7521 14.2088 21.2094C14.4901 21.6668 14.6307 22.2023 14.6307 22.816C14.6307 23.4296 14.4901 23.9651 14.2088 24.4225C13.9276 24.8799 13.5327 25.235 13.0241 25.4879C12.5156 25.7407 11.9219 25.8671 11.2429 25.8671C10.5668 25.8671 9.97585 25.7407 9.47017 25.4879C8.96449 25.235 8.57102 24.8799 8.28977 24.4225C8.00852 23.9651 7.8679 23.4296 7.8679 22.816ZM8.9375 22.8202C8.9375 23.218 9.04261 23.5475 9.25284 23.8089C9.46307 24.0702 9.7429 24.2634 10.0923 24.3884C10.4418 24.5163 10.8267 24.5802 11.2472 24.5802C11.6648 24.5802 12.0483 24.5163 12.3977 24.3884C12.75 24.2634 13.0327 24.0702 13.2457 23.8089C13.4588 23.5475 13.5653 23.218 13.5653 22.8202C13.5653 22.4197 13.4588 22.0873 13.2457 21.8231C13.0327 21.5617 12.75 21.3671 12.3977 21.2393C12.0483 21.1143 11.6648 21.0518 11.2472 21.0518C10.8267 21.0518 10.4418 21.1143 10.0923 21.2393C9.7429 21.3671 9.46307 21.5617 9.25284 21.8231C9.04261 22.0873 8.9375 22.4197 8.9375 22.8202ZM16.7273 28.6635L8 28.6635L8 27.3893L16.7273 27.3893L16.7273 28.6635ZM16.7273 31.7518L8 31.7518L8 30.4776L16.7273 30.4776L16.7273 31.7518ZM7.87216 39.292C7.87216 38.7636 8.0071 38.292 8.27699 37.8772C8.54971 37.4653 8.9375 37.1414 9.44034 36.9056C9.94602 36.6727 10.5526 36.5562 11.2599 36.5562C11.9673 36.5562 12.5724 36.6741 13.0753 36.9099C13.5781 37.1485 13.9631 37.4752 14.2301 37.89C14.4972 38.3048 14.6307 38.7749 14.6307 39.3005C14.6307 39.7067 14.5625 40.0335 14.4261 40.2806C14.2926 40.5306 14.1364 40.7238 13.9574 40.8602C13.7784 40.9994 13.6207 41.1073 13.4844 41.184L13.4844 41.2607L16.7273 41.2607L16.7273 42.5349L8 42.5349L8 41.2906L9.01846 41.2906L9.01846 41.184C8.87926 41.1073 8.72017 40.9965 8.54119 40.8516C8.36221 40.7096 8.20596 40.5136 8.07244 40.2636C7.93892 40.0136 7.87216 39.6897 7.87216 39.292ZM8.95881 39.5732C8.95881 39.9397 9.0554 40.2494 9.24858 40.5022C9.4446 40.7579 9.71591 40.9511 10.0625 41.0817C10.4091 41.2153 10.8125 41.282 11.2727 41.282C11.7273 41.282 12.125 41.2167 12.4659 41.086C12.8068 40.9553 13.0724 40.7636 13.2628 40.5107C13.4531 40.2579 13.5483 39.9454 13.5483 39.5732C13.5483 39.1897 13.4489 38.8701 13.25 38.6144C13.0511 38.3587 12.7798 38.1656 12.4361 38.0349C12.0923 37.907 11.7045 37.8431 11.2727 37.8431C10.8352 37.8431 10.4418 37.9085 10.0923 38.0391C9.7429 38.1698 9.46591 38.363 9.26136 38.6187C9.05966 38.8772 8.95881 39.1954 8.95881 39.5732ZM7.8679 47.2105C7.8679 46.5969 8.00852 46.0614 8.28977 45.604C8.57102 45.1466 8.96449 44.7915 9.47017 44.5386C9.97585 44.2858 10.5668 44.1594 11.2429 44.1594C11.9219 44.1594 12.5156 44.2858 13.0241 44.5386C13.5327 44.7915 13.9276 45.1466 14.2088 45.604C14.4901 46.0614 14.6307 46.5969 14.6307 47.2105C14.6307 47.8241 14.4901 48.3597 14.2088 48.817C13.9276 49.2744 13.5327 49.6295 13.0241 49.8824C12.5156 50.1352 11.9219 50.2616 11.2429 50.2616C10.5668 50.2616 9.97585 50.1352 9.47017 49.8824C8.96449 49.6295 8.57102 49.2744 8.28977 48.817C8.00852 48.3597 7.8679 47.8241 7.8679 47.2105ZM8.9375 47.2148C8.9375 47.6125 9.04261 47.942 9.25284 48.2034C9.46307 48.4648 9.7429 48.658 10.0923 48.783C10.4418 48.9108 10.8267 48.9747 11.2472 48.9747C11.6648 48.9747 12.0483 48.9108 12.3977 48.783C12.75 48.658 13.0327 48.4648 13.2457 48.2034C13.4588 47.942 13.5653 47.6125 13.5653 47.2148C13.5653 46.8142 13.4588 46.4818 13.2457 46.2176C13.0327 45.9562 12.75 45.7616 12.3977 45.6338C12.0483 45.5088 11.6648 45.4463 11.2472 45.4463C10.8267 45.4463 10.4418 45.5088 10.0923 45.6338C9.7429 45.7616 9.46307 45.9562 9.25284 46.2176C9.04261 46.4818 8.9375 46.8142 8.9375 47.2148ZM8 53.0037L14.5455 51.0776L14.5455 52.3943L9.73863 53.677L9.73863 53.7409L14.5455 55.0278L14.5455 56.3446L9.75994 57.623L9.75994 57.6869L14.5455 58.9611L14.5455 60.2778L8 58.356L8 57.0563L12.7258 55.7267L12.7258 55.6287L8 54.2991L8 53.0037ZM11.8864 62.8612L8 62.8611L8 61.587L14.5455 61.587L14.5455 62.81L13.4801 62.81L13.4801 62.891C13.8267 63.0415 14.1051 63.2773 14.3153 63.5984C14.5256 63.9222 14.6307 64.3299 14.6307 64.8214C14.6307 65.2674 14.5369 65.658 14.3494 65.9933C14.1648 66.3285 13.8892 66.5884 13.5227 66.7731C13.1562 66.9577 12.7031 67.0501 12.1633 67.0501L8 67.0501L8 65.7759L12.0099 65.7759C12.4844 65.7759 12.8551 65.6523 13.1222 65.4052C13.392 65.158 13.527 64.8185 13.527 64.3867C13.527 64.0913 13.4631 63.8285 13.3352 63.5984C13.2074 63.3711 13.0199 63.1907 12.7727 63.0572C12.5284 62.9265 12.233 62.8612 11.8864 62.8612Z" fill="#E60576"/>
</svg>
