<svg width="25" height="360" viewBox="0 0 25 360" fill="none" xmlns="http://www.w3.org/2000/svg">
<path d="M12.991 360L12.991 89.3305" stroke="#E60576" stroke-width="2"/>
<path d="M15.4981 6.67187C15.9687 6.61884 16.3333 6.40009 16.5918 6.01562C16.8537 5.63116 16.9846 5.14725 16.9846 4.56392C16.9846 4.14631 16.9183 3.78504 16.7857 3.48011C16.6565 3.17519 16.4775 2.93821 16.2488 2.76918C16.0234 2.60346 15.7665 2.5206 15.4782 2.5206C15.2362 2.5206 15.0274 2.57694 14.8518 2.68963C14.6761 2.80563 14.5286 2.95644 14.4093 3.14205C14.2933 3.33097 14.1955 3.53314 14.116 3.74858C14.0397 3.96401 13.9768 4.17116 13.927 4.37003L13.6685 5.36435C13.589 5.68916 13.4813 6.02225 13.3454 6.36364C13.2095 6.70502 13.0305 7.02154 12.8084 7.31321C12.5864 7.60488 12.3113 7.8402 11.9832 8.01918C11.655 8.20147 11.2623 8.29261 10.8049 8.29261C10.2282 8.29261 9.71611 8.14347 9.26867 7.84517C8.82122 7.55019 8.46824 7.12098 8.20972 6.55753C7.95119 5.9974 7.82193 5.3196 7.82193 4.52415C7.82193 3.76184 7.94291 3.10227 8.18486 2.54545C8.42681 1.98864 8.76985 1.55279 9.21398 1.23793C9.66142 0.923058 10.1917 0.749052 10.8049 0.715909L10.8049 2.2571C10.437 2.28693 10.1304 2.40625 9.88514 2.61506C9.64319 2.82718 9.46256 3.0973 9.34324 3.42543C9.22724 3.75686 9.16923 4.11979 9.16923 4.5142C9.16923 4.94839 9.23718 5.33452 9.37307 5.67258C9.51227 6.01397 9.70451 6.28243 9.94977 6.47798C10.1984 6.67353 10.4884 6.77131 10.8198 6.77131C11.1214 6.77131 11.3683 6.68513 11.5606 6.51278C11.7528 6.34375 11.9119 6.1134 12.0378 5.82173C12.1638 5.53338 12.2748 5.20691 12.3709 4.84233L12.6991 3.6392C12.9211 2.82386 13.2476 2.17756 13.6785 1.70028C14.1093 1.22633 14.6794 0.989346 15.3887 0.989346C15.9753 0.989346 16.4874 1.14844 16.9249 1.46662C17.3624 1.7848 17.7021 2.21567 17.9441 2.75923C18.1894 3.30279 18.312 3.91596 18.312 4.59872C18.312 5.28812 18.191 5.89631 17.9491 6.4233C17.7071 6.9536 17.374 7.37121 16.9498 7.67614C16.5288 7.98106 16.0449 8.14015 15.4981 8.15341L15.4981 6.67187ZM7.83685 13.3257C7.83685 12.5866 8.00422 11.9502 8.33898 11.4166C8.67705 10.8863 9.14272 10.4786 9.73599 10.1936C10.3293 9.90853 11.0087 9.76602 11.7743 9.76602C12.5499 9.76602 13.2343 9.91185 13.8276 10.2035C14.4242 10.4952 14.8899 10.9062 15.2246 11.4365C15.5594 11.9668 15.7268 12.5915 15.7268 13.3108C15.7268 13.8908 15.619 14.4078 15.4036 14.8619C15.1915 15.316 14.8932 15.6822 14.5087 15.9606C14.1243 16.2423 13.6752 16.4097 13.1614 16.4627L13.1614 15.016C13.5194 14.9365 13.8276 14.7542 14.0861 14.4691C14.3447 14.1874 14.4739 13.8096 14.4739 13.3356C14.4739 12.9213 14.3645 12.5584 14.1458 12.2468C13.9304 11.9386 13.6221 11.6983 13.2211 11.526C12.8234 11.3536 12.3527 11.2674 11.8091 11.2674C11.2523 11.2674 10.7717 11.352 10.3674 11.521C9.96303 11.69 9.64982 11.9287 9.42776 12.2369C9.20569 12.5484 9.09466 12.9147 9.09466 13.3356C9.09466 13.6173 9.14603 13.8725 9.24878 14.1012C9.35484 14.3333 9.50564 14.5271 9.70119 14.6829C9.89674 14.842 10.1321 14.953 10.4072 15.016L10.4072 16.4627C9.91331 16.4097 9.4725 16.249 9.08472 15.9805C8.69693 15.712 8.39201 15.3524 8.16994 14.9017C7.94788 14.4542 7.83685 13.9289 7.83685 13.3257ZM7.99097 18.1524L15.6273 18.1524L15.6273 19.5892L14.4143 19.5892L14.4143 19.6688C14.8252 19.808 15.1484 20.0532 15.3837 20.4045C15.6224 20.7592 15.7417 21.1602 15.7417 21.6077C15.7417 21.7005 15.7384 21.8098 15.7317 21.9358C15.7251 22.0651 15.7168 22.1661 15.7069 22.2391L14.285 22.2391C14.3016 22.1794 14.3198 22.0733 14.3397 21.9209C14.3629 21.7684 14.3745 21.616 14.3745 21.4635C14.3745 21.1122 14.2999 20.799 14.1508 20.5239C14.0049 20.2521 13.8011 20.0366 13.5393 19.8776C13.2807 19.7185 12.9858 19.6389 12.6543 19.6389L7.99097 19.6389L7.99097 18.1524ZM7.83685 26.5686C7.83685 25.8527 8.00091 25.228 8.32903 24.6944C8.65716 24.1607 9.1162 23.7464 9.70616 23.4515C10.2961 23.1565 10.9855 23.009 11.7743 23.009C12.5665 23.009 13.2592 23.1565 13.8525 23.4515C14.4457 23.7464 14.9064 24.1607 15.2346 24.6944C15.5627 25.228 15.7268 25.8527 15.7268 26.5686C15.7268 27.2846 15.5627 27.9093 15.2346 28.4429C14.9064 28.9765 14.4457 29.3908 13.8525 29.6858C13.2592 29.9808 12.5665 30.1283 11.7743 30.1283C10.9855 30.1283 10.2961 29.9808 9.70616 29.6858C9.1162 29.3908 8.65716 28.9765 8.32903 28.4429C8.00091 27.9093 7.83685 27.2846 7.83685 26.5686ZM9.08472 26.5736C9.08472 27.0376 9.20735 27.4221 9.45261 27.727C9.69788 28.0319 10.0243 28.2573 10.432 28.4032C10.8397 28.5523 11.2888 28.6269 11.7793 28.6269C12.2665 28.6269 12.714 28.5523 13.1216 28.4032C13.5326 28.2573 13.8624 28.0319 14.111 27.727C14.3596 27.4221 14.4839 27.0376 14.4839 26.5736C14.4839 26.1063 14.3596 25.7185 14.111 25.4103C13.8624 25.1053 13.5326 24.8783 13.1216 24.7292C12.714 24.5833 12.2665 24.5104 11.7793 24.5104C11.2888 24.5104 10.8397 24.5833 10.432 24.7292C10.0243 24.8783 9.69788 25.1053 9.45261 25.4103C9.20735 25.7185 9.08472 26.1063 9.08472 26.5736ZM18.1728 33.3741L7.99097 33.3741L7.99097 31.8876L18.1728 31.8876L18.1728 33.3741ZM18.1728 36.9604L7.99097 36.9604L7.99097 35.4739L18.1728 35.4739L18.1728 36.9604ZM7.84182 45.724C7.84182 45.1075 7.99925 44.5573 8.31412 44.0734C8.6323 43.5928 9.08471 43.215 9.67136 42.9399C10.2613 42.6681 10.9689 42.5322 11.7942 42.5322C12.6195 42.5322 13.3255 42.6698 13.9121 42.9449C14.4988 43.2233 14.9479 43.6044 15.2594 44.0883C15.571 44.5722 15.7268 45.1208 15.7268 45.7339C15.7268 46.2079 15.6472 46.589 15.4881 46.8774C15.3323 47.169 15.1501 47.3944 14.9412 47.5535C14.7324 47.7159 14.5485 47.8419 14.3894 47.9314L14.3894 48.0208L18.1728 48.0208L18.1728 49.5074L7.99096 49.5074L7.99096 48.0556L9.17917 48.0556L9.17917 47.9314C9.01677 47.8419 8.83116 47.7126 8.62236 47.5436C8.41355 47.3779 8.23126 47.1492 8.07548 46.8575C7.91971 46.5658 7.84182 46.188 7.84182 45.724ZM9.10957 46.0521C9.10957 46.4797 9.22226 46.8409 9.44764 47.1359C9.67633 47.4342 9.99286 47.6596 10.3972 47.812C10.8016 47.9678 11.2722 48.0457 11.8091 48.0457C12.3394 48.0457 12.8035 47.9695 13.2012 47.817C13.5989 47.6645 13.9088 47.4408 14.1309 47.1458C14.3529 46.8509 14.464 46.4863 14.464 46.0521C14.464 45.6047 14.348 45.2318 14.116 44.9335C13.884 44.6352 13.5674 44.4098 13.1664 44.2574C12.7653 44.1082 12.3129 44.0336 11.8091 44.0336C11.2987 44.0336 10.8397 44.1099 10.432 44.2623C10.0243 44.4148 9.70119 44.6402 9.46256 44.9385C9.22723 45.2401 9.10957 45.6113 9.10957 46.0521ZM7.83685 54.9456C7.83685 54.2297 8.00091 53.6049 8.32903 53.0713C8.65716 52.5377 9.1162 52.1234 9.70616 51.8284C10.2961 51.5334 10.9855 51.3859 11.7743 51.3859C12.5665 51.3859 13.2592 51.5334 13.8525 51.8284C14.4457 52.1234 14.9064 52.5377 15.2346 53.0713C15.5627 53.6049 15.7268 54.2297 15.7268 54.9456C15.7268 55.6615 15.5627 56.2863 15.2346 56.8199C14.9064 57.3535 14.4457 57.7678 13.8525 58.0628C13.2592 58.3578 12.5665 58.5053 11.7743 58.5053C10.9855 58.5053 10.2961 58.3578 9.70616 58.0628C9.1162 57.7678 8.65716 57.3535 8.32903 56.8199C8.00091 56.2863 7.83685 55.6615 7.83685 54.9456ZM9.08471 54.9506C9.08471 55.4146 9.20735 55.7991 9.45261 56.104C9.69788 56.4089 10.0243 56.6343 10.432 56.7801C10.8397 56.9293 11.2888 57.0038 11.7793 57.0038C12.2665 57.0038 12.714 56.9293 13.1216 56.7801C13.5326 56.6343 13.8624 56.4089 14.111 56.104C14.3596 55.7991 14.4839 55.4146 14.4839 54.9506C14.4839 54.4832 14.3596 54.0955 14.111 53.7872C13.8624 53.4823 13.5326 53.2553 13.1216 53.1061C12.714 52.9603 12.2665 52.8874 11.7793 52.8874C11.2888 52.8874 10.8397 52.9603 10.432 53.1061C10.0243 53.2553 9.69788 53.4823 9.45261 53.7872C9.20735 54.0955 9.08471 54.4832 9.08471 54.9506ZM7.99096 61.6876L15.6273 59.4405L15.6273 60.9767L10.0194 62.4732L10.0194 62.5477L15.6273 64.0491L15.6273 65.5854L10.0442 67.0768L10.0442 67.1514L15.6273 68.6379L15.6273 70.1741L7.99096 67.932L7.99096 66.4156L13.5045 64.8645L13.5045 64.7501L7.99096 63.199L7.99096 61.6876ZM12.5251 73.1713L7.99096 73.1713L7.99096 71.6848L15.6273 71.6848L15.6273 73.1117L14.3844 73.1117L14.3844 73.2061C14.7888 73.3818 15.1136 73.6569 15.3589 74.0314C15.6041 74.4093 15.7268 74.8849 15.7268 75.4583C15.7268 75.9786 15.6174 76.4344 15.3986 76.8255C15.1832 77.2166 14.8617 77.5198 14.4341 77.7353C14.0066 77.9507 13.4779 78.0584 12.8482 78.0584L7.99096 78.0584L7.99096 76.5719L12.6692 76.5719C13.2227 76.5719 13.6553 76.4277 13.9668 76.1394C14.2817 75.851 14.4391 75.455 14.4391 74.9512C14.4391 74.6065 14.3645 74.2999 14.2154 74.0314C14.0662 73.7663 13.8475 73.5558 13.5591 73.4C13.2741 73.2476 12.9294 73.1713 12.5251 73.1713Z" fill="#E60576"/>
</svg>
