<svg width="70" height="41" viewBox="0 0 70 41" fill="none" xmlns="http://www.w3.org/2000/svg">
<path d="M35.8774 2.80912L35.8774 38.5986C35.8774 38.9682 35.7807 39.3312 35.597 39.6512C35.4133 39.9713 35.1491 40.237 34.8309 40.4218C34.5127 40.6066 34.1517 40.7039 33.7843 40.7039C33.4169 40.7039 33.056 40.6066 32.7378 40.4218L1.92239 22.527C1.6042 22.3422 1.33998 22.0765 1.15627 21.7564C0.97257 21.4364 0.875852 21.0734 0.875852 20.7038C0.875852 20.3343 0.97257 19.9712 1.15627 19.6512C1.33998 19.3312 1.6042 19.0654 1.92239 18.8806L32.7378 0.985946C33.056 0.801174 33.4169 0.703895 33.7844 0.703895C34.1518 0.703895 34.5127 0.80117 34.8309 0.985939C35.1491 1.17071 35.4133 1.43647 35.597 1.7565C35.7807 2.07654 35.8774 2.43958 35.8774 2.80912L35.8774 2.80912ZM31.6913 34.9522L31.6913 6.45547L7.15508 20.7038L31.6913 34.9522Z" fill="#999999"/>
<path d="M52.3751 2.8091L52.3751 38.5986C52.3751 38.9682 52.2784 39.3312 52.0947 39.6512C51.911 39.9713 51.6468 40.237 51.3286 40.4218C51.0104 40.6066 50.6494 40.7039 50.282 40.7039C49.9146 40.7039 49.5537 40.6066 49.2355 40.4218L18.4201 22.527C18.1019 22.3422 17.8377 22.0765 17.654 21.7564C17.4702 21.4364 17.3735 21.0733 17.3735 20.7038C17.3735 20.3343 17.4702 19.9712 17.654 19.6512C17.8377 19.3311 18.1019 19.0654 18.4201 18.8806L49.2355 0.98592C49.5537 0.801147 49.9146 0.703869 50.282 0.703869C50.6494 0.703869 51.0104 0.80114 51.3286 0.985912C51.6468 1.17068 51.911 1.43644 52.0947 1.75648C52.2784 2.07652 52.3751 2.43955 52.3751 2.8091L52.3751 2.8091ZM48.189 34.9522L48.189 6.45546L23.6528 20.7038L48.189 34.9522Z" fill="#5626C4"/>
<path d="M69.8759 2.80912L69.8759 38.5986C69.8758 38.9682 69.7791 39.3312 69.5954 39.6513C69.4117 39.9713 69.1475 40.237 68.8293 40.4218C68.5111 40.6066 68.1502 40.7039 67.7828 40.7039C67.4153 40.7039 67.0544 40.6066 66.7362 40.4218L35.9208 22.527C35.6026 22.3422 35.3384 22.0765 35.1547 21.7564C34.971 21.4364 34.8743 21.0733 34.8743 20.7038C34.8743 20.3343 34.971 19.9712 35.1547 19.6512C35.3384 19.3312 35.6026 19.0654 35.9208 18.8806L66.7362 0.985939C67.0544 0.801166 67.4154 0.703888 67.7828 0.703888C68.1502 0.703888 68.5111 0.801163 68.8293 0.985935C69.1475 1.17071 69.4117 1.43646 69.5954 1.7565C69.7791 2.07653 69.8759 2.43957 69.8759 2.80912V2.80912ZM65.6897 34.9522L65.6897 6.45547L41.1535 20.7038L65.6897 34.9522Z" fill="#2CCCC3"/>
</svg>
