<svg width="52" height="14" viewBox="0 0 52 14" fill="none" xmlns="http://www.w3.org/2000/svg">
<path d="M45.7853 3.42432L43.1738 0.69301C42.778 0.278984 42.2411 0.0463863 41.6813 0.0463863C41.1214 0.0463862 40.5845 0.278984 40.1887 0.69301C39.7928 1.10704 39.5705 1.66858 39.5705 2.2541C39.5705 2.83962 39.7928 3.40116 40.1887 3.81518L42.8001 6.5465L40.1887 9.2778C39.9927 9.4828 39.8372 9.72618 39.7311 9.99403C39.625 10.2619 39.5705 10.549 39.5705 10.8389C39.5705 11.1288 39.625 11.4159 39.7311 11.6837C39.8372 11.9516 39.9927 12.195 40.1887 12.4C40.3847 12.605 40.6174 12.7676 40.8735 12.8785C41.1296 12.9895 41.4041 13.0466 41.6813 13.0466C41.9585 13.0466 42.2329 12.9895 42.489 12.8785C42.7451 12.7676 42.9778 12.605 43.1738 12.4L45.7853 9.66866L48.3967 12.4C48.7925 12.814 49.3294 13.0466 49.8892 13.0466C50.4491 13.0466 50.986 12.814 51.3818 12.4C51.7777 11.9859 52.0001 11.4244 52.0001 10.8389C52.0001 10.2534 51.7777 9.69182 51.3818 9.2778L48.7704 6.5465L51.3818 3.81518C51.7777 3.40116 52.0001 2.83962 52.0001 2.2541C52.0001 1.66858 51.7777 1.10704 51.3818 0.69301C50.986 0.278984 50.4491 0.0463867 49.8892 0.0463866C49.3294 0.0463866 48.7925 0.278984 48.3967 0.69301L45.7853 3.42432Z" fill="#5626C4"/>
<path d="M26 3.42432L23.3886 0.69301C22.9927 0.278984 22.4558 0.0463863 21.896 0.0463863C21.3362 0.0463862 20.7993 0.278984 20.4035 0.69301C20.0076 1.10704 19.7852 1.66858 19.7852 2.2541C19.7852 2.83962 20.0076 3.40116 20.4035 3.81518L23.0149 6.5465L20.4035 9.2778C20.0076 9.69182 19.7852 10.2534 19.7852 10.8389C19.7852 11.4244 20.0076 11.9859 20.4035 12.4C20.7993 12.814 21.3362 13.0466 21.896 13.0466C22.4558 13.0466 22.9927 12.814 23.3886 12.4L26 9.66866L28.6114 12.4C29.0075 12.8132 29.5441 13.0451 30.1035 13.0447C30.6629 13.0443 31.1992 12.8118 31.5948 12.3981C31.9903 11.9844 32.2127 11.4234 32.213 10.8383C32.2133 10.2533 31.9916 9.69199 31.5966 9.2778L28.9852 6.5465L31.5966 3.81518C31.9916 3.40099 32.2134 2.83971 32.213 2.25465C32.2127 1.6696 31.9903 1.1086 31.5948 0.694905C31.1992 0.281206 30.6629 0.0486351 30.1035 0.0482798C29.5441 0.0479245 29.0075 0.279814 28.6114 0.69301L26 3.42432Z" fill="#5626C4"/>
<path d="M6.21474 3.42432L3.60332 0.69301C3.40731 0.488005 3.17462 0.325386 2.91852 0.214438C2.66243 0.10349 2.38794 0.0463863 2.11075 0.0463863C1.83355 0.0463863 1.55907 0.10349 1.30297 0.214438C1.04688 0.325386 0.814185 0.488005 0.618178 0.69301C0.422171 0.898014 0.266689 1.14139 0.160611 1.40924C0.0545329 1.67709 -6.49337e-05 1.96418 -6.49464e-05 2.2541C-6.4959e-05 2.54402 0.0545329 2.8311 0.160611 3.09895C0.266689 3.3668 0.42217 3.61018 0.618178 3.81518L3.22961 6.5465L0.618178 9.2778C0.42217 9.4828 0.266689 9.72618 0.160611 9.99403C0.0545326 10.2619 -6.53089e-05 10.549 -6.53216e-05 10.8389C-6.53343e-05 11.1288 0.0545325 11.4159 0.160611 11.6837C0.266689 11.9516 0.42217 12.195 0.618178 12.4C0.814185 12.605 1.04688 12.7676 1.30297 12.8785C1.55907 12.9895 1.83355 13.0466 2.11075 13.0466C2.38794 13.0466 2.66242 12.9895 2.91852 12.8785C3.17462 12.7676 3.40731 12.605 3.60332 12.4L6.21474 9.66866L8.82618 12.4C9.02219 12.605 9.25488 12.7676 9.51098 12.8785C9.76707 12.9895 10.0416 13.0466 10.3188 13.0466C10.5959 13.0466 10.8704 12.9895 11.1265 12.8785C11.3826 12.7676 11.6153 12.605 11.8113 12.4C12.0073 12.195 12.1628 11.9516 12.2689 11.6837C12.375 11.4159 12.4296 11.1288 12.4296 10.8389C12.4296 10.549 12.375 10.2619 12.2689 9.99403C12.1628 9.72618 12.0073 9.4828 11.8113 9.2778L9.19989 6.5465L11.8113 3.81518C12.2072 3.40116 12.4296 2.83962 12.4296 2.2541C12.4296 1.66858 12.2072 1.10704 11.8113 0.69301C11.4155 0.278984 10.8786 0.0463867 10.3188 0.0463867C9.75893 0.0463867 9.22203 0.278984 8.82618 0.69301L6.21474 3.42432Z" fill="#5626C4"/>
</svg>
