<svg width="1331" height="1023" viewBox="0 0 1331 1023" fill="none" xmlns="http://www.w3.org/2000/svg">
<path d="M1059.51 238.524H1065.41V244.445H1070.99V238.524H1076.9V232.933H1070.99V227.012H1065.41V232.933H1059.51V238.524Z" fill="#CA91F2"/>
<path d="M1152.32 229.274L1142.42 239.199L1145.4 242.183L1155.3 232.258L1152.32 229.274Z" fill="#5626C4"/>
<path d="M1180.83 334.104L1177.86 337.088L1187.76 347.012L1190.73 344.028L1180.83 334.104Z" fill="#999999"/>
<path d="M1006.71 314.502L1003.73 317.486L1013.63 327.41L1016.61 324.426L1006.71 314.502Z" fill="#5626C4"/>
<path d="M536.176 818.712L530.271 818.712L530.271 812.791L524.693 812.791L524.693 818.712L518.787 818.712L518.787 824.303L524.693 824.303L524.693 830.224L530.271 830.224L530.271 824.303L536.176 824.303L536.176 818.712Z" fill="#CA91F2"/>
<path d="M443.364 827.961L453.263 818.037L450.287 815.053L440.387 824.977L443.364 827.961Z" fill="#5626C4"/>
<path d="M414.849 723.132L417.825 720.148L407.926 710.224L404.949 713.208L414.849 723.132Z" fill="#999999"/>
<path d="M588.973 742.734L591.949 739.75L582.05 729.826L579.073 732.81L588.973 742.734Z" fill="#5626C4"/>
<path d="M114.712 914.686C114.931 914.686 115.146 914.743 115.336 914.851L123.769 919.634L132.202 914.851C132.392 914.743 132.607 914.686 132.826 914.686C133.044 914.686 133.259 914.743 133.45 914.851L141.883 919.634L150.316 914.851C150.506 914.743 150.721 914.686 150.939 914.686C151.158 914.686 151.373 914.743 151.563 914.851L160.62 919.988C160.913 920.155 161.128 920.433 161.218 920.761C161.308 921.088 161.266 921.438 161.101 921.734C160.936 922.03 160.662 922.248 160.338 922.341C160.013 922.433 159.666 922.392 159.372 922.227L150.939 917.443L142.506 922.227C142.316 922.335 142.101 922.391 141.883 922.391C141.664 922.391 141.449 922.335 141.259 922.227L132.826 917.443L124.393 922.227C124.203 922.335 123.988 922.391 123.769 922.391C123.551 922.391 123.336 922.335 123.145 922.227L114.712 917.443L106.279 922.227C106.089 922.335 105.874 922.391 105.655 922.391C105.437 922.391 105.222 922.335 105.031 922.227L96.5977 917.443L88.1638 922.227C88.0181 922.31 87.8576 922.363 87.6915 922.383C87.5254 922.403 87.357 922.39 87.1959 922.345C87.0347 922.299 86.8841 922.222 86.7525 922.118C86.6209 922.014 86.5109 921.884 86.4289 921.737C86.347 921.59 86.2945 921.428 86.2746 921.261C86.2548 921.093 86.2678 920.923 86.3131 920.761C86.3584 920.598 86.4349 920.446 86.5384 920.314C86.6419 920.181 86.7703 920.07 86.9163 919.988L95.9739 914.851C96.1643 914.743 96.3792 914.686 96.5977 914.686C96.8162 914.686 97.031 914.743 97.2215 914.851L105.655 919.634L114.089 914.851C114.279 914.743 114.494 914.686 114.712 914.686V914.686Z" fill="#999999"/>
<path d="M114.712 909.539C114.931 909.539 115.146 909.596 115.336 909.704L123.769 914.487L132.202 909.704C132.392 909.596 132.607 909.539 132.826 909.539C133.044 909.539 133.259 909.596 133.45 909.704L141.883 914.487L150.316 909.704C150.506 909.596 150.721 909.539 150.939 909.539C151.158 909.539 151.373 909.596 151.563 909.704L160.62 914.841C160.913 915.009 161.128 915.286 161.218 915.614C161.308 915.941 161.266 916.291 161.101 916.587C160.936 916.884 160.662 917.102 160.338 917.194C160.013 917.286 159.666 917.245 159.372 917.08L150.939 912.297L142.506 917.08C142.316 917.188 142.101 917.245 141.883 917.245C141.664 917.245 141.449 917.188 141.259 917.08L132.826 912.297L124.393 917.08C124.203 917.188 123.988 917.245 123.769 917.245C123.551 917.245 123.336 917.188 123.145 917.08L114.712 912.297L106.279 917.08C106.089 917.188 105.874 917.245 105.655 917.245C105.437 917.245 105.222 917.188 105.031 917.08L96.5977 912.297L88.1638 917.08C88.0181 917.163 87.8576 917.216 87.6915 917.236C87.5254 917.257 87.357 917.244 87.1959 917.198C87.0347 917.153 86.8841 917.076 86.7525 916.971C86.6209 916.867 86.5109 916.738 86.4289 916.591C86.347 916.443 86.2945 916.281 86.2746 916.114C86.2548 915.946 86.2678 915.776 86.3131 915.614C86.3584 915.451 86.4349 915.299 86.5384 915.167C86.6419 915.034 86.7703 914.923 86.9163 914.841L95.9739 909.704C96.1643 909.596 96.3792 909.539 96.5977 909.539C96.8162 909.539 97.031 909.596 97.2215 909.704L105.655 914.487L114.089 909.704C114.279 909.596 114.494 909.539 114.712 909.539Z" fill="#5550F2"/>
<path d="M114.712 904.392C114.931 904.392 115.146 904.449 115.336 904.557L123.769 909.34L132.202 904.557C132.392 904.449 132.607 904.392 132.826 904.392C133.044 904.392 133.259 904.449 133.449 904.557L141.882 909.34L150.316 904.557C150.506 904.449 150.721 904.392 150.939 904.392C151.158 904.392 151.373 904.449 151.563 904.557L160.62 909.694C160.913 909.862 161.128 910.14 161.219 910.467C161.309 910.795 161.267 911.145 161.102 911.441C160.937 911.738 160.662 911.956 160.338 912.048C160.014 912.14 159.666 912.099 159.372 911.933L150.939 907.15L142.506 911.933C142.316 912.041 142.101 912.098 141.882 912.098C141.664 912.098 141.449 912.041 141.259 911.933L132.826 907.15L124.393 911.933C124.202 912.041 123.988 912.098 123.769 912.098C123.551 912.098 123.336 912.041 123.145 911.933L114.712 907.15L106.279 911.933C106.088 912.041 105.874 912.098 105.655 912.098C105.437 912.098 105.222 912.041 105.031 911.933L96.5975 907.15L88.1637 911.933C88.018 912.016 87.8575 912.069 87.6915 912.089C87.5254 912.109 87.3571 912.096 87.196 912.051C87.0349 912.005 86.8843 911.928 86.7528 911.824C86.6213 911.72 86.5114 911.591 86.4294 911.444C86.3475 911.296 86.295 911.134 86.2752 910.967C86.2553 910.799 86.2683 910.63 86.3135 910.467C86.3587 910.305 86.4352 910.153 86.5386 910.02C86.642 909.888 86.7703 909.777 86.9161 909.694L95.9737 904.557C96.1642 904.449 96.379 904.392 96.5975 904.392C96.816 904.392 97.0308 904.449 97.2213 904.557L105.655 909.34L114.088 904.557C114.279 904.449 114.494 904.392 114.712 904.392V904.392Z" fill="#5626C4"/>
<path d="M599.656 203.006C599.656 203.225 599.599 203.439 599.491 203.63L594.708 212.063L599.491 220.496C599.599 220.686 599.656 220.901 599.656 221.119C599.656 221.338 599.599 221.553 599.491 221.743L594.708 230.176L599.491 238.609C599.599 238.8 599.656 239.015 599.656 239.233C599.656 239.452 599.599 239.667 599.491 239.857L594.354 248.914C594.186 249.206 593.908 249.422 593.581 249.512C593.254 249.602 592.904 249.56 592.607 249.395C592.311 249.23 592.093 248.955 592.001 248.631C591.908 248.307 591.95 247.96 592.115 247.666L596.898 239.233L592.115 230.8C592.007 230.61 591.95 230.395 591.95 230.176C591.95 229.958 592.007 229.743 592.115 229.552L596.898 221.119L592.115 212.687C592.007 212.496 591.95 212.281 591.95 212.063C591.95 211.844 592.007 211.63 592.115 211.439L596.898 203.006L592.115 194.573C592.007 194.382 591.95 194.167 591.95 193.949C591.95 193.73 592.007 193.516 592.115 193.325L596.898 184.891L592.115 176.458C592.032 176.312 591.979 176.151 591.959 175.985C591.938 175.819 591.951 175.651 591.997 175.49C592.042 175.328 592.119 175.178 592.223 175.046C592.328 174.915 592.457 174.805 592.604 174.723C592.751 174.641 592.913 174.588 593.081 174.568C593.249 174.548 593.418 174.562 593.581 174.607C593.743 174.652 593.895 174.729 594.028 174.832C594.161 174.936 594.271 175.064 594.354 175.21L599.491 184.268C599.599 184.458 599.656 184.673 599.656 184.891C599.656 185.11 599.599 185.325 599.491 185.515L594.708 193.949L599.491 202.382C599.599 202.573 599.656 202.788 599.656 203.006V203.006Z" fill="#999999"/>
<path d="M604.802 203.006C604.802 203.225 604.746 203.439 604.637 203.63L599.854 212.063L604.637 220.496C604.745 220.686 604.802 220.901 604.802 221.119C604.802 221.338 604.745 221.553 604.637 221.743L599.854 230.176L604.637 238.609C604.745 238.8 604.802 239.015 604.802 239.233C604.802 239.452 604.745 239.667 604.637 239.857L599.5 248.914C599.333 249.206 599.055 249.422 598.727 249.512C598.4 249.602 598.05 249.56 597.754 249.395C597.458 249.23 597.24 248.955 597.147 248.631C597.055 248.307 597.096 247.96 597.261 247.666L602.045 239.233L597.261 230.8C597.153 230.61 597.097 230.395 597.097 230.176C597.097 229.958 597.153 229.743 597.261 229.552L602.045 221.119L597.261 212.687C597.153 212.496 597.097 212.281 597.097 212.063C597.097 211.844 597.153 211.63 597.261 211.439L602.045 203.006L597.261 194.573C597.153 194.382 597.097 194.167 597.097 193.949C597.097 193.73 597.153 193.516 597.261 193.325L602.045 184.891L597.261 176.458C597.179 176.312 597.125 176.151 597.105 175.985C597.085 175.819 597.098 175.651 597.143 175.49C597.189 175.328 597.266 175.178 597.37 175.046C597.474 174.915 597.604 174.805 597.751 174.723C597.898 174.641 598.06 174.588 598.227 174.568C598.395 174.548 598.565 174.562 598.727 174.607C598.89 174.652 599.042 174.729 599.174 174.832C599.307 174.936 599.418 175.064 599.5 175.21L604.637 184.268C604.745 184.458 604.802 184.673 604.802 184.891C604.802 185.11 604.745 185.325 604.637 185.515L599.854 193.949L604.637 202.382C604.746 202.573 604.802 202.788 604.802 203.006Z" fill="#5550F2"/>
<path d="M609.949 203.006C609.949 203.225 609.893 203.44 609.784 203.63L605.001 212.063L609.784 220.496C609.892 220.686 609.949 220.901 609.949 221.12C609.949 221.338 609.892 221.553 609.784 221.743L605.001 230.176L609.784 238.609C609.892 238.8 609.949 239.015 609.949 239.233C609.949 239.452 609.892 239.667 609.784 239.857L604.647 248.914C604.48 249.207 604.202 249.422 603.874 249.513C603.547 249.603 603.197 249.561 602.9 249.396C602.604 249.231 602.386 248.956 602.294 248.632C602.201 248.307 602.243 247.96 602.408 247.666L607.192 239.233L602.408 230.8C602.3 230.61 602.244 230.395 602.244 230.176C602.244 229.958 602.3 229.743 602.408 229.553L607.192 221.12L602.408 212.687C602.3 212.496 602.244 212.282 602.244 212.063C602.244 211.845 602.3 211.63 602.408 211.439L607.192 203.006L602.408 194.573C602.3 194.382 602.244 194.168 602.244 193.949C602.244 193.731 602.3 193.516 602.408 193.325L607.192 184.891L602.408 176.458C602.326 176.312 602.273 176.151 602.252 175.985C602.232 175.819 602.245 175.651 602.291 175.49C602.336 175.329 602.413 175.178 602.517 175.047C602.622 174.915 602.751 174.805 602.898 174.723C603.045 174.641 603.207 174.589 603.375 174.569C603.542 174.549 603.712 174.562 603.874 174.607C604.037 174.653 604.189 174.729 604.321 174.833C604.454 174.936 604.565 175.064 604.647 175.21L609.784 184.268C609.892 184.458 609.949 184.673 609.949 184.891C609.949 185.11 609.892 185.325 609.784 185.515L605.001 193.949L609.784 202.382C609.892 202.573 609.949 202.788 609.949 203.006V203.006Z" fill="#5626C4"/>
<path d="M640.52 103.781L637.908 101.049C637.512 100.635 636.975 100.403 636.416 100.403C635.856 100.403 635.319 100.635 634.923 101.049C634.527 101.463 634.305 102.025 634.305 102.61C634.305 103.196 634.527 103.757 634.923 104.171L637.534 106.903L634.923 109.634C634.727 109.839 634.572 110.082 634.465 110.35C634.359 110.618 634.305 110.905 634.305 111.195C634.305 111.485 634.359 111.772 634.465 112.04C634.572 112.308 634.727 112.551 634.923 112.756C635.119 112.961 635.352 113.124 635.608 113.235C635.864 113.346 636.138 113.403 636.416 113.403C636.693 113.403 636.967 113.346 637.223 113.235C637.479 113.124 637.712 112.961 637.908 112.756L640.52 110.025L643.131 112.756C643.527 113.17 644.064 113.403 644.624 113.403C645.183 113.403 645.72 113.17 646.116 112.756C646.512 112.342 646.734 111.781 646.734 111.195C646.734 110.61 646.512 110.048 646.116 109.634L643.505 106.903L646.116 104.171C646.512 103.757 646.734 103.196 646.734 102.61C646.734 102.025 646.512 101.463 646.116 101.049C645.72 100.635 645.183 100.403 644.624 100.403C644.064 100.403 643.527 100.635 643.131 101.049L640.52 103.781Z" fill="#5626C4"/>
<path d="M620.734 103.781L618.123 101.049C617.727 100.635 617.19 100.403 616.63 100.403C616.07 100.403 615.534 100.635 615.138 101.049C614.742 101.463 614.519 102.025 614.519 102.61C614.519 103.196 614.742 103.757 615.138 104.171L617.749 106.903L615.138 109.634C614.742 110.048 614.519 110.61 614.519 111.195C614.519 111.781 614.742 112.342 615.138 112.756C615.534 113.17 616.07 113.403 616.63 113.403C617.19 113.403 617.727 113.17 618.123 112.756L620.734 110.025L623.346 112.756C623.742 113.169 624.278 113.401 624.838 113.401C625.397 113.401 625.933 113.168 626.329 112.754C626.725 112.341 626.947 111.78 626.947 111.195C626.948 110.609 626.726 110.048 626.331 109.634L623.719 106.903L626.331 104.171C626.726 103.757 626.948 103.196 626.947 102.611C626.947 102.026 626.725 101.465 626.329 101.051C625.933 100.637 625.397 100.405 624.838 100.404C624.278 100.404 623.742 100.636 623.346 101.049L620.734 103.781Z" fill="#5626C4"/>
<path d="M600.949 103.781L598.338 101.049C598.142 100.844 597.909 100.682 597.653 100.571C597.397 100.46 597.122 100.403 596.845 100.403C596.568 100.403 596.294 100.46 596.037 100.571C595.781 100.682 595.549 100.844 595.353 101.049C595.157 101.254 595.001 101.498 594.895 101.765C594.789 102.033 594.734 102.32 594.734 102.61C594.734 102.9 594.789 103.187 594.895 103.455C595.001 103.723 595.157 103.966 595.353 104.171L597.964 106.903L595.353 109.634C595.157 109.839 595.001 110.082 594.895 110.35C594.789 110.618 594.734 110.905 594.734 111.195C594.734 111.485 594.789 111.772 594.895 112.04C595.001 112.308 595.157 112.551 595.353 112.756C595.549 112.961 595.781 113.124 596.037 113.235C596.294 113.346 596.568 113.403 596.845 113.403C597.122 113.403 597.397 113.346 597.653 113.235C597.909 113.124 598.142 112.961 598.338 112.756L600.949 110.025L603.561 112.756C603.757 112.961 603.989 113.124 604.245 113.235C604.502 113.346 604.776 113.403 605.053 113.403C605.33 113.403 605.605 113.346 605.861 113.235C606.117 113.124 606.35 112.961 606.546 112.756C606.742 112.551 606.897 112.308 607.003 112.04C607.109 111.772 607.164 111.485 607.164 111.195C607.164 110.905 607.109 110.618 607.003 110.35C606.897 110.082 606.742 109.839 606.546 109.634L603.934 106.903L606.546 104.171C606.942 103.757 607.164 103.196 607.164 102.61C607.164 102.025 606.942 101.463 606.546 101.049C606.15 100.635 605.613 100.403 605.053 100.403C604.493 100.403 603.957 100.635 603.561 101.049L600.949 103.781Z" fill="#5626C4"/>
<path d="M472.05 640.276L469.318 642.887C468.904 643.283 468.672 643.82 468.672 644.38C468.672 644.939 468.904 645.476 469.318 645.872C469.733 646.268 470.294 646.49 470.88 646.49C471.465 646.49 472.027 646.268 472.441 645.872L475.172 643.261L477.903 645.872C478.108 646.068 478.352 646.224 478.62 646.33C478.887 646.436 479.174 646.49 479.464 646.49C479.754 646.49 480.041 646.436 480.309 646.33C480.577 646.224 480.82 646.068 481.025 645.872C481.23 645.676 481.393 645.443 481.504 645.187C481.615 644.931 481.672 644.657 481.672 644.38C481.672 644.102 481.615 643.828 481.504 643.572C481.393 643.316 481.23 643.083 481.025 642.887L478.294 640.276L481.025 637.664C481.439 637.268 481.672 636.731 481.672 636.172C481.672 635.612 481.439 635.075 481.025 634.679C480.611 634.283 480.05 634.061 479.464 634.061C478.879 634.061 478.317 634.283 477.903 634.679L475.172 637.29L472.441 634.679C472.027 634.283 471.465 634.061 470.88 634.061C470.294 634.061 469.733 634.283 469.318 634.679C468.904 635.075 468.672 635.612 468.672 636.172C468.672 636.731 468.904 637.268 469.318 637.664L472.05 640.276Z" fill="#5626C4"/>
<path d="M472.05 660.061L469.318 662.672C468.904 663.068 468.672 663.605 468.672 664.165C468.672 664.725 468.904 665.262 469.318 665.657C469.733 666.053 470.294 666.276 470.88 666.276C471.465 666.276 472.027 666.053 472.441 665.657L475.172 663.046L477.903 665.657C478.317 666.053 478.879 666.276 479.464 666.276C480.05 666.276 480.611 666.053 481.025 665.657C481.439 665.262 481.672 664.725 481.672 664.165C481.672 663.605 481.439 663.068 481.025 662.672L478.294 660.061L481.025 657.449C481.439 657.053 481.671 656.517 481.67 655.957C481.67 655.398 481.437 654.862 481.024 654.466C480.61 654.071 480.049 653.848 479.464 653.848C478.879 653.848 478.317 654.069 477.903 654.464L475.172 657.076L472.441 654.464C472.026 654.069 471.465 653.848 470.88 653.848C470.295 653.848 469.734 654.071 469.32 654.466C468.907 654.862 468.674 655.398 468.674 655.957C468.673 656.517 468.905 657.053 469.318 657.449L472.05 660.061Z" fill="#5626C4"/>
<path d="M472.05 679.846L469.318 682.458C469.113 682.654 468.951 682.886 468.84 683.142C468.729 683.398 468.672 683.673 468.672 683.95C468.672 684.227 468.729 684.502 468.84 684.758C468.951 685.014 469.113 685.247 469.318 685.443C469.524 685.639 469.767 685.794 470.035 685.9C470.303 686.006 470.59 686.061 470.88 686.061C471.17 686.061 471.457 686.006 471.724 685.9C471.992 685.794 472.236 685.639 472.441 685.443L475.172 682.831L477.903 685.443C478.108 685.639 478.352 685.794 478.62 685.9C478.887 686.006 479.174 686.061 479.464 686.061C479.754 686.061 480.041 686.006 480.309 685.9C480.577 685.794 480.82 685.639 481.025 685.443C481.23 685.247 481.393 685.014 481.504 684.758C481.615 684.502 481.672 684.227 481.672 683.95C481.672 683.673 481.615 683.398 481.504 683.142C481.393 682.886 481.23 682.654 481.025 682.458L478.294 679.846L481.025 677.235C481.23 677.039 481.393 676.806 481.504 676.55C481.615 676.294 481.672 676.019 481.672 675.742C481.672 675.465 481.615 675.19 481.504 674.934C481.393 674.678 481.23 674.446 481.025 674.25C480.82 674.054 480.577 673.898 480.309 673.792C480.041 673.686 479.754 673.631 479.464 673.631C479.174 673.631 478.887 673.686 478.62 673.792C478.352 673.898 478.108 674.054 477.903 674.25L475.172 676.861L472.441 674.25C472.027 673.854 471.465 673.631 470.88 673.631C470.294 673.631 469.733 673.854 469.318 674.25C468.904 674.645 468.672 675.182 468.672 675.742C468.672 676.302 468.904 676.839 469.318 677.235L472.05 679.846Z" fill="#5626C4"/>
<path d="M1235.11 877.061L1232.38 879.672C1231.97 880.068 1231.73 880.605 1231.73 881.165C1231.73 881.725 1231.97 882.261 1232.38 882.657C1232.8 883.053 1233.36 883.276 1233.94 883.276C1234.53 883.276 1235.09 883.053 1235.5 882.657L1238.23 880.046L1240.97 882.657C1241.17 882.853 1241.41 883.009 1241.68 883.115C1241.95 883.221 1242.24 883.276 1242.53 883.276C1242.82 883.276 1243.1 883.221 1243.37 883.115C1243.64 883.009 1243.88 882.853 1244.09 882.657C1244.29 882.461 1244.46 882.229 1244.57 881.973C1244.68 881.716 1244.73 881.442 1244.73 881.165C1244.73 880.888 1244.68 880.613 1244.57 880.357C1244.46 880.101 1244.29 879.868 1244.09 879.672L1241.36 877.061L1244.09 874.449C1244.5 874.053 1244.73 873.517 1244.73 872.957C1244.73 872.397 1244.5 871.86 1244.09 871.464C1243.67 871.068 1243.11 870.846 1242.53 870.846C1241.94 870.846 1241.38 871.068 1240.97 871.464L1238.23 874.076L1235.5 871.464C1235.09 871.068 1234.53 870.846 1233.94 870.846C1233.36 870.846 1232.8 871.068 1232.38 871.464C1231.97 871.86 1231.73 872.397 1231.73 872.957C1231.73 873.517 1231.97 874.053 1232.38 874.449L1235.11 877.061Z" fill="#5626C4"/>
<path d="M1235.11 896.846L1232.38 899.457C1231.97 899.853 1231.73 900.39 1231.73 900.95C1231.73 901.51 1231.97 902.047 1232.38 902.443C1232.8 902.838 1233.36 903.061 1233.94 903.061C1234.53 903.061 1235.09 902.838 1235.5 902.443L1238.23 899.831L1240.97 902.443C1241.38 902.838 1241.94 903.061 1242.53 903.061C1243.11 903.061 1243.67 902.838 1244.09 902.443C1244.5 902.047 1244.73 901.51 1244.73 900.95C1244.73 900.39 1244.5 899.853 1244.09 899.457L1241.36 896.846L1244.09 894.235C1244.5 893.839 1244.73 893.302 1244.73 892.743C1244.73 892.183 1244.5 891.647 1244.09 891.251C1243.67 890.856 1243.11 890.633 1242.53 890.633C1241.94 890.633 1241.38 890.854 1240.97 891.249L1238.23 893.861L1235.5 891.249C1235.09 890.854 1234.53 890.633 1233.94 890.633C1233.36 890.633 1232.8 890.856 1232.38 891.251C1231.97 891.647 1231.74 892.183 1231.74 892.743C1231.74 893.302 1231.97 893.839 1232.38 894.235L1235.11 896.846Z" fill="#5626C4"/>
<path d="M1235.11 916.631L1232.38 919.243C1232.18 919.439 1232.01 919.671 1231.9 919.928C1231.79 920.184 1231.73 920.458 1231.73 920.735C1231.73 921.013 1231.79 921.287 1231.9 921.543C1232.01 921.799 1232.18 922.032 1232.38 922.228C1232.59 922.424 1232.83 922.579 1233.1 922.685C1233.37 922.792 1233.65 922.846 1233.94 922.846C1234.23 922.846 1234.52 922.792 1234.79 922.685C1235.05 922.579 1235.3 922.424 1235.5 922.228L1238.23 919.616L1240.97 922.228C1241.17 922.424 1241.41 922.579 1241.68 922.685C1241.95 922.792 1242.24 922.846 1242.53 922.846C1242.82 922.846 1243.1 922.792 1243.37 922.685C1243.64 922.579 1243.88 922.424 1244.09 922.228C1244.29 922.032 1244.46 921.799 1244.57 921.543C1244.68 921.287 1244.73 921.013 1244.73 920.735C1244.73 920.458 1244.68 920.184 1244.57 919.928C1244.46 919.671 1244.29 919.439 1244.09 919.243L1241.36 916.631L1244.09 914.02C1244.29 913.824 1244.46 913.591 1244.57 913.335C1244.68 913.079 1244.73 912.805 1244.73 912.527C1244.73 912.25 1244.68 911.976 1244.57 911.72C1244.46 911.463 1244.29 911.231 1244.09 911.035C1243.88 910.839 1243.64 910.683 1243.37 910.577C1243.1 910.471 1242.82 910.417 1242.53 910.417C1242.24 910.417 1241.95 910.471 1241.68 910.577C1241.41 910.683 1241.17 910.839 1240.97 911.035L1238.23 913.646L1235.5 911.035C1235.09 910.639 1234.53 910.417 1233.94 910.417C1233.36 910.417 1232.8 910.639 1232.38 911.035C1231.97 911.431 1231.73 911.967 1231.73 912.527C1231.73 913.087 1231.97 913.624 1232.38 914.02L1235.11 916.631Z" fill="#5626C4"/>
</svg>
