<svg xmlns="http://www.w3.org/2000/svg" viewBox="0 0 180 106.13925"><defs><style>.cls-1{fill:#fff;}.cls-2{fill:#ccc;}.cls-3{fill:#e6e6e6;}</style></defs><g id="Layer_2" data-name="Layer 2"><g id="images"><path class="cls-1" d="M94.75227,43.71642l.00682-.00859-.19519.04122a18.44568,18.44568,0,0,0-2.69611-.07253.25894.25894,0,0,0-.30119.30006,16.53017,16.53017,0,0,0,.07205,2.57163c-.00665.01512-.02137.03216-.01832.045a.585.585,0,0,0,.03532.08823,1.92218,1.92218,0,0,1-.83938.09985,13.00854,13.00854,0,0,0-2.242.07563c-.14585.06222-.13213.19475-.13119.31482q.01049,1.3278.02653,2.65554l-.14239.1384q-3.03374-.00562-6.06731-.01121a6.13944,6.13944,0,0,1-.06158-1.53263c-.01064-1.64145-.00422-1.62493-1.63087-1.65085a2.97387,2.97387,0,0,1-1.62158-.14531,20.63767,20.63767,0,0,0-.0367-2.85206,9.43228,9.43228,0,0,0-2.102-.10315c-.33485-.03089-.697.11249-.998-.14776q-.00469-1.41609-.00942-2.83219c.01383-.0664-.00064-.107-.0804-.08817l-3.0694-.04777.0248-.23692a10.05762,10.05762,0,0,0-.06942-2.82254l-3.09132-.023.01.01076-.028-.14565.00388-2.83459c.00671-.07556-.00815-.13232-.10363-.11888a26.50368,26.50368,0,0,0-2.83968,0l-.13766.00167.00937.00759c-.00492-.90195-.02853-1.80438-.00617-2.70565.00983-.39678-.10084-.536-.5129-.52345-.90143.02739-1.80437.00508-2.70669.00307l.0093.00855c.0115-.90168.01707-1.80348.03783-2.70494.00685-.29767-.12236-.39609-.40522-.38913-.90125.02219-1.80279.03159-2.70422.04593l-.07212-3.27c.01074-.84184.00745-1.68419.03862-2.52527.01407-.37969-.1244-.503-.49692-.497-.90454.01454-1.80961-.004-2.71447-.0092l.00982.01088a24.30609,24.30609,0,0,0,.00159-3.03241c.0135-.2449.03847-.4898.03873-.73472.00281-2.688.01611-5.3761-.01064-8.06382-.00519-.52194.15015-.64826.65458-.64491a9.63012,9.63012,0,0,0,2.43594-.07674c.1731-1.03316.01422-2.076.09055-3.11195l-.01081.00849c.90113.00823,1.80241.00958,2.70331.02857.29969.00631.45453-.0688.44324-.40849-.02855-.85826-.03141-1.71737-.04457-2.57614l.03953-.14216,3.0518-.00767q3.224.0758,6.448,0a24.45365,24.45365,0,0,0,3.06614-.02l.0584.16858c-.00958.863-.01182,1.72609-.03289,2.58876-.00706.28907.09128.40392.38839.39737.90449-.02,1.8094-.02076,2.71414-.029l-.01163-.00906c.0119.55423.03237,1.10843.03407,1.66269.00472,1.542.00169,1.53425,1.51372,1.54626.52951.00421,1.21787-.22741,1.54755.09767.35957.35455.08763,1.0533.12,1.60074.01936.32774.01318.65786.00148.98631-.00977.27439.07109.42145.38018.41438.945-.02161,1.89028-.02629,2.83546-.03756.90539.01053,1.81087.01653,2.71612.03443.26335.0052.37165-.09725.366-.36209-.0192-.90445-.02773-1.80912-.04023-2.71374.89089-.00816,1.78187-.00914,2.67236-.03082.165-.004.44027.13322.45235-.21941l.01549.0032c.14068-.20285.067-.43263.07649-.6502.03336-.76855-.05546-1.53985.05046-2.307.86375.00316,1.728-.00937,2.591.01676.37508.01135.49973-.10472.49066-.48625-.021-.88309.002-1.76724.00716-2.651l-.01392.01243,6.20659-.0075.05851.01412.05861-.014q3.08457.00252,6.16931.005l.075.12381-.0493,2.97936-3.1149.03884-3.17971.00936c-.90391-.01056-1.808-.01439-2.71166-.03553-.29552-.00691-.39678.10959-.3925.39828.01188.80149.0082,1.60331.00143,2.40492-.002.24029.049.39326.33556.38637.92328-.0222,1.84683-.03281,2.77028-.0479l3.18872.06864-.00557-.0074c.00631.676.01614,1.352.01814,2.02806.00309,1.04055.00081,1.03981,1.0114,1.04081q1.04589.001,2.0918.00583l.03165,6.17837c-.007.90235-.002,1.805-.0269,2.70688-.0099.35764.13377.46384.47014.45737.7803-.015,1.56121-.01314,2.34161-.00087.28589.0045.4084-.08861.4006-.38724-.023-.88123-.0281-1.76293-.0402-2.64445l.04512-3.17594,3.0737-.03671q.02978,1.48977.05951,2.97936,0,.12,0,.24045l-.06391,3.106.01023-.0081c-.91527-.1166-1.83454-.02211-2.75136-.05294-.275-.00924-.34689.13524-.34217.381.01683.87726.02427,1.75471.03526,2.63208l-.046,3.228.00964-.00977c-.85833.00276-1.71827.03836-2.57439-.00379-.53224-.02621-.65385.16939-.63437.66236.03221.815-.00476,1.63269-.01259,2.44925l.011-.01c-.88264.00138-1.76558.01637-2.64777-.0027-.344-.00744-.47012.09308-.45795.449.02873.83993.02189,1.68106.02944,2.5217l-.03177.19081.00931-.01264c-1.02616.11713-2.06095-.05731-3.08619.09111a10.04531,10.04531,0,0,0-.02749,2.85036l-.01594.2004.02127-.00564c-.92126.00389-1.84256.01629-2.76365.00679-.29922-.00309-.44948.06326-.43916.4046.02593.85851.0216,1.71793.0294,2.577l-.06888.1508c-.87861-.009-1.75761-.00524-2.63561-.03318-.3535-.01125-.46.11773-.45209.4596C94.75745,41.91754,94.749,42.81711,94.75227,43.71642Z"/><path class="cls-1" d="M123.99545,92.62461c-.011-1.93464-.03563-3.86936-.02256-5.80383.00291-.43181-.11328-.55421-.54694-.54852-1.813.02379-3.6267-.00657-5.43957.02134-.47085.00724-.58951-.131-.58083-.5901.03652-1.934.03416-3.86867.046-5.8031,1.9996-.00407,3.9993.00095,5.99875-.01974.40812-.00422.54588.13146.52709.53351-.02691.57569-.00674,1.15356-.00674,1.7305q0,1.88769,0,3.77537c.10387-1.811.12125-3.62136.09257-5.431-.00793-.50007.15469-.62756.63451-.62119q2.999.03975,5.99886.01573c2.101-.01422,4.20282.07024,6.303-.04777l.00586.01069c-.129,2.12375-.05378,4.2487-.03827,6.3733a17.0223,17.0223,0,0,1-2.51628.058c-1.13227.01834-2.26572.02682-3.39731-.00648-.44649-.01315-.53814.13262-.535.55248.01429,1.93368-.007,3.86762-.01549,5.80147Z"/><path class="cls-1" d="M153.27672,95.185c-1.56236.00576-3.125.03-4.68692.00556-.44388-.00694-.5385.12437-.53175.54662.02434,1.52031.00563,3.0413.00317,4.562-.05.4505.299.22742.44752.22933,1.42249.01831,2.84546.02332,4.26791.00328.408-.00576.53352.13117.52737.53287-.02023,1.31861-.02729,2.63818.003,3.9564.01083.46991-.14033.59051-.59681.58779q-4.6082-.02751-9.21654.00189c-.498.00369-.62219-.14768-.61874-.62772.02047-2.84378.01009-5.68777.01008-8.5317,0-1.23654,0-1.23654,1.23209-1.23654h3.56841c-1.40072-.108-2.80042-.12313-4.19947-.09916-.442.00758-.61458-.09472-.61139-.578q.03063-4.63662.00305-9.27356c-.00183-.41608.103-.58324.55122-.57543,1.54587.02693,3.09242.01619,4.63869.0198.0003,1.522.01653,3.04433-.0088,4.56594-.00757.45568.07435.63753.59109.62425,1.5424-.03964,3.08647-.01534,4.62986-.016Z"/><path class="cls-1" d="M21.40072,83.382c1.58367-.00644,3.16748-.003,4.75089-.027.35134-.00533.44746.09956.44538.44677-.01789,2.98109-.01787,5.96228-.02319,8.94344-1.56067.005-3.12158-.0032-4.68187.02368-.4373.00753-.50508-.18386-.49914-.55438.01713-1.06712.012-2.13478-.00144-3.202-.00177-.14067.144-.449-.24138-.36271l-5.08222-.00284c-.40679-.02852-.221.28654-.22208.437-.01349,1.9348-.02133,3.86984.00027,5.80449.005.45184-.11594.61366-.58781.60308-1.29682-.02906-2.59534-.03327-3.89187.00168-.50381.01358-.61794-.15814-.61493-.63275.01923-3.02572.02371-6.05174-.00278-9.07734-.00489-.55892.13436-.741.71333-.72417,1.44657.04209,2.89519.01387,4.343.01387-1.47952-.10754-2.95906-.12856-4.43741-.09587-.50238.0111-.62723-.1554-.61641-.63238.02941-1.29612.0233-2.59356.00236-3.89-.0066-.40893.08348-.5859.54024-.57634,1.33807.028,2.67728.022,4.01566.00265.39756-.00574.54736.11239.53513.52392-.02569.86376-.01685,1.729.00238,2.59312.00282.127-.1845.45382.2224.372l5.06911.012v4.19857l.2624.00012Z"/><path class="cls-1" d="M37.18336,79.89055q.01329,4.94367.02542,9.88736.00645,7.78824-.0001,15.57646c-.00007.205-.01836.41-.02816.61494l-5.28038.01707c-.01753-.18143-.05032-.36286-.05038-.54429q-.0038-12.50058-.00024-25.00117c.00005-.18268.02919-.36537.04476-.54806Zm-5.01545,5.10481.00054.042H36.8274l-.00054-.042ZM36.8423,95.55644l-.00062-.03806H32.20057l.0006.03806Z"/><path class="cls-1" d="M169.32981,90.02158q.00381,7.62373.00494,15.24747a2.042,2.042,0,0,1-.06165.35388l-5.24784.00085c-.11131-.14728-.06008-.318-.06014-.47735q-.00419-10.00284-.00062-20.00569c.00005-.14193.0266-.28383.04078-.42574l5.23284-.00187c.00567,1.04136-.00315,2.08308.022,3.124A10.86389,10.86389,0,0,0,169.32981,90.02158Zm-.36118,5.16363.00463-.054H164.301l-.0002.054Z"/><path class="cls-1" d="M58.66749,99.288a3.75543,3.75543,0,0,1,.05821,1.22023c.01149,1.68545.00177,3.371.00976,5.05652.00151.31816-.00335.53876-.44082.53738-4.66834-.01474-9.33674-.01076-14.00513-.01324a.53484.53484,0,0,1-.11969-.028c-.005-2.08015-.00044-4.1604-.02317-6.24035-.00454-.41536.14135-.53013.53649-.51889.84424.024,1.68965.00727,2.53458.00725,1.64933,0,1.64933,0,1.64933,1.61874V105.726c.10758-1.89087.1311-3.782.09362-5.67192-.01164-.587.13825-.7647.74342-.75968C52.69167,99.31924,55.67965,99.29493,58.66749,99.288Z"/><path class="cls-1" d="M80.2082,105.68213c-1.50112.01446-3.00223.0385-4.50338.0414-3.21244.00623-6.4249.00124-9.63736.00183-.26607.00006-.52333.06032-.52013-.37693.02265-3.08644.02433-6.173.0327-9.25956l4.78874.00294v9.26057a35.651,35.651,0,0,0,.13813-3.80632,1.05368,1.05368,0,0,1,.12544-.71269q4.76711.00315,9.53421.00627Z"/><path class="cls-1" d="M124.00106,105.60047c-.01289-1.74985-.0366-3.49969-.036-5.24953.0008-2.49221.01942-4.98442.03045-7.47663l6.50758-.00063q-.00142,6.36557-.00284,12.73115Z"/><path class="cls-1" d="M179.75362,95.18288l-5.05168-.01q-.00186-2.28473-.0037-4.56945c-.00069-.82014-.0008-.8208-.79094-.82113-1.33867-.00056-2.67751-.01182-4.01591.007-.393.00551-.54577-.10388-.53915-.51956.02156-1.35821.01552-2.717.00281-4.07546-.00312-.33257.08367-.4789.4485-.47768q4.75739.01593,9.51483.00061c.34643-.001.4665.11387.4647.46286Q179.75732,90.1814,179.75362,95.18288Z"/><path class="cls-1" d="M5.18434,79.8014c.30065.05111.16694.29214.16707.44044q.01143,12.68285.00035,25.36571c-.00012.14939.12848.38745-.16731.4406-.00029-3.24785-.00873-6.49576.00845-9.74351.00241-.45619-.12379-.60549-.5901-.59726-1.52148.02687-3.04372.01043-4.56567.01066q-.07428-5.44187,0-10.88374c1.52291.00026,3.04614-.01654,4.56856.01094.4709.00851.595-.1481.58734-.60109C5.1681,82.7636,5.18409,81.28237,5.18434,79.8014Z"/><path class="cls-1" d="M37.1877,69.38717l-.0044,10.25239-5.29256-.002c-.01439-.96544-.04184-1.9309-.04061-2.89633.00313-2.4486.01912-4.89718.03-7.34577Z"/><path class="cls-1" d="M158.70322,84.7179c.00574,3.3459.00694,6.69182.02412,10.03766.00177.3419-.08189.46015-.4419.45464-1.58094-.02419-3.16235-.01949-4.74357-.02527-.00642-3.35139-.009-6.70278-.02469-10.05414-.00177-.37667.1795-.43969.49591-.43671C155.5764,84.70888,157.13984,84.71119,158.70322,84.7179Z"/><path class="cls-1" d="M.03713,95.718c1.522-.00023,3.04419.01621,4.56567-.01066.46631-.00823.59251.14107.5901.59726-.01718,3.24775-.00874,6.49566-.00845,9.74351-1.61975.10447-3.24132.01462-4.86169.0467-.36015.00712-.3129-.23877-.313-.462-.00042-1.41679-.00368-2.83359.00063-4.25037Q.019,98.55024.03713,95.718Z"/><path class="cls-1" d="M80.40673,76.45591c1.48312-.00464,2.96628-.00425,4.44931-.01839.27689-.00265.40758.0581.40573.371-.01817,3.08761-.02418,6.17529-.03362,9.26295l-4.77875-.00543c-.00777-.28718-.02159-.57435-.02237-.86155Q80.41506,80.8302,80.40673,76.45591Z"/><path class="cls-1" d="M65.58,95.8404l.00036-9.52074,4.78731.00309q.00052,4.75736.00106,9.51471Z"/><path class="cls-1" d="M85.22812,86.31934l.00031,9.52136-4.77977-.00533.00077-9.5106Z"/><path class="cls-1" d="M65.58038,86.07118q.00016-4.76037.00035-9.52072l4.7904.00254q-.00174,4.75753-.00346,9.51507Z"/><path class="cls-1" d="M70.50987,71.59478l9.65719-.00241c.00239,1.397-.00611,2.79414.01412,4.19087.00571.39409-.111.53967-.52247.53765q-4.31656-.02115-8.63326-.0002c-.40769.00194-.53176-.13737-.52624-.53493C70.51866,74.389,70.50868,72.9918,70.50987,71.59478Z"/><path class="cls-1" d="M91.3168,96.20733c-.006-1.44223-.00448-2.88457-.02411-4.32661-.00418-.30662.05976-.429.39991-.423,1.42195.02493,2.84442.02055,4.2667.02691l.15495.02626-.01074,9.27843c-.08383.027-.13271.07456-.1004.17005-1.44123.0047-2.88256.00221-4.32362.02009-.29441.00365-.39127-.07758-.38709-.38037.01962-1.41959.017-2.8395.02231-4.2593h4.43066l0-.13244Z"/><path class="cls-1" d="M96.25612,86.7253l9.27407-.01247-.00876,4.76838-9.26755-.00406Z"/><path class="cls-1" d="M105.52485,82.0016l-9.27635-.01336c-.00268-1.35568.00664-2.71157-.01538-4.06693-.00658-.40506.13194-.52974.53234-.52777q4.13092.02035,8.262-.00022c.41448-.00214.5266.15135.52015.54181C105.52518,79.29038,105.53023,80.64607,105.52485,82.0016Z"/><path class="cls-1" d="M123.97416,79.64329c-.00388-1.973-.00307-3.946-.01669-5.919-.00206-.29661.04483-.44642.396-.44378,1.933.01456,3.86623.01765,5.79912-.00246.37222-.00387.38056.16767.37932.44269-.0088,1.97306-.00853,3.94618-.01116,5.91928Z"/><path class="cls-1" d="M60.02534,9.28426A9.63012,9.63012,0,0,1,57.5894,9.361c-.50443-.00335-.65977.123-.65458.64491.02675,2.68772.01345,5.37584.01064,8.06382-.00026.24492-.02523.48982-.03874.73467q-1.55712-.00236-3.11419-.00459a25.10206,25.10206,0,0,1-.045-2.772c-.01217-2.05751.00907-4.11528-.014-6.1726-.005-.44287.13389-.563.55865-.54326.69843.03254,1.39949.01165,2.09941.007.19915-.00132.41982.05454.56549-.15319A15.75918,15.75918,0,0,1,60.02534,9.28426Z"/><path class="cls-1" d="M2.64806,69.21873c.76134,0,1.5229.011,2.28389-.0053.313-.0067.43563.08539.43245.41733q-.02155,2.25174-.00077,4.5038c.00253.30828-.1236.38379-.40276.38236q-2.28394-.01167-4.568.0008c-.28692.00178-.39447-.08218-.39171-.38565Q.02166,71.8803.00059,69.62828c-.00341-.33013.11011-.42293.42534-.41528C1.16625,69.231,1.9073,69.21875,2.64806,69.21873Z"/><path class="cls-1" d="M113.63229,18.55641l-.05956-2.97953a29.89318,29.89318,0,0,0,.00127-3.106l.02177-3.09287a.07449.07449,0,0,0-.02861-.09568l.01448-.01415c.80953.12141,1.62436.01952,2.43552.05973.215.01067.44619-.08369.64507.07462-.00722.24576-.02059.49152-.02073.73728-.00154,2.626-.00963,5.25208.00765,7.878.00282.42772-.12035.57487-.55421.55752C115.27512,18.54248,114.45329,18.55987,113.63229,18.55641Z"/><path class="cls-1" d="M169.31262,79.5298l.013,4.9372-.11957-.01075-5.20082.00424c-.08106-1.64266-.04954-3.28568-.01572-4.92872Z"/><path class="cls-1" d="M158.70322,84.7179c-1.56338-.00671-3.12682-.009-4.69013-.02382-.31641-.003-.49768.06-.49591.43671.01572,3.35136.01827,6.70275.02469,10.05414l-.26515.00008.00308-5.30238c.01046-1.62642.01876-3.25287.03387-4.87925.00207-.22144-.05044-.34062-.30549-.33755-1.64677.01984-3.29367.02958-4.94053.04263-1.54627-.00361-3.09282.00713-4.63869-.0198-.44826-.00781-.553.15935-.55122.57543q.02043,4.63674-.00305,9.27356c-.00319.4833.16935.5856.61139.578,1.39905-.024,2.79875-.00885,4.19947.09916h-3.56841c-1.23209,0-1.23209,0-1.23209,1.23654,0,2.84393.01039,5.68792-.01008,8.5317-.00345.48.12076.63141.61874.62772q4.60809-.0342,9.21654-.00189c.45648.00272.60764-.11788.59681-.58779-.03033-1.31822-.02327-2.63779-.003-3.9564.00615-.4017-.11937-.53863-.52737-.53287-1.42245.02-2.84542.015-4.26791-.00328-.14852-.00191-.49753.22117-.44752-.22933.19539.17485.43248.08769.648.08815,3.14012.00654,6.2803.0014,9.42039.01216.188.00064.4457-.14506.56991.14767-1.54351-.00255-3.08725.00834-4.63041-.01625-.43376-.00691-.56935.13119-.56165.56254q.03533,1.97407.00023,3.94914c-.00731.42361.1154.572.55414.56565,1.54314-.02227,3.08684-.00715,4.63033-.00621-.09992.29995-.3495.14591-.52049.14623-4.94571.0094-9.89147-.00036-14.83712.01925-.5246.00209-.65024-.157-.64937-.66205q.02178-12.57371-.00042-25.14743c-.00092-.51242.138-.65757.65424-.6556,4.94567.01887,9.89145.0092,14.83717.01984.17614.00038.47325-.17484.52486.20221-1.561-.00467-3.12218.0028-4.68287-.02193-.42848-.00679-.51319.17351-.5084.55167q.02457,1.93977,0,3.88c-.00479.37973.08508.55826.51093.55121,1.56056-.0258,3.12162-.02091,4.6825-.02757Zm-10.67882-.23982v-.00659c1.56536,0,3.13085-.01,4.696.00685.4027.00432.595-.07874.58542-.53923-.0271-1.29638-.02053-2.59385-.00269-3.89056.00531-.38626-.09305-.54782-.515-.54587q-4.69612.02161-9.39235,0c-.41847-.00192-.52319.15243-.51765.54216.01849,1.29668.02376,2.59413-.00217,3.89057-.009.44852.15937.55567.57589.55036C144.97583,84.46632,146.50019,84.47808,148.0244,84.47808Z"/><path class="cls-1" d="M5.18434,79.8014c-.00025,1.481-.01624,2.9622.00869,4.44275.00763.453-.11644.6096-.58734.60109C3.08327,84.81776,1.56,84.83456.03713,84.8343Q.02339,82.49361.00824,80.15293c-.00169-.2229.00632-.40713.31228-.40061C1.94157,79.78686,3.56394,79.69312,5.18434,79.8014Z"/><path class="cls-1" d="M158.69215,105.60208c-1.54349-.00094-3.08719-.01606-4.63033.00621-.43874.00633-.56145-.142-.55414-.56565q.034-1.97414-.00023-3.94914c-.0077-.43135.12789-.56945.56165-.56254,1.54316.02459,3.0869.0137,4.63041.01625Q158.69582,103.07465,158.69215,105.60208Z"/><path class="cls-1" d="M158.70322,84.45793c-1.56088.00666-3.12194.00177-4.6825.02757-.42585.007-.51572-.17148-.51093-.55121q.02451-1.93979,0-3.88c-.00479-.37816.07992-.55846.5084-.55167,1.56069.02473,3.12187.01726,4.68287.02193Q158.70213,81.99123,158.70322,84.45793Z"/><path class="cls-1" d="M85.22843,96.08853c.0094,1.45406.00922,2.90829.03534,4.362.00611.33967-.12381.40793-.429.40451-1.47594-.01654-2.9521-.0147-4.42817-.01936l.042-4.74185Z"/><path class="cls-1" d="M65.57934,76.302c-.00816-1.46026-.01169-2.92056-.02887-4.3807-.003-.2533.0488-.365.33566-.36084,1.5019.02173,3.00406.02392,4.50614.0329q-.00081,2.35476-.0016,4.70952Z"/><path class="cls-1" d="M72.74636,3.0749q-3.224.07584-6.44794,0a1.14684,1.14684,0,0,1-.11676-.65309c.00193-.7976.00021-1.59521-.00013-2.39281L72.86417.0292c-.00035.24543.01346.49184-.00366.7361A9.176,9.176,0,0,1,72.74636,3.0749Z"/><path class="cls-1" d="M82.25975,49.95442l6.06751.01124.09763.11621c.00568.82357-.005,1.64772.02452,2.47043.013.364-.12489.45218-.463.44985-1.81342-.0125-3.62707-.0168-5.44039.00144-.40831.00411-.47016-.17083-.46757-.51893.00629-.843-.02234-1.68619-.0369-2.5293l-.01524-.00062Z"/><path class="cls-1" d="M100.952,3.08083l-6.20666.00751L94.742.12053,94.89.02134l6.05375.00417Z"/><path class="cls-1" d="M107.23816,3.086l-6.169-.005q.00471-1.52781.00929-3.05565l6.05458-.004.13648.103q.00444,1.40885.00886,2.81769Z"/><path class="cls-1" d="M70.39067,76.30288q.00079-2.35476.0016-4.70952l.1176.00142c-.00119,1.397.00879,2.79421-.01066,4.191-.00552.39756.11855.53687.52624.53493q4.31656-.02053,8.63326.0002c.41146.002.52818-.14356.52247-.53765-.02023-1.39673-.01173-2.79388-.01412-4.19087.38631.03922.20575.34031.20852.51495.023,1.44933.02371,2.899.03114,4.34859q.0097,4.3743.02031,8.74859c.00078.2872.0146.57437.02221.86158q-.00008.12938.00019.25869-.00039,4.7553-.00094,9.51063-.00007.12927.00018.25848l-.042,4.74185c-.00742,1.42592-.00819,2.85194-.03018,4.27763-.00293.18982.15112.4599-.16827.56876l-.04165-4.84248a.81434.81434,0,0,0,.11352-.591q.002-11.58471.01191-23.16938c.00092-.46916-.13275-.58561-.588-.58253-2.86408.01941-5.72849.02368-8.59246-.00289-.51954-.00481-.58976.18849-.58908.63707q.01748,11.52289.01056,23.04583a.9655.9655,0,0,0,.09931.65662,1.05368,1.05368,0,0,0-.12544.71269,35.651,35.651,0,0,1-.13813,3.80632q0-4.63029.00016-9.2606.00007-.12718-.00017-.25432-.00054-4.75735-.00089-9.51474.00006-.12735-.0002-.25465.00172-4.75754.00361-9.5151Q70.38114,76.4279,70.39067,76.30288Z"/><path class="cls-1" d="M105.52485,82.0016c.00538-1.35553.00033-2.71122.02273-4.06647.00645-.39046-.10567-.54395-.52015-.54181q-4.13091.02138-8.262.00022c-.4004-.002-.53892.12271-.53234.52777.022,1.35536.0127,2.71125.01538,4.06693-.28946.00832-.19274-.21526-.19346-.35166-.007-1.31787.00425-2.63587-.01-3.95363-.00367-.34084.09854-.47081.45538-.47011q6.768.01344,13.536-.002c.39987-.00111.471.15042.47072.50781q-.01214,13.77612-.00757,27.55225c0,.13967.03838.29137-.0828.40827l-.089-.0942c.00823-2.94542.01154-5.891.03037-8.83644.00247-.38784-.19428-.42924-.50223-.42725-1.27388.00827-2.54784.00347-3.82177.00347,1.26923-.10679,2.53883-.11542,3.80816-.10125.35517.004.51917-.08336.51737-.4799q-.01929-4.23362.00023-8.46736c.00187-.39828-.16327-.482-.51713-.47761q-1.79305.02207-3.58648-.00069c-.37416-.00535-.50759.11936-.502.4978.01762,1.19465.01162,2.38978.00143,3.58461-.00181.21324.097.45758-.11777.63612l-.11656-.03523.00876-4.76838a8.86,8.86,0,0,0,.08637-2.38457A8.14141,8.14141,0,0,0,105.52485,82.0016Zm.236.02556.02466,0c0,1.37835.00453,2.75673-.00337,4.135-.00183.31935.01.55187.44345.54421,1.2347-.02184,2.47011-.01507,3.70509-.00322.3268.00314.42659-.12853.42582-.43985q-.01033-4.19707.00119-8.39417c.00105-.33743-.10154-.47827-.4573-.47394q-1.8215.02222-3.64337-.00055c-.37259-.005-.50705.11943-.50259.49762C105.7707,79.2704,105.76086,80.64884,105.76086,82.02716Z"/><path class="cls-1" d="M16.06921,83.36991c-.4069.08181-.21958-.245-.2224-.372-.01923-.8641-.02807-1.72936-.00238-2.59312.01223-.41153-.13757-.52966-.53513-.52392-1.33838.01933-2.67759.02535-4.01566-.00265-.45676-.00956-.54684.16741-.54024.57634.02094,1.29644.02705,2.59388-.00236,3.89-.01082.477.114.64348.61641.63238,1.47835-.03269,2.95789-.01167,4.43741.09587-1.44779,0-2.89641.02822-4.343-.01387-.579-.01685-.71822.16525-.71333.72417.02649,3.0256.022,6.05162.00278,9.07734-.003.47461.11112.64633.61493.63275,1.29653-.03495,2.595-.03074,3.89187-.00168.47187.01058.59286-.15124.58781-.60308-.0216-1.93465-.01376-3.86969-.00027-5.80449.00106-.15046-.18471-.46552.22208-.437-.15458.22512-.08085.47993-.08106.7199-.00471,5.34652-.0153,10.69312.01231,16.0395.00318.61521-.17086.74689-.75172.72664-1.31518-.04583-2.6331-.00937-3.9498-.01989-.19046-.00153-.41152.10249-.57481-.094,1.50224-.10558,3.00639-.03206,4.50944-.0366.43136-.0013.61912-.07667.61564-.56983q-.03277-4.6351-.003-9.27057c.00212-.43085-.1287-.57345-.56341-.5653-1.27751.024-2.55649.03343-3.8334-.00346-.53088-.01534-.70593.115-.70051.67762.029,3.00755.01475,6.01553.01164,9.02335-.00025.24562-.029.49121-.04449.73682-.18791-.14142-.0946-.34324-.09471-.51389q-.00781-12.57459-.01392-25.14919c-.00072-.468.09358-.64436.60553-.631,1.421.03718,2.84387.02838,4.26539.0032.41225-.0073.51054.11848.51812.51934A18.36214,18.36214,0,0,0,16.06921,83.36991Z"/><path class="cls-1" d="M85.36133,12.442c-.94518.01127-1.89051.016-2.83546.03756-.30909.00707-.38995-.14-.38018-.41438.0117-.32845.01788-.65857-.00148-.98631-.03233-.54744.23961-1.24619-.12-1.60074-.32968-.32508-1.018-.09346-1.54755-.09767-1.512-.012-1.509-.00423-1.51372-1.54626-.0017-.55426-.02217-1.10846-.03407-1.66269l.24515.034c-.00019.7618.03756,1.52613-.013,2.28458-.038.57058.17836.70335.70481.67548.73921-.03913,1.48238-.00342,2.22386.00028.16932.215.41.14563.62885.15387.88.03317,1.76242-.06109,2.6411.04874Z"/><path class="cls-1" d="M60.06809,24.85747q.036,1.635.07187,3.27l-.03428.09843c-.45024-.30841-.95562-.09472-1.43291-.14841-.565-.06357-1.29507.24841-1.65741-.13152-.33029-.34633-.086-1.0601-.09547-1.61141-.00842-.49155.02413-.9838.03859-1.47574Z"/><path class="cls-1" d="M63.20252,31.167c.90232.002,1.80526.02432,2.70669-.00307.41206-.01251.52273.12667.5129.52345-.02236.90127.00125,1.8037.00617,2.70565a17.13512,17.13512,0,0,0-2.70447-.05881c-.39325-.00332-.5362-.09913-.52138-.51823C63.23362,32.93412,63.206,32.05014,63.20252,31.167Z"/><path class="cls-1" d="M110.47435,28.08265l.046-3.22791q1.52436.00246,3.04872.00482c.01326.96081.0177,1.92187.04444,2.88231.00967.34768-.19426.33565-.43558.33488C112.27674,28.07386,111.37554,28.07994,110.47435,28.08265Z"/><path class="cls-1" d="M107.26264,31.1807c.00783-.81656.0448-1.63427.01259-2.44925-.01948-.493.10213-.68857.63437-.66236.85612.04215,1.71606.00655,2.57439.00379-.00164.8858-.01873,1.772.00285,2.65721.00842.34519-.08309.46386-.44268.45493C109.11752,31.162,108.18988,31.17943,107.26264,31.1807Z"/><path class="cls-1" d="M85.36133,12.442l-.00165-3.07353A25.06386,25.06386,0,0,1,88.35049,9.352a.07082.07082,0,0,0,.05265.04863c.0126.90458.02113,1.80925.04033,2.7137.00563.26484-.10267.36729-.366.36209C87.1722,12.45854,86.26672,12.45254,85.36133,12.442Z"/><path class="cls-1" d="M75.79974,40.6905q.00471,1.41609.00942,2.83238l-.10464.14729c-.88.00516-1.76023.001-2.63994.0204-.32016.007-.42892-.10879-.42442-.42717.0127-.89995-.00077-1.80027-.00393-2.70046l.01371-.00838q1.53469.02388,3.06926.0477Z"/><path class="cls-1" d="M60.02534,9.28426a15.75918,15.75918,0,0,0-3.06826-.11851c-.0128-.88146-.01383-1.76333-.0442-2.6442-.01213-.35191.19066-.33655.43-.33659.92432-.00016,1.84864-.0078,2.773-.01265C60.03956,7.20829,60.19844,8.2511,60.02534,9.28426Z"/><path class="cls-1" d="M110.58014,6.19677c.88407-.0033,1.76841.00486,2.65206-.01633.29569-.00709.39.075.38094.37742-.027.90293-.02324,1.80678-.0315,2.71028l-.0145.01415a20.82678,20.82678,0,0,0-2.848.07115l-.2019.02044q-.01006-1.56831-.02-3.13657A.09543.09543,0,0,0,110.58014,6.19677Z"/><path class="cls-1" d="M72.64994,40.55456l-.01371.00838c-.88147.00157-1.76332-.0116-2.64419.01192-.35362.00945-.51565-.05287-.49939-.46052.03509-.87962.01743-1.76133.02135-2.64219l3.09135.02294c.05438.94008-.0696,1.88454.06939,2.82255Z"/><path class="cls-1" d="M101.08873,34.40792c1.02523-.14842,2.06.026,3.08618-.09111,0,.89826-.014,1.79683.00719,2.69457.00806.34107-.08512.45842-.44073.44941-.89807-.02275-1.79718-.00419-2.696-.00214l.01585-.20062Z"/><path class="cls-1" d="M94.75227,43.71642c-.00325-.89931.00518-1.79888-.0157-2.69778-.008-.34187.09859-.47085.45209-.4596.878.02794,1.757.02419,2.63585.03318a.129.129,0,0,0,.03542.10135c.00447.839-.00793,1.67851.021,2.51663.01315.38143-.11711.49052-.49.484C96.51175,43.67886,95.63187,43.70629,94.75227,43.71642Z"/><path class="cls-1" d="M91.6555,46.68121a.58886.58886,0,0,1-.03517-.088c-.00305-.01282.01167-.02986.01839-.04521.01031-.76037.03822-1.52085.02325-2.28049-.00744-.37761.121-.50188.497-.49524.80125.01415,1.60324-.013,2.40493-.0232l.19519-.04122c-.00475.85891-.02695,1.71829-.00636,2.57663.00922.38421-.07976.54872-.50271.52942-.85729-.03911-1.71684-.02884-2.57549-.03894A.06691.06691,0,0,0,91.6555,46.68121Z"/><path class="cls-1" d="M82.04158,49.95536c-.83693-.00723-1.67457-.0379-2.51047-.012-.435.01346-.62195-.07351-.596-.56228.04426-.8347.01489-1.6733.01644-2.5103.863.00152,1.72642.019,2.58886-.00267.3842-.00965.49745.1319.48913.50076-.01943.86155-.00429,1.72389-.00316,2.58591Z"/><path class="cls-1" d="M60.10568,28.22592l.03428-.09843c.90168-.0144,1.80322-.0238,2.70447-.046.28286-.007.41207.09146.40522.38913-.02076.90146-.02633,1.80326-.03783,2.70494-.90166-.00018-1.80371-.01583-2.70476.0073-.34733.00891-.45679-.09061-.44233-.44181C60.09922,29.90354,60.09454,29.0644,60.10568,28.22592Z"/><path class="cls-1" d="M53.79253,18.79981q1.55709.00227,3.11419.00459a24.305,24.305,0,0,1-.00158,3.03246c-.90393-.00235-1.80787-.00614-2.7118-.00608-.2331,0-.45858.02493-.4489-.32745C53.76918,20.60239,53.77759,19.701,53.79253,18.79981Z"/><path class="cls-1" d="M94.75924,3.07592c-.00516.88371-.02819,1.76786-.00716,2.651.00907.38153-.11558.4976-.49066.48625-.86306-.02613-1.72728-.0136-2.591-.01676q.00181-1.543.00361-3.086l2.84268-.002c.04949.06928.08961.0585.12247-.01431Z"/><path class="cls-1" d="M104.19737,34.13864c-.00755-.84064-.00071-1.68177-.02944-2.5217-.01217-.35589.114-.45641.45795-.449.88219.01907,1.76513.00408,2.64777.0027.006.91981.0043,1.83976.02269,2.75932.00557.2785-.06221.4048-.37087.39487-.87788-.02825-1.75659-.03054-2.635-.04305Z"/><path class="cls-1" d="M60.06808,24.85747l-3.1096.00137L56.89532,21.826c.90486.00523,1.80993.02376,2.71447.00922.37252-.006.511.11733.49692.497C60.07554,23.17328,60.07883,24.01563,60.06808,24.85747Z"/><path class="cls-1" d="M97.89315,40.44142c-.0078-.85906-.00347-1.71848-.0294-2.577-.01032-.34134.13994-.40769.43916-.4046.92109.0095,1.84239-.0029,2.76365-.00679q-.052,1.4964-.10408,2.99279Z"/><path class="cls-1" d="M113.56838,21.90267q.03195-1.553.06387-3.10582c.82471-.00339,1.65049.01631,2.47383-.01976.45492-.01993.55426.16037.54284.57409-.02217.80262.00474,1.6066.01132,2.41a15.60349,15.60349,0,0,1-2.30715.0693A2.03921,2.03921,0,0,0,113.56838,21.90267Z"/><path class="cls-1" d="M66.18153.029c.00034.7976.00206,1.59521.00013,2.39281a1.14684,1.14684,0,0,0,.11676.65309q-1.52595.00384-3.05207.00757L63.2272,3.026c-.00377-.86078.00878-1.72209-.01914-2.58208-.01161-.35771.10872-.45434.45273-.44284C64.50041.02915,65.3412.022,66.18153.029Z"/><path class="cls-1" d="M72.74636,3.0749A9.176,9.176,0,0,0,72.86051.7653c.01712-.24426.00331-.49067.00366-.7361.84091-.00708,1.68234.00049,2.52251-.02829.34776-.01192.46161.09115.45041.44561-.02723.86066-.01483,1.72259-.01838,2.584l-.00636.02441A24.45678,24.45678,0,0,1,72.74636,3.0749Z"/><path class="cls-1" d="M88.44672,9.15283c-.01027-.88255-.009-1.76547-.03713-2.64745-.00966-.30326.13391-.32494.37119-.322.884.011,1.76814.00792,2.65224.01014.15718.17391.09035.387.09321.58349.01149.79211.0124,1.58437.01721,2.37657L91.528,9.15035Q89.98736,9.15157,88.44672,9.15283Z"/><path class="cls-1" d="M63.20706,3.22474c.01316.85877.016,1.71788.04457,2.57614.01129.33969-.14355.4148-.44324.40849-.9009-.019-1.80218-.02034-2.70331-.02857a24.18781,24.18781,0,0,1,.00743-2.96223Z"/><path class="cls-1" d="M113.56906,24.85956q-1.52436-.00238-3.04872-.00482c-.011-.87743-.01843-1.75488-.03526-2.63214-.00472-.24573.0672-.39021.34217-.381.91682.03083,1.83609-.06366,2.75136.05294A27.02867,27.02867,0,0,1,113.56906,24.85956Z"/><path class="cls-1" d="M78.94054,6.18058c-.90474.00826-1.80965.00906-2.71414.029-.29711.00655-.39545-.1083-.38839-.39737.02107-.86267.02331-1.7258.03289-2.58879q1.53018-.00243,3.06039-.00478A23.04829,23.04829,0,0,1,78.94054,6.18058Z"/><path class="cls-1" d="M88.46962,49.82726q-.01388-1.32777-.02653-2.65554c-.00094-.12007-.01466-.2526.13105-.31475.79588.00618,1.59206.02459,2.38779.01261.33746-.00508.47568.1.46642.45282-.02247.85648-.01569,1.71374-.02068,2.57067a27.18418,27.18418,0,0,1-2.83927.02136Z"/><path class="cls-1" d="M82.08973,9.16587c-.74148-.0037-1.48465-.03941-2.22386-.00028-.52645.02787-.74285-.1049-.70481-.67548.05056-.75845.01281-1.52278.013-2.28458.86386-.0062,1.72779-.00759,2.59153-.02168.24476-.004.38155.0457.37258.33534C82.11086,7.40107,82.10435,8.2836,82.08973,9.16587Z"/><path class="cls-1" d="M66.55657,34.38379a26.50443,26.50443,0,0,1,2.83972,0l.10359.11888Q69.49794,35.92,69.496,37.33733a1.15119,1.15119,0,0,0-.64958-.11243c-.81263-.00014-1.62526-.00336-2.43789-.00542a18.99,18.99,0,0,1-.00219-2.71329Z"/><path class="cls-1" d="M169.20607,84.45625l.11957.01075c.19525.17386.43289.0945.65006.09489,3.1259.00568,6.25186.01374,9.37763-.00653.47792-.0031.63466.11264.63117.61251-.02214,3.16513-.00841,6.33048-.01867,9.49573-.00057.17974.1606.4728-.21221.51928q.012-5.00144.02946-10.00284c.0018-.349-.11827-.46387-.4647-.46286q-4.75737.01392-9.51483-.00061c-.36483-.00122-.45162.14511-.4485.47768.01271,1.35843.01875,2.71725-.00281,4.07546-.00662.41568.14615.52507.53915.51956,1.3384-.01877,2.67724-.00751,4.01591-.007.79014.00033.79025.001.79094.82113q.002,2.28472.0037,4.56945c-.28646-.10881-.13576-.3517-.13745-.52418-.01378-1.39707-.008-2.79433-.00745-4.19153.00009-.26915.04306-.53635-.38259-.53191-1.56214.01631-3.12453.00958-4.6868.01634-.05272.00023-.10524.05213-.15784.08a10.86389,10.86389,0,0,1-.06973-2.18447c-.02511-1.0409-.01629-2.08262-.02189-3.124Z"/><path class="cls-1" d="M58.66749,99.288c-2.98784.007-5.97582.03129-8.9634.00649-.60517-.005-.75506.1727-.74342.75968.03748,1.88992.014,3.78105-.09362,5.67192v-4.79842c0-1.61874,0-1.61875-1.64933-1.61874-.84493,0-1.69034.01677-2.53458-.00725-.39514-.01124-.541.10353-.53649.51889.02273,2.07995.01815,4.1602.02317,6.24035-.314-.027-.18375-.27524-.18448-.42139-.00993-1.99377.00276-3.98768-.01454-5.98135-.0035-.40438.12149-.52639.527-.52529,4.586.01242,9.17207.00691,13.75811.01229C58.39815,99.14529,58.59845,99.04862,58.66749,99.288Z"/><path class="cls-1" d="M96.00311,100.95935c-.03231-.09549.01657-.14308.10041-.17005l.13792.17663c-.00037,1.35906.01347,2.71836-.00953,4.077-.00716.42337.112.56829.55259.56539q4.11048-.027,8.2212.00014c.45237.00307.54976-.16618.54293-.57653-.02262-1.35869-.013-2.71792-.01565-4.077l.14569-.16013c.16684.176.07612.39159.07753.58645.00886,1.22965.01781,2.45962-.00317,3.689-.0067.39283.101.54447.5152.53667,1.35282-.02548,2.70628-.01734,4.05949-.02214l.08908.0943c-.18448.13876-.39789.07352-.59715.0737-4.36245.004-8.72495-.00645-13.0873.01527-.53655.00268-.70354-.12488-.69662-.68024C96.05285,103.71235,96.10966,102.33454,96.00311,100.95935Z"/><path class="cls-1" d="M123.97416,79.64329l6.54658-.00327c.20139.15665.43694.08574.65633.08652,1.74964.0062,3.49934-.0003,5.249.00884.19033.001.41322-.10185.57353.10046-2.10013.118-4.202.0335-6.303.04772q-2.99934.0203-5.99886-.01573c-.47982-.00637-.64244.12112-.63451.62119.02868,1.80966.0113,3.62005-.09257,5.431q0-1.88769,0-3.77537c0-.57694-.02017-1.15481.00674-1.7305.01879-.40205-.119-.53773-.52709-.53351-1.99945.02069-3.99915.01567-5.99875.01974.11319-.30323.37481-.16183.56347-.16313,1.76641-.01224,3.53295-.00532,5.29946-.00972A1.07954,1.07954,0,0,0,123.97416,79.64329Z"/><path class="cls-1" d="M116.66024,21.7612c-.00658-.80342-.03349-1.6074-.01132-2.41.01142-.41372-.08792-.594-.54284-.57409-.82334.03607-1.64912.01637-2.47383.01976q0-.1206,0-.24063c.821.00365,1.64287-.01374,2.46269.01905.43386.01735.557-.1298.55421-.55752-.01728-2.6259-.00919-5.252-.00765-7.878.00014-.24576.01351-.49152.02073-.73728.1961.10666.10827.2923.10846.44108q.00738,5.73986-.00027,11.47972C116.77022,21.47073,116.86219,21.658,116.66024,21.7612Z"/><path class="cls-1" d="M82.02634,49.95474c-.00113-.862-.01627-1.72436.00316-2.58591.00832-.36886-.10493-.51041-.48913-.50076-.86244.02167-1.72586.00419-2.58886.00267-.67836-.01427-1.35669-.037-2.03512-.041-1.1567-.00682-1.14688-.002-1.16061-1.18721a11.76026,11.76026,0,0,0-.05125-1.97236l.10463-.14729c.301.26006.66319.11668.998.14757a9.42814,9.42814,0,0,1,2.10209.10324c-.84287.00308-1.686.01534-2.52875.00429-.3157-.00414-.44313.1048-.43541.42794.01569.65726.01811,1.31555-.001,1.97263-.01029.35453.13377.46449.47278.45757.8427-.01719,1.68592-.00866,2.52894-.01046a2.97387,2.97387,0,0,0,1.62158.14531c1.62665.02592,1.62023.0094,1.63087,1.65085a6.13944,6.13944,0,0,0,.06158,1.53263Z"/><path class="cls-1" d="M21.15,88.64978c.38535-.08634.23961.222.24138.36271.01343,1.06723.01857,2.13489.00144,3.202-.00594.37052.06184.56191.49914.55438,1.56029-.02688,3.1212-.01863,4.68187-.02368.03343.23449-.1342.20726-.27491.20735-1.54592.001-3.09192-.008-4.63769.00692-.37919.00368-.43886-.17477-.4352-.49336.01205-1.05053.00737-2.1013.00219-3.15194A1.18447,1.18447,0,0,0,21.15,88.64978Z"/><path class="cls-1" d="M130.50305,92.87368l-6.50758.00063v-.2497l6.50758.00059Z"/><path class="cls-1" d="M124.00106,105.60047l6.49915.00436c-.0106.19212-.15885.14945-.27007.14958q-2.94648.00339-5.89294-.00191C124.21407,105.75218,124.03373,105.82358,124.00106,105.60047Z"/><path class="cls-1" d="M136.9672,86.21978c-.01551-2.1246-.09077-4.24955.03827-6.3733.03018.05.08656.1.08668.15018q.007,3.0231.00444,6.04622A.1587.1587,0,0,1,136.9672,86.21978Z"/><path class="cls-1" d="M110.58014,6.19677a.09434.09434,0,0,1-.08275.04023c-.04728-.01755-.09472-.03478-.14216-.052.00007-.84-.01089-1.68019.0055-2.51987.00675-.34559-.11956-.47032-.46476-.46347-.8606.01706-1.72173.00721-2.58264.00817l-.075-.12381.04-.14394a7.16132,7.16132,0,0,0,2.42677.10017c.61609-.00861.8452.1202.81159.78737A8.52892,8.52892,0,0,0,110.58014,6.19677Z"/><path class="cls-1" d="M37.1877,69.38717l-5.30761.0083c-.04491-.19179.09419-.196.21429-.1962q2.42844-.0036,4.85688.00032C37.07118,69.19977,37.20905,69.199,37.1877,69.38717Z"/><path class="cls-1" d="M169.31262,79.5298l-5.32309.002c-.0237-.27866.18965-.21451.33339-.21494q2.327-.007,4.65409.00064C169.11922,79.318,169.33481,79.24945,169.31262,79.5298Z"/><path class="cls-1" d="M31.89074,79.63757l5.29256.002.00006.251-5.28908.00231Z"/><path class="cls-1" d="M169.20607,84.45625l.03212.25686-5.23291.00189,0-.25451Z"/><path class="cls-1" d="M31.90014,105.98638l5.28038-.01707c-.03131.22836-.21506.14491-.3341.1454q-2.32786.00963-4.65579.00226C32.08043,106.11676,31.93566,106.1648,31.90014,105.98638Z"/><path class="cls-1" d="M164.02526,105.62378l5.24784-.00085c-.04666.16407-.185.13109-.29946.13125q-2.3256.00342-4.65119.00029C164.20895,105.75431,164.06915,105.79175,164.02526,105.62378Z"/><path class="cls-1" d="M70.36876,95.83746q.00017.12714.00017.25432-2.39462-.00143-4.7889-.00291V95.8404Z"/><path class="cls-1" d="M70.39067,76.30288q-.00961.125-.01939.25009-2.39542-.00123-4.79055-.00251l-.00139-.24846Z"/><path class="cls-1" d="M96.25612,86.7253l-.00224,4.75185-.13963.03372-.15495-.02626a8.825,8.825,0,0,0,.086-2.13717c.02472-.71654-.00509-1.43486.01344-2.15178C96.063,87.03326,95.90138,86.7571,96.25612,86.7253Z"/><path class="cls-1" d="M80.44943,86.32477q-.00018-.12933-.00019-.25869,2.38963.00267,4.77891.0054l0,.24786Z"/><path class="cls-1" d="M70.36766,86.06807q.00019.1273.00021.25465-2.39391-.0015-4.78748-.00306l0-.24848Z"/><path class="cls-1" d="M80.44867,96.09388q-.00017-.12923-.00018-.25848,2.39015.00261,4.77994.0053v.24783Z"/><path class="cls-1" d="M91.40767,49.89307c.005-.85693-.00179-1.71419.02068-2.57067.00926-.35283-.129-.4579-.46642-.45282-.79573.012-1.59191-.00643-2.38779-.01261a13.00364,13.00364,0,0,1,2.24213-.0757,1.92218,1.92218,0,0,0,.83938-.09985.06673.06673,0,0,1,.01888.09352,23.06722,23.06722,0,0,0-.07917,2.6424C91.58519,49.58089,91.75389,49.84981,91.40767,49.89307Z"/><path class="cls-1" d="M91.54344,9.15358c-.00481-.7922-.00572-1.58446-.01721-2.37657-.00286-.1965.064-.40958-.09321-.58349a19.33286,19.33286,0,0,0,.08526-2.57345c.01273-.17074-.15894-.42326.15574-.50975q-.0018,1.543-.00361,3.086c-.10594.76717-.01712,1.53847-.05048,2.307C91.61049,8.721,91.68412,8.95073,91.54344,9.15358Z"/><path class="cls-1" d="M21.40072,83.382v4.19863l-.2624-.00012V83.38192Z"/><path class="cls-1" d="M88.44672,9.15283q1.54062-.00125,3.08124-.00248c-.01209.35266-.28739.21542-.45236.21944-.89049.02168-1.78147.02266-2.67236.03082a.07068.07068,0,0,1-.05275-.04859Z"/><path class="cls-1" d="M66.40852,37.21948c.81263.00206,1.62526.00528,2.43789.00542a1.15119,1.15119,0,0,1,.64958.11243l.028.14558c-.90155-.00936-1.80331-.01074-2.70441-.036C66.67075,37.44273,66.36481,37.613,66.40852,37.21948Z"/><path class="cls-1" d="M78.93129,3.21866q-1.5302.00237-3.06039.00478l-.0584-.16855.00621-.02438c.86092.10594,1.72585.00977,2.58729.05489C78.57944,3.09448,78.82169,2.9287,78.93129,3.21866Z"/><path class="cls-1" d="M63.20706,3.22474l-3.09455-.00617c.10946-.29073.3519-.12351.52541-.13318.862-.048,1.728.0571,2.58928-.05938l.01915.05647Q63.227,3.15372,63.20706,3.22474Z"/><path class="cls-1" d="M97.89315,40.44142l3.06932.00441c-.14213.27889-.39578.11806-.59444.13688a13.40447,13.40447,0,0,0-2.5081.11087.129.129,0,0,1-.03542-.10136Q97.85859,40.51682,97.89315,40.44142Z"/><path class="cls-1" d="M91.3168,96.20733h4.42858l0,.13244H91.31471Z"/><path class="cls-1" d="M101.0784.02533q-.00461,1.52782-.00929,3.05565l-.05869.014-.05851-.01412q-.004-1.52767-.00812-3.05533Z"/><path class="cls-1" d="M88.46962,49.82726l.09878.08717-.14351.16744-.09763-.11621Z"/><path class="cls-1" d="M107.26946.12437l-.13648-.103C107.21888.00221,107.28517.009,107.26946.12437Z"/><path class="cls-1" d="M94.89.02134,94.742.12053C94.7348.00318,94.80544.00185,94.89.02134Z"/><path class="cls-1" d="M104.19737,34.13864l.09312.14318-.12489.04763Z"/><path class="cls-1" d="M66.55657,34.38379l-.15024.1224.01258-.12074Z"/><path class="cls-1" d="M94.63917,3.094c-.03286.07281-.073.08359-.12247.01431Z"/><path class="cls-2" d="M110.499,15.61357l-.04513,3.17594c-.24356-.00144-.488.00976-.73053-.00663a9.37723,9.37723,0,0,1-2.41471-.12506q-.01583-3.08919-.03167-6.17836l-.01291.00953L110.5,12.46916l.00132.00129Z"/><path class="cls-2" d="M100.96941,6.23737l3.17972-.00936.01212,3.18414-3.18872-.06863Z"/><path class="cls-1" d="M100.96941,6.23737l.00312,3.10615c-.92345.01508-1.847.02569-2.77028.04789-.28655.00689-.3376-.14608-.33556-.38637.00677-.80161.01045-1.60343-.00143-2.40492-.00428-.28869.097-.40519.3925-.39828C99.16143,6.223,100.06551,6.22681,100.96941,6.23737Z"/><path class="cls-3" d="M104.16125,9.41215,104.14913,6.228l3.11491-.03885-.00716-.00782.043,3.17149-3.14423.05192Z"/><path class="cls-3" d="M107.30867,18.65782a9.37723,9.37723,0,0,0,2.41471.12506c.24255.01639.487.00519.73054.00663.0121.88152.01719,1.76322.0402,2.64445.0078.29863-.11471.39174-.4006.38724-.7804-.01227-1.56131-.01415-2.34161.00087-.33637.00647-.48-.09973-.47014-.45737C107.30672,20.46285,107.30168,19.56017,107.30867,18.65782Z"/><path class="cls-2" d="M104.15568,9.40475l3.14423-.05191.00817.00839-.044,3.12776.0129-.00953q-1.04587-.00306-2.09177-.00584c-1.01059-.001-1.00831-.00026-1.0114-1.04081C104.17182,10.75678,104.162,10.08077,104.15568,9.40475Z"/><path class="cls-3" d="M110.499,15.61357l.00229-3.14312,3.07267.00039a29.89318,29.89318,0,0,1-.00127,3.106Z"/><path class="cls-1" d="M107.31333,3.20981c.86091-.001,1.722.00889,2.58264-.00817.3452-.00685.47151.11788.46476.46347-.01639.83968-.00543,1.67988-.00553,2.51988l-3.09832-.00365.00716.00782Q107.28867,4.69949,107.31333,3.20981Z"/><path class="cls-1" d="M78.94589,46.62566c-.843.0018-1.68624-.00673-2.52894.01046-.339.00692-.48307-.103-.47278-.45757.01907-.65708.01665-1.31537.001-1.97263-.00772-.32314.11971-.43208.43541-.42794.84279.011,1.68588-.00121,2.52875-.00429A20.65183,20.65183,0,0,1,78.94589,46.62566Z"/><path class="cls-1" d="M94.5639,43.749c-.80169.01022-1.60368.03735-2.40493.0232-.376-.00664-.50444.11763-.497.49524.015.75964-.01294,1.52012-.02325,2.28049a16.51783,16.51783,0,0,1-.07212-2.5714.25894.25894,0,0,1,.30119-.30006A18.44568,18.44568,0,0,1,94.5639,43.749Z"/><path class="cls-1" d="M101.08873,34.40792q-.01374,1.42493-.02749,2.85011A10.04292,10.04292,0,0,1,101.08873,34.40792Z"/><path class="cls-1" d="M72.67474,40.31764c-.139-.938-.015-1.88247-.06939-2.82255A10.05882,10.05882,0,0,1,72.67474,40.31764Z"/><path class="cls-1" d="M75.79974,40.6905l-.08054-.08824C75.7991,40.58348,75.81357,40.6241,75.79974,40.6905Z"/><path class="cls-1" d="M69.49988,34.50267l-.10359-.11888C69.49173,34.37035,69.50659,34.42711,69.49988,34.50267Z"/><ellipse class="cls-1" cx="34.49766" cy="85.01635" rx="3.29437" ry="0.02968"/><ellipse class="cls-1" cx="34.52143" cy="95.53741" rx="3.28161" ry="0.02691"/><path class="cls-1" d="M168.96863,95.18521h-4.66784l.0002-.054h4.67227Z"/><path class="cls-1" d="M113.574,12.47084l-3.07267-.00039L110.5,12.46917l-.021-3.06971.03826-.02556.202-.02044,2.8765.02451Z"/><path class="cls-1" d="M113.59577,9.378l-2.8765-.02451a20.82136,20.82136,0,0,1,2.84787-.07117A.07448.07448,0,0,1,113.59577,9.378Z"/><path class="cls-1" d="M148.0244,84.47808c-1.52421,0-3.04857-.01176-4.57252.00769-.41652.00531-.58486-.10184-.57589-.55036.02593-1.29644.02066-2.59389.00217-3.89057-.00554-.38973.09918-.54408.51765-.54216q4.69612.02153,9.39235,0c.422-.00195.52033.15961.515.54587-.01784,1.29671-.02441,2.59418.00269,3.89056.00963.46049-.18272.54355-.58542.53923-1.5652-.0168-3.13069-.00685-4.696-.00685Z"/><path class="cls-1" d="M105.67867,100.79488q-.00941-4.27122-.01967-8.54245c-.00066-.24534-.01371-.49066-.021-.736.21475-.17854.116-.42288.11777-.63612.01019-1.19483.01619-2.39-.00143-3.58461-.00558-.37844.12785-.50315.502-.4978q1.793.02568,3.58648.00069c.35386-.00435.519.07933.51713.47761q-.01994,4.23361-.00023,8.46736c.0018.39654-.1622.48386-.51737.4799-1.26933-.01417-2.53893-.00554-3.80816.10125,1.27393,0,2.54789.0048,3.82177-.00347.308-.002.5047.03941.50223.42725-.01883,2.94546-.02214,5.891-.03037,8.83644-1.35331.0047-2.70677-.00344-4.05959.022-.41424.0078-.5219-.14384-.5152-.53667.021-1.22936.012-2.45933.00317-3.689C105.75479,101.18647,105.84551,100.97086,105.67867,100.79488Z"/><path class="cls-1" d="M105.76086,82.02716c0-1.37832.00984-2.75676-.00642-4.1349-.00446-.37819.13-.50266.50259-.49762q1.82144.02466,3.64337.00055c.35576-.00433.45835.13651.4573.47394q-.01317,4.197-.00119,8.39417c.00077.31132-.099.443-.42582.43985-1.235-.01185-2.47039-.01862-3.70509.00322-.43347.00766-.44528-.22486-.44345-.54421.0079-1.37831.00337-2.75669.00337-4.135Z"/><path class="cls-1" d="M10.7146,106.01117c.0155-.24561.04424-.4912.04449-.73682.00311-3.00782.01734-6.0158-.01164-9.02335-.00542-.56258.16963-.693.70051-.67762,1.27691.03689,2.55589.02744,3.8334.00346.43471-.00815.56553.13445.56341.5653q-.02274,4.63523.003,9.27057c.00348.49316-.18428.56853-.61564.56983-1.503.00454-3.0072-.069-4.50944.0366Z"/><path class="cls-1" d="M107.25688,6.18134l3.09832.00365q.07121.02584.14219.052.00974,1.56874.01986,3.13688l-.03821.02558-3.17095-.03823-.00818-.00839Z"/><path class="cls-1" d="M96.24144,100.96593l9.29154-.01092c.0027,1.359-.007,2.71827.01565,4.077.00683.41035-.09056.5796-.54293.57653q-4.11048-.02786-8.2212-.00014c-.44063.0029-.55975-.142-.55259-.56539C96.25491,103.68429,96.24107,102.325,96.24144,100.96593Z"/><path class="cls-3" d="M107.30808,9.36123l3.171.03823.021,3.06971-3.23593.01982Z"/></g></g></svg>