<svg xmlns="http://www.w3.org/2000/svg" viewBox="0 0 234.82549 126.04204"><defs><style>.cls-1{fill:#fff;fill-rule:evenodd;}</style></defs><g id="Layer_2" data-name="Layer 2"><g id="Good_luck" data-name="Good luck"><path class="cls-1" d="M170.05471,26.0333q1.24566.98535,2.49357,1.97234a1.13018,1.13018,0,0,1,.31466.38671,1.07471,1.07471,0,0,1,0,.95434,1.12967,1.12967,0,0,1-.31466.38667,1.525,1.525,0,0,1-1.03783.35238l-.03978.00183h-5.66206V57.04009a5.37586,5.37586,0,0,1-1.69533,3.88273,5.93982,5.93982,0,0,1-4.08072,1.61262h-2.52173l-6.25117,9.28645a1.38837,1.38837,0,0,1-.518.46171,1.4683,1.4683,0,0,1-.68875.16448,1.52112,1.52112,0,0,1-.6852-.1694,1.43472,1.43472,0,0,1-.52026-.45679l-6.2507-9.28645H113.16944a5.97753,5.97753,0,0,1-2.19859-.41209,5.74807,5.74807,0,0,1-1.86382-1.1831,5.44429,5.44429,0,0,1-1.24388-1.77353A5.217,5.217,0,0,1,107.43,57.075V30.0877h-5.6938c-1.2707,0-1.97689-1.34328-1.04812-2.08188a.18948.18948,0,0,0,.05945-.04277c.92028-.77655,1.88125-1.52235,2.84131-2.2676.459-.35641.91851-.71268,1.37261-1.07212q4.3478-3.44652,8.69557-6.89912,5.04237-4.00827,10.09277-8.01025,4.16542-3.30022,8.3237-6.60634Q133.81265,1.731,135.55177.348a1.76328,1.76328,0,0,1,2.10338,0q.41166.32455.81971.649.41031.32574.82242.65154,3.58281,2.84193,7.17234,5.6903.98486.78092,1.96928,1.56185v-2.319a1.32931,1.32931,0,0,1,.48541-.89472,1.46429,1.46429,0,0,1,1.00118-.32641h7.432a1.46545,1.46545,0,0,1,1.00118.32646,1.33031,1.33031,0,0,1,.485.89467V17.16686l1.30065,1.02733q3.80541,3.01308,7.618,6.026Q168.91,25.12821,170.05471,26.0333Zm-38.893,26.41832c.25075.27264.50418.54842.78.83536a88.65032,88.65032,0,0,1,26.25119-26.15671A78.72085,78.72085,0,0,0,150.7318,21.433c-7.7373,1.55367-18.23768,18.64611-19.89545,23.04888a32.96093,32.96093,0,0,0-9.11883-7.51038l-5.4158,5.81989C127.35858,48.31815,129.15177,50.26689,131.16173,52.45162ZM113.169,67.46763a11.22408,11.22408,0,0,1-7.72032-3.04737,10.15471,10.15471,0,0,1-3.2029-7.34575V35.02h-.51a6.90774,6.90774,0,0,1-3.81971-1.12709,6.39978,6.39978,0,0,1-2.45425-3.00387,5.67782,5.67782,0,0,1-.24225-3.33641,5.87351,5.87351,0,0,1,1.68816-2.93352l.02325-.02892.0733-.06213q.17229-.15822.3589-.30679l.09968-.07947c.95112-.79568,1.91655-1.54509,2.85159-2.27041l.09565-.07415.00089-.00067c.41344-.32132.82732-.64246,1.23629-.96651l1.8656-1.48023q-1.79879-1.42615-3.59533-2.85343-1.69821-1.34121-3.39644-2.69444a1.72078,1.72078,0,0,0-2.05332,0q-.40561.31972-.8081.6395-.3969.31512-.79559.63026-3.505,2.772-7.00294,5.556l-1.92281,1.525V19.88848a1.29794,1.29794,0,0,0-.47378-.87358,1.43079,1.43079,0,0,0-.9775-.31869H75.23028a1.43031,1.43031,0,0,0-.9775.31869,1.29793,1.29793,0,0,0-.47377.87358V30.22389L72.50875,31.227q-3.72228,2.94195-7.43783,5.88385l-2.48241,1.9634-2.191,1.73263a1.10768,1.10768,0,0,0-.30706.37759,1.04992,1.04992,0,0,0,0,.93191,1.10768,1.10768,0,0,0,.30706.37759,1.48937,1.48937,0,0,0,1.01325.344l.03889.0017h5.52843V69.15624a5.24885,5.24885,0,0,0,1.65553,3.7911A5.801,5.801,0,0,0,72.61781,74.522h2.46273l6.10322,9.06744a1.36027,1.36027,0,0,0,.50551.451,1.44034,1.44034,0,0,0,.67267.16,1.47923,1.47923,0,0,0,.66865-.16537,1.40425,1.40425,0,0,0,.50864-.44562L89.64244,74.522h28.73272a5.83871,5.83871,0,0,0,2.14673-.40226,5.62049,5.62049,0,0,0,1.82-1.15539,5.31411,5.31411,0,0,0,1.21437-1.73152,5.09291,5.09291,0,0,0,.42327-2.0426V67.46763ZM.00771,92.29214v22.731H9.86643V94.50994q-.00155-2.51883,1.45606-2.51906a1.09887,1.09887,0,0,1,.60339.10325,1.03179,1.03179,0,0,1,.44061.40584,4.95811,4.95811,0,0,1,.26769,2.01V115.0231h9.8573V94.34635q.00081-2.3559,1.45606-2.35547a1.08555,1.08555,0,0,1,.59638.09878,1.01356,1.01356,0,0,1,.43685.39869,5.18721,5.18721,0,0,1,.2537,2.02159V115.0231h9.85882V93.09979a11.24942,11.24942,0,0,0-2.38014-7.71539A8.46894,8.46894,0,0,0,29.61426,83.294a8.84462,8.84462,0,0,0-3.74784-.58954,9.933,9.933,0,0,0-4.73414,1.02667,10.69638,10.69638,0,0,0-3.59318,3.43219,8.394,8.394,0,0,0-3.25051-3.2981A8.96994,8.96994,0,0,0,9.696,82.704a9.6634,9.6634,0,0,0-3.79669.63111A9.27638,9.27638,0,0,0,2.70321,85.3844,9.51634,9.51634,0,0,0,.62975,88.58193,9.16155,9.16155,0,0,0,.00771,92.29214Zm41.52053,25.317v7.508a14.38356,14.38356,0,0,0,5.02609.9243,13.39185,13.39185,0,0,0,5.39032-1.07672,12.91528,12.91528,0,0,0,7.81908-12.41426V91.99088H50.68288v12.17425q0,2.26407-1.72525,2.26429-1.79544.00135-1.79589-2.05689V91.99044H38.081v14.48592a8.67171,8.67171,0,0,0,2.18487,6.08578,7.01958,7.01958,0,0,0,2.49371,1.79812,7.35814,7.35814,0,0,0,3.06618.59266,9.443,9.443,0,0,0,4.66177-1.34043,5.3324,5.3324,0,0,1-1.91075,3.41252,5.85883,5.85883,0,0,1-3.81836,1.32479A8.85478,8.85478,0,0,1,41.52824,117.60919Zm20.544-34.12079h9.859v18.73694a4.18131,4.18131,0,0,0,.73972,2.9231,4.29564,4.29564,0,0,0,2.92578.72542h.51043v9.14924H73.48446a11.60689,11.60689,0,0,1-4.5326-.65078,10.08865,10.08865,0,0,1-6.87958-10.64565Zm30.13258,31.83594v-8.9414a4.27877,4.27877,0,0,1-2.20977.59982,3.35328,3.35328,0,0,1-1.30511-.22124,3.22788,3.22788,0,0,1-1.1-.70352,3.33656,3.33656,0,0,1-.8957-1.73062,3.24942,3.24942,0,0,1,.23822-1.91611,3.44778,3.44778,0,0,1,1.29574-1.48435,3.70552,3.70552,0,0,1,1.93578-.57434,3.22825,3.22825,0,0,1,1.39137.26057,3.07914,3.07914,0,0,1,1.12277.82509,4.31281,4.31281,0,0,1,.93459,2.911V115.0231h9.07951V103.72622a11.62858,11.62858,0,0,0-.74017-4.79184,12.08051,12.08051,0,0,0-2.64554-4.13794,12.54252,12.54252,0,0,0-4.276-2.54766,14.78077,14.78077,0,0,0-12.03525,1.29394A12.19507,12.19507,0,0,0,78.317,98.9469a11.49782,11.49782,0,0,0-.7272,6.96718,11.87353,11.87353,0,0,0,3.46884,6.17429,12.52252,12.52252,0,0,0,4.18442,2.59771,13.01585,13.01585,0,0,0,4.921.82241A12.58407,12.58407,0,0,0,92.20486,115.32434Zm34.38316-.30124H117.5085V102.0175q0-1.98785-1.72347-1.98673-1.69956,0-1.70067,1.98673v13.0056H105.0035V102.1784a10.05669,10.05669,0,0,1,.76073-4.09547,10.46482,10.46482,0,0,1,2.37156-3.49388,10.965,10.965,0,0,1,3.71914-2.34653,11.41831,11.41831,0,0,1,8.73178.27175,10.8627,10.8627,0,0,1,3.55019,2.5718,11.41546,11.41546,0,0,1,2.45112,7.786ZM153.882,83.4884h-9.08084l-.00045,18.87415q0,4.59653-3.49655,4.59652a3.63722,3.63722,0,0,1-1.3525-.23823,3.50734,3.50734,0,0,1-1.15047-.71826,3.08965,3.08965,0,0,1-.77682-1.045,2.95939,2.95939,0,0,1-.26549-1.25461,3.13178,3.13178,0,0,1,.24985-1.281,3.55026,3.55026,0,0,1,1.85577-1.81957,3.39725,3.39725,0,0,1,1.31718-.24941,3.74476,3.74476,0,0,1,2.23569.8309V91.666q-1.62715-.13744-2.42966-.13766a12.40044,12.40044,0,0,0-4.76011.91089,11.88881,11.88881,0,0,0-3.97927,2.64734,11.5842,11.5842,0,0,0-2.75639,3.855,11.09836,11.09836,0,0,0-.93683,4.57729,10.96775,10.96775,0,0,0,.9194,4.622,11.45507,11.45507,0,0,0,2.79527,3.88049,13.214,13.214,0,0,0,6.83847,3.29051,13.56039,13.56039,0,0,0,7.59651-.95873,11.87015,11.87015,0,0,0,4.26174-3.0487,12.59128,12.59128,0,0,0,2.9155-8.61646Zm11.877,0v31.5347h-9.08084V83.4884Zm19.60717,8.90475a12.53893,12.53893,0,0,0-4.7981-.88811,13.31147,13.31147,0,0,0-4.98044.83805,12.81141,12.81141,0,0,0-4.24477,2.61739,11.38671,11.38671,0,0,0-2.81585,3.87915,10.90425,10.90425,0,0,0-.9234,4.63227,11.02963,11.02963,0,0,0,.93861,4.61618,11.52064,11.52064,0,0,0,2.80064,3.87469,13.28107,13.28107,0,0,0,18.00481.01162,11.93626,11.93626,0,0,0,2.75148-3.87826,11.41081,11.41081,0,0,0,.025-9.17694,11.91594,11.91594,0,0,0-2.73047-3.89122A12.037,12.037,0,0,0,185.36615,92.39315Zm-6.39061,7.88926a3.46037,3.46037,0,0,1,1.34981-.25164,3.50334,3.50334,0,0,1,1.36323.24985,3.3589,3.3589,0,0,1,1.13974.754,3.45472,3.45472,0,0,1-.01207,4.90939,3.41592,3.41592,0,0,1-1.12857.75089,3.56838,3.56838,0,0,1-2.69694,0,3.41151,3.41151,0,0,1-1.12857-.75089,3.44681,3.44681,0,0,1-.01252-4.90939A3.317,3.317,0,0,1,178.97554,100.28241Zm29.17967-8.5226v9.24a3.73748,3.73748,0,0,0-1.72481-.50641q-2.47728,0-2.4757,3.60159V115.0231h-9.08085V102.43317a10.965,10.965,0,0,1,2.86322-7.95809,9.89525,9.89525,0,0,1,3.48179-2.28262,10.32707,10.32707,0,0,1,4.16566-.68742A19.557,19.557,0,0,1,208.15521,91.75981Zm26.65705-8.27141H225.7314v18.87415q0,4.59653-3.49655,4.59652a3.63722,3.63722,0,0,1-1.3525-.23823,3.50754,3.50754,0,0,1-1.15047-.71826,3.09687,3.09687,0,0,1-.77727-1.045,2.9656,2.9656,0,0,1-.265-1.25461,3.12442,3.12442,0,0,1,.24985-1.281,3.5473,3.5473,0,0,1,1.85532-1.81957,3.39885,3.39885,0,0,1,1.31718-.24941,3.74271,3.74271,0,0,1,2.2357.8309V91.666q-1.62648-.13744-2.42922-.13766a12.39877,12.39877,0,0,0-4.7601.91089,11.88865,11.88865,0,0,0-3.97928,2.64734,11.5855,11.5855,0,0,0-2.75684,3.855,11.10513,11.10513,0,0,0-.93638,4.57729,10.96067,10.96067,0,0,0,.9194,4.622,11.449,11.449,0,0,0,2.79528,3.88049,13.21251,13.21251,0,0,0,6.838,3.29051,13.55977,13.55977,0,0,0,7.59649-.95873,11.87176,11.87176,0,0,0,4.2622-3.0487,12.5909,12.5909,0,0,0,2.91508-8.61646Z"/></g></g></svg>