<svg xmlns="http://www.w3.org/2000/svg" viewBox="0 0 121.71861 125"><defs><style>.cls-1{fill:#fff;}.cls-2{fill:#ccc;}</style></defs><g id="Layer_2" data-name="Layer 2"><g id="images"><path class="cls-1" d="M18.76141,111.01657a4.02113,4.02113,0,0,0-.93818-.33507,4.31911,4.31911,0,0,0-1.04988-.134,3.83991,3.83991,0,0,0-1.92105.49143,3.61419,3.61419,0,0,0-1.34026,1.25091,3.12907,3.12907,0,0,0-.49147,1.69767v6.09821H10.69745V108.35837h2.32312v2.43482a5.45553,5.45553,0,0,1,1.80936-1.92106,4.24147,4.24147,0,0,1,2.39018-.75948,5.34806,5.34806,0,0,1,1.20623.134,2.52783,2.52783,0,0,1,.93819.33507Zm16.39093,7.52782H35.13a8.23345,8.23345,0,0,1-1.47429.87117,9.92335,9.92335,0,0,1-1.94339.64779,9.3929,9.3929,0,0,1-2.14442.24572,8.85459,8.85459,0,0,1-3.77518-.75949,6.33394,6.33394,0,0,1-2.52417-2.12208,5.49778,5.49778,0,0,1-.89351-3.08261,5.73232,5.73232,0,0,1,.96052-3.35066,6.16766,6.16766,0,0,1,2.54651-2.14442,7.95921,7.95921,0,0,1,3.48479-.7595,6.81827,6.81827,0,0,1,3.172.73716,5.79539,5.79539,0,0,1,2.27845,1.98806,5.23138,5.23138,0,0,1,.84884,2.97092l-.02234,1.11688H24.7205a3.49821,3.49821,0,0,0,1.67534,2.41248,6.55,6.55,0,0,0,3.50713.87117,5.93777,5.93777,0,0,0,2.5465-.46909,11.999,11.999,0,0,0,1.63066-.89351Zm-5.78548-8.332a6.51959,6.51959,0,0,0-2.99336.64779,3.11682,3.11682,0,0,0-1.60832,2.21143h8.55546v-.29039a2.22658,2.22658,0,0,0-.67013-1.34026,3.86006,3.86006,0,0,0-1.45195-.89351A5.05878,5.05878,0,0,0,29.36686,110.21241Zm25.63824-5.76315-6.72366,15.63643h-2.6582l-6.79067-15.63643h2.74754l3.97612,9.4042q.33507.82632.73715,1.76468.42475.93819.78182,1.80936.3129-.87117.69247-1.787.37992-.93819.71481-1.76468l3.68573-9.42654Zm15.37044,3.90911v11.72732H68.05241V118.1423a4.58234,4.58234,0,0,1-1.13922,1.02755,7.50707,7.50707,0,0,1-1.69767.82649,6.5313,6.5313,0,0,1-2.03274.31273,6.60687,6.60687,0,0,1-3.26131-.78183A5.72823,5.72823,0,0,1,57.71,117.36048a6.294,6.294,0,0,1-.78182-3.14962,5.95275,5.95275,0,0,1,.8265-3.14962,5.7989,5.7989,0,0,1,2.27845-2.16677,7.137,7.137,0,0,1,3.39534-.78182,6.255,6.255,0,0,1,2.74754.58079,5.47343,5.47343,0,0,1,1.87637,1.29558v-1.63065Zm-6.679,9.82861a4.95351,4.95351,0,0,0,2.32313-.51377,4.03974,4.03974,0,0,0,1.56364-1.42961,3.97882,3.97882,0,0,0,0-4.06547,3.875,3.875,0,0,0-1.56364-1.40728,5.45867,5.45867,0,0,0-4.62392,0,4.07891,4.07891,0,0,0-1.56364,1.40728,3.97882,3.97882,0,0,0,0,4.06547,4.26157,4.26157,0,0,0,1.56364,1.42961A4.98821,4.98821,0,0,0,63.69655,118.187Zm20.061-10.02965a4.80168,4.80168,0,0,1,2.56883.6478,3.32339,3.32339,0,0,1,1.49663,1.854,7,7,0,0,1,1.16157-1.11689,7.24455,7.24455,0,0,1,1.69767-.98286,5.32457,5.32457,0,0,1,2.0774-.40208,4.66769,4.66769,0,0,1,2.72522.69248,3.5339,3.5339,0,0,1,1.40728,1.80935,7.18392,7.18392,0,0,1,.42441,2.52416v6.90237H94.99346V113.429a3.82064,3.82064,0,0,0-.62545-2.27845,2.46127,2.46127,0,0,0-2.14443-.87118,4.32188,4.32188,0,0,0-2.07741.49144,3.77319,3.77319,0,0,0-1.45195,1.27325,3.24919,3.24919,0,0,0-.51377,1.787v6.25457H85.85732v-6.70133a3.40532,3.40532,0,0,0-.7148-2.23377,2.86813,2.86813,0,0,0-2.34547-.87118,3.63569,3.63569,0,0,0-1.921.51378,3.72822,3.72822,0,0,0-1.29559,1.25091,2.72778,2.72778,0,0,0-.46909,1.47429v6.5673H76.78819V108.35837h2.32313v1.89871a6.25343,6.25343,0,0,1,1.87637-1.45195A5.76226,5.76226,0,0,1,83.75758,108.15733Zm27.16545,0a6.77868,6.77868,0,0,1,3.306.78182,5.57262,5.57262,0,0,1,2.23378,2.12209,6.07945,6.07945,0,0,1,.80415,3.14962,6.15711,6.15711,0,0,1-.80415,3.14962,5.73249,5.73249,0,0,1-2.23378,2.14443,7.10479,7.10479,0,0,1-6.05354.201,6.17565,6.17565,0,0,1-1.921-1.29559V125h-2.32312V108.336h2.32312v1.80936a4.12765,4.12765,0,0,1,1.09455-.93819,6.5803,6.5803,0,0,1,1.63065-.75948A6.3868,6.3868,0,0,1,110.923,108.15733Zm-.31272,2.12208a5.03514,5.03514,0,0,0-2.32313.51378,4.04032,4.04032,0,0,0-1.586,1.40728,3.64431,3.64431,0,0,0-.55844,2.01039,3.71687,3.71687,0,0,0,.55844,2.0104,4.21663,4.21663,0,0,0,1.586,1.42962,5.03953,5.03953,0,0,0,2.32313.51376,4.90125,4.90125,0,0,0,2.30078-.51376,4.03994,4.03994,0,0,0,1.56365-1.42962,3.60888,3.60888,0,0,0,.58078-2.0104,3.53889,3.53889,0,0,0-.58078-2.01039,3.875,3.875,0,0,0-1.56365-1.40728A4.897,4.897,0,0,0,110.61031,110.27941Z"/><path class="cls-1" d="M62.735,40.20142a20.01443,20.01443,0,0,0-10.82281,3.16165A18.93332,18.93332,0,0,0,44.737,51.78268a18.12,18.12,0,0,0-1.10864,10.83966,18.56078,18.56078,0,0,0,5.33151,9.60592,19.72215,19.72215,0,0,0,9.97467,5.13425A20.17406,20.17406,0,0,0,70.19,76.2951a19.33975,19.33975,0,0,0,8.74266-6.90993,18.21794,18.21794,0,0,0-2.43-23.68179A19.89213,19.89213,0,0,0,62.735,40.20142Z"/><path class="cls-2" d="M62.735,40.20142a20.01443,20.01443,0,0,0-10.82281,3.16165A18.93332,18.93332,0,0,0,44.737,51.78268a18.12,18.12,0,0,0-1.10864,10.83966,18.56078,18.56078,0,0,0,5.33151,9.60592,19.72215,19.72215,0,0,0,9.97467,5.13425A20.17406,20.17406,0,0,0,70.19,76.2951a19.33975,19.33975,0,0,0,8.74266-6.90993,18.21794,18.21794,0,0,0-2.43-23.68179A19.89213,19.89213,0,0,0,62.735,40.20142ZM45.74834,51.77547a.59833.59833,0,0,1,.03058.21581c0,.40208.13231.598.65158.65192s.69247-.62271,1.01826-.65192c.32579-.02955.72271,0,.54951.26462-.17287.26462-.79385,1.054-.41721,1.15194.37665.09829,1.01792-.31857,1.2114.18145s-.10172.93166.10172,1.05881c.20379.1275.37665.52477.53955.58353s.36152-.27939.47871-.16667c.11684.11272.34606.23025.4172.20585a2.0445,2.0445,0,0,0,.33094-.255s.80931-.70107,1.232-.554a4.56809,4.56809,0,0,0,1.52687.265,1.68445,1.68445,0,0,1,1.3846.66154c.499.44607,0,.40689,1.01825.51961,1.01791.11307.46325,1.37291,1.52722,1.47085a7.24353,7.24353,0,0,1,2.15817.55879c.61583.22063,1.65436.554,1.52721,1.1815-.1275.62752-1.01825,1.299-1.01825,1.74509s.112,1.81383-.35122,2.07364-1.57292.59315-1.69011,1.03921c-.11684.44642-.19314,1.65712-.80931,2.108a7.4977,7.4977,0,0,0-1.28254,1.265c-.17836.22063-.79419.18627-1.10486.62752-.31032.44092-.96189,1.78428-.76841,1.96091.19347.1763.80931.18627.38661.59316-.42236.40689-.26977,1.03922-.19314,1.47051.07629.43129,1.26741.33335,1.01792.74024s-2.11762,1.37257-2.54513-1.51966a18.32532,18.32532,0,0,1-.35122-4.96585c.112-1.29937.387-4.03969.08145-4.26033-.30551-.22028-1.69527.22064-2.62177-2.7795-.92615-3.00013.11719-2.33825.31067-2.55888a2.56292,2.56292,0,0,0,.26977-.98045,1.34217,1.34217,0,0,1-.7777.03333,1.30307,1.30307,0,0,1-.65776-.401,5.02121,5.02121,0,0,0-1.73066-1.42172c-.57528-.17148-.37665-.63714-.98252-.52442a2.99339,2.99339,0,0,1-1.01791-.07835A8.57035,8.57035,0,0,1,45.74834,51.77547ZM66.11006,41.39253a1.52252,1.52252,0,0,1,.15774.14709,1.58537,1.58537,0,0,0,.09141.4904c.10207.26462.39212.65192.63646,1.1272.24434.47562-.41755.72065-1.01826.7746-.60037.054,0-.76464.10206-.93131.10172-.16668-.06117-.554-.10206-.6911-.04056-.13746-.43267-.33335-.509-.58353a.55263.55263,0,0,1,.0409-.23644.56523.56523,0,0,1,.13746-.19966ZM80.26635,53.10886l-.35122.24021c-1.34919.98046-1.90386.77942-1.90386.77942,0-1.16672-1.83273-3.33829-2.60114-3.72559-.76877-.3873,1.40487,2.81868,2.15817,3.77955s1.3083.5196,2.03617.35293-.509,1.55918-1.32858,2.353c-.81963.7942-1.81211.79935-1.30831,2.65236.50415,1.853-.34606,2.054-1.01791,2.451-.67185.39727-.34606,1.40694-.86533,1.62756s.44263,1.098-1.44061,2.01969c-1.88359.92168-2.29083.27939-2.44857-.44127-.15773-.7203-1.01791-.83336-.90107-1.799.11719-.96568-.65638-1.92654-.31032-2.37261s0-2.11282-.61618-2.77951c-.61583-.66669,0-1.33339-.07629-1.66674s-.57494,0-.84506-.3629c-.26976-.36256,1.3846-1.044-1.34885-.3038s-2.73346,0-3.6957-.85295c-.9619-.853-.57493-.98046-.65157-2.59325-.07629-1.61313,1.3083-1.89252,1.88359-2.7551.57528-.86292,1.19627-1.28459,3.42592-1.61794s1.42515.554,1.42515.88251,2.15336.85777,2.15336.71069-.26977-.77942.234-.70587c.26977.07354,2.88638.49039,2.88638.49039.855-.11787.76842-1.14713.68216-1.30418-.0866-.1567-.32579-.20585-1.07943,0a1.01911,1.01911,0,0,1-1.23167-.98045c-.04089-.49006,1.28288-.59316,1.65437-.6667A1.84349,1.84349,0,0,1,75.8019,46.79a.47154.47154,0,0,0,.22681.02544.46566.46566,0,0,0,.211-.0842A17.81428,17.81428,0,0,1,80.26635,53.10886ZM64.60312,43.19674a4.24253,4.24253,0,0,1,.621-.81894c.59041-.1519.31582.6423.14262.81894C65.19352,43.373,64.60312,43.34863,64.60312,43.19674ZM74.728,45.6477c-.21892,0-.37666-.26976-.509-.49005-.13231-.22063-.40243.299-.48387.45569a1.665,1.665,0,0,0-.13231.77941c.03059.27459-.17286.36772-.32579.46085-.15258.09313-.17286-.03436-.31032-.10791s-.46325.04433-.60587.33335c-.14262.28936.05086.94128,0,.95124a1.02314,1.02314,0,0,1-.57528-.36771,3.47509,3.47509,0,0,1-.509-1.16672,1.98347,1.98347,0,0,0-1.01791-.86292c-.39212-.13231-.04606.42647,0,.52957.0457.10276.58525.46085.61583.71069.03058.25018-.509,1.13235-.37665.81378s-.26977-.46085-.3818-.70106-.55982-.49006-.94162-.90692c-.38181-.41651-.53989,0-.7942-.1323-.25465-.13231-.45809.14708-.69247.09313-.234-.054-.15258.2598-.17286.554s-.13231.1519-.509.4904c-.377.33816-.30552.61275-.5093.74024a2.76182,2.76182,0,0,1-1.27257.26462c-.63095,0-.59556-.2794-.57529-.59315a3.10552,3.10552,0,0,1,.31067-1.13236c.18833-.3873,1.21139-.20585,1.42034-.2598.2086-.054.08145-.37252.08145-.7502,0-.37734-.5093-.57357-.68732-.70588s.20345-.14709.6667-.25981a1.28778,1.28778,0,0,0,.49659-.19107,1.23471,1.23471,0,0,0,.36874-.37287,3.89586,3.89586,0,0,1,.93166-.87254c.2598-.1763.50895-.24022.69247-.36772.18317-.12715.55466.22063.55466.22063l.84505-.13231a18.92735,18.92735,0,0,1,4.61189,2.863C74.88055,45.579,74.83485,45.6477,74.728,45.6477ZM56.52476,42.13758a1.252,1.252,0,0,1,.32579.4904c.11718.41171-.29005,1.04919.0866,1.24508.37665.19622.7533.83336.46325.83336-.29039,0-1.4712-.13712-1.35917-.27939a2.47693,2.47693,0,0,0,.45294-.76979c0-.18111-.03574-.10757-.443,0-.40724.10791-1.364-.13231-1.57774,0-.21409.13265-.03574.2354.12716.43645s-.03059.26976.04571.44606a.595.595,0,0,0,.155.22578.62371.62371,0,0,0,.24228.13712c.17286.03437.24916-.22543.41205-.09313s-.68182.60278-.91619.77942c-.234.1763-.509.21581-.43267,0s-.05086-.31857-.14261-.25019c-.09142.06874-.77874.20105-.92135.6179-.14228.41652-.69728.49006-.9265.83337a6.41081,6.41081,0,0,1-.98218,1.61279c-.47356.3873-1.4712.49006-1.41518,1.08321.056.5935-.14262,1.61313-.17321,1.3925s.09176-.83337-.50895-.98045a2.10854,2.10854,0,0,0-1.354-.05877,4.60982,4.60982,0,0,1-.86533.02921,18.4885,18.4885,0,0,1,9.7073-7.74536Z"/><path class="cls-1" d="M17.49105,33.6501l1.93383.54775L17.77315,38.799l-1.93383-.54779Z"/><path class="cls-1" d="M30.05864,37.20816,37.794,39.39485l-1.64715,4.60536L28.407,41.80939Z"/><path class="cls-1" d="M21.35864,34.74585l6.76624,1.91486-1.65182,4.60123-6.76614-1.9152Z"/><path class="cls-1" d="M27.99738,67.36962h.0409L35.751,45.89789,14.82,40.01722l-9.77383,12.138L0,87.96538,19.94809,91.103a3.73136,3.73136,0,0,1,.19111-1.80558Z"/><path class="cls-1" d="M51.95411,82.339l-24.885-8.32579L21.46782,89.30633a1.55036,1.55036,0,0,0,.01656,1.27394,1.60786,1.60786,0,0,0,.39521.52717,1.67452,1.67452,0,0,0,.5802.333,2.78675,2.78675,0,0,0,1.4424.12269L49.52,92.64119Z"/><path class="cls-1" d="M117.01093,72.43617l-12.827-36.349L85.55971,41.784l13.8965,33.79427s-16.8358,5.48615-20.71707,6.69549c-.17286.04845-.30964.09656-.40964.13162-2.37983.87633-6.41575,6.62984-.93269,8.764a21.33964,21.33964,0,0,0,6.757.77118c8.52717,0,25.85887-4.17579,25.87227-4.18472,3.60394-.78011,8.86844-.14022,10.88433-3.98746C124.05454,77.78211,117.01093,72.43617,117.01093,72.43617ZM96.28012,60.60472,89.93723,44.15l.9509-.289L97.231,60.32429Zm2.73-.82821L92.66725,43.30877l.94643-.28489,6.35217,16.46327Zm3.017-.91585-6.334-16.46327.94643-.28489,6.34289,16.46326Zm3.01663-.91585L98.70085,41.48154l.94643-.28936,6.34289,16.46774Zm3.017-.91585-6.334-16.47667.94643-.289L109.01607,56.731Z"/><path class="cls-1" d="M91.39193,3.0017,86.86905,8.32589C86.31851,7.09453,81.40867.21472,80.49866.057L43.10973,0a45.27958,45.27958,0,0,0,4.805,2.01136,42.58222,42.58222,0,0,1,6.49789,3.453C59.54516,8.62384,64.87805,16.31,68.18128,21.1302c-1.08286.36809-5.005,1.31459-5.005,1.31459l1.597,8.44859,5.61949.13585s6.22021-.38562,9.17773-1.68272a10.73953,10.73953,0,0,0,1.31518-.68361c-1.73823-1.50742-1.2925-5.92012-.11823-7.42314,2.73-3.47937,7.32576-1.84923,10.952-.46453a4.8301,4.8301,0,0,0,1.21963-.55651c2.03858-1.26642,3.53555-3.94382,4.3136-5.91576C98.21732,11.8578,99.78714,8.041,99.78714,8.041Z"/><path class="cls-1" d="M55.06765,7.88759C51.95549,5.32847,41.41722.90263,41.41722.90263,38.05006,3.38286,24.71789,18.43077,24.71789,18.43077s9.4509,7.19969,12.41736,9.57038c2.27535,1.81417,9.71039,5.95958,9.71039,5.95958s.88732-2.30058.98733-2.62922c.67322-2.191,10.21523-15.31085,12.66309-18.24242A69.34826,69.34826,0,0,0,55.06765,7.88759Z"/></g></g></svg>