<svg width="73" height="49" viewBox="0 0 73 49" fill="none" xmlns="http://www.w3.org/2000/svg">
<path d="M18.7927 29.508C18.8707 29.2704 18.8704 29.2703 18.8702 29.2703L18.8696 29.2701L18.8685 29.2697L18.866 29.2689L18.8598 29.2671C18.8552 29.2657 18.8495 29.2642 18.8429 29.2625C18.8295 29.259 18.8121 29.2551 18.7905 29.2511C18.7474 29.2431 18.6878 29.2351 18.6115 29.2315C18.4586 29.2244 18.2396 29.235 17.9507 29.2975C17.3895 29.419 16.5665 29.7359 15.4501 30.4972C13.5107 29.9749 11.4723 29.9749 9.53283 30.4972C8.41543 29.7358 7.59148 29.4189 7.02954 29.2975C6.7403 29.235 6.52103 29.2244 6.36794 29.2315C6.29148 29.2351 6.23188 29.2431 6.18869 29.251C6.16711 29.255 6.14967 29.259 6.13631 29.2624C6.12964 29.2641 6.12399 29.2657 6.11935 29.267L6.11317 29.2689L6.11065 29.2697L6.10953 29.2701L6.10901 29.2702C6.10876 29.2703 6.10851 29.2704 6.18634 29.508L6.10851 29.2704L5.99551 29.3074L5.95293 29.4184C5.34529 31.0025 5.61942 32.2229 5.78371 32.7143C4.99491 33.6436 4.56684 34.8388 4.58311 36.072C4.58344 38.481 5.30195 40.0005 6.40407 40.9513C7.37079 41.7852 8.60211 42.1542 9.80816 42.3365C9.58217 42.6611 9.40208 43.0901 9.31208 43.6229C8.97994 43.7619 8.48261 43.9096 7.9601 43.8622C7.38811 43.8103 6.75947 43.5232 6.26564 42.6557L6.26424 42.6532L6.25712 42.6405C6.25111 42.6299 6.24255 42.6152 6.23145 42.5969C6.20928 42.5603 6.17689 42.5093 6.13437 42.4484C6.04955 42.3268 5.92312 42.1641 5.75548 41.998C5.42216 41.6678 4.90931 41.3085 4.22528 41.2588L4.21776 41.2583L4.21021 41.2582L4.20717 41.5081C4.21021 41.2582 4.21013 41.2582 4.21004 41.2582L4.20985 41.2582L4.20937 41.2582L4.20809 41.2581L4.20427 41.2581L4.19183 41.2582C4.18153 41.2583 4.16723 41.2586 4.14982 41.2592C4.11523 41.2605 4.06717 41.2633 4.01299 41.2694C3.91461 41.2806 3.75772 41.3067 3.6317 41.3806C3.56566 41.4193 3.4865 41.4836 3.44273 41.5869C3.39607 41.6971 3.4063 41.8115 3.44772 41.9125C3.52094 42.0909 3.70736 42.2683 3.98236 42.4607L3.9994 42.4726L4.01615 42.4806L4.01655 42.4808L4.0166 42.4808L4.01724 42.4811L4.0185 42.4818C4.02148 42.4834 4.02725 42.4865 4.03557 42.4913C4.0522 42.5009 4.07901 42.5173 4.11406 42.5417C4.18412 42.5906 4.28731 42.6719 4.40807 42.796C4.64844 43.0429 4.96199 43.4628 5.22181 44.1416L5.22305 44.1453C5.22516 44.1513 5.22806 44.1594 5.23181 44.1694C5.23931 44.1894 5.25024 44.2168 5.26511 44.2506C5.29481 44.318 5.34039 44.4109 5.40592 44.5185C5.53689 44.7336 5.74887 45.01 6.07476 45.2604C6.69642 45.738 7.69676 46.0942 9.25228 45.8146C9.25481 46.2896 9.25867 46.7308 9.26176 47.0856C9.26458 47.4086 9.26678 47.66 9.26678 47.7996C9.26678 47.9097 9.22794 48.0128 9.15975 48.0762C9.10142 48.1304 8.98703 48.1878 8.75962 48.1479C6.12243 47.2403 3.88326 45.4019 2.44222 42.9582C0.997929 40.509 0.450089 37.6122 0.897441 34.786C1.34478 31.9599 2.75783 29.3903 4.88232 27.5361C7.00663 25.6821 9.70383 24.664 12.4915 24.6625C12.4916 24.6625 12.4916 24.6625 12.4916 24.6625L12.4954 24.6625L18.7927 29.508ZM18.7927 29.508L18.8707 29.2704L18.9833 29.3074L19.026 29.418C19.6362 31.0003 19.3609 32.2211 19.1971 32.7137C19.9886 33.6435 20.4177 34.8409 20.3999 36.0763C20.3995 38.4903 19.6795 40.0089 18.575 40.9568C17.6068 41.7876 16.3739 42.1521 15.1669 42.3313M18.7927 29.508L15.1669 42.3313M15.1669 42.3313C15.4987 42.8057 15.7341 43.5032 15.7341 44.4236C15.7341 45.2474 15.7307 45.9906 15.7272 46.5784C15.726 46.777 15.7248 46.9577 15.7238 47.1176C15.7217 47.4317 15.7202 47.6659 15.7202 47.7996C15.7202 47.915 15.759 48.0185 15.8253 48.0805C15.8814 48.133 15.9952 48.1912 16.2306 48.1482C18.8684 47.2405 21.1081 45.4017 22.5492 42.9574C23.9935 40.5078 24.5411 37.6105 24.0932 34.784C23.6454 31.9576 22.2316 29.388 20.1064 27.5342C17.9814 25.6804 15.2835 24.663 12.4955 24.6625L15.1669 42.3313Z" stroke="#2CCCC3" stroke-width="0.5"/>
<path d="M5.03551 42.0786C5.00968 42.1397 4.91429 42.1581 4.8368 42.1153C4.7593 42.0725 4.70168 41.9931 4.7295 41.9299C4.75732 41.8667 4.85071 41.8504 4.92821 41.8932C5.00571 41.936 5.06532 42.0175 5.03551 42.0786Z" fill="#2CCCC3"/>
<path d="M5.52238 42.6348C5.48122 42.6561 5.43414 42.662 5.38919 42.6516C5.34424 42.6412 5.30422 42.6151 5.27597 42.5778C5.19847 42.4922 5.18257 42.374 5.24218 42.3211C5.3018 42.2681 5.40911 42.2925 5.48661 42.3781C5.56411 42.4637 5.58199 42.5819 5.52238 42.6348Z" fill="#2CCCC3"/>
<path d="M5.99534 43.3418C5.92182 43.3948 5.79662 43.3418 5.72707 43.2358C5.70784 43.2168 5.69255 43.194 5.6821 43.1688C5.67165 43.1436 5.66626 43.1165 5.66626 43.0892C5.66626 43.0618 5.67165 43.0347 5.6821 43.0095C5.69255 42.9842 5.70784 42.9615 5.72707 42.9425C5.8006 42.8915 5.92579 42.9425 5.99534 43.0464C6.06489 43.1503 6.06688 43.2888 5.99534 43.3418V43.3418Z" fill="#2CCCC3"/>
<path d="M6.63716 44.0263C6.57159 44.1017 6.43845 44.0814 6.32916 43.9795C6.21987 43.8776 6.19403 43.7391 6.25961 43.6657C6.32518 43.5924 6.45832 43.6128 6.57159 43.7126C6.68485 43.8124 6.70671 43.953 6.63716 44.0263V44.0263Z" fill="#2CCCC3"/>
<path d="M7.53731 44.4257C7.5075 44.5214 7.37237 44.5642 7.23725 44.5235C7.10212 44.4827 7.0127 44.3686 7.03853 44.2708C7.06437 44.173 7.20148 44.1282 7.33859 44.173C7.4757 44.2179 7.56314 44.3258 7.53731 44.4257Z" fill="#2CCCC3"/>
<path d="M8.51899 44.4949C8.51899 44.5948 8.40771 44.6803 8.26464 44.6824C8.12157 44.6844 8.00433 44.6029 8.00433 44.5031C8.00433 44.4033 8.1156 44.3177 8.25867 44.3157C8.40175 44.3136 8.51899 44.3931 8.51899 44.4949Z" fill="#2CCCC3"/>
<path d="M9.43307 44.3381C9.45096 44.4379 9.3516 44.5418 9.20853 44.5663C9.06545 44.5907 8.94026 44.5316 8.92238 44.4338C8.90449 44.336 9.00783 44.2301 9.14693 44.2036C9.28602 44.1771 9.41519 44.2382 9.43307 44.3381Z" fill="#2CCCC3"/>
<path d="M44.6149 29.7853L44.4158 29.5427L44.2239 29.7911C44.0182 30.0572 42.333 32.2338 38.6138 33.7471L38.3664 33.8478L38.4833 34.088C38.7161 34.5666 38.9483 35.07 39.1545 35.5594L39.1551 35.5608C39.1817 35.6229 39.2103 35.6945 39.24 35.7687C39.2852 35.8814 39.3327 36.0001 39.3791 36.1007L39.4558 36.2669L39.6374 36.244C42.9128 35.8314 46.1716 36.4657 46.6572 36.5602C46.6707 36.5629 46.6821 36.5651 46.6913 36.5668L46.9918 36.6246L46.9884 36.3186C46.9618 33.8523 46.0817 31.5721 44.6149 29.7853ZM43.4942 28.9029L43.6222 28.7202L43.4551 28.5723C41.6022 26.9327 39.1621 25.9325 36.4955 25.9325C35.6443 25.9325 34.8179 26.0256 34.03 26.2126L33.6631 26.2997L33.8861 26.6037C33.8902 26.6093 33.8946 26.6153 33.8994 26.6218C34.2244 27.0648 36.048 29.5503 37.6945 32.5754L37.7984 32.7662L38.0019 32.6899C41.7042 31.3016 43.2904 29.194 43.4942 28.9029ZM32.3354 26.9957L32.213 26.8324L32.0286 26.9196C29.0962 28.3058 26.8963 31.0116 26.2161 34.2659L26.1531 34.567H26.4608C26.4687 34.567 26.4778 34.567 26.4879 34.5671C27.0687 34.5675 31.2613 34.5711 36.0002 33.3091L36.3124 33.226L36.1535 32.9446C34.442 29.9136 32.6135 27.3665 32.3354 26.9957ZM26.2468 35.8632L25.9895 35.8557V36.1131V36.1137V36.1144V36.115V36.1156V36.1162V36.1168V36.1174V36.118V36.1186V36.1192V36.1198V36.1205V36.1211V36.1217V36.1223V36.1229V36.1235V36.1241V36.1247V36.1253V36.1259V36.1266V36.1272V36.1278V36.1284V36.129V36.1296V36.1302V36.1308V36.1314V36.132V36.1327V36.1333V36.1339V36.1345V36.1351V36.1357V36.1363V36.1369V36.1375V36.1381V36.1388V36.1394V36.14V36.1406V36.1412V36.1418V36.1424V36.143V36.1436V36.1442V36.1449V36.1455V36.1461V36.1467V36.1473V36.1479V36.1485V36.1491V36.1497V36.1503V36.151V36.1516V36.1522V36.1528V36.1534V36.154V36.1546V36.1552V36.1558V36.1564V36.1571V36.1577V36.1583V36.1589V36.1595V36.1601V36.1607V36.1613V36.1619V36.1625V36.1632V36.1638V36.1644V36.165V36.1656V36.1662V36.1668V36.1674V36.168V36.1686V36.1693V36.1699V36.1705V36.1711V36.1717V36.1723V36.1729V36.1735V36.1741V36.1747V36.1754V36.176V36.1766V36.1772V36.1778V36.1784V36.179V36.1796V36.1802V36.1808V36.1815V36.1821V36.1827V36.1833V36.1839V36.1845V36.1851V36.1857V36.1863V36.1869V36.1876V36.1882V36.1888V36.1894V36.19V36.1906V36.1912V36.1918V36.1924V36.193V36.1937V36.1943V36.1949V36.1955V36.1961V36.1967V36.1973V36.1979V36.1985V36.1991V36.1998V36.2004V36.201V36.2016V36.2022V36.2028V36.2034V36.204V36.2046V36.2052V36.2059V36.2065V36.2071V36.2077V36.2083V36.2089V36.2095V36.2101V36.2107V36.2113V36.212V36.2126V36.2132V36.2138V36.2144V36.215V36.2156V36.2162V36.2168V36.2174V36.2181V36.2187V36.2193V36.2199V36.2205V36.2211V36.2217V36.2223V36.2229V36.2235V36.2242V36.2248V36.2254V36.226V36.2266V36.2272V36.2278V36.2284V36.229V36.2296V36.2303V36.2309V36.2315V36.2321V36.2327V36.2333V36.2339V36.2345V36.2351V36.2357V36.2364V36.237V36.2376V36.2382V36.2388V36.2394V36.24V36.2406V36.2412V36.2418V36.2425V36.2431V36.2437V36.2443V36.2449V36.2455V36.2461V36.2467V36.2473V36.2479V36.2486V36.2492V36.2498V36.2504V36.251V36.2516V36.2522V36.2528V36.2534V36.254V36.2547V36.2553V36.2559V36.2565V36.2571V36.2577V36.2583V36.2589V36.2595V36.2601V36.2608V36.2614V36.262V36.2626V36.2632V36.2638V36.2644V36.265V36.2656V36.2662V36.2669V36.2675V36.2681V36.2687V36.2693V36.2699V36.2705V36.2711V36.2717V36.2723V36.273V36.2736V36.2742V36.2748V36.2754V36.276V36.2766V36.2772V36.2778V36.2784V36.2791V36.2797V36.2803V36.2809V36.2815V36.2821V36.2827V36.2833V36.2839V36.2845V36.2852V36.2858V36.2864V36.287V36.2876V36.2882V36.2888V36.2894V36.29V36.2906V36.2913V36.2919V36.2925V36.2931V36.2937V36.2943V36.2949V36.2955V36.2961V36.2967V36.2974V36.298V36.2986V36.2992V36.2998V36.3004V36.301V36.3016V36.3022V36.3029V36.3035V36.3041V36.3047V36.3053V36.3059V36.3065V36.3071V36.3077V36.3083V36.309V36.3096V36.3102V36.3108V36.3114V36.312V36.3126V36.3132V36.3138V36.3144V36.3151V36.3157V36.3163V36.3169V36.3175V36.3181V36.3187V36.3193V36.3199V36.3205V36.3212V36.3218V36.3224V36.323V36.3236V36.3242V36.3248V36.3254V36.326V36.3266V36.3273V36.3279V36.3285V36.3291V36.3297V36.3303V36.3309V36.3315V36.3321V36.3327V36.3334V36.334V36.3346V36.3352V36.3358V36.3364V36.337V36.3376V36.3382V36.3389V36.3395V36.3401V36.3407V36.3413V36.3419V36.3425V36.3431V36.3437V36.3443V36.345V36.3456V36.3462V36.3468V36.3474V36.348V36.3486V36.3492V36.3498V36.3504V36.3511V36.3517V36.3523V36.3529V36.3535V36.3541V36.3547V36.3553V36.3559V36.3565V36.3572V36.3578V36.3584V36.359V36.3596V36.3602V36.3608V36.3614V36.362V36.3626V36.3633V36.3639V36.3645V36.3651V36.3657V36.3663V36.3669V36.3675V36.3681V36.3688V36.3694V36.37V36.3706V36.3712V36.3718V36.3724V36.373V36.3736V36.3742V36.3749V36.3755V36.3761V36.3767V36.3773V36.3779V36.3785V36.3791V36.3797V36.3803V36.381V36.3816V36.3822V36.3828V36.3834V36.384V36.3846V36.3852V36.3858V36.3864V36.3871V36.3877V36.3883V36.3889V36.3895V36.3901V36.3907V36.3913V36.3919V36.3926V36.3932V36.3938V36.3944V36.395V36.3956V36.3962V36.3968V36.3974V36.398V36.3987V36.3993V36.3999V36.4005V36.4011V36.4017V36.4023V36.4029V36.4035V36.4041V36.4048V36.4054V36.406V36.4066V36.4072V36.4078V36.4084V36.409V36.4096V36.4103V36.4109V36.4115V36.4121V36.4127V36.4133V36.4139V36.4145V36.4151V36.4157V36.4164V36.417V36.4176V36.4182V36.4188V36.4194V36.42V36.4206V36.4212V36.4218V36.4225V36.4231V36.4237V36.4243V36.4249V36.4255C25.9895 39.119 27.0164 41.5857 28.6827 43.4386L28.9089 43.6901L29.083 43.4001C29.313 43.0166 32.0831 38.4309 37.2726 36.7553C37.3349 36.7366 37.4005 36.7179 37.4681 36.6986L37.4687 36.6984C37.5368 36.6789 37.6067 36.659 37.6737 36.6389L37.9456 36.5573L37.8303 36.2979C37.5688 35.7096 37.2931 35.1187 36.9903 34.5396L36.8947 34.3566L36.6969 34.416C31.6193 35.9405 26.6784 35.8759 26.2468 35.8632ZM29.984 44.3992L29.8964 44.5807L30.0551 44.7048C31.8287 46.0917 34.0691 46.9184 36.4955 46.9184C37.9481 46.9184 39.3354 46.6251 40.6032 46.078L40.7842 45.9998L40.7505 45.8056C40.5929 44.8993 40.0037 41.7449 38.5508 37.9883L38.4518 37.7322L38.209 37.8533C38.2082 37.8535 38.2073 37.8538 38.2061 37.8542L38.2051 37.8545C38.1957 37.8577 38.1789 37.8633 38.1579 37.8727C32.3038 39.921 30.1828 43.9874 29.984 44.3992ZM41.9625 44.9525L42.0264 45.3355L42.3486 45.1189C44.7079 43.5327 46.3887 41.0127 46.8423 38.0908L46.8747 37.882L46.6743 37.8152C46.3049 37.6921 43.4498 36.8464 40.1788 37.3629L39.8791 37.4102L39.9829 37.6953C41.3166 41.3598 41.86 44.3374 41.9625 44.9525ZM24.7455 36.4125C24.7455 29.9258 30.0088 24.6625 36.4955 24.6625C42.9693 24.6625 48.2455 29.926 48.2455 36.4125C48.2455 42.899 42.9693 48.1625 36.4955 48.1625C30.0088 48.1625 24.7455 42.8991 24.7455 36.4125Z" stroke="#2CCCC3" stroke-width="0.5"/>
<path d="M55.6158 45.114H55.8658V44.864V33.4078V33.1578H55.6158H52.0533H51.8033V33.4078V44.864V45.114H52.0533H55.6158ZM68.947 45.114H69.197V44.864V38.5781C69.197 37.0304 69.0328 35.6031 68.3751 34.56C67.7007 33.4905 66.5407 32.8718 64.6767 32.8718C63.2372 32.8718 62.1586 33.4971 61.5142 34.2409V33.4078V33.1578H61.2642H57.8517H57.6017V33.4078V44.864V45.114H57.8517H61.4049H61.6549V44.864V39.2015C61.6549 38.4583 61.7271 37.7786 61.996 37.2893C62.1272 37.0506 62.3042 36.8595 62.5446 36.726C62.7865 36.5918 63.1073 36.5078 63.5377 36.5078C63.9548 36.5078 64.2461 36.6048 64.455 36.7508C64.6645 36.8971 64.8125 37.1075 64.9165 37.3709C65.1302 37.912 65.1392 38.6208 65.1392 39.2953V44.864V45.114H65.3892H68.947ZM50.2674 24.6625H70.7189C71.5671 24.6625 72.2455 25.3305 72.2455 26.1421V46.6828C72.2455 47.4902 71.5667 48.1625 70.7189 48.1625H50.2674C49.4209 48.1625 48.7455 47.4915 48.7455 46.6781V26.1421C48.7455 25.3296 49.42 24.6625 50.2674 24.6625ZM51.5174 29.7843C51.5174 31.0618 52.5531 32.0968 53.8345 32.0968C55.112 32.0968 56.147 31.0564 56.147 29.7843C56.147 28.5072 55.1117 27.4718 53.8345 27.4718C52.5531 27.4718 51.5174 28.5068 51.5174 29.7843Z" stroke="#2CCCC3" stroke-width="0.5"/>
<path d="M18.7927 5.50739C18.8707 5.26986 18.8704 5.26978 18.8702 5.2697L18.8696 5.26953L18.8685 5.26917L18.866 5.26838L18.8598 5.26652C18.8552 5.26516 18.8495 5.2636 18.8429 5.26189C18.8295 5.25847 18.8121 5.25449 18.7905 5.2505C18.7474 5.24251 18.6878 5.23453 18.6115 5.23096C18.4586 5.22381 18.2396 5.2344 17.9507 5.29692C17.3895 5.41839 16.5665 5.73532 15.4501 6.49665C13.5107 5.97433 11.4723 5.97434 9.53283 6.49667C8.41543 5.73528 7.59148 5.41836 7.02954 5.29691C6.7403 5.2344 6.52103 5.22381 6.36794 5.23096C6.29148 5.23453 6.23188 5.2425 6.18869 5.25048C6.16711 5.25447 6.14967 5.25845 6.13631 5.26186C6.12964 5.26357 6.12399 5.26513 6.11935 5.26648L6.11317 5.26834L6.11065 5.26913L6.10953 5.26949L6.10901 5.26966C6.10876 5.26974 6.10851 5.26982 6.18634 5.50739L6.10851 5.26982L5.99551 5.30684L5.95293 5.41786C5.34529 7.00196 5.61942 8.22229 5.78371 8.71374C4.99491 9.64308 4.56684 10.8382 4.58311 12.0715C4.58344 14.4805 5.30195 15.9999 6.40407 16.9507C7.37079 17.7847 8.60211 18.1536 9.80816 18.3359C9.58217 18.6605 9.40208 19.0895 9.31208 19.6223C8.97994 19.7614 8.48261 19.909 7.9601 19.8616C7.38811 19.8097 6.75947 19.5227 6.26564 18.6552L6.26424 18.6526L6.25712 18.6399C6.25111 18.6294 6.24255 18.6146 6.23145 18.5963C6.20928 18.5598 6.17689 18.5087 6.13437 18.4478C6.04955 18.3263 5.92312 18.1636 5.75548 17.9975C5.42216 17.6673 4.90931 17.3079 4.22528 17.2582L4.21776 17.2577L4.21021 17.2576L4.20717 17.5076C4.21021 17.2576 4.21013 17.2576 4.21004 17.2576L4.20985 17.2576L4.20937 17.2576L4.20809 17.2576L4.20427 17.2576L4.19183 17.2576C4.18153 17.2577 4.16723 17.258 4.14982 17.2586C4.11523 17.2599 4.06717 17.2627 4.01299 17.2689C3.91461 17.2801 3.75772 17.3062 3.6317 17.38C3.56566 17.4187 3.4865 17.483 3.44273 17.5863C3.39607 17.6965 3.4063 17.8109 3.44772 17.9119C3.52094 18.0904 3.70736 18.2677 3.98236 18.4601L3.9994 18.4721L4.01615 18.48L4.01655 18.4802L4.0166 18.4802L4.01724 18.4806L4.0185 18.4812C4.02148 18.4828 4.02725 18.4859 4.03557 18.4907C4.0522 18.5003 4.07901 18.5167 4.11406 18.5412C4.18412 18.5901 4.28731 18.6714 4.40807 18.7954C4.64844 19.0423 4.96199 19.4622 5.22181 20.1411L5.22305 20.1447C5.22516 20.1508 5.22806 20.1589 5.23181 20.1688C5.23931 20.1888 5.25024 20.2163 5.26511 20.25C5.29481 20.3175 5.34039 20.4103 5.40592 20.5179C5.53689 20.733 5.74887 21.0094 6.07476 21.2598C6.69642 21.7374 7.69676 22.0936 9.25228 21.8141C9.25481 22.289 9.25867 22.7302 9.26176 23.085C9.26458 23.4081 9.26678 23.6594 9.26678 23.799C9.26678 23.9091 9.22794 24.0122 9.15975 24.0756C9.10142 24.1299 8.98703 24.1872 8.75962 24.1474C6.12243 23.2397 3.88326 21.4014 2.44222 18.9577C0.997929 16.5085 0.450089 13.6116 0.897441 10.7855C1.34478 7.95931 2.75783 5.38971 4.88232 3.53552C7.00663 1.68149 9.70383 0.66342 12.4915 0.661896C12.4916 0.661896 12.4916 0.661896 12.4916 0.661896L12.4954 0.661896L18.7927 5.50739ZM18.7927 5.50739L18.8707 5.26986L18.9833 5.30683L19.026 5.41743C19.6362 6.99973 19.3609 8.22055 19.1971 8.71318C19.9886 9.64294 20.4177 10.8404 20.3999 12.0757C20.3995 14.4897 19.6795 16.0084 18.575 16.9562C17.6068 17.787 16.3739 18.1515 15.1669 18.3307M18.7927 5.50739L15.1669 18.3307M15.1669 18.3307C15.4987 18.8051 15.7341 19.5027 15.7341 20.4231C15.7341 21.2469 15.7307 21.99 15.7272 22.5778C15.726 22.7765 15.7248 22.9571 15.7238 23.117C15.7217 23.4311 15.7202 23.6653 15.7202 23.799C15.7202 23.9144 15.759 24.0179 15.8253 24.0799C15.8814 24.1324 15.9952 24.1907 16.2306 24.1476C18.8684 23.24 21.1081 21.4012 22.5492 18.9568C23.9935 16.5072 24.5411 13.6099 24.0932 10.7835C23.6454 7.95708 22.2316 5.38746 20.1064 3.53359C17.9814 1.67985 15.2835 0.662454 12.4955 0.661896L15.1669 18.3307Z" stroke="#E60576" stroke-width="0.5"/>
<path d="M5.03551 18.0781C5.00968 18.1392 4.91429 18.1575 4.8368 18.1147C4.7593 18.0719 4.70168 17.9925 4.7295 17.9293C4.75732 17.8662 4.85071 17.8499 4.92821 17.8927C5.00571 17.9354 5.06532 18.0169 5.03551 18.0781Z" fill="#E60576"/>
<path d="M5.52238 18.6343C5.48122 18.6555 5.43414 18.6615 5.38919 18.651C5.34424 18.6406 5.30422 18.6145 5.27597 18.5772C5.19847 18.4916 5.18257 18.3735 5.24218 18.3205C5.3018 18.2675 5.40911 18.292 5.48661 18.3776C5.56411 18.4631 5.58199 18.5813 5.52238 18.6343Z" fill="#E60576"/>
<path d="M5.99534 19.3412C5.92182 19.3942 5.79662 19.3412 5.72707 19.2353C5.70784 19.2163 5.69255 19.1935 5.6821 19.1683C5.67165 19.1431 5.66626 19.116 5.66626 19.0886C5.66626 19.0612 5.67165 19.0341 5.6821 19.0089C5.69255 18.9837 5.70784 18.9609 5.72707 18.9419C5.8006 18.891 5.92579 18.9419 5.99534 19.0458C6.06489 19.1497 6.06688 19.2883 5.99534 19.3412V19.3412Z" fill="#E60576"/>
<path d="M6.63716 20.0258C6.57159 20.1012 6.43845 20.0808 6.32916 19.9789C6.21987 19.877 6.19403 19.7385 6.25961 19.6652C6.32518 19.5918 6.45832 19.6122 6.57159 19.712C6.68485 19.8119 6.70671 19.9524 6.63716 20.0258V20.0258Z" fill="#E60576"/>
<path d="M7.53731 20.4251C7.5075 20.5209 7.37237 20.5637 7.23725 20.5229C7.10212 20.4822 7.0127 20.3681 7.03853 20.2703C7.06437 20.1725 7.20148 20.1277 7.33859 20.1725C7.4757 20.2173 7.56314 20.3253 7.53731 20.4251Z" fill="#E60576"/>
<path d="M8.51899 20.4944C8.51899 20.5942 8.40771 20.6798 8.26464 20.6818C8.12157 20.6839 8.00433 20.6024 8.00433 20.5025C8.00433 20.4027 8.1156 20.3171 8.25867 20.3151C8.40175 20.313 8.51899 20.3925 8.51899 20.4944Z" fill="#E60576"/>
<path d="M9.43307 20.3375C9.45096 20.4373 9.3516 20.5412 9.20853 20.5657C9.06545 20.5901 8.94026 20.5311 8.92238 20.4333C8.90449 20.3355 9.00783 20.2295 9.14693 20.203C9.28602 20.1766 9.41519 20.2377 9.43307 20.3375Z" fill="#E60576"/>
<path d="M44.6149 5.78472L44.4158 5.54213L44.2239 5.79049C44.0182 6.05662 42.333 8.23319 38.6138 9.74651L38.3664 9.8472L38.4833 10.0874C38.7161 10.566 38.9483 11.0694 39.1545 11.5588L39.1551 11.5603C39.1817 11.6224 39.2103 11.6939 39.24 11.7681C39.2852 11.8808 39.3327 11.9996 39.3791 12.1002L39.4558 12.2663L39.6374 12.2435C42.9128 11.8309 46.1716 12.4652 46.6572 12.5597C46.6707 12.5623 46.6821 12.5645 46.6913 12.5663L46.9918 12.624L46.9884 12.3181C46.9618 9.85175 46.0817 7.57151 44.6149 5.78472ZM43.4942 4.90236L43.6222 4.71959L43.4551 4.57175C41.6022 2.93216 39.1621 1.93196 36.4955 1.93196C35.6443 1.93196 34.8179 2.02506 34.03 2.21203L33.6631 2.29909L33.8861 2.60312C33.8902 2.60872 33.8946 2.61475 33.8994 2.62123C34.2244 3.06422 36.048 5.54976 37.6945 8.57479L37.7984 8.76565L38.0019 8.68935C41.7042 7.301 43.2904 5.19345 43.4942 4.90236ZM32.3354 2.99509L32.213 2.83187L32.0286 2.91906C29.0962 4.30526 26.8963 7.011 26.2161 10.2653L26.1531 10.5665H26.4608C26.4687 10.5665 26.4778 10.5665 26.4879 10.5665C27.0687 10.567 31.2613 10.5706 36.0002 9.30855L36.3124 9.2254L36.1535 8.94405C34.442 5.91301 32.6135 3.36593 32.3354 2.99509ZM26.2468 11.8627L25.9895 11.8551V12.1126V12.1132V12.1138V12.1144V12.115V12.1156V12.1162V12.1168V12.1174V12.1181V12.1187V12.1193V12.1199V12.1205V12.1211V12.1217V12.1223V12.1229V12.1235V12.1242V12.1248V12.1254V12.126V12.1266V12.1272V12.1278V12.1284V12.129V12.1296V12.1303V12.1309V12.1315V12.1321V12.1327V12.1333V12.1339V12.1345V12.1351V12.1357V12.1364V12.137V12.1376V12.1382V12.1388V12.1394V12.14V12.1406V12.1412V12.1418V12.1425V12.1431V12.1437V12.1443V12.1449V12.1455V12.1461V12.1467V12.1473V12.1479V12.1486V12.1492V12.1498V12.1504V12.151V12.1516V12.1522V12.1528V12.1534V12.154V12.1547V12.1553V12.1559V12.1565V12.1571V12.1577V12.1583V12.1589V12.1595V12.1601V12.1608V12.1614V12.162V12.1626V12.1632V12.1638V12.1644V12.165V12.1656V12.1662V12.1669V12.1675V12.1681V12.1687V12.1693V12.1699V12.1705V12.1711V12.1717V12.1723V12.173V12.1736V12.1742V12.1748V12.1754V12.176V12.1766V12.1772V12.1778V12.1784V12.1791V12.1797V12.1803V12.1809V12.1815V12.1821V12.1827V12.1833V12.1839V12.1845V12.1852V12.1858V12.1864V12.187V12.1876V12.1882V12.1888V12.1894V12.19V12.1906V12.1913V12.1919V12.1925V12.1931V12.1937V12.1943V12.1949V12.1955V12.1961V12.1967V12.1974V12.198V12.1986V12.1992V12.1998V12.2004V12.201V12.2016V12.2022V12.2028V12.2035V12.2041V12.2047V12.2053V12.2059V12.2065V12.2071V12.2077V12.2083V12.2089V12.2096V12.2102V12.2108V12.2114V12.212V12.2126V12.2132V12.2138V12.2144V12.215V12.2157V12.2163V12.2169V12.2175V12.2181V12.2187V12.2193V12.2199V12.2205V12.2211V12.2218V12.2224V12.223V12.2236V12.2242V12.2248V12.2254V12.226V12.2266V12.2272V12.2279V12.2285V12.2291V12.2297V12.2303V12.2309V12.2315V12.2321V12.2327V12.2333V12.234V12.2346V12.2352V12.2358V12.2364V12.237V12.2376V12.2382V12.2388V12.2394V12.2401V12.2407V12.2413V12.2419V12.2425V12.2431V12.2437V12.2443V12.2449V12.2455V12.2462V12.2468V12.2474V12.248V12.2486V12.2492V12.2498V12.2504V12.251V12.2516V12.2523V12.2529V12.2535V12.2541V12.2547V12.2553V12.2559V12.2565V12.2571V12.2577V12.2584V12.259V12.2596V12.2602V12.2608V12.2614V12.262V12.2626V12.2632V12.2638V12.2645V12.2651V12.2657V12.2663V12.2669V12.2675V12.2681V12.2687V12.2693V12.27V12.2706V12.2712V12.2718V12.2724V12.273V12.2736V12.2742V12.2748V12.2754V12.2761V12.2767V12.2773V12.2779V12.2785V12.2791V12.2797V12.2803V12.2809V12.2815V12.2822V12.2828V12.2834V12.284V12.2846V12.2852V12.2858V12.2864V12.287V12.2876V12.2883V12.2889V12.2895V12.2901V12.2907V12.2913V12.2919V12.2925V12.2931V12.2937V12.2944V12.295V12.2956V12.2962V12.2968V12.2974V12.298V12.2986V12.2992V12.2998V12.3005V12.3011V12.3017V12.3023V12.3029V12.3035V12.3041V12.3047V12.3053V12.3059V12.3066V12.3072V12.3078V12.3084V12.309V12.3096V12.3102V12.3108V12.3114V12.312V12.3127V12.3133V12.3139V12.3145V12.3151V12.3157V12.3163V12.3169V12.3175V12.3181V12.3188V12.3194V12.32V12.3206V12.3212V12.3218V12.3224V12.323V12.3236V12.3243V12.3249V12.3255V12.3261V12.3267V12.3273V12.3279V12.3285V12.3291V12.3297V12.3304V12.331V12.3316V12.3322V12.3328V12.3334V12.334V12.3346V12.3352V12.3358V12.3365V12.3371V12.3377V12.3383V12.3389V12.3395V12.3401V12.3407V12.3413V12.3419V12.3426V12.3432V12.3438V12.3444V12.345V12.3456V12.3462V12.3468V12.3474V12.348V12.3487V12.3493V12.3499V12.3505V12.3511V12.3517V12.3523V12.3529V12.3535V12.3542V12.3548V12.3554V12.356V12.3566V12.3572V12.3578V12.3584V12.359V12.3596V12.3603V12.3609V12.3615V12.3621V12.3627V12.3633V12.3639V12.3645V12.3651V12.3657V12.3664V12.367V12.3676V12.3682V12.3688V12.3694V12.37V12.3706V12.3712V12.3718V12.3725V12.3731V12.3737V12.3743V12.3749V12.3755V12.3761V12.3767V12.3773V12.378V12.3786V12.3792V12.3798V12.3804V12.381V12.3816V12.3822V12.3828V12.3834V12.3841V12.3847V12.3853V12.3859V12.3865V12.3871V12.3877V12.3883V12.3889V12.3895V12.3902V12.3908V12.3914V12.392V12.3926V12.3932V12.3938V12.3944V12.395V12.3956V12.3963V12.3969V12.3975V12.3981V12.3987V12.3993V12.3999V12.4005V12.4011V12.4018V12.4024V12.403V12.4036V12.4042V12.4048V12.4054V12.406V12.4066V12.4072V12.4079V12.4085V12.4091V12.4097V12.4103V12.4109V12.4115V12.4121V12.4127V12.4133V12.414V12.4146V12.4152V12.4158V12.4164V12.417V12.4176V12.4182V12.4188V12.4195V12.4201V12.4207V12.4213V12.4219V12.4225V12.4231V12.4237V12.4243V12.4249C25.9895 15.1185 27.0164 17.5851 28.6827 19.438L28.9089 19.6896L29.083 19.3995C29.313 19.0161 32.0831 14.4303 37.2726 12.7547C37.3349 12.7361 37.4005 12.7173 37.4681 12.698L37.4687 12.6978C37.5368 12.6784 37.6067 12.6584 37.6737 12.6383L37.9456 12.5567L37.8303 12.2973C37.5688 11.709 37.2931 11.1181 36.9903 10.539L36.8947 10.3561L36.6969 10.4154C31.6193 11.94 26.6784 11.8753 26.2468 11.8627ZM29.984 20.3986L29.8964 20.5801L30.0551 20.7043C31.8287 22.0911 34.0691 22.9178 36.4955 22.9178C37.9481 22.9178 39.3354 22.6246 40.6032 22.0774L40.7842 21.9993L40.7505 21.805C40.5929 20.8988 40.0037 17.7443 38.5508 13.9877L38.4518 13.7316L38.209 13.8527C38.2082 13.8529 38.2073 13.8533 38.2061 13.8537L38.2051 13.854C38.1957 13.8571 38.1789 13.8627 38.1579 13.8721C32.3038 15.9204 30.1828 19.9868 29.984 20.3986ZM41.9625 20.9519L42.0264 21.335L42.3486 21.1183C44.7079 19.5321 46.3887 17.0121 46.8423 14.0902L46.8747 13.8815L46.6743 13.8147C46.3049 13.6915 43.4498 12.8459 40.1788 13.3623L39.8791 13.4097L39.9829 13.6948C41.3166 17.3593 41.86 20.3368 41.9625 20.9519ZM24.7455 12.4119C24.7455 5.92524 30.0088 0.661896 36.4955 0.661896C42.9693 0.661896 48.2455 5.92542 48.2455 12.4119C48.2455 18.8984 42.9693 24.1619 36.4955 24.1619C30.0088 24.1619 24.7455 18.8986 24.7455 12.4119Z" stroke="#E60576" stroke-width="0.5"/>
<path d="M55.6158 21.1135H55.8658V20.8635V9.40721V9.15721H55.6158H52.0533H51.8033V9.40721V20.8635V21.1135H52.0533H55.6158ZM68.947 21.1135H69.197V20.8635V14.5775C69.197 13.0298 69.0328 11.6025 68.3751 10.5594C67.7007 9.48989 66.5407 8.87127 64.6767 8.87127C63.2372 8.87127 62.1586 9.4965 61.5142 10.2403V9.40721V9.15721H61.2642H57.8517H57.6017V9.40721V20.8635V21.1135H57.8517H61.4049H61.6549V20.8635V15.201C61.6549 14.4577 61.7271 13.778 61.996 13.2888C62.1272 13.05 62.3042 12.8589 62.5446 12.7255C62.7865 12.5912 63.1073 12.5072 63.5377 12.5072C63.9548 12.5072 64.2461 12.6043 64.455 12.7502C64.6645 12.8965 64.8125 13.107 64.9165 13.3703C65.1302 13.9115 65.1392 14.6203 65.1392 15.2947V20.8635V21.1135H65.3892H68.947ZM50.2674 0.661896H70.7189C71.5671 0.661896 72.2455 1.32989 72.2455 2.14158V22.6822C72.2455 23.4897 71.5667 24.1619 70.7189 24.1619H50.2674C49.4209 24.1619 48.7455 23.4909 48.7455 22.6775V2.14158C48.7455 1.32904 49.42 0.661896 50.2674 0.661896ZM51.5174 5.78377C51.5174 7.06127 52.5531 8.09627 53.8345 8.09627C55.112 8.09627 56.147 7.05585 56.147 5.78377C56.147 4.50664 55.1117 3.47127 53.8345 3.47127C52.5531 3.47127 51.5174 4.50627 51.5174 5.78377Z" stroke="#E60576" stroke-width="0.5"/>
</svg>
