<svg width="24" height="24" viewBox="0 0 24 24" fill="none" xmlns="http://www.w3.org/2000/svg">
<path d="M18.2972 5.0955C18.3752 4.85797 18.3749 4.85789 18.3747 4.85781L18.3742 4.85764L18.373 4.85728L18.3705 4.85648L18.3643 4.85462C18.3597 4.85327 18.354 4.8517 18.3474 4.84999C18.334 4.84658 18.3166 4.84259 18.295 4.8386C18.2519 4.83061 18.1924 4.82263 18.116 4.81906C17.9631 4.81191 17.7441 4.82251 17.4552 4.88503C16.894 5.00649 16.071 5.32343 14.9547 6.08475C13.0152 5.56244 10.9768 5.56244 9.03735 6.08477C7.91995 5.32339 7.096 5.00646 6.53406 4.88501C6.24482 4.8225 6.02555 4.81192 5.87245 4.81906C5.796 4.82263 5.7364 4.83061 5.69321 4.83858C5.67163 4.84257 5.65419 4.84655 5.64083 4.84997C5.63415 4.85167 5.6285 4.85324 5.62387 4.85459L5.61769 4.85644L5.61517 4.85723L5.61405 4.85759L5.61353 4.85776C5.61328 4.85784 5.61303 4.85792 5.69086 5.0955L5.61303 4.85792L5.50003 4.89494L5.45744 5.00596C4.84981 6.59006 5.12393 7.8104 5.28822 8.30185C4.49943 9.23118 4.07136 10.4263 4.08762 11.6596C4.08796 14.0686 4.80647 15.588 5.90859 16.5388C6.87531 17.3728 8.10663 17.7417 9.31267 17.924C9.08668 18.2486 8.9066 18.6776 8.81659 19.2104C8.48446 19.3495 7.98713 19.4972 7.46462 19.4497C6.89262 19.3978 6.26399 19.1108 5.77015 18.2433L5.76876 18.2407L5.76164 18.228C5.75562 18.2175 5.74706 18.2027 5.73597 18.1844C5.7138 18.1479 5.68141 18.0968 5.63888 18.0359C5.55407 17.9144 5.42764 17.7517 5.26 17.5856C4.92668 17.2554 4.41382 16.896 3.72979 16.8463L3.72227 16.8458L3.71473 16.8457L3.71168 17.0957C3.71473 16.8457 3.71465 16.8457 3.71456 16.8457L3.71436 16.8457L3.71389 16.8457L3.71261 16.8457L3.70879 16.8457L3.69635 16.8457C3.68604 16.8458 3.67175 16.8461 3.65434 16.8467C3.61974 16.848 3.57169 16.8508 3.5175 16.857C3.41913 16.8682 3.26224 16.8943 3.13621 16.9681C3.07017 17.0068 2.99102 17.0711 2.94725 17.1744C2.90059 17.2846 2.91082 17.399 2.95224 17.5C3.02546 17.6785 3.21188 17.8558 3.48688 18.0482L3.50391 18.0602L3.52067 18.0681L3.52106 18.0683L3.52112 18.0683L3.52176 18.0687L3.52302 18.0693C3.526 18.0709 3.53177 18.074 3.54009 18.0788C3.55672 18.0884 3.58353 18.1048 3.61858 18.1293C3.68864 18.1782 3.79182 18.2595 3.91258 18.3835C4.15296 18.6304 4.4665 19.0503 4.72633 19.7292L4.72757 19.7328C4.72968 19.7389 4.73257 19.747 4.73633 19.7569C4.74383 19.7769 4.75476 19.8044 4.76962 19.8381C4.79933 19.9056 4.8449 19.9984 4.91044 20.106C5.04141 20.3211 5.25338 20.5975 5.57928 20.8479C6.20093 21.3255 7.20127 21.6818 8.7568 21.4022C8.75933 21.8771 8.76318 22.3183 8.76628 22.6731C8.7691 22.9962 8.77129 23.2475 8.77129 23.3871C8.77129 23.4972 8.73246 23.6003 8.66427 23.6637C8.60594 23.718 8.49154 23.7753 8.26413 23.7355C5.62695 22.8278 3.38778 20.9895 1.94674 18.5458C0.502445 16.0966 -0.0453942 13.1997 0.401957 10.3736C0.849301 7.54741 2.26235 4.97782 4.38684 3.12363C6.51115 1.26959 9.20835 0.251524 11.996 0.25C11.9961 0.25 11.9961 0.25 11.9962 0.25L11.9999 0.25L18.2972 5.0955ZM18.2972 5.0955L18.3752 4.85797L18.4878 4.89494L18.5305 5.00554C19.1407 6.58783 18.8655 7.80866 18.7016 8.30129C19.4931 9.23104 19.9222 10.4285 19.9044 11.6638C19.9041 14.0778 19.1841 15.5965 18.0795 16.5443C17.1113 17.3751 15.8784 17.7396 14.6714 17.9188M18.2972 5.0955L14.6714 17.9188M14.6714 17.9188C15.0032 18.3932 15.2386 19.0908 15.2386 20.0112C15.2386 20.835 15.2352 21.5781 15.2317 22.1659C15.2305 22.3646 15.2293 22.5452 15.2283 22.7051C15.2263 23.0193 15.2247 23.2535 15.2247 23.3871C15.2247 23.5025 15.2635 23.606 15.3298 23.668C15.3859 23.7205 15.4998 23.7788 15.7351 23.7357C18.3729 22.8281 20.6126 20.9893 22.0538 18.5449C23.498 16.0953 24.0456 13.198 23.5977 10.3716C23.1499 7.54518 21.7361 4.97556 19.6109 3.12169C17.4859 1.26796 14.788 0.250558 12 0.25L14.6714 17.9188Z" stroke="#E60576" stroke-width="0.5"/>
<path d="M4.54002 17.6662C4.51419 17.7273 4.4188 17.7456 4.34131 17.7028C4.26381 17.6601 4.20619 17.5806 4.23401 17.5174C4.26182 17.4543 4.35522 17.438 4.43272 17.4808C4.51022 17.5235 4.56983 17.605 4.54002 17.6662Z" fill="#E60576"/>
<path d="M5.0269 18.2224C4.98575 18.2436 4.93867 18.2496 4.89372 18.2392C4.84877 18.2287 4.80875 18.2026 4.7805 18.1653C4.703 18.0797 4.6871 17.9616 4.74671 17.9086C4.80632 17.8556 4.91364 17.8801 4.99114 17.9657C5.06863 18.0512 5.08652 18.1694 5.0269 18.2224Z" fill="#E60576"/>
<path d="M5.49986 18.9293C5.42633 18.9822 5.30114 18.9293 5.23159 18.8233C5.21236 18.8043 5.19706 18.7815 5.18662 18.7563C5.17617 18.7311 5.17078 18.704 5.17078 18.6766C5.17078 18.6493 5.17617 18.6222 5.18662 18.5969C5.19706 18.5717 5.21236 18.549 5.23159 18.53C5.30511 18.479 5.43031 18.53 5.49986 18.6339C5.56941 18.7378 5.57139 18.8763 5.49986 18.9293V18.9293Z" fill="#E60576"/>
<path d="M6.14167 19.6139C6.07609 19.6893 5.94296 19.6689 5.83367 19.5671C5.72438 19.4652 5.69854 19.3266 5.76411 19.2533C5.82969 19.18 5.96282 19.2003 6.07609 19.3002C6.18936 19.4 6.21122 19.5406 6.14167 19.6139V19.6139Z" fill="#E60576"/>
<path d="M7.04182 20.0132C7.01202 20.109 6.87689 20.1518 6.74176 20.111C6.60664 20.0703 6.51722 19.9562 6.54305 19.8584C6.56888 19.7606 6.706 19.7158 6.84311 19.7606C6.98022 19.8054 7.06765 19.9134 7.04182 20.0132Z" fill="#E60576"/>
<path d="M8.02351 20.0825C8.02351 20.1824 7.91224 20.2679 7.76916 20.27C7.62609 20.272 7.50885 20.1905 7.50885 20.0907C7.50885 19.9908 7.62012 19.9053 7.7632 19.9032C7.90627 19.9012 8.02351 19.9807 8.02351 20.0825Z" fill="#E60576"/>
<path d="M8.93757 19.9256C8.95546 20.0254 8.8561 20.1293 8.71303 20.1537C8.56995 20.1782 8.44476 20.1191 8.42688 20.0213C8.409 19.9235 8.51233 19.8176 8.65143 19.7911C8.79053 19.7646 8.91969 19.8257 8.93757 19.9256Z" fill="#E60576"/>
</svg>
