<svg width="75" height="51" viewBox="0 0 75 51" fill="none" xmlns="http://www.w3.org/2000/svg">
<path d="M18.7927 31.508C18.8707 31.2704 18.8704 31.2703 18.8702 31.2703L18.8696 31.2701L18.8685 31.2697L18.866 31.2689L18.8598 31.2671C18.8552 31.2657 18.8495 31.2642 18.8429 31.2625C18.8295 31.259 18.8121 31.2551 18.7905 31.2511C18.7474 31.2431 18.6878 31.2351 18.6115 31.2315C18.4586 31.2244 18.2396 31.235 17.9507 31.2975C17.3895 31.419 16.5665 31.7359 15.4501 32.4972C13.5107 31.9749 11.4723 31.9749 9.53283 32.4972C8.41543 31.7358 7.59148 31.4189 7.02954 31.2975C6.7403 31.235 6.52103 31.2244 6.36794 31.2315C6.29148 31.2351 6.23188 31.2431 6.18869 31.251C6.16711 31.255 6.14967 31.259 6.13631 31.2624C6.12964 31.2641 6.12399 31.2657 6.11935 31.267L6.11317 31.2689L6.11065 31.2697L6.10953 31.2701L6.10901 31.2702C6.10876 31.2703 6.10851 31.2704 6.18634 31.508L6.10851 31.2704L5.99551 31.3074L5.95293 31.4184C5.34529 33.0025 5.61942 34.2229 5.78371 34.7143C4.99491 35.6436 4.56684 36.8388 4.58311 38.072C4.58344 40.481 5.30195 42.0005 6.40407 42.9513C7.37079 43.7852 8.60211 44.1542 9.80816 44.3365C9.58217 44.6611 9.40208 45.0901 9.31208 45.6229C8.97994 45.7619 8.48261 45.9096 7.9601 45.8622C7.38811 45.8103 6.75947 45.5232 6.26564 44.6557L6.26424 44.6532L6.25712 44.6405C6.25111 44.6299 6.24255 44.6152 6.23145 44.5969C6.20928 44.5603 6.17689 44.5093 6.13437 44.4484C6.04955 44.3268 5.92312 44.1641 5.75548 43.998C5.42216 43.6678 4.90931 43.3085 4.22528 43.2588L4.21776 43.2583L4.21021 43.2582L4.20717 43.5081C4.21021 43.2582 4.21013 43.2582 4.21004 43.2582L4.20985 43.2582L4.20937 43.2582L4.20809 43.2581L4.20427 43.2581L4.19183 43.2582C4.18153 43.2583 4.16723 43.2586 4.14982 43.2592C4.11523 43.2605 4.06717 43.2633 4.01299 43.2694C3.91461 43.2806 3.75772 43.3067 3.6317 43.3806C3.56566 43.4193 3.4865 43.4836 3.44273 43.5869C3.39607 43.6971 3.4063 43.8115 3.44772 43.9125C3.52094 44.0909 3.70736 44.2683 3.98236 44.4607L3.9994 44.4726L4.01615 44.4806L4.01655 44.4808L4.0166 44.4808L4.01724 44.4811L4.0185 44.4818C4.02148 44.4834 4.02725 44.4865 4.03557 44.4913C4.0522 44.5009 4.07901 44.5173 4.11406 44.5417C4.18412 44.5906 4.28731 44.6719 4.40807 44.796C4.64844 45.0429 4.96199 45.4628 5.22181 46.1416L5.22305 46.1453C5.22516 46.1513 5.22806 46.1594 5.23181 46.1694C5.23931 46.1894 5.25024 46.2168 5.26511 46.2506C5.29481 46.318 5.34039 46.4109 5.40592 46.5185C5.53689 46.7336 5.74887 47.01 6.07476 47.2604C6.69642 47.738 7.69676 48.0942 9.25228 47.8146C9.25481 48.2896 9.25867 48.7308 9.26176 49.0856C9.26458 49.4086 9.26678 49.66 9.26678 49.7996C9.26678 49.9097 9.22794 50.0128 9.15975 50.0762C9.10142 50.1304 8.98703 50.1878 8.75962 50.1479C6.12243 49.2403 3.88326 47.4019 2.44222 44.9582C0.997929 42.509 0.450089 39.6122 0.897441 36.786C1.34478 33.9599 2.75783 31.3903 4.88232 29.5361C7.00663 27.6821 9.70383 26.664 12.4915 26.6625C12.4916 26.6625 12.4916 26.6625 12.4916 26.6625L12.4954 26.6625L18.7927 31.508ZM18.7927 31.508L18.8707 31.2704L18.9833 31.3074L19.026 31.418C19.6362 33.0003 19.3609 34.2211 19.1971 34.7137C19.9886 35.6435 20.4177 36.8409 20.3999 38.0763C20.3995 40.4903 19.6795 42.0089 18.575 42.9568C17.6068 43.7876 16.3739 44.1521 15.1669 44.3313M18.7927 31.508L15.1669 44.3313M15.1669 44.3313C15.4987 44.8057 15.7341 45.5032 15.7341 46.4236C15.7341 47.2474 15.7307 47.9906 15.7272 48.5784C15.726 48.777 15.7248 48.9577 15.7238 49.1176C15.7217 49.4317 15.7202 49.6659 15.7202 49.7996C15.7202 49.915 15.759 50.0185 15.8253 50.0805C15.8814 50.133 15.9952 50.1912 16.2306 50.1482C18.8684 49.2405 21.1081 47.4017 22.5492 44.9574C23.9935 42.5078 24.5411 39.6105 24.0932 36.784C23.6454 33.9576 22.2316 31.388 20.1064 29.5342C17.9814 27.6804 15.2835 26.663 12.4955 26.6625L15.1669 44.3313Z" stroke="#5550F2" stroke-width="0.5"/>
<path d="M5.03551 44.0786C5.00968 44.1397 4.91429 44.1581 4.8368 44.1153C4.7593 44.0725 4.70168 43.9931 4.7295 43.9299C4.75732 43.8667 4.85071 43.8504 4.92821 43.8932C5.00571 43.936 5.06532 44.0175 5.03551 44.0786Z" fill="#5550F2"/>
<path d="M5.52238 44.6348C5.48122 44.6561 5.43414 44.662 5.38919 44.6516C5.34424 44.6412 5.30422 44.6151 5.27597 44.5778C5.19847 44.4922 5.18257 44.374 5.24218 44.3211C5.3018 44.2681 5.40911 44.2925 5.48661 44.3781C5.56411 44.4637 5.58199 44.5819 5.52238 44.6348Z" fill="#5550F2"/>
<path d="M5.99534 45.3418C5.92182 45.3948 5.79662 45.3418 5.72707 45.2358C5.70784 45.2168 5.69255 45.194 5.6821 45.1688C5.67165 45.1436 5.66626 45.1165 5.66626 45.0892C5.66626 45.0618 5.67165 45.0347 5.6821 45.0095C5.69255 44.9842 5.70784 44.9615 5.72707 44.9425C5.8006 44.8915 5.92579 44.9425 5.99534 45.0464C6.06489 45.1503 6.06688 45.2888 5.99534 45.3418V45.3418Z" fill="#5550F2"/>
<path d="M6.63716 46.0264C6.57159 46.1017 6.43845 46.0814 6.32916 45.9795C6.21987 45.8776 6.19403 45.7391 6.25961 45.6657C6.32518 45.5924 6.45832 45.6128 6.57159 45.7126C6.68485 45.8124 6.70671 45.953 6.63716 46.0264V46.0264Z" fill="#5550F2"/>
<path d="M7.53731 46.4257C7.5075 46.5214 7.37237 46.5642 7.23725 46.5235C7.10212 46.4827 7.0127 46.3686 7.03853 46.2708C7.06437 46.173 7.20148 46.1282 7.33859 46.173C7.4757 46.2179 7.56314 46.3258 7.53731 46.4257Z" fill="#5550F2"/>
<path d="M8.51899 46.4949C8.51899 46.5948 8.40771 46.6803 8.26464 46.6824C8.12157 46.6844 8.00433 46.6029 8.00433 46.5031C8.00433 46.4033 8.1156 46.3177 8.25867 46.3157C8.40175 46.3136 8.51899 46.3931 8.51899 46.4949Z" fill="#5550F2"/>
<path d="M9.43307 46.3381C9.45096 46.4379 9.3516 46.5418 9.20853 46.5663C9.06545 46.5907 8.94026 46.5316 8.92238 46.4338C8.90449 46.336 9.00783 46.2301 9.14693 46.2036C9.28602 46.1771 9.41519 46.2382 9.43307 46.3381Z" fill="#5550F2"/>
<path d="M45.6149 31.7853L45.4158 31.5427L45.2239 31.7911C45.0182 32.0572 43.333 34.2338 39.6138 35.7471L39.3664 35.8478L39.4833 36.088C39.7161 36.5666 39.9483 37.07 40.1545 37.5594L40.1551 37.5608C40.1817 37.6229 40.2103 37.6945 40.24 37.7687C40.2852 37.8814 40.3327 38.0001 40.3791 38.1007L40.4558 38.2669L40.6374 38.244C43.9128 37.8314 47.1716 38.4657 47.6572 38.5602C47.6707 38.5629 47.6821 38.5651 47.6913 38.5668L47.9918 38.6246L47.9884 38.3186C47.9618 35.8523 47.0817 33.5721 45.6149 31.7853ZM44.4942 30.9029L44.6222 30.7202L44.4551 30.5723C42.6022 28.9327 40.1621 27.9325 37.4955 27.9325C36.6443 27.9325 35.8179 28.0256 35.03 28.2126L34.6631 28.2997L34.8861 28.6037C34.8902 28.6093 34.8946 28.6153 34.8994 28.6218C35.2244 29.0648 37.048 31.5503 38.6945 34.5754L38.7984 34.7662L39.0019 34.6899C42.7042 33.3016 44.2904 31.194 44.4942 30.9029ZM33.3354 28.9957L33.213 28.8324L33.0286 28.9196C30.0962 30.3058 27.8963 33.0116 27.2161 36.2659L27.1531 36.567H27.4608C27.4687 36.567 27.4778 36.567 27.4879 36.5671C28.0687 36.5675 32.2613 36.5711 37.0002 35.3091L37.3124 35.226L37.1535 34.9446C35.442 31.9136 33.6135 29.3665 33.3354 28.9957ZM27.2468 37.8632L26.9895 37.8557V38.1131V38.1137V38.1144V38.115V38.1156V38.1162V38.1168V38.1174V38.118V38.1186V38.1192V38.1198V38.1205V38.1211V38.1217V38.1223V38.1229V38.1235V38.1241V38.1247V38.1253V38.1259V38.1266V38.1272V38.1278V38.1284V38.129V38.1296V38.1302V38.1308V38.1314V38.132V38.1327V38.1333V38.1339V38.1345V38.1351V38.1357V38.1363V38.1369V38.1375V38.1381V38.1388V38.1394V38.14V38.1406V38.1412V38.1418V38.1424V38.143V38.1436V38.1442V38.1449V38.1455V38.1461V38.1467V38.1473V38.1479V38.1485V38.1491V38.1497V38.1503V38.151V38.1516V38.1522V38.1528V38.1534V38.154V38.1546V38.1552V38.1558V38.1564V38.1571V38.1577V38.1583V38.1589V38.1595V38.1601V38.1607V38.1613V38.1619V38.1625V38.1632V38.1638V38.1644V38.165V38.1656V38.1662V38.1668V38.1674V38.168V38.1686V38.1693V38.1699V38.1705V38.1711V38.1717V38.1723V38.1729V38.1735V38.1741V38.1747V38.1754V38.176V38.1766V38.1772V38.1778V38.1784V38.179V38.1796V38.1802V38.1808V38.1815V38.1821V38.1827V38.1833V38.1839V38.1845V38.1851V38.1857V38.1863V38.1869V38.1876V38.1882V38.1888V38.1894V38.19V38.1906V38.1912V38.1918V38.1924V38.193V38.1937V38.1943V38.1949V38.1955V38.1961V38.1967V38.1973V38.1979V38.1985V38.1991V38.1998V38.2004V38.201V38.2016V38.2022V38.2028V38.2034V38.204V38.2046V38.2052V38.2059V38.2065V38.2071V38.2077V38.2083V38.2089V38.2095V38.2101V38.2107V38.2113V38.212V38.2126V38.2132V38.2138V38.2144V38.215V38.2156V38.2162V38.2168V38.2174V38.2181V38.2187V38.2193V38.2199V38.2205V38.2211V38.2217V38.2223V38.2229V38.2235V38.2242V38.2248V38.2254V38.226V38.2266V38.2272V38.2278V38.2284V38.229V38.2296V38.2303V38.2309V38.2315V38.2321V38.2327V38.2333V38.2339V38.2345V38.2351V38.2357V38.2364V38.237V38.2376V38.2382V38.2388V38.2394V38.24V38.2406V38.2412V38.2418V38.2425V38.2431V38.2437V38.2443V38.2449V38.2455V38.2461V38.2467V38.2473V38.2479V38.2486V38.2492V38.2498V38.2504V38.251V38.2516V38.2522V38.2528V38.2534V38.254V38.2547V38.2553V38.2559V38.2565V38.2571V38.2577V38.2583V38.2589V38.2595V38.2601V38.2608V38.2614V38.262V38.2626V38.2632V38.2638V38.2644V38.265V38.2656V38.2662V38.2669V38.2675V38.2681V38.2687V38.2693V38.2699V38.2705V38.2711V38.2717V38.2723V38.273V38.2736V38.2742V38.2748V38.2754V38.276V38.2766V38.2772V38.2778V38.2784V38.2791V38.2797V38.2803V38.2809V38.2815V38.2821V38.2827V38.2833V38.2839V38.2845V38.2852V38.2858V38.2864V38.287V38.2876V38.2882V38.2888V38.2894V38.29V38.2906V38.2913V38.2919V38.2925V38.2931V38.2937V38.2943V38.2949V38.2955V38.2961V38.2967V38.2974V38.298V38.2986V38.2992V38.2998V38.3004V38.301V38.3016V38.3022V38.3029V38.3035V38.3041V38.3047V38.3053V38.3059V38.3065V38.3071V38.3077V38.3083V38.309V38.3096V38.3102V38.3108V38.3114V38.312V38.3126V38.3132V38.3138V38.3144V38.3151V38.3157V38.3163V38.3169V38.3175V38.3181V38.3187V38.3193V38.3199V38.3205V38.3212V38.3218V38.3224V38.323V38.3236V38.3242V38.3248V38.3254V38.326V38.3266V38.3273V38.3279V38.3285V38.3291V38.3297V38.3303V38.3309V38.3315V38.3321V38.3327V38.3334V38.334V38.3346V38.3352V38.3358V38.3364V38.337V38.3376V38.3382V38.3389V38.3395V38.3401V38.3407V38.3413V38.3419V38.3425V38.3431V38.3437V38.3443V38.345V38.3456V38.3462V38.3468V38.3474V38.348V38.3486V38.3492V38.3498V38.3504V38.3511V38.3517V38.3523V38.3529V38.3535V38.3541V38.3547V38.3553V38.3559V38.3565V38.3572V38.3578V38.3584V38.359V38.3596V38.3602V38.3608V38.3614V38.362V38.3626V38.3633V38.3639V38.3645V38.3651V38.3657V38.3663V38.3669V38.3675V38.3681V38.3688V38.3694V38.37V38.3706V38.3712V38.3718V38.3724V38.373V38.3736V38.3742V38.3749V38.3755V38.3761V38.3767V38.3773V38.3779V38.3785V38.3791V38.3797V38.3803V38.381V38.3816V38.3822V38.3828V38.3834V38.384V38.3846V38.3852V38.3858V38.3864V38.3871V38.3877V38.3883V38.3889V38.3895V38.3901V38.3907V38.3913V38.3919V38.3926V38.3932V38.3938V38.3944V38.395V38.3956V38.3962V38.3968V38.3974V38.398V38.3987V38.3993V38.3999V38.4005V38.4011V38.4017V38.4023V38.4029V38.4035V38.4041V38.4048V38.4054V38.406V38.4066V38.4072V38.4078V38.4084V38.409V38.4096V38.4103V38.4109V38.4115V38.4121V38.4127V38.4133V38.4139V38.4145V38.4151V38.4157V38.4164V38.417V38.4176V38.4182V38.4188V38.4194V38.42V38.4206V38.4212V38.4218V38.4225V38.4231V38.4237V38.4243V38.4249V38.4255C26.9895 41.119 28.0164 43.5857 29.6827 45.4386L29.9089 45.6901L30.083 45.4001C30.313 45.0166 33.0831 40.4309 38.2726 38.7553C38.3349 38.7366 38.4005 38.7179 38.4681 38.6986L38.4687 38.6984C38.5368 38.6789 38.6067 38.659 38.6737 38.6389L38.9456 38.5573L38.8303 38.2979C38.5688 37.7096 38.2931 37.1187 37.9903 36.5396L37.8947 36.3566L37.6969 36.416C32.6193 37.9405 27.6784 37.8759 27.2468 37.8632ZM30.984 46.3992L30.8964 46.5807L31.0551 46.7048C32.8287 48.0917 35.0691 48.9184 37.4955 48.9184C38.9481 48.9184 40.3354 48.6251 41.6032 48.078L41.7842 47.9998L41.7505 47.8056C41.5929 46.8993 41.0037 43.7449 39.5508 39.9883L39.4518 39.7322L39.209 39.8533C39.2082 39.8535 39.2073 39.8538 39.2061 39.8542L39.2051 39.8545C39.1957 39.8577 39.1789 39.8633 39.1579 39.8727C33.3038 41.921 31.1828 45.9874 30.984 46.3992ZM42.9625 46.9525L43.0264 47.3355L43.3486 47.1189C45.7079 45.5327 47.3887 43.0127 47.8423 40.0908L47.8747 39.882L47.6743 39.8152C47.3049 39.6921 44.4498 38.8464 41.1788 39.3629L40.8791 39.4102L40.9829 39.6953C42.3166 43.3598 42.86 46.3374 42.9625 46.9525ZM25.7455 38.4125C25.7455 31.9258 31.0088 26.6625 37.4955 26.6625C43.9693 26.6625 49.2455 31.926 49.2455 38.4125C49.2455 44.899 43.9693 50.1625 37.4955 50.1625C31.0088 50.1625 25.7455 44.8991 25.7455 38.4125Z" stroke="#5550F2" stroke-width="0.5"/>
<path d="M57.6158 47.114H57.8658V46.864V35.4078V35.1578H57.6158H54.0533H53.8033V35.4078V46.864V47.114H54.0533H57.6158ZM70.947 47.114H71.197V46.864V40.5781C71.197 39.0304 71.0328 37.6031 70.3751 36.56C69.7007 35.4905 68.5407 34.8718 66.6767 34.8718C65.2372 34.8718 64.1586 35.4971 63.5142 36.2409V35.4078V35.1578H63.2642H59.8517H59.6017V35.4078V46.864V47.114H59.8517H63.4049H63.6549V46.864V41.2015C63.6549 40.4583 63.7271 39.7786 63.996 39.2893C64.1272 39.0506 64.3042 38.8595 64.5446 38.726C64.7865 38.5918 65.1073 38.5078 65.5377 38.5078C65.9548 38.5078 66.2461 38.6048 66.455 38.7508C66.6645 38.8971 66.8125 39.1075 66.9165 39.3709C67.1302 39.912 67.1392 40.6208 67.1392 41.2953V46.864V47.114H67.3892H70.947ZM52.2674 26.6625H72.7189C73.5671 26.6625 74.2455 27.3305 74.2455 28.1421V48.6828C74.2455 49.4902 73.5667 50.1625 72.7189 50.1625H52.2674C51.4209 50.1625 50.7455 49.4915 50.7455 48.6781V28.1421C50.7455 27.3296 51.42 26.6625 52.2674 26.6625ZM53.5174 31.7843C53.5174 33.0618 54.5531 34.0968 55.8345 34.0968C57.112 34.0968 58.147 33.0564 58.147 31.7843C58.147 30.5072 57.1117 29.4718 55.8345 29.4718C54.5531 29.4718 53.5174 30.5068 53.5174 31.7843Z" stroke="#5550F2" stroke-width="0.5"/>
<path d="M18.7927 5.50739C18.8707 5.26986 18.8704 5.26978 18.8702 5.2697L18.8696 5.26953L18.8685 5.26917L18.866 5.26838L18.8598 5.26652C18.8552 5.26516 18.8495 5.2636 18.8429 5.26189C18.8295 5.25847 18.8121 5.25449 18.7905 5.2505C18.7474 5.24251 18.6878 5.23453 18.6115 5.23096C18.4586 5.22381 18.2396 5.2344 17.9507 5.29692C17.3895 5.41839 16.5665 5.73532 15.4501 6.49665C13.5107 5.97433 11.4723 5.97434 9.53283 6.49667C8.41543 5.73528 7.59148 5.41836 7.02954 5.29691C6.7403 5.2344 6.52103 5.22381 6.36794 5.23096C6.29148 5.23453 6.23188 5.2425 6.18869 5.25048C6.16711 5.25447 6.14967 5.25845 6.13631 5.26186C6.12964 5.26357 6.12399 5.26513 6.11935 5.26648L6.11317 5.26834L6.11065 5.26913L6.10953 5.26949L6.10901 5.26966C6.10876 5.26974 6.10851 5.26982 6.18634 5.50739L6.10851 5.26982L5.99551 5.30684L5.95293 5.41786C5.34529 7.00196 5.61942 8.22229 5.78371 8.71374C4.99491 9.64308 4.56684 10.8382 4.58311 12.0715C4.58344 14.4805 5.30195 15.9999 6.40407 16.9507C7.37079 17.7847 8.60211 18.1536 9.80816 18.3359C9.58217 18.6605 9.40208 19.0895 9.31208 19.6223C8.97994 19.7614 8.48261 19.909 7.9601 19.8616C7.38811 19.8097 6.75947 19.5227 6.26564 18.6552L6.26424 18.6526L6.25712 18.6399C6.25111 18.6294 6.24255 18.6146 6.23145 18.5963C6.20928 18.5598 6.17689 18.5087 6.13437 18.4478C6.04955 18.3263 5.92312 18.1636 5.75548 17.9975C5.42216 17.6673 4.90931 17.3079 4.22528 17.2582L4.21776 17.2577L4.21021 17.2576L4.20717 17.5076C4.21021 17.2576 4.21013 17.2576 4.21004 17.2576L4.20985 17.2576L4.20937 17.2576L4.20809 17.2576L4.20427 17.2576L4.19183 17.2576C4.18153 17.2577 4.16723 17.258 4.14982 17.2586C4.11523 17.2599 4.06717 17.2627 4.01299 17.2689C3.91461 17.2801 3.75772 17.3062 3.6317 17.38C3.56566 17.4187 3.4865 17.483 3.44273 17.5863C3.39607 17.6965 3.4063 17.8109 3.44772 17.9119C3.52094 18.0904 3.70736 18.2677 3.98236 18.4601L3.9994 18.4721L4.01615 18.48L4.01655 18.4802L4.0166 18.4802L4.01724 18.4806L4.0185 18.4812C4.02148 18.4828 4.02725 18.4859 4.03557 18.4907C4.0522 18.5003 4.07901 18.5167 4.11406 18.5412C4.18412 18.5901 4.28731 18.6714 4.40807 18.7954C4.64844 19.0423 4.96199 19.4622 5.22181 20.1411L5.22305 20.1447C5.22516 20.1508 5.22806 20.1589 5.23181 20.1688C5.23931 20.1888 5.25024 20.2163 5.26511 20.25C5.29481 20.3175 5.34039 20.4103 5.40592 20.5179C5.53689 20.733 5.74887 21.0094 6.07476 21.2598C6.69642 21.7374 7.69676 22.0936 9.25228 21.8141C9.25481 22.289 9.25867 22.7302 9.26176 23.085C9.26458 23.4081 9.26678 23.6594 9.26678 23.799C9.26678 23.9091 9.22794 24.0122 9.15975 24.0756C9.10142 24.1299 8.98703 24.1872 8.75962 24.1474C6.12243 23.2397 3.88326 21.4014 2.44222 18.9577C0.997929 16.5085 0.450089 13.6116 0.897441 10.7855C1.34478 7.95931 2.75783 5.38971 4.88232 3.53552C7.00663 1.68149 9.70383 0.66342 12.4915 0.661896C12.4916 0.661896 12.4916 0.661896 12.4916 0.661896L12.4954 0.661896L18.7927 5.50739ZM18.7927 5.50739L18.8707 5.26986L18.9833 5.30683L19.026 5.41743C19.6362 6.99973 19.3609 8.22055 19.1971 8.71318C19.9886 9.64294 20.4177 10.8404 20.3999 12.0757C20.3995 14.4897 19.6795 16.0084 18.575 16.9562C17.6068 17.787 16.3739 18.1515 15.1669 18.3307M18.7927 5.50739L15.1669 18.3307M15.1669 18.3307C15.4987 18.8051 15.7341 19.5027 15.7341 20.4231C15.7341 21.2469 15.7307 21.99 15.7272 22.5778C15.726 22.7765 15.7248 22.9571 15.7238 23.117C15.7217 23.4311 15.7202 23.6653 15.7202 23.799C15.7202 23.9144 15.759 24.0179 15.8253 24.0799C15.8814 24.1324 15.9952 24.1907 16.2306 24.1476C18.8684 23.24 21.1081 21.4012 22.5492 18.9568C23.9935 16.5072 24.5411 13.6099 24.0932 10.7835C23.6454 7.95708 22.2316 5.38746 20.1064 3.53359C17.9814 1.67985 15.2835 0.662454 12.4955 0.661896L15.1669 18.3307Z" stroke="#D7AEF2" stroke-width="0.5"/>
<path d="M5.03551 18.0781C5.00968 18.1392 4.91429 18.1575 4.8368 18.1147C4.7593 18.0719 4.70168 17.9925 4.7295 17.9293C4.75732 17.8662 4.85071 17.8499 4.92821 17.8927C5.00571 17.9354 5.06532 18.0169 5.03551 18.0781Z" fill="#D7AEF2"/>
<path d="M5.52238 18.6343C5.48122 18.6555 5.43414 18.6615 5.38919 18.651C5.34424 18.6406 5.30422 18.6145 5.27597 18.5772C5.19847 18.4916 5.18257 18.3735 5.24218 18.3205C5.3018 18.2675 5.40911 18.292 5.48661 18.3776C5.56411 18.4631 5.58199 18.5813 5.52238 18.6343Z" fill="#D7AEF2"/>
<path d="M5.99534 19.3412C5.92182 19.3942 5.79662 19.3412 5.72707 19.2353C5.70784 19.2163 5.69255 19.1935 5.6821 19.1683C5.67165 19.1431 5.66626 19.116 5.66626 19.0886C5.66626 19.0612 5.67165 19.0341 5.6821 19.0089C5.69255 18.9837 5.70784 18.9609 5.72707 18.9419C5.8006 18.891 5.92579 18.9419 5.99534 19.0458C6.06489 19.1497 6.06688 19.2883 5.99534 19.3412V19.3412Z" fill="#D7AEF2"/>
<path d="M6.63716 20.0258C6.57159 20.1012 6.43845 20.0808 6.32916 19.9789C6.21987 19.877 6.19403 19.7385 6.25961 19.6652C6.32518 19.5918 6.45832 19.6122 6.57159 19.712C6.68485 19.8119 6.70671 19.9524 6.63716 20.0258V20.0258Z" fill="#D7AEF2"/>
<path d="M7.53731 20.4251C7.5075 20.5209 7.37237 20.5637 7.23725 20.5229C7.10212 20.4822 7.0127 20.3681 7.03853 20.2703C7.06437 20.1725 7.20148 20.1277 7.33859 20.1725C7.4757 20.2173 7.56314 20.3253 7.53731 20.4251Z" fill="#D7AEF2"/>
<path d="M8.51899 20.4944C8.51899 20.5942 8.40771 20.6798 8.26464 20.6818C8.12157 20.6839 8.00433 20.6024 8.00433 20.5025C8.00433 20.4027 8.1156 20.3171 8.25867 20.3151C8.40175 20.313 8.51899 20.3925 8.51899 20.4944Z" fill="#D7AEF2"/>
<path d="M9.43307 20.3375C9.45096 20.4373 9.3516 20.5412 9.20853 20.5657C9.06545 20.5901 8.94026 20.5311 8.92238 20.4333C8.90449 20.3355 9.00783 20.2295 9.14693 20.203C9.28602 20.1766 9.41519 20.2377 9.43307 20.3375Z" fill="#D7AEF2"/>
<path d="M45.6149 5.78529L45.4158 5.54269L45.2239 5.79105C45.0182 6.05718 43.333 8.23376 39.6138 9.74707L39.3664 9.84776L39.4833 10.088C39.7161 10.5666 39.9483 11.07 40.1545 11.5594L40.1551 11.5608C40.1817 11.6229 40.2103 11.6945 40.24 11.7687C40.2852 11.8814 40.3327 12.0001 40.3791 12.1007L40.4558 12.2669L40.6374 12.244C43.9128 11.8314 47.1716 12.4657 47.6572 12.5602C47.6707 12.5629 47.6821 12.5651 47.6913 12.5668L47.9918 12.6246L47.9884 12.3186C47.9618 9.85232 47.0817 7.57207 45.6149 5.78529ZM44.4942 4.90292L44.6222 4.72016L44.4551 4.57231C42.6022 2.93273 40.1621 1.93253 37.4955 1.93253C36.6443 1.93253 35.8179 2.02562 35.03 2.2126L34.6631 2.29965L34.8861 2.60369C34.8902 2.60928 34.8946 2.61532 34.8994 2.62179C35.2244 3.06478 37.048 5.55033 38.6945 8.57535L38.7984 8.76622L39.0019 8.68992C42.7042 7.30157 44.2904 5.19401 44.4942 4.90292ZM33.3354 2.99565L33.213 2.83244L33.0286 2.91963C30.0962 4.30583 27.8963 7.01156 27.2161 10.2659L27.1531 10.567H27.4608C27.4687 10.567 27.4778 10.567 27.4879 10.5671C28.0687 10.5675 32.2613 10.5711 37.0002 9.30912L37.3124 9.22597L37.1535 8.94461C35.442 5.91358 33.6135 3.36649 33.3354 2.99565ZM27.2468 11.8632L26.9895 11.8557V12.1131V12.1137V12.1144V12.115V12.1156V12.1162V12.1168V12.1174V12.118V12.1186V12.1192V12.1198V12.1205V12.1211V12.1217V12.1223V12.1229V12.1235V12.1241V12.1247V12.1253V12.1259V12.1266V12.1272V12.1278V12.1284V12.129V12.1296V12.1302V12.1308V12.1314V12.132V12.1327V12.1333V12.1339V12.1345V12.1351V12.1357V12.1363V12.1369V12.1375V12.1381V12.1388V12.1394V12.14V12.1406V12.1412V12.1418V12.1424V12.143V12.1436V12.1442V12.1449V12.1455V12.1461V12.1467V12.1473V12.1479V12.1485V12.1491V12.1497V12.1503V12.151V12.1516V12.1522V12.1528V12.1534V12.154V12.1546V12.1552V12.1558V12.1564V12.1571V12.1577V12.1583V12.1589V12.1595V12.1601V12.1607V12.1613V12.1619V12.1625V12.1632V12.1638V12.1644V12.165V12.1656V12.1662V12.1668V12.1674V12.168V12.1686V12.1693V12.1699V12.1705V12.1711V12.1717V12.1723V12.1729V12.1735V12.1741V12.1747V12.1754V12.176V12.1766V12.1772V12.1778V12.1784V12.179V12.1796V12.1802V12.1808V12.1815V12.1821V12.1827V12.1833V12.1839V12.1845V12.1851V12.1857V12.1863V12.1869V12.1876V12.1882V12.1888V12.1894V12.19V12.1906V12.1912V12.1918V12.1924V12.193V12.1937V12.1943V12.1949V12.1955V12.1961V12.1967V12.1973V12.1979V12.1985V12.1991V12.1998V12.2004V12.201V12.2016V12.2022V12.2028V12.2034V12.204V12.2046V12.2052V12.2059V12.2065V12.2071V12.2077V12.2083V12.2089V12.2095V12.2101V12.2107V12.2113V12.212V12.2126V12.2132V12.2138V12.2144V12.215V12.2156V12.2162V12.2168V12.2174V12.2181V12.2187V12.2193V12.2199V12.2205V12.2211V12.2217V12.2223V12.2229V12.2235V12.2242V12.2248V12.2254V12.226V12.2266V12.2272V12.2278V12.2284V12.229V12.2296V12.2303V12.2309V12.2315V12.2321V12.2327V12.2333V12.2339V12.2345V12.2351V12.2357V12.2364V12.237V12.2376V12.2382V12.2388V12.2394V12.24V12.2406V12.2412V12.2418V12.2425V12.2431V12.2437V12.2443V12.2449V12.2455V12.2461V12.2467V12.2473V12.2479V12.2486V12.2492V12.2498V12.2504V12.251V12.2516V12.2522V12.2528V12.2534V12.254V12.2547V12.2553V12.2559V12.2565V12.2571V12.2577V12.2583V12.2589V12.2595V12.2601V12.2608V12.2614V12.262V12.2626V12.2632V12.2638V12.2644V12.265V12.2656V12.2662V12.2669V12.2675V12.2681V12.2687V12.2693V12.2699V12.2705V12.2711V12.2717V12.2723V12.273V12.2736V12.2742V12.2748V12.2754V12.276V12.2766V12.2772V12.2778V12.2784V12.2791V12.2797V12.2803V12.2809V12.2815V12.2821V12.2827V12.2833V12.2839V12.2845V12.2852V12.2858V12.2864V12.287V12.2876V12.2882V12.2888V12.2894V12.29V12.2906V12.2913V12.2919V12.2925V12.2931V12.2937V12.2943V12.2949V12.2955V12.2961V12.2967V12.2974V12.298V12.2986V12.2992V12.2998V12.3004V12.301V12.3016V12.3022V12.3029V12.3035V12.3041V12.3047V12.3053V12.3059V12.3065V12.3071V12.3077V12.3083V12.309V12.3096V12.3102V12.3108V12.3114V12.312V12.3126V12.3132V12.3138V12.3144V12.3151V12.3157V12.3163V12.3169V12.3175V12.3181V12.3187V12.3193V12.3199V12.3205V12.3212V12.3218V12.3224V12.323V12.3236V12.3242V12.3248V12.3254V12.326V12.3266V12.3273V12.3279V12.3285V12.3291V12.3297V12.3303V12.3309V12.3315V12.3321V12.3327V12.3334V12.334V12.3346V12.3352V12.3358V12.3364V12.337V12.3376V12.3382V12.3389V12.3395V12.3401V12.3407V12.3413V12.3419V12.3425V12.3431V12.3437V12.3443V12.345V12.3456V12.3462V12.3468V12.3474V12.348V12.3486V12.3492V12.3498V12.3504V12.3511V12.3517V12.3523V12.3529V12.3535V12.3541V12.3547V12.3553V12.3559V12.3565V12.3572V12.3578V12.3584V12.359V12.3596V12.3602V12.3608V12.3614V12.362V12.3626V12.3633V12.3639V12.3645V12.3651V12.3657V12.3663V12.3669V12.3675V12.3681V12.3688V12.3694V12.37V12.3706V12.3712V12.3718V12.3724V12.373V12.3736V12.3742V12.3749V12.3755V12.3761V12.3767V12.3773V12.3779V12.3785V12.3791V12.3797V12.3803V12.381V12.3816V12.3822V12.3828V12.3834V12.384V12.3846V12.3852V12.3858V12.3864V12.3871V12.3877V12.3883V12.3889V12.3895V12.3901V12.3907V12.3913V12.3919V12.3926V12.3932V12.3938V12.3944V12.395V12.3956V12.3962V12.3968V12.3974V12.398V12.3987V12.3993V12.3999V12.4005V12.4011V12.4017V12.4023V12.4029V12.4035V12.4041V12.4048V12.4054V12.406V12.4066V12.4072V12.4078V12.4084V12.409V12.4096V12.4103V12.4109V12.4115V12.4121V12.4127V12.4133V12.4139V12.4145V12.4151V12.4157V12.4164V12.417V12.4176V12.4182V12.4188V12.4194V12.42V12.4206V12.4212V12.4218V12.4225V12.4231V12.4237V12.4243V12.4249V12.4255C26.9895 15.119 28.0164 17.5857 29.6827 19.4386L29.9089 19.6901L30.083 19.4001C30.313 19.0166 33.0831 14.4309 38.2726 12.7553C38.3349 12.7366 38.4005 12.7179 38.4681 12.6986L38.4687 12.6984C38.5368 12.6789 38.6067 12.659 38.6737 12.6389L38.9456 12.5573L38.8303 12.2979C38.5688 11.7096 38.2931 11.1187 37.9903 10.5396L37.8947 10.3566L37.6969 10.416C32.6193 11.9405 27.6784 11.8759 27.2468 11.8632ZM30.984 20.3992L30.8964 20.5807L31.0551 20.7048C32.8287 22.0917 35.0691 22.9184 37.4955 22.9184C38.9481 22.9184 40.3354 22.6251 41.6032 22.078L41.7842 21.9998L41.7505 21.8056C41.5929 20.8993 41.0037 17.7449 39.5508 13.9883L39.4518 13.7322L39.209 13.8533C39.2082 13.8535 39.2073 13.8538 39.2061 13.8542L39.2051 13.8545C39.1957 13.8577 39.1789 13.8633 39.1579 13.8727C33.3038 15.921 31.1828 19.9874 30.984 20.3992ZM42.9625 20.9525L43.0264 21.3355L43.3486 21.1189C45.7079 19.5327 47.3887 17.0127 47.8423 14.0908L47.8747 13.882L47.6743 13.8152C47.3049 13.6921 44.4498 12.8464 41.1788 13.3629L40.8791 13.4102L40.9829 13.6953C42.3166 17.3598 42.86 20.3374 42.9625 20.9525ZM25.7455 12.4125C25.7455 5.9258 31.0088 0.66246 37.4955 0.66246C43.9693 0.66246 49.2455 5.92598 49.2455 12.4125C49.2455 18.899 43.9693 24.1625 37.4955 24.1625C31.0088 24.1625 25.7455 18.8991 25.7455 12.4125Z" stroke="#D7AEF2" stroke-width="0.5"/>
<path d="M57.6158 21.114H57.8658V20.864V9.40777V9.15777H57.6158H54.0533H53.8033V9.40777V20.864V21.114H54.0533H57.6158ZM70.947 21.114H71.197V20.864V14.5781C71.197 13.0304 71.0328 11.6031 70.3751 10.56C69.7007 9.49045 68.5407 8.87184 66.6767 8.87184C65.2372 8.87184 64.1586 9.49706 63.5142 10.2409V9.40777V9.15777H63.2642H59.8517H59.6017V9.40777V20.864V21.114H59.8517H63.4049H63.6549V20.864V15.2015C63.6549 14.4583 63.7271 13.7786 63.996 13.2893C64.1272 13.0506 64.3042 12.8595 64.5446 12.726C64.7865 12.5918 65.1073 12.5078 65.5377 12.5078C65.9548 12.5078 66.2461 12.6048 66.455 12.7508C66.6645 12.8971 66.8125 13.1075 66.9165 13.3709C67.1302 13.912 67.1392 14.6208 67.1392 15.2953V20.864V21.114H67.3892H70.947ZM52.2674 0.66246H72.7189C73.5671 0.66246 74.2455 1.33045 74.2455 2.14215V22.6828C74.2455 23.4902 73.5667 24.1625 72.7189 24.1625H52.2674C51.4209 24.1625 50.7455 23.4915 50.7455 22.6781V2.14215C50.7455 1.3296 51.42 0.66246 52.2674 0.66246ZM53.5174 5.78434C53.5174 7.06184 54.5531 8.09684 55.8345 8.09684C57.112 8.09684 58.147 7.05641 58.147 5.78434C58.147 4.5072 57.1117 3.47184 55.8345 3.47184C54.5531 3.47184 53.5174 4.50683 53.5174 5.78434Z" stroke="#D7AEF2" stroke-width="0.5"/>
</svg>
