<svg width="70" height="61" viewBox="0 0 70 61" fill="none" xmlns="http://www.w3.org/2000/svg">
<g clip-path="url(#clip0_282_3372)">
<path d="M21.285 33.4354L39.2334 3.60907C39.3902 3.3492 39.4729 3.05298 39.4729 2.75126C39.4729 2.44953 39.3902 2.15333 39.2333 1.89347C39.0753 1.63161 38.8496 1.41503 38.5788 1.26549C38.3061 1.11469 37.9981 1.0355 37.6848 1.03564H1.78814C1.47482 1.0355 1.1668 1.11469 0.89409 1.26549C0.623322 1.41504 0.397587 1.63162 0.239568 1.89346C0.0827259 2.15333 0 2.44954 0 2.75126C0 3.05299 0.0827259 3.3492 0.239568 3.60906L18.1879 33.4354C18.3459 33.6972 18.5716 33.9138 18.8424 34.0633C19.1152 34.214 19.4232 34.2932 19.7365 34.2932C20.0498 34.2932 20.3578 34.214 20.6305 34.0633C20.9013 33.9138 21.127 33.6972 21.285 33.4354V33.4354Z" fill="#5626C4"/>
<path d="M18.1879 29.14L9.92094 42.8779C9.76411 43.1378 9.6814 43.434 9.6814 43.7357C9.6814 44.0374 9.76411 44.3336 9.92094 44.5935C10.0789 44.8553 10.3047 45.0719 10.5754 45.2214C10.8482 45.3723 11.1562 45.4515 11.4695 45.4513H28.0033C28.3167 45.4515 28.6247 45.3723 28.8974 45.2214C29.1682 45.0719 29.3939 44.8553 29.5519 44.5935C29.7088 44.3336 29.7915 44.0374 29.7915 43.7357C29.7915 43.434 29.7088 43.1378 29.5519 42.8779L21.285 29.14C21.127 28.8782 20.9013 28.6617 20.6305 28.5121C20.3577 28.3614 20.0498 28.2822 19.7364 28.2822C19.4231 28.2822 19.1151 28.3614 18.8424 28.5121C18.5716 28.6616 18.3459 28.8782 18.1879 29.14Z" fill="#E60576"/>
<path d="M21.2851 29.14C21.127 28.8782 20.9013 28.6617 20.6306 28.5121C20.3578 28.3614 20.0498 28.2822 19.7365 28.2822C19.4232 28.2822 19.1152 28.3614 18.8424 28.5121C18.5717 28.6616 18.3459 28.8782 18.1879 29.14L16.8955 31.2878L18.1879 33.4356C18.3459 33.6974 18.5717 33.914 18.8424 34.0636C19.1152 34.2142 19.4232 34.2934 19.7365 34.2934C20.0498 34.2934 20.3578 34.2142 20.6306 34.0636C20.9013 33.914 21.127 33.6974 21.2851 33.4356L22.5775 31.2878L21.2851 29.14Z" fill="#303030"/>
<path d="M42.4588 0.972658H52.1644C52.6369 0.971965 53.0908 1.15237 53.4288 1.47515C53.5942 1.63314 53.7258 1.82181 53.8157 2.03011C53.9057 2.23842 53.9522 2.46218 53.9525 2.68827V45.4512H42.4588C41.9863 45.4519 41.5324 45.2715 41.1944 44.9488C41.0289 44.7908 40.8974 44.6021 40.8075 44.3938C40.7176 44.1855 40.671 43.9618 40.6707 43.7357V2.68827C40.671 2.46217 40.7175 2.23842 40.8075 2.03012C40.8974 1.82181 41.0289 1.63314 41.1944 1.47514C41.5324 1.15236 41.9863 0.971963 42.4588 0.972658Z" fill="#E60576"/>
<path d="M70.0001 34.4236V43.7354C69.9997 43.9615 69.9532 44.1853 69.8633 44.3936C69.7733 44.6019 69.6418 44.7906 69.4763 44.9486C69.1383 45.2713 68.6844 45.4517 68.2119 45.4511H42.4588C41.9863 45.4517 41.5324 45.2713 41.1944 44.9486C41.0289 44.7906 40.8974 44.6019 40.8075 44.3936C40.7175 44.1853 40.671 43.9615 40.6707 43.7354V32.708H68.2119C68.6844 32.7073 69.1383 32.8877 69.4763 33.2105C69.6417 33.3685 69.7733 33.5571 69.8632 33.7654C69.9532 33.9737 69.9997 34.1975 70.0001 34.4236Z" fill="#5626C4"/>
<path d="M40.6707 32.708H53.9525V45.451H42.4588C41.9863 45.4517 41.5324 45.2713 41.1944 44.9486C41.029 44.7906 40.8974 44.6019 40.8075 44.3936C40.7176 44.1853 40.671 43.9616 40.6707 43.7355L40.6707 32.708Z" fill="#2CCCC3"/>
<path d="M11.3877 52.2705L7.77691 60.9724H6.78642L7.82705 58.46L5.0813 52.2705H6.08426L8.30346 57.2957L10.3849 52.2705L11.3877 52.2705Z" fill="#2CCCC3"/>
<path d="M18.283 55.4576C18.2565 56.0701 18.0465 56.6615 17.679 57.1583C17.3116 57.6551 16.8029 58.0354 16.2162 58.2519C15.6294 58.4684 14.9906 58.5116 14.3789 58.3762C13.7673 58.2407 13.2098 57.9326 12.7759 57.49C12.3419 57.0474 12.0505 56.4899 11.938 55.8868C11.8254 55.2837 11.8966 54.6616 12.1427 54.0977C12.3888 53.5339 12.799 53.0531 13.3223 52.7152C13.8456 52.3773 14.459 52.1972 15.0861 52.1973C15.516 52.203 15.9404 52.2922 16.3347 52.4597C16.729 52.6273 17.0852 52.8698 17.3827 53.1732C17.6802 53.4766 17.913 53.8348 18.0676 54.227C18.2222 54.6192 18.2954 55.0375 18.283 55.4576V55.4576ZM12.8918 55.4576C12.8918 57.0876 14.0956 57.872 15.0861 57.872C16.089 57.872 17.2801 57.0876 17.2801 55.4576C17.2801 53.8276 16.089 53.0553 15.0861 53.0553C14.0956 53.0553 12.8918 53.8276 12.8918 55.4576H12.8918Z" fill="#2CCCC3"/>
<path d="M25.3038 52.2705V58.6438H24.3008V57.0996C24.1354 57.5757 23.8214 57.9891 23.403 58.2816C22.9846 58.574 22.4829 58.7307 21.9686 58.7297C20.7025 58.7297 19.5364 57.9943 19.5364 56.0209V52.2705H20.5393V55.9965C20.5393 57.3447 21.2038 57.8716 22.1193 57.8716C23.2851 57.8716 24.1127 56.7685 24.3008 55.9107V52.2705H25.3038Z" fill="#2CCCC3"/>
<path d="M32.6003 54.9304V58.644H31.5973V54.967C31.5973 53.6066 30.87 53.0673 29.9296 53.0673C28.7261 53.0673 27.8736 54.1704 27.7481 54.9179V58.644H26.7451V52.2707H27.7481V53.7905C27.8234 53.3123 28.6635 52.2095 30.1052 52.2095C31.3464 52.2095 32.6003 52.9693 32.6003 54.9304Z" fill="#2CCCC3"/>
<path d="M37.0128 53.0305C36.3733 53.0305 35.947 53.3982 35.947 53.8518C35.947 54.2563 36.1603 54.5381 36.8749 54.7832L37.5394 55.016C38.6177 55.3837 39.4578 55.7761 39.4578 56.8914C39.4578 58.0803 38.1789 58.7299 37.063 58.7299C35.9597 58.7299 34.8438 58.1172 34.5554 57.0631L35.4332 56.8302C35.5601 57.149 35.785 57.4215 36.0768 57.6103C36.3687 57.799 36.7132 57.8948 37.063 57.8843C37.715 57.8843 38.4172 57.5166 38.4172 56.8914C38.4172 56.352 38.0158 56.0701 37.3513 55.8373L36.599 55.5801C35.408 55.1634 34.9191 54.6852 34.9191 53.8639C34.9191 52.8957 35.8719 52.1971 37.0004 52.1971C37.469 52.179 37.9324 52.299 38.3304 52.5417C38.7284 52.7843 39.0425 53.1383 39.232 53.5577L38.3169 53.7906C38.1997 53.5529 38.0136 53.3541 37.7817 53.2189C37.5499 53.0838 37.2825 53.0183 37.0128 53.0305V53.0305Z" fill="#2CCCC3"/>
<path d="M46.7291 55.4576C46.7026 56.0701 46.4926 56.6615 46.1251 57.1582C45.7577 57.655 45.249 58.0353 44.6623 58.2519C44.0756 58.4684 43.4367 58.5116 42.8251 58.3762C42.2134 58.2408 41.656 57.9327 41.222 57.4901C40.788 57.0476 40.4966 56.4901 40.384 55.887C40.2714 55.2839 40.3426 54.6618 40.5887 54.0979C40.8348 53.534 41.2449 53.0533 41.7682 52.7154C42.2914 52.3775 42.9047 52.1973 43.5319 52.1973C43.9618 52.2029 44.3862 52.2921 44.7805 52.4597C45.1748 52.6272 45.5311 52.8697 45.8287 53.1731C46.1262 53.4765 46.359 53.8348 46.5136 54.2269C46.6682 54.6191 46.7414 55.0375 46.7291 55.4576V55.4576ZM41.3378 55.4576C41.3378 57.0876 42.5413 57.872 43.5318 57.872C44.5351 57.872 45.7261 57.0876 45.7261 55.4576C45.7261 53.8276 44.5351 53.0553 43.5318 53.0553C42.5413 53.0553 41.3379 53.8276 41.3379 55.4576H41.3378Z" fill="#2CCCC3"/>
<path d="M54.1258 55.4576C54.0993 56.0701 53.8893 56.6615 53.5218 57.1582C53.1544 57.655 52.6457 58.0353 52.059 58.2519C51.4723 58.4684 50.8334 58.5116 50.2218 58.3762C49.6102 58.2408 49.0527 57.9327 48.6187 57.4901C48.1848 57.0476 47.8934 56.4901 47.7808 55.887C47.6682 55.2839 47.7393 54.6618 47.9854 54.0979C48.2315 53.534 48.6416 53.0533 49.1649 52.7154C49.6881 52.3775 50.3014 52.1973 50.9286 52.1973C51.3585 52.2029 51.7829 52.2921 52.1772 52.4597C52.5716 52.6272 52.9278 52.8697 53.2254 53.1731C53.5229 53.4765 53.7557 53.8348 53.9103 54.2269C54.0649 54.6191 54.1382 55.0375 54.1258 55.4576V55.4576ZM48.7346 55.4576C48.7346 57.0876 49.9381 57.872 50.9286 57.872C51.9318 57.872 53.1228 57.0876 53.1228 55.4576C53.1228 53.8276 51.9318 53.0553 50.9286 53.0553C49.9381 53.0553 48.7346 53.8276 48.7346 55.4576H48.7346Z" fill="#2CCCC3"/>
<path d="M57.1435 58.6442H56.2603V51.1831H57.1435V58.6442Z" fill="#5626C4"/>
<path d="M59.455 51.9825H58.572V51.1831H59.455V51.9825ZM59.455 58.6442H58.572V53.1018H59.455V58.6442Z" fill="#5626C4"/>
<path d="M69.7699 55.425V58.644H68.8976V55.393C68.8976 54.274 68.2433 53.7944 67.4803 53.7944C66.5315 53.7944 65.9647 54.5191 65.7682 55.3505V58.644H64.8959V55.393C64.8959 54.274 64.2091 53.7944 63.4458 53.7944C62.4319 53.7944 61.9085 54.5936 61.7668 55.3505V58.644H60.8945V53.1015H61.7668V54.4338C61.8515 54.0286 62.0815 53.6663 62.4154 53.4122C62.7492 53.1582 63.1649 53.0291 63.5875 53.0482C64.0314 53.0297 64.4693 53.1541 64.8337 53.4025C65.1982 53.6509 65.4691 54.0095 65.6048 54.423C65.7514 54.0142 66.0265 53.6611 66.3907 53.4141C66.7549 53.1672 67.1896 53.0392 67.6327 53.0482C68.636 53.0482 69.7699 53.6451 69.7699 55.425Z" fill="#5626C4"/>
</g>
<defs>
<clipPath id="clip0_282_3372">
<rect width="70" height="60" fill="white" transform="translate(0 0.972656)"/>
</clipPath>
</defs>
</svg>
