<svg width="24" height="24" viewBox="0 0 24 24" fill="none" xmlns="http://www.w3.org/2000/svg">
<path d="M20.1195 5.37283L19.9203 5.13023L19.7284 5.37859C19.5228 5.64472 17.8375 7.8213 14.1184 9.33461L13.8709 9.4353L13.9878 9.67555C14.2206 10.1541 14.4529 10.6575 14.659 11.1469L14.6596 11.1484C14.6862 11.2105 14.7149 11.282 14.7446 11.3562C14.7897 11.469 14.8372 11.5877 14.8836 11.6883L14.9603 11.8544L15.1419 11.8316C18.4173 11.419 21.6761 12.0533 22.1617 12.1478C22.1753 12.1504 22.1866 12.1526 22.1958 12.1544L22.4963 12.2121L22.493 11.9062C22.4663 9.43986 21.5862 7.15961 20.1195 5.37283ZM18.9987 4.49046L19.1267 4.3077L18.9596 4.15985C17.1067 2.52027 14.6666 1.52007 12 1.52007C11.1488 1.52007 10.3224 1.61316 9.53448 1.80014L9.16763 1.88719L9.3906 2.19123C9.39471 2.19682 9.39913 2.20286 9.40388 2.20933C9.7289 2.65232 11.5525 5.13787 13.199 8.16289L13.3029 8.35376L13.5064 8.27746C17.2087 6.8891 18.7949 4.78155 18.9987 4.49046ZM7.83995 2.58319L7.71755 2.41998L7.53311 2.50717C4.60072 3.89337 2.40078 6.5991 1.72058 9.85343L1.65764 10.1546H1.96529C1.97323 10.1546 1.98229 10.1546 1.99245 10.1546C2.57317 10.1551 6.7658 10.1587 11.5047 8.89666L11.8169 8.81351L11.658 8.53215C9.94655 5.50112 8.11806 2.95403 7.83995 2.58319ZM1.75136 11.4508L1.49404 11.4432V11.7007V11.7013V11.7019V11.7025V11.7031V11.7037V11.7043V11.7049V11.7056V11.7062V11.7068V11.7074V11.708V11.7086V11.7092V11.7098V11.7104V11.711V11.7117V11.7123V11.7129V11.7135V11.7141V11.7147V11.7153V11.7159V11.7165V11.7171V11.7178V11.7184V11.719V11.7196V11.7202V11.7208V11.7214V11.722V11.7226V11.7232V11.7239V11.7245V11.7251V11.7257V11.7263V11.7269V11.7275V11.7281V11.7287V11.7293V11.73V11.7306V11.7312V11.7318V11.7324V11.733V11.7336V11.7342V11.7348V11.7354V11.7361V11.7367V11.7373V11.7379V11.7385V11.7391V11.7397V11.7403V11.7409V11.7415V11.7422V11.7428V11.7434V11.744V11.7446V11.7452V11.7458V11.7464V11.747V11.7476V11.7483V11.7489V11.7495V11.7501V11.7507V11.7513V11.7519V11.7525V11.7531V11.7537V11.7544V11.755V11.7556V11.7562V11.7568V11.7574V11.758V11.7586V11.7592V11.7598V11.7605V11.7611V11.7617V11.7623V11.7629V11.7635V11.7641V11.7647V11.7653V11.7659V11.7666V11.7672V11.7678V11.7684V11.769V11.7696V11.7702V11.7708V11.7714V11.772V11.7727V11.7733V11.7739V11.7745V11.7751V11.7757V11.7763V11.7769V11.7775V11.7781V11.7788V11.7794V11.78V11.7806V11.7812V11.7818V11.7824V11.783V11.7836V11.7842V11.7849V11.7855V11.7861V11.7867V11.7873V11.7879V11.7885V11.7891V11.7897V11.7903V11.791V11.7916V11.7922V11.7928V11.7934V11.794V11.7946V11.7952V11.7958V11.7964V11.7971V11.7977V11.7983V11.7989V11.7995V11.8001V11.8007V11.8013V11.8019V11.8025V11.8032V11.8038V11.8044V11.805V11.8056V11.8062V11.8068V11.8074V11.808V11.8086V11.8093V11.8099V11.8105V11.8111V11.8117V11.8123V11.8129V11.8135V11.8141V11.8147V11.8154V11.816V11.8166V11.8172V11.8178V11.8184V11.819V11.8196V11.8202V11.8208V11.8215V11.8221V11.8227V11.8233V11.8239V11.8245V11.8251V11.8257V11.8263V11.8269V11.8276V11.8282V11.8288V11.8294V11.83V11.8306V11.8312V11.8318V11.8324V11.833V11.8337V11.8343V11.8349V11.8355V11.8361V11.8367V11.8373V11.8379V11.8385V11.8391V11.8398V11.8404V11.841V11.8416V11.8422V11.8428V11.8434V11.844V11.8446V11.8452V11.8459V11.8465V11.8471V11.8477V11.8483V11.8489V11.8495V11.8501V11.8507V11.8513V11.852V11.8526V11.8532V11.8538V11.8544V11.855V11.8556V11.8562V11.8568V11.8574V11.8581V11.8587V11.8593V11.8599V11.8605V11.8611V11.8617V11.8623V11.8629V11.8635V11.8642V11.8648V11.8654V11.866V11.8666V11.8672V11.8678V11.8684V11.869V11.8696V11.8703V11.8709V11.8715V11.8721V11.8727V11.8733V11.8739V11.8745V11.8751V11.8757V11.8764V11.877V11.8776V11.8782V11.8788V11.8794V11.88V11.8806V11.8812V11.8818V11.8825V11.8831V11.8837V11.8843V11.8849V11.8855V11.8861V11.8867V11.8873V11.8879V11.8886V11.8892V11.8898V11.8904V11.891V11.8916V11.8922V11.8928V11.8934V11.8941V11.8947V11.8953V11.8959V11.8965V11.8971V11.8977V11.8983V11.8989V11.8995V11.9002V11.9008V11.9014V11.902V11.9026V11.9032V11.9038V11.9044V11.905V11.9056V11.9063V11.9069V11.9075V11.9081V11.9087V11.9093V11.9099V11.9105V11.9111V11.9117V11.9124V11.913V11.9136V11.9142V11.9148V11.9154V11.916V11.9166V11.9172V11.9178V11.9185V11.9191V11.9197V11.9203V11.9209V11.9215V11.9221V11.9227V11.9233V11.9239V11.9246V11.9252V11.9258V11.9264V11.927V11.9276V11.9282V11.9288V11.9294V11.9301V11.9307V11.9313V11.9319V11.9325V11.9331V11.9337V11.9343V11.9349V11.9355V11.9362V11.9368V11.9374V11.938V11.9386V11.9392V11.9398V11.9404V11.941V11.9416V11.9423V11.9429V11.9435V11.9441V11.9447V11.9453V11.9459V11.9465V11.9471V11.9477V11.9484V11.949V11.9496V11.9502V11.9508V11.9514V11.952V11.9526V11.9532V11.9538V11.9545V11.9551V11.9557V11.9563V11.9569V11.9575V11.9581V11.9587V11.9593V11.96V11.9606V11.9612V11.9618V11.9624V11.963V11.9636V11.9642V11.9648V11.9654V11.9661V11.9667V11.9673V11.9679V11.9685V11.9691V11.9697V11.9703V11.9709V11.9715V11.9722V11.9728V11.9734V11.974V11.9746V11.9752V11.9758V11.9764V11.977V11.9776V11.9783V11.9789V11.9795V11.9801V11.9807V11.9813V11.9819V11.9825V11.9831V11.9838V11.9844V11.985V11.9856V11.9862V11.9868V11.9874V11.988V11.9886V11.9892V11.9899V11.9905V11.9911V11.9917V11.9923V11.9929V11.9935V11.9941V11.9947V11.9953V11.996V11.9966V11.9972V11.9978V11.9984V11.999V11.9996V12.0002V12.0008V12.0015V12.0021V12.0027V12.0033V12.0039V12.0045V12.0051V12.0057V12.0063V12.0069V12.0076V12.0082V12.0088V12.0094V12.01V12.0106V12.0112V12.0118V12.0124V12.0131C1.49404 14.7066 2.5209 17.1732 4.18721 19.0261L4.41342 19.2777L4.58747 18.9876C4.81754 18.6042 7.58761 14.0184 12.7771 12.3428C12.8394 12.3242 12.9051 12.3054 12.9726 12.2861L12.9732 12.2859C13.0413 12.2665 13.1112 12.2465 13.1782 12.2264L13.4501 12.1448L13.3348 11.8854C13.0733 11.2971 12.7976 10.7062 12.4948 10.1271L12.3992 9.94416L12.2014 10.0035C7.12386 11.5281 2.18292 11.4634 1.75136 11.4508ZM5.48853 19.9867L5.40091 20.1682L5.55967 20.2924C7.33324 21.6792 9.57361 22.506 12 22.506C13.4526 22.506 14.8399 22.2127 16.1077 21.6655L16.2888 21.5874L16.255 21.3931C16.0974 20.4869 15.5082 17.3324 14.0553 13.5758L13.9563 13.3197L13.7135 13.4408C13.7128 13.441 13.7118 13.4414 13.7106 13.4418L13.7097 13.4421C13.7002 13.4452 13.6834 13.4508 13.6624 13.4602C7.80828 15.5085 5.68736 19.5749 5.48853 19.9867ZM17.4671 20.54L17.5309 20.9231L17.8531 20.7064C20.2124 19.1202 21.8932 16.6002 22.3468 13.6783L22.3792 13.4696L22.1789 13.4028C21.8095 13.2796 18.9543 12.434 15.6833 12.9504L15.3836 12.9978L15.4874 13.2829C16.8211 16.9474 17.3646 19.9249 17.4671 20.54ZM0.25 12C0.25 5.51334 5.51334 0.25 12 0.25C18.4738 0.25 23.75 5.51352 23.75 12C23.75 18.4865 18.4738 23.75 12 23.75C5.51334 23.75 0.25 18.4867 0.25 12Z" stroke="#E60576" stroke-width="0.5"/>
</svg>
