<svg width="24" height="24" viewBox="0 0 24 24" fill="none" xmlns="http://www.w3.org/2000/svg">
<path d="M7.12031 20.7022H7.37031V20.4522V8.99592V8.74592H7.12031H3.55781H3.30781V8.99592V20.4522V20.7022H3.55781H7.12031ZM20.4516 20.7022H20.7016V20.4522V14.1662C20.7016 12.6186 20.5373 11.1912 19.8796 10.1481C19.2053 9.0786 18.0452 8.45999 16.1813 8.45999C14.7417 8.45999 13.6632 9.08521 13.0187 9.82901V8.99592V8.74592H12.7687H9.35625H9.10625V8.99592V20.4522V20.7022H9.35625H12.9094H13.1594V20.4522V14.7897C13.1594 14.0464 13.2316 13.3667 13.5005 12.8775C13.6317 12.6388 13.8087 12.4476 14.0491 12.3142C14.291 12.18 14.6119 12.0959 15.0422 12.0959C15.4593 12.0959 15.7507 12.193 15.9596 12.3389C16.169 12.4852 16.317 12.6957 16.421 12.959C16.6347 13.5002 16.6437 14.209 16.6437 14.8834V20.4522V20.7022H16.8937H20.4516ZM1.77187 0.25061H22.2234C23.0716 0.25061 23.75 0.918602 23.75 1.7303V22.2709C23.75 23.0784 23.0712 23.7506 22.2234 23.7506H1.77187C0.925447 23.7506 0.25 23.0797 0.25 22.2662V1.7303C0.25 0.917754 0.924556 0.25061 1.77187 0.25061ZM3.02188 5.37249C3.02188 6.64999 4.05761 7.68499 5.33906 7.68499C6.61657 7.68499 7.65156 6.64456 7.65156 5.37249C7.65156 4.09535 6.6162 3.05999 5.33906 3.05999C4.05761 3.05999 3.02188 4.09498 3.02188 5.37249Z" stroke="#E60576" stroke-width="0.5"/>
</svg>
