<svg width="100" height="66" viewBox="0 0 100 66" fill="none" xmlns="http://www.w3.org/2000/svg">
<path d="M30.4072 47.9405L56.0477 4.353C56.2719 3.97187 56.3899 3.53953 56.3899 3.09943C56.3899 2.65933 56.2719 2.22699 56.0476 1.84586C55.8234 1.46472 55.501 1.14823 55.1126 0.928178C54.7243 0.708131 54.2838 0.592285 53.8354 0.592285H2.55449C2.10608 0.592285 1.66558 0.708131 1.27725 0.928178C0.888914 1.14823 0.56644 1.46472 0.342237 1.84586C0.118034 2.22699 6.68367e-08 2.65933 0 3.09943C-6.68366e-08 3.53953 0.118033 3.97187 0.342237 4.353L25.9827 47.9405C26.2069 48.3216 26.5294 48.6381 26.9177 48.8582C27.306 49.0782 27.7465 49.1941 28.1949 49.1941C28.6433 49.1941 29.0839 49.0782 29.4722 48.8582C29.8605 48.6381 30.183 48.3216 30.4072 47.9405Z" fill="#5626C4"/>
<path d="M25.9827 41.6631L14.1728 61.7393C13.9486 62.1204 13.8306 62.5528 13.8306 62.9929C13.8306 63.433 13.9486 63.8653 14.1728 64.2464C14.397 64.6276 14.7195 64.9441 15.1078 65.1641C15.4961 65.3842 15.9366 65.5 16.3851 65.5H40.0048C40.4532 65.5 40.8937 65.3842 41.282 65.1641C41.6703 64.9441 41.9928 64.6276 42.217 64.2464C42.4412 63.8653 42.5593 63.433 42.5593 62.9929C42.5593 62.5528 42.4412 62.1204 42.217 61.7393L30.4072 41.6631C30.183 41.282 29.8605 40.9655 29.4722 40.7454C29.0838 40.5254 28.6433 40.4095 28.1949 40.4095C27.7465 40.4095 27.306 40.5254 26.9177 40.7454C26.5293 40.9655 26.2069 41.282 25.9827 41.6631Z" fill="#E60576"/>
<path d="M30.4072 41.6631C30.183 41.282 29.8605 40.9655 29.4722 40.7454C29.0838 40.5254 28.6433 40.4095 28.1949 40.4095C27.7465 40.4095 27.306 40.5254 26.9177 40.7454C26.5293 40.9655 26.2069 41.282 25.9827 41.6631L24.1364 44.8018L25.9827 47.9405C26.2069 48.3216 26.5293 48.6381 26.9177 48.8582C27.306 49.0782 27.7465 49.1941 28.1949 49.1941C28.6433 49.1941 29.0838 49.0782 29.4722 48.8582C29.8605 48.6381 30.183 48.3216 30.4072 47.9405L32.2535 44.8018L30.4072 41.6631Z" fill="#303030"/>
<path d="M60.6553 0.5H74.5204C75.1979 0.5 75.8476 0.764145 76.3267 1.23433C76.8058 1.70451 77.0749 2.34221 77.0749 3.00715V65.5H60.6553C59.9778 65.5 59.3281 65.2359 58.849 64.7657C58.37 64.2955 58.1008 63.6578 58.1008 62.9929V3.00715C58.1008 2.34221 58.37 1.70451 58.849 1.23433C59.3281 0.764145 59.9778 0.5 60.6553 0.5V0.5Z" fill="#E60576"/>
<path d="M100 49.3847V62.9928C100 63.6578 99.7309 64.2955 99.2518 64.7657C98.7728 65.2358 98.123 65.5 97.4455 65.5H60.6554C59.9779 65.5 59.3281 65.2358 58.8491 64.7657C58.37 64.2955 58.1009 63.6578 58.1009 62.9928V46.8776H97.4455C98.123 46.8776 98.7728 47.1417 99.2518 47.6119C99.7309 48.0821 100 48.7198 100 49.3847Z" fill="#5626C4"/>
<path d="M58.1008 46.8774H77.0749V65.4998H60.6553C59.9778 65.4998 59.3281 65.2357 58.849 64.7655C58.37 64.2953 58.1008 63.6576 58.1008 62.9927V46.8774Z" fill="#2CCCC3"/>
</svg>
